M48
; DRILL file {KiCad 5.1.10-88a1d61d58~90~ubuntu20.04.1} date Thu Oct  7 23:41:01 2021
; FORMAT={-:-/ absolute / inch / decimal}
; #@! TF.CreationDate,2021-10-07T23:41:01+03:00
; #@! TF.GenerationSoftware,Kicad,Pcbnew,5.1.10-88a1d61d58~90~ubuntu20.04.1
; #@! TF.FileFunction,Plated,1,2,PTH
FMAT,2
INCH
T1C0.0157
T2C0.0236
T3C0.0276
T4C0.0315
T5C0.0354
T6C0.0400
T7C0.0433
T8C0.0591
T9C0.0866
%
G90
G05
T1
X2.2677Y-3.4043
X2.779Y-5.073
X2.96Y-2.97
X4.1298Y-4.8888
X4.493Y-3.038
X4.933Y-6.934
X4.97Y-3.017
X5.47Y-3.017
X5.976Y-3.016
X6.474Y-3.005
X6.973Y-3.009
X7.015Y-4.053
X7.47Y-2.994
X7.979Y-2.997
X7.99Y-3.104
X8.233Y-3.124
X8.379Y-6.825
X8.572Y-3.045
X8.901Y-2.6916
X8.976Y-2.992
X9.126Y-7.039
X9.2538Y-2.5783
X9.3199Y-2.7294
X9.388Y-2.7298
X9.3984Y-2.663
X9.55Y-3.028
X9.8111Y-2.6475
X9.8457Y-2.6956
X9.8504Y-2.5989
X9.8607Y-2.6564
X9.89Y-6.821
X10.1279Y-2.4548
X10.3269Y-2.3716
X10.3558Y-2.5328
X10.5374Y-2.3861
X10.7028Y-2.5052
X10.8098Y-2.5617
X10.81Y-2.6138
X10.8432Y-2.5617
X10.8434Y-2.6138
X10.8767Y-2.5617
X10.8769Y-2.6138
X10.8872Y-2.6564
X10.8982Y-2.4422
X10.9102Y-2.5617
X10.9104Y-2.6138
X10.916Y-2.685
X10.9436Y-2.5617
X10.9438Y-2.6138
X10.9771Y-2.5617
X10.9773Y-2.6138
X10.9774Y-2.7086
X11.0106Y-2.5617
X11.0108Y-2.6138
X11.0332Y-3.0044
X11.0442Y-2.5617
X11.0442Y-2.6138
X11.1586Y-6.8143
X11.197Y-2.987
X11.2693Y-2.5741
X11.54Y-2.442
X11.573Y-4.147
X11.735Y-2.943
X11.855Y-2.6
X11.955Y-2.6
X12.05Y-2.6
X12.155Y-2.6
X12.304Y-2.603
X12.3965Y-2.8028
X12.4045Y-2.603
X12.4514Y-2.9017
X12.4799Y-3.4642
X12.4916Y-5.8133
X12.5051Y-2.603
X12.5051Y-2.8056
X12.5525Y-3.06
X12.5961Y-2.8056
X12.6953Y-2.8056
X12.712Y-2.4804
X12.85Y-4.639
X13.1233Y-6.6738
X13.202Y-3.474
T2
X11.1999Y-2.7128
X11.1999Y-2.7718
T3
X10.6318Y-2.3366
X10.6318Y-2.5374
X11.4184Y-2.4832
X11.4184Y-2.5814
X11.4184Y-2.6795
X11.4184Y-2.7787
X11.4184Y-2.88
X11.4184Y-2.9782
X11.4184Y-3.0763
X11.6184Y-2.4832
X11.6184Y-2.5814
X11.6184Y-2.6795
X11.6184Y-2.7787
X11.6184Y-2.88
X11.6184Y-2.9782
X11.6184Y-3.0763
T4
X2.5039Y-2.6565
X2.5039Y-2.8565
X2.6287Y-2.7216
X2.6287Y-2.9216
X2.7535Y-2.7867
X2.7535Y-2.9867
X2.8783Y-2.8518
X2.8783Y-3.0518
X3.0031Y-2.6565
X3.0031Y-2.8565
X3.1279Y-2.7216
X3.1279Y-2.9216
X3.2526Y-2.7867
X3.2526Y-2.9867
X3.3774Y-2.8518
X3.3774Y-3.0518
X3.5022Y-2.6565
X3.5022Y-2.8565
X3.627Y-2.7216
X3.627Y-2.9216
X3.7518Y-2.7867
X3.7518Y-2.9867
X3.8766Y-2.8518
X3.8766Y-3.0518
X4.0013Y-2.6565
X4.0013Y-2.8565
X4.1261Y-2.7216
X4.1261Y-2.9216
X4.2509Y-2.7867
X4.2509Y-2.9867
X4.3757Y-2.8518
X4.3757Y-3.0518
X4.5005Y-2.6565
X4.5005Y-2.8565
X4.6252Y-2.7216
X4.6252Y-2.9216
X4.75Y-2.7867
X4.75Y-2.9867
X4.8748Y-2.8518
X4.8748Y-3.0518
X4.9996Y-2.6565
X4.9996Y-2.8565
X5.1244Y-2.7216
X5.1244Y-2.9216
X5.2492Y-2.7867
X5.2492Y-2.9867
X5.3739Y-2.8518
X5.3739Y-3.0518
X5.4987Y-2.6565
X5.4987Y-2.8565
X5.6235Y-2.7216
X5.6235Y-2.9216
X5.7483Y-2.7867
X5.7483Y-2.9867
X5.8731Y-2.8518
X5.8731Y-3.0518
X5.9978Y-2.6565
X5.9978Y-2.8565
X6.1226Y-2.7216
X6.1226Y-2.9216
X6.2474Y-2.7867
X6.2474Y-2.9867
X6.3722Y-2.8518
X6.3722Y-3.0518
X6.497Y-2.6565
X6.497Y-2.8565
X6.6218Y-2.7216
X6.6218Y-2.9216
X6.7465Y-2.7867
X6.7465Y-2.9867
X6.8713Y-2.8518
X6.8713Y-3.0518
X6.9961Y-2.6565
X6.9961Y-2.8565
X7.1209Y-2.7216
X7.1209Y-2.9216
X7.2457Y-2.7867
X7.2457Y-2.9867
X7.3704Y-2.8518
X7.3704Y-3.0518
X7.4952Y-2.6565
X7.4952Y-2.8565
X7.62Y-2.7216
X7.62Y-2.9216
X7.7448Y-2.7867
X7.7448Y-2.9867
X7.8696Y-2.8518
X7.8696Y-3.0518
X7.9944Y-2.6565
X7.9944Y-2.8565
X8.1191Y-2.7216
X8.1191Y-2.9216
X8.2439Y-2.7867
X8.2439Y-2.9867
X8.3687Y-2.8518
X8.3687Y-3.0518
X8.4935Y-2.6565
X8.4935Y-2.8565
X8.6176Y-2.7216
X8.6176Y-2.9216
X8.7417Y-2.7867
X8.7417Y-2.9867
X8.8658Y-2.8518
X8.8658Y-3.0518
X8.9899Y-2.6565
X8.9899Y-2.8565
X9.1139Y-2.7216
X9.1139Y-2.9216
X9.2379Y-2.7867
X9.2379Y-2.9867
X9.362Y-2.8518
X9.362Y-3.0518
X9.486Y-2.6565
X9.486Y-2.8565
X9.6101Y-2.7216
X9.6101Y-2.9216
X9.7317Y-2.7867
X9.7317Y-2.9867
X9.8557Y-2.8518
X9.8557Y-3.0518
X9.9798Y-2.6565
X9.9798Y-2.8565
X10.1038Y-2.7216
X10.1038Y-2.9216
X10.2279Y-2.7867
X10.2279Y-2.9867
X10.3519Y-2.8518
X10.3519Y-3.0518
X10.476Y-2.6565
X10.476Y-2.8565
X10.6049Y-2.7216
X10.6049Y-2.9216
X10.7265Y-2.7867
X10.7265Y-2.9867
X10.8481Y-2.8518
X10.8481Y-3.0518
X11.1538Y-2.8804
X11.1538Y-3.0804
X11.2667Y-2.8804
X11.2667Y-3.0804
X11.8013Y-2.4074
X11.8013Y-3.0074
X11.9013Y-2.4074
X11.9013Y-3.0074
X12.0013Y-2.4074
X12.0013Y-3.0074
X12.1013Y-2.4074
X12.1013Y-3.0074
X12.2013Y-2.4074
X12.2013Y-3.0074
X12.3013Y-2.4074
X12.3013Y-3.0074
X12.4013Y-2.4074
X12.4013Y-3.0074
X12.5013Y-2.4074
X12.5013Y-3.0074
X12.6013Y-2.4074
X12.6013Y-3.0074
X12.617Y-3.0991
X12.7013Y-2.4074
X12.7013Y-3.0074
X12.8002Y-2.3199
X12.8013Y-2.4074
X12.8013Y-3.0074
X12.8138Y-3.0991
X12.9008Y-3.1302
X12.9008Y-3.2286
X12.9013Y-2.4074
X12.9013Y-3.0074
X12.9971Y-2.3199
X13.0013Y-2.4074
X13.0013Y-3.0074
X13.0855Y-3.1597
X13.1013Y-2.4074
X13.1013Y-3.0074
X13.2013Y-2.4074
X13.2013Y-3.0074
X13.2776Y-3.1597
X13.3013Y-2.4074
X13.3013Y-3.0074
X13.4013Y-2.4074
X13.4013Y-3.0074
X13.4609Y-3.1302
X13.4609Y-3.2286
X13.5013Y-2.4074
X13.5013Y-3.0074
X13.6013Y-2.4074
X13.6013Y-3.0074
X13.7013Y-2.4074
X13.7013Y-3.0074
T5
X11.1861Y-2.4398
X11.2861Y-2.4398
T6
X9.8509Y-2.376
X9.8509Y-2.476
X9.9509Y-2.376
X9.9509Y-2.476
X10.0509Y-2.376
X10.0509Y-2.476
T7
X8.9168Y-2.3558
X8.9168Y-2.5329
X9.1727Y-2.3558
X9.1727Y-2.5329
X9.3892Y-2.3558
X9.3892Y-2.5329
X9.6451Y-2.3558
X9.6451Y-2.5329
T8
X2.3438Y-3.6313
X2.3953Y-3.5738
X2.4375Y-6.6309
X2.4891Y-6.5734
X2.5312Y-4.3812
X2.5828Y-4.3238
X2.625Y-5.1309
X2.6766Y-5.0734
X2.8125Y-5.8812
X2.8641Y-5.8238
X3.0938Y-3.6313
X3.1453Y-3.5738
X3.375Y-6.6312
X3.4266Y-6.5738
X3.4688Y-4.3812
X3.5203Y-4.3238
X3.6562Y-5.1312
X3.7078Y-5.0738
X3.8438Y-3.6313
X3.8953Y-3.5738
X4.0312Y-5.8812
X4.0828Y-5.8238
X4.2188Y-4.3812
X4.2703Y-4.3238
X4.3125Y-6.6309
X4.3641Y-6.5734
X4.4062Y-5.1312
X4.4578Y-5.0738
X4.5938Y-3.6313
X4.6453Y-3.5738
X4.7812Y-5.8812
X4.8328Y-5.8238
X4.9688Y-4.3812
X5.0203Y-4.3238
X5.1562Y-5.1312
X5.2078Y-5.0738
X5.3438Y-3.6313
X5.3953Y-3.5738
X5.5312Y-5.8812
X5.5828Y-5.8238
X5.7188Y-4.3812
X5.7703Y-4.3238
X5.9062Y-5.1312
X5.9578Y-5.0738
X6.0938Y-3.6313
X6.1453Y-3.5738
X6.2813Y-5.8812
X6.3328Y-5.8238
X6.4688Y-4.3812
X6.5203Y-4.3238
X6.6562Y-5.1312
X6.7078Y-5.0738
X6.8438Y-3.6313
X6.8953Y-3.5738
X7.0313Y-5.8812
X7.0828Y-5.8238
X7.125Y-6.6312
X7.1766Y-6.5738
X7.2188Y-4.3812
X7.2703Y-4.3238
X7.4062Y-5.1312
X7.4578Y-5.0738
X7.5938Y-3.6313
X7.6453Y-3.5738
X7.7813Y-5.8812
X7.8328Y-5.8238
X7.9688Y-4.3812
X8.0203Y-4.3238
X8.1562Y-5.1312
X8.2078Y-5.0738
X8.3438Y-3.6313
X8.3953Y-3.5738
X8.5313Y-5.8812
X8.5828Y-5.8238
X8.7188Y-4.3812
X8.7703Y-4.3238
X8.9062Y-5.1312
X8.9578Y-5.0738
X9.0938Y-3.6313
X9.1453Y-3.5738
X9.2813Y-5.8812
X9.3328Y-5.8238
X9.4688Y-4.3812
X9.5203Y-4.3238
X9.6562Y-5.1312
X9.7078Y-5.0738
X9.8438Y-3.6313
X9.8449Y-6.6309
X9.8953Y-3.5738
X9.8965Y-6.5734
X10.0313Y-5.8812
X10.0828Y-5.8238
X10.2188Y-4.3812
X10.2703Y-4.3238
X10.4062Y-5.1312
X10.4578Y-5.0738
X10.5938Y-3.6313
X10.5951Y-6.6312
X10.6453Y-3.5738
X10.6467Y-6.5738
X10.7813Y-5.8812
X10.8328Y-5.8238
X10.9688Y-4.3812
X11.0203Y-4.3238
X11.1562Y-5.1312
X11.2078Y-5.0738
X11.3438Y-3.6313
X11.3453Y-6.6309
X11.3953Y-3.5738
X11.3969Y-6.5734
X11.7188Y-4.3812
X11.7703Y-4.3238
X11.8125Y-5.8812
X11.8641Y-5.8238
X12.0938Y-6.6312
X12.1453Y-6.5738
X12.375Y-5.1312
X12.4266Y-5.0738
X12.4688Y-3.6313
X12.5203Y-3.5738
X12.6562Y-4.3812
X12.7078Y-4.3238
X12.8438Y-5.8812
X12.8438Y-6.6312
X12.8953Y-5.8238
X12.8953Y-6.5738
X13.5938Y-3.6313
X13.5938Y-4.3812
X13.5938Y-5.1312
X13.5938Y-5.8812
X13.5938Y-6.6312
X13.6453Y-3.5738
X13.6453Y-4.3238
X13.6453Y-5.0738
X13.6453Y-5.8238
X13.6453Y-6.5738
T9
X2.2743Y-2.4289
X2.2743Y-3.1671
X3.8018Y-6.3444
X4.4785Y-4.1064
X8.1186Y-2.4289
X8.1186Y-3.1671
X8.1186Y-4.1064
X8.1186Y-6.5732
X11.7587Y-4.1064
X12.4355Y-6.3444
X13.963Y-2.4289
X13.963Y-3.1671
T2
G00X10.7568Y-2.4579
M15
G01X10.7568Y-2.4264
M16
G05
G00X10.7568Y-2.6048
M15
G01X10.7568Y-2.5457
M16
G05
G00X11.0974Y-2.4579
M15
G01X11.0974Y-2.4264
M16
G05
G00X11.0974Y-2.6048
M15
G01X11.0974Y-2.5457
M16
G05
T8
G00X2.5922Y-3.5541
M15
G01X2.5938Y-3.5313
M16
G05
G00X2.6859Y-6.5537
M15
G01X2.6875Y-6.5309
M16
G05
G00X2.7797Y-4.3041
M15
G01X2.7813Y-4.2813
M16
G05
G00X2.8734Y-5.0537
M15
G01X2.875Y-5.0309
M16
G05
G00X3.0609Y-5.8041
M15
G01X3.0625Y-5.7813
M16
G05
G00X3.3422Y-3.5541
M15
G01X3.3438Y-3.5313
M16
G05
G00X3.6234Y-6.5541
M15
G01X3.625Y-6.5313
M16
G05
G00X3.7172Y-4.3041
M15
G01X3.7188Y-4.2813
M16
G05
G00X3.9047Y-5.0541
M15
G01X3.9063Y-5.0313
M16
G05
G00X4.0922Y-3.5541
M15
G01X4.0938Y-3.5313
M16
G05
G00X4.2797Y-5.8041
M15
G01X4.2813Y-5.7813
M16
G05
G00X4.4672Y-4.3041
M15
G01X4.4688Y-4.2813
M16
G05
G00X4.5609Y-6.5537
M15
G01X4.5625Y-6.5309
M16
G05
G00X4.6547Y-5.0541
M15
G01X4.6563Y-5.0313
M16
G05
G00X4.8422Y-3.5541
M15
G01X4.8438Y-3.5313
M16
G05
G00X5.0297Y-5.8041
M15
G01X5.0313Y-5.7813
M16
G05
G00X5.2172Y-4.3041
M15
G01X5.2188Y-4.2813
M16
G05
G00X5.4047Y-5.0541
M15
G01X5.4063Y-5.0313
M16
G05
G00X5.5922Y-3.5541
M15
G01X5.5938Y-3.5313
M16
G05
G00X5.7797Y-5.8041
M15
G01X5.7813Y-5.7813
M16
G05
G00X5.9672Y-4.3041
M15
G01X5.9688Y-4.2813
M16
G05
G00X6.1546Y-5.0541
M15
G01X6.1562Y-5.0313
M16
G05
G00X6.3422Y-3.5541
M15
G01X6.3438Y-3.5313
M16
G05
G00X6.5297Y-5.8041
M15
G01X6.5313Y-5.7813
M16
G05
G00X6.7172Y-4.3041
M15
G01X6.7188Y-4.2813
M16
G05
G00X6.9046Y-5.0541
M15
G01X6.9062Y-5.0313
M16
G05
G00X7.0922Y-3.5541
M15
G01X7.0938Y-3.5313
M16
G05
G00X7.2797Y-5.8041
M15
G01X7.2813Y-5.7813
M16
G05
G00X7.3734Y-6.5541
M15
G01X7.375Y-6.5313
M16
G05
G00X7.4672Y-4.3041
M15
G01X7.4688Y-4.2813
M16
G05
G00X7.6546Y-5.0541
M15
G01X7.6562Y-5.0313
M16
G05
G00X7.8422Y-3.5541
M15
G01X7.8438Y-3.5313
M16
G05
G00X8.0297Y-5.8041
M15
G01X8.0313Y-5.7813
M16
G05
G00X8.2172Y-4.3041
M15
G01X8.2188Y-4.2813
M16
G05
G00X8.4046Y-5.0541
M15
G01X8.4062Y-5.0313
M16
G05
G00X8.5922Y-3.5541
M15
G01X8.5938Y-3.5313
M16
G05
G00X8.7797Y-5.8041
M15
G01X8.7813Y-5.7813
M16
G05
G00X8.9672Y-4.3041
M15
G01X8.9688Y-4.2813
M16
G05
G00X9.1546Y-5.0541
M15
G01X9.1562Y-5.0313
M16
G05
G00X9.3422Y-3.5541
M15
G01X9.3438Y-3.5313
M16
G05
G00X9.5297Y-5.8041
M15
G01X9.5313Y-5.7813
M16
G05
G00X9.7172Y-4.3041
M15
G01X9.7188Y-4.2813
M16
G05
G00X9.9046Y-5.0541
M15
G01X9.9062Y-5.0313
M16
G05
G00X10.0922Y-3.5541
M15
G01X10.0938Y-3.5313
M16
G05
G00X10.0933Y-6.5537
M15
G01X10.0949Y-6.5309
M16
G05
G00X10.2797Y-5.8041
M15
G01X10.2813Y-5.7813
M16
G05
G00X10.4672Y-4.3041
M15
G01X10.4688Y-4.2813
M16
G05
G00X10.6546Y-5.0541
M15
G01X10.6562Y-5.0313
M16
G05
G00X10.8422Y-3.5541
M15
G01X10.8438Y-3.5313
M16
G05
G00X10.8435Y-6.5541
M15
G01X10.8451Y-6.5313
M16
G05
G00X11.0297Y-5.8041
M15
G01X11.0313Y-5.7813
M16
G05
G00X11.2172Y-4.3041
M15
G01X11.2188Y-4.2813
M16
G05
G00X11.4046Y-5.0541
M15
G01X11.4062Y-5.0313
M16
G05
G00X11.5922Y-3.5541
M15
G01X11.5938Y-3.5313
M16
G05
G00X11.5938Y-6.5537
M15
G01X11.5953Y-6.5309
M16
G05
G00X11.9672Y-4.3041
M15
G01X11.9688Y-4.2813
M16
G05
G00X12.0609Y-5.8041
M15
G01X12.0625Y-5.7813
M16
G05
G00X12.3422Y-6.5541
M15
G01X12.3438Y-6.5313
M16
G05
G00X12.6234Y-5.0541
M15
G01X12.625Y-5.0313
M16
G05
G00X12.7172Y-3.5541
M15
G01X12.7188Y-3.5313
M16
G05
G00X12.9046Y-4.3041
M15
G01X12.9062Y-4.2813
M16
G05
G00X13.0922Y-5.8041
M15
G01X13.0938Y-5.7813
M16
G05
G00X13.0922Y-6.5541
M15
G01X13.0938Y-6.5313
M16
G05
G00X13.8422Y-3.5541
M15
G01X13.8438Y-3.5313
M16
G05
G00X13.8422Y-4.3041
M15
G01X13.8438Y-4.2813
M16
G05
G00X13.8422Y-5.0541
M15
G01X13.8438Y-5.0313
M16
G05
G00X13.8422Y-5.8041
M15
G01X13.8438Y-5.7813
M16
G05
G00X13.8422Y-6.5541
M15
G01X13.8438Y-6.5313
M16
G05
T0
M30
