G04 #@! TF.GenerationSoftware,KiCad,Pcbnew,5.1.10-88a1d61d58~90~ubuntu20.04.1*
G04 #@! TF.CreationDate,2021-10-08T00:04:58+03:00*
G04 #@! TF.ProjectId,discipline-pcb,64697363-6970-46c6-996e-652d7063622e,rev?*
G04 #@! TF.SameCoordinates,Original*
G04 #@! TF.FileFunction,Soldermask,Bot*
G04 #@! TF.FilePolarity,Negative*
%FSLAX46Y46*%
G04 Gerber Fmt 4.6, Leading zero omitted, Abs format (unit mm)*
G04 Created by KiCad (PCBNEW 5.1.10-88a1d61d58~90~ubuntu20.04.1) date 2021-10-08 00:04:58*
%MOMM*%
%LPD*%
G01*
G04 APERTURE LIST*
%ADD10C,1.500000*%
%ADD11C,0.010000*%
%ADD12C,0.150000*%
%ADD13C,0.400000*%
%ADD14C,2.500000*%
%ADD15C,3.000000*%
%ADD16R,2.550000X2.500000*%
%ADD17C,1.750000*%
%ADD18C,4.000000*%
%ADD19C,3.050000*%
%ADD20R,1.600000X1.600000*%
%ADD21O,1.600000X1.600000*%
%ADD22C,1.600000*%
%ADD23R,1.200000X1.200000*%
%ADD24C,1.200000*%
%ADD25O,1.400000X1.400000*%
%ADD26C,1.400000*%
%ADD27C,4.400000*%
%ADD28R,1.700000X1.700000*%
%ADD29C,1.700000*%
%ADD30C,1.500000*%
%ADD31C,1.800000*%
%ADD32R,1.800000X1.800000*%
%ADD33O,0.650000X1.000000*%
%ADD34O,0.900000X2.400000*%
%ADD35O,0.900000X1.700000*%
%ADD36C,2.000000*%
%ADD37C,3.048000*%
%ADD38C,3.987800*%
G04 APERTURE END LIST*
D10*
X62883004Y-61986290D02*
X223254308Y-61986290D01*
X62883004Y-59503020D02*
X223254308Y-59503020D01*
X62883004Y-64469560D02*
X223254308Y-64469560D01*
D11*
G36*
X159802689Y-173101000D02*
G01*
X159964967Y-173101000D01*
X159964967Y-171634029D01*
X160099505Y-171718413D01*
X160139158Y-171743230D01*
X160175415Y-171765819D01*
X160206356Y-171784992D01*
X160230061Y-171799561D01*
X160244611Y-171808340D01*
X160247671Y-171810091D01*
X160253451Y-171812505D01*
X160257307Y-171810962D01*
X160259621Y-171803315D01*
X160260773Y-171787416D01*
X160261146Y-171761116D01*
X160261146Y-171734234D01*
X160260991Y-171651083D01*
X160146278Y-171575236D01*
X160031566Y-171499388D01*
X159802689Y-171499388D01*
X159802689Y-173101000D01*
G37*
X159802689Y-173101000D02*
X159964967Y-173101000D01*
X159964967Y-171634029D01*
X160099505Y-171718413D01*
X160139158Y-171743230D01*
X160175415Y-171765819D01*
X160206356Y-171784992D01*
X160230061Y-171799561D01*
X160244611Y-171808340D01*
X160247671Y-171810091D01*
X160253451Y-171812505D01*
X160257307Y-171810962D01*
X160259621Y-171803315D01*
X160260773Y-171787416D01*
X160261146Y-171761116D01*
X160261146Y-171734234D01*
X160260991Y-171651083D01*
X160146278Y-171575236D01*
X160031566Y-171499388D01*
X159802689Y-171499388D01*
X159802689Y-173101000D01*
G36*
X160723065Y-171958173D02*
G01*
X160700033Y-171958930D01*
X160686635Y-171960628D01*
X160680634Y-171963620D01*
X160679793Y-171968264D01*
X160680304Y-171970347D01*
X160682731Y-171978949D01*
X160688637Y-172000092D01*
X160697728Y-172032718D01*
X160709711Y-172075773D01*
X160724292Y-172128198D01*
X160741177Y-172188938D01*
X160760073Y-172256936D01*
X160780684Y-172331134D01*
X160802719Y-172410478D01*
X160825882Y-172493909D01*
X160832824Y-172518916D01*
X160856358Y-172603661D01*
X160878929Y-172684857D01*
X160900233Y-172761421D01*
X160919967Y-172832268D01*
X160937830Y-172896315D01*
X160953518Y-172952477D01*
X160966729Y-172999669D01*
X160977160Y-173036808D01*
X160984508Y-173062809D01*
X160988471Y-173076588D01*
X160988920Y-173078069D01*
X160996173Y-173101000D01*
X161142151Y-173101000D01*
X161149489Y-173078069D01*
X161153177Y-173065703D01*
X161160161Y-173041463D01*
X161170096Y-173006585D01*
X161182636Y-172962302D01*
X161197437Y-172909851D01*
X161214152Y-172850466D01*
X161232438Y-172785382D01*
X161251949Y-172715834D01*
X161272339Y-172643057D01*
X161293265Y-172568285D01*
X161314380Y-172492754D01*
X161335339Y-172417698D01*
X161355798Y-172344353D01*
X161375411Y-172273953D01*
X161393834Y-172207733D01*
X161410720Y-172146929D01*
X161425726Y-172092775D01*
X161438505Y-172046505D01*
X161448713Y-172009356D01*
X161456005Y-171982561D01*
X161460035Y-171967356D01*
X161460745Y-171964295D01*
X161454155Y-171961816D01*
X161436240Y-171959797D01*
X161409786Y-171958454D01*
X161379606Y-171958000D01*
X161347661Y-171958227D01*
X161321636Y-171958844D01*
X161304319Y-171959755D01*
X161298467Y-171960794D01*
X161296780Y-171968149D01*
X161291953Y-171987751D01*
X161284338Y-172018219D01*
X161274287Y-172058170D01*
X161262154Y-172106222D01*
X161248289Y-172160992D01*
X161233044Y-172221098D01*
X161216773Y-172285158D01*
X161199827Y-172351790D01*
X161182558Y-172419610D01*
X161165319Y-172487237D01*
X161148461Y-172553289D01*
X161132337Y-172616382D01*
X161117298Y-172675135D01*
X161103698Y-172728164D01*
X161091888Y-172774089D01*
X161082219Y-172811526D01*
X161075046Y-172839093D01*
X161070719Y-172855408D01*
X161069552Y-172859430D01*
X161067569Y-172853113D01*
X161062444Y-172834266D01*
X161054474Y-172804044D01*
X161043956Y-172763604D01*
X161031190Y-172714099D01*
X161016472Y-172656687D01*
X161000101Y-172592522D01*
X160982374Y-172522760D01*
X160963589Y-172448557D01*
X160960441Y-172436097D01*
X160941295Y-172360294D01*
X160923021Y-172287970D01*
X160905939Y-172220386D01*
X160890367Y-172158802D01*
X160876625Y-172104478D01*
X160865031Y-172058674D01*
X160855904Y-172022651D01*
X160849562Y-171997667D01*
X160846325Y-171984984D01*
X160846188Y-171984458D01*
X160839312Y-171958000D01*
X160757970Y-171958000D01*
X160723065Y-171958173D01*
G37*
X160723065Y-171958173D02*
X160700033Y-171958930D01*
X160686635Y-171960628D01*
X160680634Y-171963620D01*
X160679793Y-171968264D01*
X160680304Y-171970347D01*
X160682731Y-171978949D01*
X160688637Y-172000092D01*
X160697728Y-172032718D01*
X160709711Y-172075773D01*
X160724292Y-172128198D01*
X160741177Y-172188938D01*
X160760073Y-172256936D01*
X160780684Y-172331134D01*
X160802719Y-172410478D01*
X160825882Y-172493909D01*
X160832824Y-172518916D01*
X160856358Y-172603661D01*
X160878929Y-172684857D01*
X160900233Y-172761421D01*
X160919967Y-172832268D01*
X160937830Y-172896315D01*
X160953518Y-172952477D01*
X160966729Y-172999669D01*
X160977160Y-173036808D01*
X160984508Y-173062809D01*
X160988471Y-173076588D01*
X160988920Y-173078069D01*
X160996173Y-173101000D01*
X161142151Y-173101000D01*
X161149489Y-173078069D01*
X161153177Y-173065703D01*
X161160161Y-173041463D01*
X161170096Y-173006585D01*
X161182636Y-172962302D01*
X161197437Y-172909851D01*
X161214152Y-172850466D01*
X161232438Y-172785382D01*
X161251949Y-172715834D01*
X161272339Y-172643057D01*
X161293265Y-172568285D01*
X161314380Y-172492754D01*
X161335339Y-172417698D01*
X161355798Y-172344353D01*
X161375411Y-172273953D01*
X161393834Y-172207733D01*
X161410720Y-172146929D01*
X161425726Y-172092775D01*
X161438505Y-172046505D01*
X161448713Y-172009356D01*
X161456005Y-171982561D01*
X161460035Y-171967356D01*
X161460745Y-171964295D01*
X161454155Y-171961816D01*
X161436240Y-171959797D01*
X161409786Y-171958454D01*
X161379606Y-171958000D01*
X161347661Y-171958227D01*
X161321636Y-171958844D01*
X161304319Y-171959755D01*
X161298467Y-171960794D01*
X161296780Y-171968149D01*
X161291953Y-171987751D01*
X161284338Y-172018219D01*
X161274287Y-172058170D01*
X161262154Y-172106222D01*
X161248289Y-172160992D01*
X161233044Y-172221098D01*
X161216773Y-172285158D01*
X161199827Y-172351790D01*
X161182558Y-172419610D01*
X161165319Y-172487237D01*
X161148461Y-172553289D01*
X161132337Y-172616382D01*
X161117298Y-172675135D01*
X161103698Y-172728164D01*
X161091888Y-172774089D01*
X161082219Y-172811526D01*
X161075046Y-172839093D01*
X161070719Y-172855408D01*
X161069552Y-172859430D01*
X161067569Y-172853113D01*
X161062444Y-172834266D01*
X161054474Y-172804044D01*
X161043956Y-172763604D01*
X161031190Y-172714099D01*
X161016472Y-172656687D01*
X161000101Y-172592522D01*
X160982374Y-172522760D01*
X160963589Y-172448557D01*
X160960441Y-172436097D01*
X160941295Y-172360294D01*
X160923021Y-172287970D01*
X160905939Y-172220386D01*
X160890367Y-172158802D01*
X160876625Y-172104478D01*
X160865031Y-172058674D01*
X160855904Y-172022651D01*
X160849562Y-171997667D01*
X160846325Y-171984984D01*
X160846188Y-171984458D01*
X160839312Y-171958000D01*
X160757970Y-171958000D01*
X160723065Y-171958173D01*
G36*
X162455578Y-172085000D02*
G01*
X162482037Y-172085053D01*
X162545456Y-172090536D01*
X162606478Y-172105947D01*
X162662862Y-172130113D01*
X162712369Y-172161862D01*
X162752756Y-172200023D01*
X162780724Y-172241314D01*
X162787980Y-172255873D01*
X162794141Y-172269737D01*
X162799298Y-172284152D01*
X162803539Y-172300362D01*
X162806955Y-172319614D01*
X162809635Y-172343154D01*
X162811669Y-172372227D01*
X162813146Y-172408080D01*
X162814157Y-172451959D01*
X162814791Y-172505108D01*
X162815138Y-172568774D01*
X162815288Y-172644203D01*
X162815328Y-172721763D01*
X162815412Y-173101000D01*
X162977689Y-173101000D01*
X162977689Y-171958000D01*
X162815412Y-171958000D01*
X162815412Y-172114006D01*
X162770723Y-172069516D01*
X162709074Y-172017476D01*
X162641627Y-171978152D01*
X162568904Y-171951798D01*
X162501279Y-171939566D01*
X162455578Y-171934884D01*
X162455578Y-172085000D01*
G37*
X162455578Y-172085000D02*
X162482037Y-172085053D01*
X162545456Y-172090536D01*
X162606478Y-172105947D01*
X162662862Y-172130113D01*
X162712369Y-172161862D01*
X162752756Y-172200023D01*
X162780724Y-172241314D01*
X162787980Y-172255873D01*
X162794141Y-172269737D01*
X162799298Y-172284152D01*
X162803539Y-172300362D01*
X162806955Y-172319614D01*
X162809635Y-172343154D01*
X162811669Y-172372227D01*
X162813146Y-172408080D01*
X162814157Y-172451959D01*
X162814791Y-172505108D01*
X162815138Y-172568774D01*
X162815288Y-172644203D01*
X162815328Y-172721763D01*
X162815412Y-173101000D01*
X162977689Y-173101000D01*
X162977689Y-171958000D01*
X162815412Y-171958000D01*
X162815412Y-172114006D01*
X162770723Y-172069516D01*
X162709074Y-172017476D01*
X162641627Y-171978152D01*
X162568904Y-171951798D01*
X162501279Y-171939566D01*
X162455578Y-171934884D01*
X162455578Y-172085000D01*
G36*
X161924161Y-171939035D02*
G01*
X161890994Y-171942554D01*
X161857832Y-171947851D01*
X161831449Y-171953828D01*
X161829812Y-171954310D01*
X161781980Y-171974735D01*
X161735612Y-172005329D01*
X161695522Y-172042553D01*
X161675965Y-172067361D01*
X161657626Y-172097070D01*
X161642803Y-172127896D01*
X161631162Y-172161691D01*
X161622371Y-172200304D01*
X161616097Y-172245586D01*
X161612007Y-172299387D01*
X161609770Y-172363557D01*
X161609051Y-172439541D01*
X161608912Y-172593000D01*
X162131023Y-172593000D01*
X162131023Y-172697552D01*
X162130190Y-172752171D01*
X162127323Y-172795424D01*
X162121866Y-172829978D01*
X162113264Y-172858500D01*
X162100964Y-172883658D01*
X162088338Y-172902809D01*
X162057423Y-172934285D01*
X162017813Y-172955098D01*
X161969093Y-172965430D01*
X161940523Y-172966720D01*
X161887904Y-172961517D01*
X161844850Y-172945964D01*
X161811135Y-172919864D01*
X161786531Y-172883021D01*
X161770812Y-172835237D01*
X161767532Y-172817013D01*
X161762532Y-172783500D01*
X161608912Y-172783500D01*
X161608912Y-172817295D01*
X161610844Y-172844151D01*
X161615776Y-172875304D01*
X161619461Y-172891593D01*
X161642047Y-172953800D01*
X161674809Y-173006235D01*
X161717652Y-173048804D01*
X161770486Y-173081412D01*
X161826614Y-173102196D01*
X161866086Y-173109795D01*
X161913525Y-173113867D01*
X161963619Y-173114371D01*
X162011057Y-173111264D01*
X162050530Y-173104506D01*
X162052673Y-173103945D01*
X162114363Y-173080413D01*
X162168149Y-173045500D01*
X162213320Y-172999964D01*
X162249166Y-172944563D01*
X162274976Y-172880055D01*
X162280149Y-172861111D01*
X162282841Y-172842720D01*
X162285131Y-172812191D01*
X162287017Y-172771479D01*
X162288501Y-172722542D01*
X162289583Y-172667333D01*
X162290262Y-172607810D01*
X162290540Y-172545928D01*
X162290416Y-172483643D01*
X162290080Y-172444833D01*
X162132289Y-172444833D01*
X161769711Y-172444833D01*
X161772575Y-172333708D01*
X161773894Y-172290291D01*
X161775521Y-172258200D01*
X161777829Y-172234648D01*
X161781188Y-172216850D01*
X161785971Y-172202021D01*
X161791938Y-172188627D01*
X161817387Y-172146262D01*
X161847391Y-172116464D01*
X161883959Y-172097977D01*
X161929098Y-172089544D01*
X161951628Y-172088695D01*
X161981751Y-172089165D01*
X162002858Y-172091571D01*
X162020024Y-172097092D01*
X162038323Y-172106903D01*
X162043350Y-172109967D01*
X162064577Y-172125125D01*
X162081006Y-172142891D01*
X162096516Y-172167822D01*
X162102800Y-172179779D01*
X162112202Y-172198558D01*
X162118904Y-172214105D01*
X162123428Y-172229433D01*
X162126295Y-172247560D01*
X162128026Y-172271500D01*
X162129143Y-172304269D01*
X162129892Y-172336492D01*
X162132289Y-172444833D01*
X162290080Y-172444833D01*
X162289890Y-172422910D01*
X162288963Y-172365687D01*
X162287635Y-172313927D01*
X162285906Y-172269589D01*
X162283777Y-172234626D01*
X162281247Y-172210996D01*
X162280071Y-172204944D01*
X162256234Y-172133599D01*
X162223277Y-172072741D01*
X162181675Y-172022727D01*
X162131905Y-171983910D01*
X162074443Y-171956649D01*
X162009765Y-171941298D01*
X161938348Y-171938213D01*
X161924161Y-171939035D01*
G37*
X161924161Y-171939035D02*
X161890994Y-171942554D01*
X161857832Y-171947851D01*
X161831449Y-171953828D01*
X161829812Y-171954310D01*
X161781980Y-171974735D01*
X161735612Y-172005329D01*
X161695522Y-172042553D01*
X161675965Y-172067361D01*
X161657626Y-172097070D01*
X161642803Y-172127896D01*
X161631162Y-172161691D01*
X161622371Y-172200304D01*
X161616097Y-172245586D01*
X161612007Y-172299387D01*
X161609770Y-172363557D01*
X161609051Y-172439541D01*
X161608912Y-172593000D01*
X162131023Y-172593000D01*
X162131023Y-172697552D01*
X162130190Y-172752171D01*
X162127323Y-172795424D01*
X162121866Y-172829978D01*
X162113264Y-172858500D01*
X162100964Y-172883658D01*
X162088338Y-172902809D01*
X162057423Y-172934285D01*
X162017813Y-172955098D01*
X161969093Y-172965430D01*
X161940523Y-172966720D01*
X161887904Y-172961517D01*
X161844850Y-172945964D01*
X161811135Y-172919864D01*
X161786531Y-172883021D01*
X161770812Y-172835237D01*
X161767532Y-172817013D01*
X161762532Y-172783500D01*
X161608912Y-172783500D01*
X161608912Y-172817295D01*
X161610844Y-172844151D01*
X161615776Y-172875304D01*
X161619461Y-172891593D01*
X161642047Y-172953800D01*
X161674809Y-173006235D01*
X161717652Y-173048804D01*
X161770486Y-173081412D01*
X161826614Y-173102196D01*
X161866086Y-173109795D01*
X161913525Y-173113867D01*
X161963619Y-173114371D01*
X162011057Y-173111264D01*
X162050530Y-173104506D01*
X162052673Y-173103945D01*
X162114363Y-173080413D01*
X162168149Y-173045500D01*
X162213320Y-172999964D01*
X162249166Y-172944563D01*
X162274976Y-172880055D01*
X162280149Y-172861111D01*
X162282841Y-172842720D01*
X162285131Y-172812191D01*
X162287017Y-172771479D01*
X162288501Y-172722542D01*
X162289583Y-172667333D01*
X162290262Y-172607810D01*
X162290540Y-172545928D01*
X162290416Y-172483643D01*
X162290080Y-172444833D01*
X162132289Y-172444833D01*
X161769711Y-172444833D01*
X161772575Y-172333708D01*
X161773894Y-172290291D01*
X161775521Y-172258200D01*
X161777829Y-172234648D01*
X161781188Y-172216850D01*
X161785971Y-172202021D01*
X161791938Y-172188627D01*
X161817387Y-172146262D01*
X161847391Y-172116464D01*
X161883959Y-172097977D01*
X161929098Y-172089544D01*
X161951628Y-172088695D01*
X161981751Y-172089165D01*
X162002858Y-172091571D01*
X162020024Y-172097092D01*
X162038323Y-172106903D01*
X162043350Y-172109967D01*
X162064577Y-172125125D01*
X162081006Y-172142891D01*
X162096516Y-172167822D01*
X162102800Y-172179779D01*
X162112202Y-172198558D01*
X162118904Y-172214105D01*
X162123428Y-172229433D01*
X162126295Y-172247560D01*
X162128026Y-172271500D01*
X162129143Y-172304269D01*
X162129892Y-172336492D01*
X162132289Y-172444833D01*
X162290080Y-172444833D01*
X162289890Y-172422910D01*
X162288963Y-172365687D01*
X162287635Y-172313927D01*
X162285906Y-172269589D01*
X162283777Y-172234626D01*
X162281247Y-172210996D01*
X162280071Y-172204944D01*
X162256234Y-172133599D01*
X162223277Y-172072741D01*
X162181675Y-172022727D01*
X162131905Y-171983910D01*
X162074443Y-171956649D01*
X162009765Y-171941298D01*
X161938348Y-171938213D01*
X161924161Y-171939035D01*
G36*
X158703628Y-173101000D02*
G01*
X158865906Y-173101000D01*
X158865906Y-171634029D01*
X159000444Y-171718413D01*
X159040097Y-171743230D01*
X159076354Y-171765819D01*
X159107295Y-171784992D01*
X159131000Y-171799561D01*
X159145550Y-171808340D01*
X159148610Y-171810091D01*
X159154390Y-171812505D01*
X159158246Y-171810962D01*
X159160560Y-171803315D01*
X159161712Y-171787416D01*
X159162085Y-171761116D01*
X159162085Y-171734234D01*
X159161930Y-171651083D01*
X159047217Y-171575236D01*
X158932505Y-171499388D01*
X158703628Y-171499388D01*
X158703628Y-173101000D01*
G37*
X158703628Y-173101000D02*
X158865906Y-173101000D01*
X158865906Y-171634029D01*
X159000444Y-171718413D01*
X159040097Y-171743230D01*
X159076354Y-171765819D01*
X159107295Y-171784992D01*
X159131000Y-171799561D01*
X159145550Y-171808340D01*
X159148610Y-171810091D01*
X159154390Y-171812505D01*
X159158246Y-171810962D01*
X159160560Y-171803315D01*
X159161712Y-171787416D01*
X159162085Y-171761116D01*
X159162085Y-171734234D01*
X159161930Y-171651083D01*
X159047217Y-171575236D01*
X158932505Y-171499388D01*
X158703628Y-171499388D01*
X158703628Y-173101000D01*
D12*
X159390996Y-172974204D02*
G75*
G03*
X159390996Y-172974204I-56796J0D01*
G01*
D11*
G36*
X159505756Y-169258897D02*
G01*
X159501557Y-169273919D01*
X159494129Y-169300906D01*
X159483923Y-169338202D01*
X159471388Y-169384149D01*
X159456973Y-169437090D01*
X159441128Y-169495366D01*
X159424303Y-169557320D01*
X159406947Y-169621295D01*
X159389509Y-169685633D01*
X159372439Y-169748677D01*
X159356186Y-169808769D01*
X159341200Y-169864252D01*
X159327931Y-169913468D01*
X159316828Y-169954759D01*
X159308340Y-169986468D01*
X159303419Y-170005022D01*
X159295733Y-170033233D01*
X159288818Y-170056772D01*
X159283806Y-170071852D01*
X159282639Y-170074572D01*
X159280105Y-170069618D01*
X159274500Y-170052084D01*
X159266122Y-170023093D01*
X159255272Y-169983766D01*
X159242251Y-169935226D01*
X159227358Y-169878595D01*
X159210894Y-169814995D01*
X159193159Y-169745549D01*
X159174453Y-169671378D01*
X159169854Y-169653002D01*
X159062092Y-169221855D01*
X158981822Y-169221855D01*
X158944893Y-169222280D01*
X158920350Y-169223683D01*
X158906492Y-169226254D01*
X158901616Y-169230182D01*
X158901553Y-169230816D01*
X158903341Y-169241710D01*
X158908046Y-169261929D01*
X158914677Y-169287237D01*
X158915169Y-169289025D01*
X158918925Y-169302824D01*
X158926052Y-169329235D01*
X158936279Y-169367239D01*
X158949331Y-169415817D01*
X158964936Y-169473948D01*
X158982819Y-169540614D01*
X159002707Y-169614794D01*
X159024327Y-169695469D01*
X159047405Y-169781620D01*
X159071668Y-169872226D01*
X159096843Y-169966269D01*
X159106075Y-170000764D01*
X159131479Y-170095397D01*
X159156134Y-170186660D01*
X159179765Y-170273565D01*
X159202094Y-170355123D01*
X159222847Y-170430346D01*
X159241748Y-170498244D01*
X159258521Y-170557829D01*
X159272890Y-170608112D01*
X159284579Y-170648105D01*
X159293313Y-170676818D01*
X159298815Y-170693264D01*
X159300021Y-170696130D01*
X159327968Y-170739451D01*
X159364289Y-170774666D01*
X159410003Y-170802324D01*
X159466127Y-170822974D01*
X159533681Y-170837166D01*
X159570067Y-170841803D01*
X159614164Y-170846456D01*
X159614164Y-170691343D01*
X159569859Y-170687786D01*
X159518211Y-170677321D01*
X159473972Y-170654855D01*
X159437251Y-170620463D01*
X159409788Y-170577536D01*
X159402267Y-170559108D01*
X159392828Y-170531019D01*
X159382367Y-170496562D01*
X159371781Y-170459028D01*
X159361967Y-170421707D01*
X159353821Y-170387892D01*
X159348239Y-170360875D01*
X159346120Y-170343945D01*
X159346119Y-170343822D01*
X159348113Y-170334479D01*
X159353911Y-170312682D01*
X159363208Y-170279478D01*
X159375697Y-170235911D01*
X159391072Y-170183028D01*
X159409027Y-170121873D01*
X159429255Y-170053493D01*
X159451450Y-169978933D01*
X159475307Y-169899238D01*
X159500518Y-169815455D01*
X159511859Y-169777903D01*
X159537502Y-169693041D01*
X159561932Y-169612104D01*
X159584845Y-169536103D01*
X159605938Y-169466052D01*
X159624905Y-169402962D01*
X159641444Y-169347847D01*
X159655250Y-169301719D01*
X159666020Y-169265590D01*
X159673448Y-169240473D01*
X159677231Y-169227380D01*
X159677664Y-169225673D01*
X159671075Y-169224165D01*
X159653169Y-169222939D01*
X159626740Y-169222125D01*
X159597026Y-169221855D01*
X159516388Y-169221855D01*
X159505756Y-169258897D01*
G37*
X159505756Y-169258897D02*
X159501557Y-169273919D01*
X159494129Y-169300906D01*
X159483923Y-169338202D01*
X159471388Y-169384149D01*
X159456973Y-169437090D01*
X159441128Y-169495366D01*
X159424303Y-169557320D01*
X159406947Y-169621295D01*
X159389509Y-169685633D01*
X159372439Y-169748677D01*
X159356186Y-169808769D01*
X159341200Y-169864252D01*
X159327931Y-169913468D01*
X159316828Y-169954759D01*
X159308340Y-169986468D01*
X159303419Y-170005022D01*
X159295733Y-170033233D01*
X159288818Y-170056772D01*
X159283806Y-170071852D01*
X159282639Y-170074572D01*
X159280105Y-170069618D01*
X159274500Y-170052084D01*
X159266122Y-170023093D01*
X159255272Y-169983766D01*
X159242251Y-169935226D01*
X159227358Y-169878595D01*
X159210894Y-169814995D01*
X159193159Y-169745549D01*
X159174453Y-169671378D01*
X159169854Y-169653002D01*
X159062092Y-169221855D01*
X158981822Y-169221855D01*
X158944893Y-169222280D01*
X158920350Y-169223683D01*
X158906492Y-169226254D01*
X158901616Y-169230182D01*
X158901553Y-169230816D01*
X158903341Y-169241710D01*
X158908046Y-169261929D01*
X158914677Y-169287237D01*
X158915169Y-169289025D01*
X158918925Y-169302824D01*
X158926052Y-169329235D01*
X158936279Y-169367239D01*
X158949331Y-169415817D01*
X158964936Y-169473948D01*
X158982819Y-169540614D01*
X159002707Y-169614794D01*
X159024327Y-169695469D01*
X159047405Y-169781620D01*
X159071668Y-169872226D01*
X159096843Y-169966269D01*
X159106075Y-170000764D01*
X159131479Y-170095397D01*
X159156134Y-170186660D01*
X159179765Y-170273565D01*
X159202094Y-170355123D01*
X159222847Y-170430346D01*
X159241748Y-170498244D01*
X159258521Y-170557829D01*
X159272890Y-170608112D01*
X159284579Y-170648105D01*
X159293313Y-170676818D01*
X159298815Y-170693264D01*
X159300021Y-170696130D01*
X159327968Y-170739451D01*
X159364289Y-170774666D01*
X159410003Y-170802324D01*
X159466127Y-170822974D01*
X159533681Y-170837166D01*
X159570067Y-170841803D01*
X159614164Y-170846456D01*
X159614164Y-170691343D01*
X159569859Y-170687786D01*
X159518211Y-170677321D01*
X159473972Y-170654855D01*
X159437251Y-170620463D01*
X159409788Y-170577536D01*
X159402267Y-170559108D01*
X159392828Y-170531019D01*
X159382367Y-170496562D01*
X159371781Y-170459028D01*
X159361967Y-170421707D01*
X159353821Y-170387892D01*
X159348239Y-170360875D01*
X159346120Y-170343945D01*
X159346119Y-170343822D01*
X159348113Y-170334479D01*
X159353911Y-170312682D01*
X159363208Y-170279478D01*
X159375697Y-170235911D01*
X159391072Y-170183028D01*
X159409027Y-170121873D01*
X159429255Y-170053493D01*
X159451450Y-169978933D01*
X159475307Y-169899238D01*
X159500518Y-169815455D01*
X159511859Y-169777903D01*
X159537502Y-169693041D01*
X159561932Y-169612104D01*
X159584845Y-169536103D01*
X159605938Y-169466052D01*
X159624905Y-169402962D01*
X159641444Y-169347847D01*
X159655250Y-169301719D01*
X159666020Y-169265590D01*
X159673448Y-169240473D01*
X159677231Y-169227380D01*
X159677664Y-169225673D01*
X159671075Y-169224165D01*
X159653169Y-169222939D01*
X159626740Y-169222125D01*
X159597026Y-169221855D01*
X159516388Y-169221855D01*
X159505756Y-169258897D01*
G36*
X162650224Y-169202920D02*
G01*
X162578351Y-169213827D01*
X162514697Y-169235586D01*
X162459823Y-169267805D01*
X162414289Y-169310089D01*
X162378654Y-169362046D01*
X162358432Y-169408053D01*
X162352511Y-169429144D01*
X162346783Y-169456712D01*
X162341703Y-169487324D01*
X162337728Y-169517552D01*
X162335314Y-169543962D01*
X162334919Y-169563124D01*
X162336707Y-169571379D01*
X162344693Y-169572739D01*
X162363651Y-169573820D01*
X162390440Y-169574486D01*
X162411894Y-169574633D01*
X162483827Y-169574633D01*
X162488620Y-169527848D01*
X162496313Y-169481482D01*
X162509620Y-169444916D01*
X162530021Y-169414463D01*
X162537286Y-169406445D01*
X162564927Y-169381397D01*
X162593153Y-169365083D01*
X162625957Y-169355993D01*
X162667331Y-169352614D01*
X162679803Y-169352484D01*
X162725939Y-169354978D01*
X162762063Y-169363351D01*
X162791526Y-169378945D01*
X162817676Y-169403099D01*
X162823563Y-169409991D01*
X162833526Y-169422430D01*
X162841828Y-169434343D01*
X162848618Y-169447098D01*
X162854049Y-169462061D01*
X162858271Y-169480600D01*
X162861437Y-169504081D01*
X162863696Y-169533872D01*
X162865201Y-169571340D01*
X162866103Y-169617851D01*
X162866552Y-169674772D01*
X162866701Y-169743471D01*
X162866706Y-169799904D01*
X162866637Y-170100272D01*
X162850001Y-170135550D01*
X162825146Y-170175355D01*
X162792908Y-170204010D01*
X162752313Y-170222073D01*
X162702389Y-170230103D01*
X162684149Y-170230645D01*
X162638519Y-170228537D01*
X162602561Y-170221027D01*
X162572441Y-170206799D01*
X162544325Y-170184535D01*
X162541194Y-170181544D01*
X162511546Y-170143370D01*
X162492532Y-170098202D01*
X162485776Y-170049904D01*
X162485775Y-170049602D01*
X162485775Y-170026188D01*
X162330553Y-170026188D01*
X162330606Y-170045591D01*
X162335960Y-170102134D01*
X162350695Y-170159692D01*
X162373272Y-170214302D01*
X162402155Y-170262001D01*
X162425013Y-170288868D01*
X162463616Y-170319976D01*
X162511009Y-170346549D01*
X162561992Y-170365879D01*
X162583136Y-170371169D01*
X162616816Y-170375804D01*
X162658349Y-170378025D01*
X162702868Y-170377905D01*
X162745503Y-170375518D01*
X162781385Y-170370937D01*
X162794768Y-170367983D01*
X162858831Y-170344531D01*
X162912721Y-170311314D01*
X162956613Y-170268158D01*
X162990685Y-170214887D01*
X163015116Y-170151325D01*
X163015589Y-170149661D01*
X163018049Y-170138178D01*
X163020092Y-170121956D01*
X163021753Y-170099798D01*
X163023064Y-170070509D01*
X163024058Y-170032892D01*
X163024767Y-169985751D01*
X163025226Y-169927891D01*
X163025467Y-169858116D01*
X163025525Y-169789827D01*
X163025512Y-169713719D01*
X163025432Y-169650350D01*
X163025225Y-169598344D01*
X163024829Y-169556331D01*
X163024184Y-169522935D01*
X163023228Y-169496785D01*
X163021902Y-169476507D01*
X163020143Y-169460728D01*
X163017892Y-169448074D01*
X163015086Y-169437173D01*
X163011666Y-169426650D01*
X163009101Y-169419411D01*
X162979743Y-169355734D01*
X162941282Y-169302750D01*
X162894055Y-169260660D01*
X162838401Y-169229669D01*
X162774658Y-169209982D01*
X162703164Y-169201802D01*
X162650224Y-169202920D01*
G37*
X162650224Y-169202920D02*
X162578351Y-169213827D01*
X162514697Y-169235586D01*
X162459823Y-169267805D01*
X162414289Y-169310089D01*
X162378654Y-169362046D01*
X162358432Y-169408053D01*
X162352511Y-169429144D01*
X162346783Y-169456712D01*
X162341703Y-169487324D01*
X162337728Y-169517552D01*
X162335314Y-169543962D01*
X162334919Y-169563124D01*
X162336707Y-169571379D01*
X162344693Y-169572739D01*
X162363651Y-169573820D01*
X162390440Y-169574486D01*
X162411894Y-169574633D01*
X162483827Y-169574633D01*
X162488620Y-169527848D01*
X162496313Y-169481482D01*
X162509620Y-169444916D01*
X162530021Y-169414463D01*
X162537286Y-169406445D01*
X162564927Y-169381397D01*
X162593153Y-169365083D01*
X162625957Y-169355993D01*
X162667331Y-169352614D01*
X162679803Y-169352484D01*
X162725939Y-169354978D01*
X162762063Y-169363351D01*
X162791526Y-169378945D01*
X162817676Y-169403099D01*
X162823563Y-169409991D01*
X162833526Y-169422430D01*
X162841828Y-169434343D01*
X162848618Y-169447098D01*
X162854049Y-169462061D01*
X162858271Y-169480600D01*
X162861437Y-169504081D01*
X162863696Y-169533872D01*
X162865201Y-169571340D01*
X162866103Y-169617851D01*
X162866552Y-169674772D01*
X162866701Y-169743471D01*
X162866706Y-169799904D01*
X162866637Y-170100272D01*
X162850001Y-170135550D01*
X162825146Y-170175355D01*
X162792908Y-170204010D01*
X162752313Y-170222073D01*
X162702389Y-170230103D01*
X162684149Y-170230645D01*
X162638519Y-170228537D01*
X162602561Y-170221027D01*
X162572441Y-170206799D01*
X162544325Y-170184535D01*
X162541194Y-170181544D01*
X162511546Y-170143370D01*
X162492532Y-170098202D01*
X162485776Y-170049904D01*
X162485775Y-170049602D01*
X162485775Y-170026188D01*
X162330553Y-170026188D01*
X162330606Y-170045591D01*
X162335960Y-170102134D01*
X162350695Y-170159692D01*
X162373272Y-170214302D01*
X162402155Y-170262001D01*
X162425013Y-170288868D01*
X162463616Y-170319976D01*
X162511009Y-170346549D01*
X162561992Y-170365879D01*
X162583136Y-170371169D01*
X162616816Y-170375804D01*
X162658349Y-170378025D01*
X162702868Y-170377905D01*
X162745503Y-170375518D01*
X162781385Y-170370937D01*
X162794768Y-170367983D01*
X162858831Y-170344531D01*
X162912721Y-170311314D01*
X162956613Y-170268158D01*
X162990685Y-170214887D01*
X163015116Y-170151325D01*
X163015589Y-170149661D01*
X163018049Y-170138178D01*
X163020092Y-170121956D01*
X163021753Y-170099798D01*
X163023064Y-170070509D01*
X163024058Y-170032892D01*
X163024767Y-169985751D01*
X163025226Y-169927891D01*
X163025467Y-169858116D01*
X163025525Y-169789827D01*
X163025512Y-169713719D01*
X163025432Y-169650350D01*
X163025225Y-169598344D01*
X163024829Y-169556331D01*
X163024184Y-169522935D01*
X163023228Y-169496785D01*
X163021902Y-169476507D01*
X163020143Y-169460728D01*
X163017892Y-169448074D01*
X163015086Y-169437173D01*
X163011666Y-169426650D01*
X163009101Y-169419411D01*
X162979743Y-169355734D01*
X162941282Y-169302750D01*
X162894055Y-169260660D01*
X162838401Y-169229669D01*
X162774658Y-169209982D01*
X162703164Y-169201802D01*
X162650224Y-169202920D01*
G36*
X161775785Y-169206797D02*
G01*
X161711174Y-169223969D01*
X161654877Y-169251795D01*
X161607558Y-169289744D01*
X161569878Y-169337284D01*
X161542499Y-169393882D01*
X161526083Y-169459008D01*
X161526013Y-169459466D01*
X161523828Y-169482293D01*
X161522140Y-169518888D01*
X161520954Y-169568919D01*
X161520273Y-169632051D01*
X161520104Y-169707950D01*
X161520451Y-169796283D01*
X161520639Y-169822827D01*
X161521231Y-169897526D01*
X161521806Y-169959526D01*
X161522436Y-170010240D01*
X161523196Y-170051080D01*
X161524160Y-170083459D01*
X161525400Y-170108787D01*
X161526991Y-170128479D01*
X161529007Y-170143946D01*
X161531520Y-170156600D01*
X161534606Y-170167853D01*
X161538338Y-170179118D01*
X161539402Y-170182164D01*
X161566929Y-170240672D01*
X161604909Y-170290218D01*
X161652436Y-170329852D01*
X161707672Y-170358269D01*
X161740204Y-170367196D01*
X161782133Y-170373500D01*
X161828956Y-170376996D01*
X161876172Y-170377496D01*
X161919277Y-170374815D01*
X161953771Y-170368766D01*
X161954742Y-170368498D01*
X162017332Y-170344687D01*
X162069602Y-170311259D01*
X162111525Y-170268240D01*
X162143076Y-170215656D01*
X162164230Y-170153533D01*
X162164456Y-170152577D01*
X162167381Y-170132636D01*
X162169894Y-170100606D01*
X162171995Y-170058336D01*
X162173684Y-170007675D01*
X162174961Y-169950473D01*
X162175501Y-169911824D01*
X162019395Y-169911824D01*
X162019349Y-169962829D01*
X162018990Y-170003911D01*
X162018278Y-170036464D01*
X162017176Y-170061885D01*
X162015646Y-170081568D01*
X162013648Y-170096909D01*
X162011146Y-170109303D01*
X162009338Y-170116070D01*
X161991223Y-170161034D01*
X161965930Y-170194255D01*
X161932498Y-170216435D01*
X161889966Y-170228275D01*
X161852313Y-170230794D01*
X161818037Y-170228999D01*
X161788449Y-170224144D01*
X161774798Y-170219879D01*
X161739798Y-170199513D01*
X161712401Y-170169760D01*
X161700158Y-170149661D01*
X161696632Y-170142787D01*
X161693699Y-170135576D01*
X161691303Y-170126738D01*
X161689392Y-170114980D01*
X161687910Y-170099010D01*
X161686802Y-170077536D01*
X161686014Y-170049268D01*
X161685492Y-170012912D01*
X161685182Y-169967177D01*
X161685027Y-169910772D01*
X161684975Y-169842404D01*
X161684970Y-169789827D01*
X161684970Y-169458216D01*
X161704560Y-169424890D01*
X161732861Y-169389876D01*
X161770099Y-169365710D01*
X161815995Y-169352555D01*
X161831653Y-169350761D01*
X161884066Y-169352175D01*
X161928833Y-169365196D01*
X161965574Y-169389624D01*
X161993911Y-169425258D01*
X162001883Y-169440577D01*
X162005456Y-169448837D01*
X162008414Y-169457669D01*
X162010825Y-169468456D01*
X162012761Y-169482578D01*
X162014289Y-169501418D01*
X162015480Y-169526357D01*
X162016404Y-169558777D01*
X162017129Y-169600060D01*
X162017726Y-169651586D01*
X162018264Y-169714739D01*
X162018697Y-169774461D01*
X162019165Y-169849500D01*
X162019395Y-169911824D01*
X162175501Y-169911824D01*
X162175826Y-169888577D01*
X162176279Y-169823837D01*
X162176318Y-169758101D01*
X162175946Y-169693219D01*
X162175160Y-169631040D01*
X162173961Y-169573412D01*
X162172349Y-169522184D01*
X162170324Y-169479205D01*
X162167885Y-169446324D01*
X162165033Y-169425390D01*
X162164515Y-169423185D01*
X162141987Y-169362114D01*
X162108940Y-169310118D01*
X162066028Y-169267659D01*
X162013908Y-169235198D01*
X161953236Y-169213196D01*
X161884668Y-169202114D01*
X161848048Y-169200811D01*
X161775785Y-169206797D01*
G37*
X161775785Y-169206797D02*
X161711174Y-169223969D01*
X161654877Y-169251795D01*
X161607558Y-169289744D01*
X161569878Y-169337284D01*
X161542499Y-169393882D01*
X161526083Y-169459008D01*
X161526013Y-169459466D01*
X161523828Y-169482293D01*
X161522140Y-169518888D01*
X161520954Y-169568919D01*
X161520273Y-169632051D01*
X161520104Y-169707950D01*
X161520451Y-169796283D01*
X161520639Y-169822827D01*
X161521231Y-169897526D01*
X161521806Y-169959526D01*
X161522436Y-170010240D01*
X161523196Y-170051080D01*
X161524160Y-170083459D01*
X161525400Y-170108787D01*
X161526991Y-170128479D01*
X161529007Y-170143946D01*
X161531520Y-170156600D01*
X161534606Y-170167853D01*
X161538338Y-170179118D01*
X161539402Y-170182164D01*
X161566929Y-170240672D01*
X161604909Y-170290218D01*
X161652436Y-170329852D01*
X161707672Y-170358269D01*
X161740204Y-170367196D01*
X161782133Y-170373500D01*
X161828956Y-170376996D01*
X161876172Y-170377496D01*
X161919277Y-170374815D01*
X161953771Y-170368766D01*
X161954742Y-170368498D01*
X162017332Y-170344687D01*
X162069602Y-170311259D01*
X162111525Y-170268240D01*
X162143076Y-170215656D01*
X162164230Y-170153533D01*
X162164456Y-170152577D01*
X162167381Y-170132636D01*
X162169894Y-170100606D01*
X162171995Y-170058336D01*
X162173684Y-170007675D01*
X162174961Y-169950473D01*
X162175501Y-169911824D01*
X162019395Y-169911824D01*
X162019349Y-169962829D01*
X162018990Y-170003911D01*
X162018278Y-170036464D01*
X162017176Y-170061885D01*
X162015646Y-170081568D01*
X162013648Y-170096909D01*
X162011146Y-170109303D01*
X162009338Y-170116070D01*
X161991223Y-170161034D01*
X161965930Y-170194255D01*
X161932498Y-170216435D01*
X161889966Y-170228275D01*
X161852313Y-170230794D01*
X161818037Y-170228999D01*
X161788449Y-170224144D01*
X161774798Y-170219879D01*
X161739798Y-170199513D01*
X161712401Y-170169760D01*
X161700158Y-170149661D01*
X161696632Y-170142787D01*
X161693699Y-170135576D01*
X161691303Y-170126738D01*
X161689392Y-170114980D01*
X161687910Y-170099010D01*
X161686802Y-170077536D01*
X161686014Y-170049268D01*
X161685492Y-170012912D01*
X161685182Y-169967177D01*
X161685027Y-169910772D01*
X161684975Y-169842404D01*
X161684970Y-169789827D01*
X161684970Y-169458216D01*
X161704560Y-169424890D01*
X161732861Y-169389876D01*
X161770099Y-169365710D01*
X161815995Y-169352555D01*
X161831653Y-169350761D01*
X161884066Y-169352175D01*
X161928833Y-169365196D01*
X161965574Y-169389624D01*
X161993911Y-169425258D01*
X162001883Y-169440577D01*
X162005456Y-169448837D01*
X162008414Y-169457669D01*
X162010825Y-169468456D01*
X162012761Y-169482578D01*
X162014289Y-169501418D01*
X162015480Y-169526357D01*
X162016404Y-169558777D01*
X162017129Y-169600060D01*
X162017726Y-169651586D01*
X162018264Y-169714739D01*
X162018697Y-169774461D01*
X162019165Y-169849500D01*
X162019395Y-169911824D01*
X162175501Y-169911824D01*
X162175826Y-169888577D01*
X162176279Y-169823837D01*
X162176318Y-169758101D01*
X162175946Y-169693219D01*
X162175160Y-169631040D01*
X162173961Y-169573412D01*
X162172349Y-169522184D01*
X162170324Y-169479205D01*
X162167885Y-169446324D01*
X162165033Y-169425390D01*
X162164515Y-169423185D01*
X162141987Y-169362114D01*
X162108940Y-169310118D01*
X162066028Y-169267659D01*
X162013908Y-169235198D01*
X161953236Y-169213196D01*
X161884668Y-169202114D01*
X161848048Y-169200811D01*
X161775785Y-169206797D01*
G36*
X160969176Y-169203209D02*
G01*
X160909130Y-169213492D01*
X160853661Y-169231672D01*
X160805369Y-169257691D01*
X160774254Y-169283486D01*
X160747457Y-169318144D01*
X160724487Y-169362070D01*
X160707554Y-169410514D01*
X160701084Y-169440577D01*
X160695623Y-169474424D01*
X160693509Y-169496703D01*
X160696809Y-169509817D01*
X160707585Y-169516170D01*
X160727903Y-169518164D01*
X160759826Y-169518204D01*
X160767747Y-169518188D01*
X160841831Y-169518188D01*
X160841831Y-169498302D01*
X160847620Y-169456852D01*
X160863592Y-169417461D01*
X160887653Y-169383389D01*
X160917706Y-169357895D01*
X160938562Y-169347780D01*
X160969154Y-169341006D01*
X161006489Y-169338506D01*
X161045440Y-169340078D01*
X161080877Y-169345520D01*
X161107291Y-169354431D01*
X161143586Y-169380720D01*
X161170523Y-169416701D01*
X161187432Y-169460949D01*
X161193646Y-169512039D01*
X161192781Y-169536801D01*
X161184929Y-169580535D01*
X161168253Y-169617136D01*
X161141589Y-169647790D01*
X161103772Y-169673683D01*
X161053638Y-169696002D01*
X161027820Y-169704854D01*
X160961416Y-169726234D01*
X160906974Y-169744292D01*
X160862944Y-169759771D01*
X160827773Y-169773413D01*
X160799910Y-169785960D01*
X160777805Y-169798154D01*
X160759907Y-169810736D01*
X160744663Y-169824450D01*
X160730523Y-169840036D01*
X160721184Y-169851530D01*
X160692975Y-169897454D01*
X160674744Y-169951644D01*
X160666207Y-170015079D01*
X160665442Y-170043607D01*
X160669677Y-170119003D01*
X160682661Y-170183705D01*
X160704814Y-170238412D01*
X160736553Y-170283821D01*
X160778300Y-170320629D01*
X160830472Y-170349534D01*
X160855193Y-170359341D01*
X160877265Y-170365924D01*
X160902716Y-170370526D01*
X160934831Y-170373545D01*
X160976894Y-170375381D01*
X160989997Y-170375717D01*
X161026771Y-170376285D01*
X161059757Y-170376291D01*
X161085712Y-170375769D01*
X161101395Y-170374753D01*
X161102886Y-170374519D01*
X161168720Y-170356380D01*
X161224226Y-170328989D01*
X161269686Y-170292016D01*
X161305385Y-170245134D01*
X161331606Y-170188014D01*
X161348634Y-170120327D01*
X161353582Y-170084397D01*
X161358272Y-170040300D01*
X161210663Y-170040300D01*
X161205914Y-170080869D01*
X161194045Y-170132868D01*
X161171900Y-170175271D01*
X161139759Y-170207845D01*
X161097899Y-170230362D01*
X161046601Y-170242589D01*
X161007636Y-170244911D01*
X160950277Y-170239669D01*
X160902429Y-170224122D01*
X160864366Y-170198540D01*
X160836366Y-170163190D01*
X160818705Y-170118341D01*
X160811657Y-170064263D01*
X160811535Y-170054115D01*
X160813578Y-170016505D01*
X160819118Y-169988500D01*
X160822596Y-169979885D01*
X160844289Y-169948769D01*
X160875831Y-169921288D01*
X160918386Y-169896721D01*
X160973116Y-169874350D01*
X161014692Y-169860964D01*
X161063957Y-169845419D01*
X161111793Y-169828604D01*
X161155130Y-169811716D01*
X161190897Y-169795951D01*
X161215775Y-169782660D01*
X161243535Y-169761095D01*
X161272021Y-169732296D01*
X161297023Y-169701013D01*
X161314333Y-169672000D01*
X161314905Y-169670731D01*
X161332166Y-169617667D01*
X161340416Y-169559450D01*
X161340127Y-169498857D01*
X161331772Y-169438665D01*
X161315822Y-169381650D01*
X161292751Y-169330588D01*
X161263029Y-169288256D01*
X161247161Y-169272397D01*
X161203189Y-169242276D01*
X161150806Y-169220358D01*
X161092611Y-169206581D01*
X161031202Y-169200885D01*
X160969176Y-169203209D01*
G37*
X160969176Y-169203209D02*
X160909130Y-169213492D01*
X160853661Y-169231672D01*
X160805369Y-169257691D01*
X160774254Y-169283486D01*
X160747457Y-169318144D01*
X160724487Y-169362070D01*
X160707554Y-169410514D01*
X160701084Y-169440577D01*
X160695623Y-169474424D01*
X160693509Y-169496703D01*
X160696809Y-169509817D01*
X160707585Y-169516170D01*
X160727903Y-169518164D01*
X160759826Y-169518204D01*
X160767747Y-169518188D01*
X160841831Y-169518188D01*
X160841831Y-169498302D01*
X160847620Y-169456852D01*
X160863592Y-169417461D01*
X160887653Y-169383389D01*
X160917706Y-169357895D01*
X160938562Y-169347780D01*
X160969154Y-169341006D01*
X161006489Y-169338506D01*
X161045440Y-169340078D01*
X161080877Y-169345520D01*
X161107291Y-169354431D01*
X161143586Y-169380720D01*
X161170523Y-169416701D01*
X161187432Y-169460949D01*
X161193646Y-169512039D01*
X161192781Y-169536801D01*
X161184929Y-169580535D01*
X161168253Y-169617136D01*
X161141589Y-169647790D01*
X161103772Y-169673683D01*
X161053638Y-169696002D01*
X161027820Y-169704854D01*
X160961416Y-169726234D01*
X160906974Y-169744292D01*
X160862944Y-169759771D01*
X160827773Y-169773413D01*
X160799910Y-169785960D01*
X160777805Y-169798154D01*
X160759907Y-169810736D01*
X160744663Y-169824450D01*
X160730523Y-169840036D01*
X160721184Y-169851530D01*
X160692975Y-169897454D01*
X160674744Y-169951644D01*
X160666207Y-170015079D01*
X160665442Y-170043607D01*
X160669677Y-170119003D01*
X160682661Y-170183705D01*
X160704814Y-170238412D01*
X160736553Y-170283821D01*
X160778300Y-170320629D01*
X160830472Y-170349534D01*
X160855193Y-170359341D01*
X160877265Y-170365924D01*
X160902716Y-170370526D01*
X160934831Y-170373545D01*
X160976894Y-170375381D01*
X160989997Y-170375717D01*
X161026771Y-170376285D01*
X161059757Y-170376291D01*
X161085712Y-170375769D01*
X161101395Y-170374753D01*
X161102886Y-170374519D01*
X161168720Y-170356380D01*
X161224226Y-170328989D01*
X161269686Y-170292016D01*
X161305385Y-170245134D01*
X161331606Y-170188014D01*
X161348634Y-170120327D01*
X161353582Y-170084397D01*
X161358272Y-170040300D01*
X161210663Y-170040300D01*
X161205914Y-170080869D01*
X161194045Y-170132868D01*
X161171900Y-170175271D01*
X161139759Y-170207845D01*
X161097899Y-170230362D01*
X161046601Y-170242589D01*
X161007636Y-170244911D01*
X160950277Y-170239669D01*
X160902429Y-170224122D01*
X160864366Y-170198540D01*
X160836366Y-170163190D01*
X160818705Y-170118341D01*
X160811657Y-170064263D01*
X160811535Y-170054115D01*
X160813578Y-170016505D01*
X160819118Y-169988500D01*
X160822596Y-169979885D01*
X160844289Y-169948769D01*
X160875831Y-169921288D01*
X160918386Y-169896721D01*
X160973116Y-169874350D01*
X161014692Y-169860964D01*
X161063957Y-169845419D01*
X161111793Y-169828604D01*
X161155130Y-169811716D01*
X161190897Y-169795951D01*
X161215775Y-169782660D01*
X161243535Y-169761095D01*
X161272021Y-169732296D01*
X161297023Y-169701013D01*
X161314333Y-169672000D01*
X161314905Y-169670731D01*
X161332166Y-169617667D01*
X161340416Y-169559450D01*
X161340127Y-169498857D01*
X161331772Y-169438665D01*
X161315822Y-169381650D01*
X161292751Y-169330588D01*
X161263029Y-169288256D01*
X161247161Y-169272397D01*
X161203189Y-169242276D01*
X161150806Y-169220358D01*
X161092611Y-169206581D01*
X161031202Y-169200885D01*
X160969176Y-169203209D01*
G36*
X160077927Y-169211055D02*
G01*
X160015512Y-169230762D01*
X159960461Y-169261374D01*
X159914192Y-169301848D01*
X159878121Y-169351140D01*
X159871744Y-169362966D01*
X159860204Y-169386571D01*
X159851018Y-169408257D01*
X159843885Y-169430079D01*
X159838503Y-169454093D01*
X159834573Y-169482355D01*
X159831791Y-169516921D01*
X159829858Y-169559846D01*
X159828472Y-169613186D01*
X159827557Y-169664591D01*
X159824495Y-169856855D01*
X160349365Y-169856855D01*
X160346336Y-169975036D01*
X160344792Y-170022818D01*
X160342785Y-170058824D01*
X160340069Y-170085386D01*
X160336395Y-170104836D01*
X160331517Y-170119509D01*
X160330870Y-170120990D01*
X160304753Y-170165999D01*
X160271817Y-170198828D01*
X160231311Y-170219957D01*
X160182485Y-170229867D01*
X160159358Y-170230800D01*
X160124575Y-170228983D01*
X160094763Y-170224056D01*
X160081368Y-170219842D01*
X160042972Y-170196437D01*
X160012640Y-170162679D01*
X159991911Y-170120728D01*
X159983208Y-170082150D01*
X159979088Y-170047355D01*
X159825831Y-170047355D01*
X159825915Y-170084397D01*
X159832632Y-170146131D01*
X159851757Y-170204674D01*
X159882171Y-170257371D01*
X159914181Y-170293822D01*
X159958667Y-170329558D01*
X160006574Y-170354878D01*
X160060353Y-170370632D01*
X160122455Y-170377672D01*
X160157160Y-170378193D01*
X160190738Y-170377199D01*
X160222728Y-170375206D01*
X160247921Y-170372576D01*
X160254976Y-170371417D01*
X160313803Y-170352858D01*
X160367049Y-170322039D01*
X160413590Y-170280087D01*
X160452298Y-170228133D01*
X160482048Y-170167304D01*
X160493751Y-170132022D01*
X160497019Y-170119269D01*
X160499692Y-170105423D01*
X160501829Y-170088985D01*
X160503488Y-170068458D01*
X160504727Y-170042346D01*
X160505604Y-170009151D01*
X160506178Y-169967377D01*
X160506508Y-169915527D01*
X160506651Y-169852103D01*
X160506672Y-169800411D01*
X160506586Y-169722774D01*
X160506228Y-169657681D01*
X160505736Y-169624369D01*
X160347942Y-169624369D01*
X160347942Y-169708688D01*
X159988109Y-169708688D01*
X159988109Y-169611032D01*
X159989034Y-169557802D01*
X159992190Y-169515727D01*
X159998143Y-169481951D01*
X160007463Y-169453617D01*
X160020717Y-169427868D01*
X160026272Y-169419116D01*
X160055065Y-169387647D01*
X160091882Y-169365388D01*
X160133761Y-169352689D01*
X160177742Y-169349900D01*
X160220866Y-169357372D01*
X160260173Y-169375453D01*
X160278297Y-169389323D01*
X160302820Y-169415422D01*
X160321316Y-169445022D01*
X160334425Y-169480286D01*
X160342790Y-169523382D01*
X160347052Y-169576475D01*
X160347942Y-169624369D01*
X160505736Y-169624369D01*
X160505428Y-169603564D01*
X160504016Y-169558855D01*
X160501824Y-169521986D01*
X160498681Y-169491390D01*
X160494418Y-169465500D01*
X160488865Y-169442748D01*
X160481854Y-169421566D01*
X160473214Y-169400387D01*
X160462776Y-169377643D01*
X160460421Y-169372691D01*
X160427178Y-169318548D01*
X160384351Y-169274020D01*
X160333131Y-169239611D01*
X160274711Y-169215824D01*
X160210281Y-169203162D01*
X160141032Y-169202130D01*
X160077927Y-169211055D01*
G37*
X160077927Y-169211055D02*
X160015512Y-169230762D01*
X159960461Y-169261374D01*
X159914192Y-169301848D01*
X159878121Y-169351140D01*
X159871744Y-169362966D01*
X159860204Y-169386571D01*
X159851018Y-169408257D01*
X159843885Y-169430079D01*
X159838503Y-169454093D01*
X159834573Y-169482355D01*
X159831791Y-169516921D01*
X159829858Y-169559846D01*
X159828472Y-169613186D01*
X159827557Y-169664591D01*
X159824495Y-169856855D01*
X160349365Y-169856855D01*
X160346336Y-169975036D01*
X160344792Y-170022818D01*
X160342785Y-170058824D01*
X160340069Y-170085386D01*
X160336395Y-170104836D01*
X160331517Y-170119509D01*
X160330870Y-170120990D01*
X160304753Y-170165999D01*
X160271817Y-170198828D01*
X160231311Y-170219957D01*
X160182485Y-170229867D01*
X160159358Y-170230800D01*
X160124575Y-170228983D01*
X160094763Y-170224056D01*
X160081368Y-170219842D01*
X160042972Y-170196437D01*
X160012640Y-170162679D01*
X159991911Y-170120728D01*
X159983208Y-170082150D01*
X159979088Y-170047355D01*
X159825831Y-170047355D01*
X159825915Y-170084397D01*
X159832632Y-170146131D01*
X159851757Y-170204674D01*
X159882171Y-170257371D01*
X159914181Y-170293822D01*
X159958667Y-170329558D01*
X160006574Y-170354878D01*
X160060353Y-170370632D01*
X160122455Y-170377672D01*
X160157160Y-170378193D01*
X160190738Y-170377199D01*
X160222728Y-170375206D01*
X160247921Y-170372576D01*
X160254976Y-170371417D01*
X160313803Y-170352858D01*
X160367049Y-170322039D01*
X160413590Y-170280087D01*
X160452298Y-170228133D01*
X160482048Y-170167304D01*
X160493751Y-170132022D01*
X160497019Y-170119269D01*
X160499692Y-170105423D01*
X160501829Y-170088985D01*
X160503488Y-170068458D01*
X160504727Y-170042346D01*
X160505604Y-170009151D01*
X160506178Y-169967377D01*
X160506508Y-169915527D01*
X160506651Y-169852103D01*
X160506672Y-169800411D01*
X160506586Y-169722774D01*
X160506228Y-169657681D01*
X160505736Y-169624369D01*
X160347942Y-169624369D01*
X160347942Y-169708688D01*
X159988109Y-169708688D01*
X159988109Y-169611032D01*
X159989034Y-169557802D01*
X159992190Y-169515727D01*
X159998143Y-169481951D01*
X160007463Y-169453617D01*
X160020717Y-169427868D01*
X160026272Y-169419116D01*
X160055065Y-169387647D01*
X160091882Y-169365388D01*
X160133761Y-169352689D01*
X160177742Y-169349900D01*
X160220866Y-169357372D01*
X160260173Y-169375453D01*
X160278297Y-169389323D01*
X160302820Y-169415422D01*
X160321316Y-169445022D01*
X160334425Y-169480286D01*
X160342790Y-169523382D01*
X160347052Y-169576475D01*
X160347942Y-169624369D01*
X160505736Y-169624369D01*
X160505428Y-169603564D01*
X160504016Y-169558855D01*
X160501824Y-169521986D01*
X160498681Y-169491390D01*
X160494418Y-169465500D01*
X160488865Y-169442748D01*
X160481854Y-169421566D01*
X160473214Y-169400387D01*
X160462776Y-169377643D01*
X160460421Y-169372691D01*
X160427178Y-169318548D01*
X160384351Y-169274020D01*
X160333131Y-169239611D01*
X160274711Y-169215824D01*
X160210281Y-169203162D01*
X160141032Y-169202130D01*
X160077927Y-169211055D01*
G36*
X157745243Y-169212302D02*
G01*
X157682068Y-169231194D01*
X157628436Y-169260064D01*
X157583781Y-169299285D01*
X157547538Y-169349230D01*
X157524081Y-169397501D01*
X157520900Y-169405535D01*
X157518166Y-169413468D01*
X157515841Y-169422389D01*
X157513886Y-169433391D01*
X157512261Y-169447563D01*
X157510927Y-169465995D01*
X157509845Y-169489779D01*
X157508976Y-169520004D01*
X157508281Y-169557762D01*
X157507720Y-169604142D01*
X157507256Y-169660235D01*
X157506848Y-169727132D01*
X157506457Y-169805923D01*
X157506045Y-169897698D01*
X157506031Y-169900952D01*
X157503981Y-170364855D01*
X157652720Y-170364855D01*
X157652720Y-170263960D01*
X157673589Y-170292769D01*
X157704153Y-170324159D01*
X157745217Y-170350029D01*
X157793619Y-170368405D01*
X157795496Y-170368912D01*
X157825141Y-170374112D01*
X157863622Y-170377129D01*
X157906162Y-170377964D01*
X157947984Y-170376616D01*
X157984312Y-170373087D01*
X158005497Y-170368893D01*
X158060539Y-170347761D01*
X158105881Y-170317400D01*
X158141752Y-170277434D01*
X158168378Y-170227487D01*
X158185988Y-170167183D01*
X158194808Y-170096146D01*
X158195997Y-170054057D01*
X158195676Y-170047355D01*
X158050457Y-170047355D01*
X158047986Y-170106326D01*
X158038805Y-170154041D01*
X158022374Y-170191937D01*
X157998154Y-170221448D01*
X157979637Y-170235740D01*
X157945123Y-170251484D01*
X157902282Y-170260694D01*
X157855383Y-170263198D01*
X157808694Y-170258825D01*
X157766484Y-170247403D01*
X157759646Y-170244566D01*
X157721828Y-170222982D01*
X157693813Y-170194663D01*
X157672720Y-170157651D01*
X157667481Y-170145224D01*
X157663453Y-170132799D01*
X157660440Y-170118282D01*
X157658246Y-170099580D01*
X157656677Y-170074601D01*
X157655537Y-170041253D01*
X157654631Y-169997443D01*
X157653994Y-169956839D01*
X157651571Y-169792240D01*
X157784437Y-169794562D01*
X157830933Y-169795437D01*
X157865681Y-169796414D01*
X157891044Y-169797802D01*
X157909383Y-169799914D01*
X157923061Y-169803061D01*
X157934440Y-169807552D01*
X157945881Y-169813701D01*
X157950578Y-169816443D01*
X157987025Y-169844148D01*
X158014765Y-169879835D01*
X158034266Y-169924592D01*
X158046000Y-169979504D01*
X158050437Y-170045660D01*
X158050457Y-170047355D01*
X158195676Y-170047355D01*
X158192303Y-169977060D01*
X158180910Y-169910708D01*
X158161357Y-169853528D01*
X158133178Y-169804050D01*
X158107318Y-169772400D01*
X158081150Y-169746997D01*
X158053902Y-169726597D01*
X158023595Y-169710600D01*
X157988251Y-169698410D01*
X157945890Y-169689427D01*
X157894534Y-169683054D01*
X157832203Y-169678691D01*
X157791412Y-169676891D01*
X157651487Y-169671644D01*
X157653986Y-169564930D01*
X157655213Y-169522263D01*
X157656826Y-169490981D01*
X157659179Y-169468360D01*
X157662629Y-169451673D01*
X157667530Y-169438196D01*
X157671595Y-169429994D01*
X157698700Y-169390815D01*
X157732770Y-169362701D01*
X157775193Y-169344835D01*
X157827357Y-169336401D01*
X157830991Y-169336167D01*
X157878283Y-169336541D01*
X157916260Y-169344689D01*
X157948046Y-169361725D01*
X157975904Y-169387777D01*
X158003513Y-169428842D01*
X158017634Y-169473865D01*
X158019609Y-169499604D01*
X158019609Y-169525244D01*
X158174831Y-169525244D01*
X158174727Y-169498786D01*
X158172997Y-169477498D01*
X158168622Y-169449496D01*
X158163956Y-169427077D01*
X158143068Y-169366278D01*
X158111539Y-169314346D01*
X158070046Y-169271720D01*
X158019264Y-169238838D01*
X157959870Y-169216140D01*
X157892540Y-169204064D01*
X157818525Y-169203014D01*
X157745243Y-169212302D01*
G37*
X157745243Y-169212302D02*
X157682068Y-169231194D01*
X157628436Y-169260064D01*
X157583781Y-169299285D01*
X157547538Y-169349230D01*
X157524081Y-169397501D01*
X157520900Y-169405535D01*
X157518166Y-169413468D01*
X157515841Y-169422389D01*
X157513886Y-169433391D01*
X157512261Y-169447563D01*
X157510927Y-169465995D01*
X157509845Y-169489779D01*
X157508976Y-169520004D01*
X157508281Y-169557762D01*
X157507720Y-169604142D01*
X157507256Y-169660235D01*
X157506848Y-169727132D01*
X157506457Y-169805923D01*
X157506045Y-169897698D01*
X157506031Y-169900952D01*
X157503981Y-170364855D01*
X157652720Y-170364855D01*
X157652720Y-170263960D01*
X157673589Y-170292769D01*
X157704153Y-170324159D01*
X157745217Y-170350029D01*
X157793619Y-170368405D01*
X157795496Y-170368912D01*
X157825141Y-170374112D01*
X157863622Y-170377129D01*
X157906162Y-170377964D01*
X157947984Y-170376616D01*
X157984312Y-170373087D01*
X158005497Y-170368893D01*
X158060539Y-170347761D01*
X158105881Y-170317400D01*
X158141752Y-170277434D01*
X158168378Y-170227487D01*
X158185988Y-170167183D01*
X158194808Y-170096146D01*
X158195997Y-170054057D01*
X158195676Y-170047355D01*
X158050457Y-170047355D01*
X158047986Y-170106326D01*
X158038805Y-170154041D01*
X158022374Y-170191937D01*
X157998154Y-170221448D01*
X157979637Y-170235740D01*
X157945123Y-170251484D01*
X157902282Y-170260694D01*
X157855383Y-170263198D01*
X157808694Y-170258825D01*
X157766484Y-170247403D01*
X157759646Y-170244566D01*
X157721828Y-170222982D01*
X157693813Y-170194663D01*
X157672720Y-170157651D01*
X157667481Y-170145224D01*
X157663453Y-170132799D01*
X157660440Y-170118282D01*
X157658246Y-170099580D01*
X157656677Y-170074601D01*
X157655537Y-170041253D01*
X157654631Y-169997443D01*
X157653994Y-169956839D01*
X157651571Y-169792240D01*
X157784437Y-169794562D01*
X157830933Y-169795437D01*
X157865681Y-169796414D01*
X157891044Y-169797802D01*
X157909383Y-169799914D01*
X157923061Y-169803061D01*
X157934440Y-169807552D01*
X157945881Y-169813701D01*
X157950578Y-169816443D01*
X157987025Y-169844148D01*
X158014765Y-169879835D01*
X158034266Y-169924592D01*
X158046000Y-169979504D01*
X158050437Y-170045660D01*
X158050457Y-170047355D01*
X158195676Y-170047355D01*
X158192303Y-169977060D01*
X158180910Y-169910708D01*
X158161357Y-169853528D01*
X158133178Y-169804050D01*
X158107318Y-169772400D01*
X158081150Y-169746997D01*
X158053902Y-169726597D01*
X158023595Y-169710600D01*
X157988251Y-169698410D01*
X157945890Y-169689427D01*
X157894534Y-169683054D01*
X157832203Y-169678691D01*
X157791412Y-169676891D01*
X157651487Y-169671644D01*
X157653986Y-169564930D01*
X157655213Y-169522263D01*
X157656826Y-169490981D01*
X157659179Y-169468360D01*
X157662629Y-169451673D01*
X157667530Y-169438196D01*
X157671595Y-169429994D01*
X157698700Y-169390815D01*
X157732770Y-169362701D01*
X157775193Y-169344835D01*
X157827357Y-169336401D01*
X157830991Y-169336167D01*
X157878283Y-169336541D01*
X157916260Y-169344689D01*
X157948046Y-169361725D01*
X157975904Y-169387777D01*
X158003513Y-169428842D01*
X158017634Y-169473865D01*
X158019609Y-169499604D01*
X158019609Y-169525244D01*
X158174831Y-169525244D01*
X158174727Y-169498786D01*
X158172997Y-169477498D01*
X158168622Y-169449496D01*
X158163956Y-169427077D01*
X158143068Y-169366278D01*
X158111539Y-169314346D01*
X158070046Y-169271720D01*
X158019264Y-169238838D01*
X157959870Y-169216140D01*
X157892540Y-169204064D01*
X157818525Y-169203014D01*
X157745243Y-169212302D01*
G36*
X154181386Y-169654491D02*
G01*
X154181365Y-169748438D01*
X154181243Y-169829356D01*
X154180936Y-169898327D01*
X154180359Y-169956434D01*
X154179428Y-170004759D01*
X154178059Y-170044384D01*
X154176165Y-170076391D01*
X154173664Y-170101862D01*
X154170469Y-170121880D01*
X154166497Y-170137527D01*
X154161662Y-170149885D01*
X154155879Y-170160036D01*
X154149065Y-170169063D01*
X154141135Y-170178047D01*
X154140343Y-170178914D01*
X154117624Y-170200184D01*
X154093107Y-170214616D01*
X154063191Y-170223573D01*
X154024281Y-170228415D01*
X154006787Y-170229441D01*
X153974655Y-170230549D01*
X153951995Y-170229826D01*
X153934211Y-170226567D01*
X153916708Y-170220067D01*
X153902708Y-170213478D01*
X153874793Y-170197039D01*
X153855136Y-170177544D01*
X153844474Y-170161484D01*
X153825081Y-170128494D01*
X153823118Y-169675175D01*
X153821155Y-169221855D01*
X153659275Y-169221855D01*
X153659275Y-170364855D01*
X153820982Y-170364855D01*
X153823032Y-170307780D01*
X153825081Y-170250705D01*
X153847265Y-170282233D01*
X153882344Y-170320422D01*
X153926978Y-170350434D01*
X153969435Y-170367645D01*
X154005366Y-170374737D01*
X154048531Y-170377955D01*
X154093193Y-170377288D01*
X154133612Y-170372728D01*
X154154130Y-170367911D01*
X154205576Y-170344868D01*
X154249998Y-170309674D01*
X154287201Y-170262522D01*
X154316732Y-170204254D01*
X154333081Y-170163772D01*
X154335127Y-169692813D01*
X154337173Y-169221855D01*
X154181386Y-169221855D01*
X154181386Y-169654491D01*
G37*
X154181386Y-169654491D02*
X154181365Y-169748438D01*
X154181243Y-169829356D01*
X154180936Y-169898327D01*
X154180359Y-169956434D01*
X154179428Y-170004759D01*
X154178059Y-170044384D01*
X154176165Y-170076391D01*
X154173664Y-170101862D01*
X154170469Y-170121880D01*
X154166497Y-170137527D01*
X154161662Y-170149885D01*
X154155879Y-170160036D01*
X154149065Y-170169063D01*
X154141135Y-170178047D01*
X154140343Y-170178914D01*
X154117624Y-170200184D01*
X154093107Y-170214616D01*
X154063191Y-170223573D01*
X154024281Y-170228415D01*
X154006787Y-170229441D01*
X153974655Y-170230549D01*
X153951995Y-170229826D01*
X153934211Y-170226567D01*
X153916708Y-170220067D01*
X153902708Y-170213478D01*
X153874793Y-170197039D01*
X153855136Y-170177544D01*
X153844474Y-170161484D01*
X153825081Y-170128494D01*
X153823118Y-169675175D01*
X153821155Y-169221855D01*
X153659275Y-169221855D01*
X153659275Y-170364855D01*
X153820982Y-170364855D01*
X153823032Y-170307780D01*
X153825081Y-170250705D01*
X153847265Y-170282233D01*
X153882344Y-170320422D01*
X153926978Y-170350434D01*
X153969435Y-170367645D01*
X154005366Y-170374737D01*
X154048531Y-170377955D01*
X154093193Y-170377288D01*
X154133612Y-170372728D01*
X154154130Y-170367911D01*
X154205576Y-170344868D01*
X154249998Y-170309674D01*
X154287201Y-170262522D01*
X154316732Y-170204254D01*
X154333081Y-170163772D01*
X154335127Y-169692813D01*
X154337173Y-169221855D01*
X154181386Y-169221855D01*
X154181386Y-169654491D01*
G36*
X149474171Y-168751622D02*
G01*
X149418864Y-168760894D01*
X149371012Y-168777453D01*
X149327806Y-168802286D01*
X149286439Y-168836377D01*
X149284543Y-168838176D01*
X149244400Y-168885188D01*
X149214434Y-168940449D01*
X149196692Y-168993474D01*
X149194440Y-169009400D01*
X149192427Y-169038035D01*
X149190652Y-169077978D01*
X149189116Y-169127830D01*
X149187818Y-169186190D01*
X149186758Y-169251659D01*
X149185935Y-169322835D01*
X149185349Y-169398319D01*
X149185000Y-169476711D01*
X149184887Y-169556610D01*
X149185012Y-169636617D01*
X149185372Y-169715330D01*
X149185968Y-169791350D01*
X149186799Y-169863277D01*
X149187866Y-169929711D01*
X149189167Y-169989251D01*
X149190704Y-170040497D01*
X149192475Y-170082048D01*
X149194480Y-170112506D01*
X149196718Y-170130469D01*
X149196917Y-170131365D01*
X149218820Y-170196178D01*
X149251654Y-170252209D01*
X149294933Y-170298962D01*
X149348168Y-170335945D01*
X149410872Y-170362664D01*
X149431207Y-170368539D01*
X149464296Y-170374295D01*
X149506317Y-170377513D01*
X149552385Y-170378209D01*
X149597613Y-170376397D01*
X149637114Y-170372094D01*
X149657983Y-170367815D01*
X149715431Y-170346308D01*
X149768134Y-170314868D01*
X149813377Y-170275580D01*
X149848442Y-170230530D01*
X149857334Y-170214722D01*
X149866095Y-170194003D01*
X149875877Y-170165510D01*
X149884630Y-170135241D01*
X149884988Y-170133850D01*
X149887587Y-170123087D01*
X149889835Y-170111856D01*
X149891757Y-170099102D01*
X149893380Y-170083770D01*
X149894727Y-170064803D01*
X149895825Y-170041148D01*
X149896699Y-170011748D01*
X149897374Y-169975548D01*
X149897875Y-169931493D01*
X149898228Y-169878527D01*
X149898458Y-169815596D01*
X149898590Y-169741644D01*
X149898651Y-169655615D01*
X149898664Y-169564050D01*
X149898650Y-169465954D01*
X149898589Y-169380912D01*
X149898455Y-169307866D01*
X149898224Y-169245758D01*
X149897868Y-169193531D01*
X149897363Y-169150127D01*
X149896682Y-169114489D01*
X149895800Y-169085558D01*
X149894690Y-169062277D01*
X149893722Y-169048994D01*
X149739914Y-169048994D01*
X149739914Y-169560522D01*
X149739894Y-169658456D01*
X149739816Y-169743300D01*
X149739659Y-169816072D01*
X149739399Y-169877792D01*
X149739014Y-169929481D01*
X149738479Y-169972158D01*
X149737771Y-170006843D01*
X149736869Y-170034556D01*
X149735748Y-170056317D01*
X149734385Y-170073146D01*
X149732757Y-170086062D01*
X149730842Y-170096086D01*
X149728616Y-170104237D01*
X149727512Y-170107551D01*
X149704985Y-170154090D01*
X149673740Y-170189579D01*
X149633691Y-170214076D01*
X149584754Y-170227635D01*
X149542359Y-170230662D01*
X149507940Y-170229540D01*
X149481828Y-170225487D01*
X149458346Y-170217471D01*
X149450636Y-170213984D01*
X149412541Y-170190869D01*
X149383529Y-170160601D01*
X149361056Y-170121438D01*
X149344803Y-170086161D01*
X149344803Y-169041938D01*
X149361477Y-169005059D01*
X149382000Y-168970812D01*
X149409702Y-168939800D01*
X149440728Y-168915793D01*
X149464423Y-168904462D01*
X149498222Y-168897487D01*
X149538900Y-168895208D01*
X149580015Y-168897658D01*
X149611221Y-168903690D01*
X149651198Y-168922001D01*
X149686571Y-168951432D01*
X149714222Y-168989068D01*
X149723618Y-169008653D01*
X149739914Y-169048994D01*
X149893722Y-169048994D01*
X149893327Y-169043589D01*
X149891684Y-169028436D01*
X149889737Y-169015760D01*
X149887459Y-169004505D01*
X149884824Y-168993611D01*
X149884707Y-168993152D01*
X149866179Y-168935771D01*
X149841874Y-168888609D01*
X149809908Y-168848319D01*
X149794878Y-168833674D01*
X149751100Y-168799413D01*
X149704064Y-168774646D01*
X149651261Y-168758535D01*
X149590186Y-168750246D01*
X149539741Y-168748652D01*
X149474171Y-168751622D01*
G37*
X149474171Y-168751622D02*
X149418864Y-168760894D01*
X149371012Y-168777453D01*
X149327806Y-168802286D01*
X149286439Y-168836377D01*
X149284543Y-168838176D01*
X149244400Y-168885188D01*
X149214434Y-168940449D01*
X149196692Y-168993474D01*
X149194440Y-169009400D01*
X149192427Y-169038035D01*
X149190652Y-169077978D01*
X149189116Y-169127830D01*
X149187818Y-169186190D01*
X149186758Y-169251659D01*
X149185935Y-169322835D01*
X149185349Y-169398319D01*
X149185000Y-169476711D01*
X149184887Y-169556610D01*
X149185012Y-169636617D01*
X149185372Y-169715330D01*
X149185968Y-169791350D01*
X149186799Y-169863277D01*
X149187866Y-169929711D01*
X149189167Y-169989251D01*
X149190704Y-170040497D01*
X149192475Y-170082048D01*
X149194480Y-170112506D01*
X149196718Y-170130469D01*
X149196917Y-170131365D01*
X149218820Y-170196178D01*
X149251654Y-170252209D01*
X149294933Y-170298962D01*
X149348168Y-170335945D01*
X149410872Y-170362664D01*
X149431207Y-170368539D01*
X149464296Y-170374295D01*
X149506317Y-170377513D01*
X149552385Y-170378209D01*
X149597613Y-170376397D01*
X149637114Y-170372094D01*
X149657983Y-170367815D01*
X149715431Y-170346308D01*
X149768134Y-170314868D01*
X149813377Y-170275580D01*
X149848442Y-170230530D01*
X149857334Y-170214722D01*
X149866095Y-170194003D01*
X149875877Y-170165510D01*
X149884630Y-170135241D01*
X149884988Y-170133850D01*
X149887587Y-170123087D01*
X149889835Y-170111856D01*
X149891757Y-170099102D01*
X149893380Y-170083770D01*
X149894727Y-170064803D01*
X149895825Y-170041148D01*
X149896699Y-170011748D01*
X149897374Y-169975548D01*
X149897875Y-169931493D01*
X149898228Y-169878527D01*
X149898458Y-169815596D01*
X149898590Y-169741644D01*
X149898651Y-169655615D01*
X149898664Y-169564050D01*
X149898650Y-169465954D01*
X149898589Y-169380912D01*
X149898455Y-169307866D01*
X149898224Y-169245758D01*
X149897868Y-169193531D01*
X149897363Y-169150127D01*
X149896682Y-169114489D01*
X149895800Y-169085558D01*
X149894690Y-169062277D01*
X149893722Y-169048994D01*
X149739914Y-169048994D01*
X149739914Y-169560522D01*
X149739894Y-169658456D01*
X149739816Y-169743300D01*
X149739659Y-169816072D01*
X149739399Y-169877792D01*
X149739014Y-169929481D01*
X149738479Y-169972158D01*
X149737771Y-170006843D01*
X149736869Y-170034556D01*
X149735748Y-170056317D01*
X149734385Y-170073146D01*
X149732757Y-170086062D01*
X149730842Y-170096086D01*
X149728616Y-170104237D01*
X149727512Y-170107551D01*
X149704985Y-170154090D01*
X149673740Y-170189579D01*
X149633691Y-170214076D01*
X149584754Y-170227635D01*
X149542359Y-170230662D01*
X149507940Y-170229540D01*
X149481828Y-170225487D01*
X149458346Y-170217471D01*
X149450636Y-170213984D01*
X149412541Y-170190869D01*
X149383529Y-170160601D01*
X149361056Y-170121438D01*
X149344803Y-170086161D01*
X149344803Y-169041938D01*
X149361477Y-169005059D01*
X149382000Y-168970812D01*
X149409702Y-168939800D01*
X149440728Y-168915793D01*
X149464423Y-168904462D01*
X149498222Y-168897487D01*
X149538900Y-168895208D01*
X149580015Y-168897658D01*
X149611221Y-168903690D01*
X149651198Y-168922001D01*
X149686571Y-168951432D01*
X149714222Y-168989068D01*
X149723618Y-169008653D01*
X149739914Y-169048994D01*
X149893722Y-169048994D01*
X149893327Y-169043589D01*
X149891684Y-169028436D01*
X149889737Y-169015760D01*
X149887459Y-169004505D01*
X149884824Y-168993611D01*
X149884707Y-168993152D01*
X149866179Y-168935771D01*
X149841874Y-168888609D01*
X149809908Y-168848319D01*
X149794878Y-168833674D01*
X149751100Y-168799413D01*
X149704064Y-168774646D01*
X149651261Y-168758535D01*
X149590186Y-168750246D01*
X149539741Y-168748652D01*
X149474171Y-168751622D01*
G36*
X147640662Y-168751424D02*
G01*
X147601017Y-168756261D01*
X147583067Y-168760013D01*
X147520517Y-168782992D01*
X147466179Y-168817154D01*
X147420831Y-168861688D01*
X147385249Y-168915783D01*
X147360211Y-168978628D01*
X147355190Y-168997706D01*
X147353167Y-169008213D01*
X147351413Y-169022022D01*
X147349911Y-169040109D01*
X147348643Y-169063451D01*
X147347591Y-169093025D01*
X147346737Y-169129807D01*
X147346062Y-169174773D01*
X147345550Y-169228900D01*
X147345182Y-169293164D01*
X147344940Y-169368541D01*
X147344806Y-169456009D01*
X147344762Y-169556543D01*
X147344762Y-169564050D01*
X147344775Y-169666992D01*
X147344855Y-169756855D01*
X147345066Y-169834668D01*
X147345469Y-169901464D01*
X147346127Y-169958272D01*
X147347103Y-170006124D01*
X147348458Y-170046051D01*
X147350255Y-170079084D01*
X147352557Y-170106253D01*
X147355425Y-170128591D01*
X147358923Y-170147127D01*
X147363113Y-170162893D01*
X147368056Y-170176920D01*
X147373816Y-170190238D01*
X147380456Y-170203880D01*
X147383902Y-170210705D01*
X147417609Y-170261969D01*
X147462239Y-170305694D01*
X147516029Y-170340521D01*
X147577216Y-170365094D01*
X147588263Y-170368163D01*
X147621778Y-170374065D01*
X147664033Y-170377430D01*
X147710180Y-170378260D01*
X147755371Y-170376556D01*
X147794760Y-170372321D01*
X147815409Y-170368089D01*
X147879223Y-170344908D01*
X147933154Y-170312085D01*
X147977923Y-170268953D01*
X148014253Y-170214848D01*
X148037729Y-170163208D01*
X148053636Y-170121438D01*
X148053636Y-169567577D01*
X148053623Y-169465796D01*
X148053566Y-169377141D01*
X148053489Y-169327935D01*
X147901094Y-169327935D01*
X147901066Y-169404590D01*
X147900817Y-169493331D01*
X147900403Y-169592272D01*
X147899943Y-169687717D01*
X147899480Y-169770090D01*
X147898986Y-169840434D01*
X147898430Y-169899786D01*
X147897785Y-169949188D01*
X147897019Y-169989680D01*
X147896105Y-170022302D01*
X147895012Y-170048094D01*
X147893711Y-170068096D01*
X147892173Y-170083348D01*
X147890368Y-170094891D01*
X147888267Y-170103765D01*
X147885841Y-170111010D01*
X147885749Y-170111250D01*
X147861636Y-170157301D01*
X147829152Y-170192085D01*
X147788113Y-170215721D01*
X147738336Y-170228326D01*
X147700859Y-170230662D01*
X147666440Y-170229540D01*
X147640328Y-170225487D01*
X147616846Y-170217471D01*
X147609136Y-170213984D01*
X147571041Y-170190869D01*
X147542029Y-170160601D01*
X147519556Y-170121438D01*
X147503303Y-170086161D01*
X147503303Y-169041938D01*
X147520022Y-169004956D01*
X147544388Y-168965591D01*
X147577821Y-168931898D01*
X147616187Y-168908006D01*
X147617799Y-168907298D01*
X147644681Y-168900012D01*
X147679827Y-168896258D01*
X147717889Y-168896043D01*
X147753519Y-168899371D01*
X147781370Y-168906249D01*
X147783499Y-168907123D01*
X147817877Y-168927261D01*
X147849050Y-168954984D01*
X147871932Y-168985673D01*
X147873748Y-168989076D01*
X147879159Y-169000480D01*
X147883849Y-169012686D01*
X147887864Y-169026722D01*
X147891248Y-169043612D01*
X147894048Y-169064382D01*
X147896307Y-169090059D01*
X147898072Y-169121667D01*
X147899388Y-169160233D01*
X147900300Y-169206783D01*
X147900853Y-169262341D01*
X147901094Y-169327935D01*
X148053489Y-169327935D01*
X148053446Y-169300626D01*
X148053238Y-169235268D01*
X148052922Y-169180080D01*
X148052475Y-169134078D01*
X148051875Y-169096277D01*
X148051099Y-169065691D01*
X148050126Y-169041336D01*
X148048934Y-169022226D01*
X148047501Y-169007377D01*
X148045803Y-168995803D01*
X148043820Y-168986519D01*
X148041529Y-168978540D01*
X148040322Y-168974911D01*
X148023282Y-168930576D01*
X148004889Y-168895259D01*
X147982241Y-168863948D01*
X147964462Y-168844006D01*
X147924021Y-168809625D01*
X147874475Y-168780808D01*
X147820520Y-168760167D01*
X147807692Y-168756782D01*
X147774466Y-168751595D01*
X147732286Y-168749021D01*
X147686051Y-168748987D01*
X147640662Y-168751424D01*
G37*
X147640662Y-168751424D02*
X147601017Y-168756261D01*
X147583067Y-168760013D01*
X147520517Y-168782992D01*
X147466179Y-168817154D01*
X147420831Y-168861688D01*
X147385249Y-168915783D01*
X147360211Y-168978628D01*
X147355190Y-168997706D01*
X147353167Y-169008213D01*
X147351413Y-169022022D01*
X147349911Y-169040109D01*
X147348643Y-169063451D01*
X147347591Y-169093025D01*
X147346737Y-169129807D01*
X147346062Y-169174773D01*
X147345550Y-169228900D01*
X147345182Y-169293164D01*
X147344940Y-169368541D01*
X147344806Y-169456009D01*
X147344762Y-169556543D01*
X147344762Y-169564050D01*
X147344775Y-169666992D01*
X147344855Y-169756855D01*
X147345066Y-169834668D01*
X147345469Y-169901464D01*
X147346127Y-169958272D01*
X147347103Y-170006124D01*
X147348458Y-170046051D01*
X147350255Y-170079084D01*
X147352557Y-170106253D01*
X147355425Y-170128591D01*
X147358923Y-170147127D01*
X147363113Y-170162893D01*
X147368056Y-170176920D01*
X147373816Y-170190238D01*
X147380456Y-170203880D01*
X147383902Y-170210705D01*
X147417609Y-170261969D01*
X147462239Y-170305694D01*
X147516029Y-170340521D01*
X147577216Y-170365094D01*
X147588263Y-170368163D01*
X147621778Y-170374065D01*
X147664033Y-170377430D01*
X147710180Y-170378260D01*
X147755371Y-170376556D01*
X147794760Y-170372321D01*
X147815409Y-170368089D01*
X147879223Y-170344908D01*
X147933154Y-170312085D01*
X147977923Y-170268953D01*
X148014253Y-170214848D01*
X148037729Y-170163208D01*
X148053636Y-170121438D01*
X148053636Y-169567577D01*
X148053623Y-169465796D01*
X148053566Y-169377141D01*
X148053489Y-169327935D01*
X147901094Y-169327935D01*
X147901066Y-169404590D01*
X147900817Y-169493331D01*
X147900403Y-169592272D01*
X147899943Y-169687717D01*
X147899480Y-169770090D01*
X147898986Y-169840434D01*
X147898430Y-169899786D01*
X147897785Y-169949188D01*
X147897019Y-169989680D01*
X147896105Y-170022302D01*
X147895012Y-170048094D01*
X147893711Y-170068096D01*
X147892173Y-170083348D01*
X147890368Y-170094891D01*
X147888267Y-170103765D01*
X147885841Y-170111010D01*
X147885749Y-170111250D01*
X147861636Y-170157301D01*
X147829152Y-170192085D01*
X147788113Y-170215721D01*
X147738336Y-170228326D01*
X147700859Y-170230662D01*
X147666440Y-170229540D01*
X147640328Y-170225487D01*
X147616846Y-170217471D01*
X147609136Y-170213984D01*
X147571041Y-170190869D01*
X147542029Y-170160601D01*
X147519556Y-170121438D01*
X147503303Y-170086161D01*
X147503303Y-169041938D01*
X147520022Y-169004956D01*
X147544388Y-168965591D01*
X147577821Y-168931898D01*
X147616187Y-168908006D01*
X147617799Y-168907298D01*
X147644681Y-168900012D01*
X147679827Y-168896258D01*
X147717889Y-168896043D01*
X147753519Y-168899371D01*
X147781370Y-168906249D01*
X147783499Y-168907123D01*
X147817877Y-168927261D01*
X147849050Y-168954984D01*
X147871932Y-168985673D01*
X147873748Y-168989076D01*
X147879159Y-169000480D01*
X147883849Y-169012686D01*
X147887864Y-169026722D01*
X147891248Y-169043612D01*
X147894048Y-169064382D01*
X147896307Y-169090059D01*
X147898072Y-169121667D01*
X147899388Y-169160233D01*
X147900300Y-169206783D01*
X147900853Y-169262341D01*
X147901094Y-169327935D01*
X148053489Y-169327935D01*
X148053446Y-169300626D01*
X148053238Y-169235268D01*
X148052922Y-169180080D01*
X148052475Y-169134078D01*
X148051875Y-169096277D01*
X148051099Y-169065691D01*
X148050126Y-169041336D01*
X148048934Y-169022226D01*
X148047501Y-169007377D01*
X148045803Y-168995803D01*
X148043820Y-168986519D01*
X148041529Y-168978540D01*
X148040322Y-168974911D01*
X148023282Y-168930576D01*
X148004889Y-168895259D01*
X147982241Y-168863948D01*
X147964462Y-168844006D01*
X147924021Y-168809625D01*
X147874475Y-168780808D01*
X147820520Y-168760167D01*
X147807692Y-168756782D01*
X147774466Y-168751595D01*
X147732286Y-168749021D01*
X147686051Y-168748987D01*
X147640662Y-168751424D01*
G36*
X154744197Y-169054286D02*
G01*
X154742303Y-169218327D01*
X154527109Y-169222223D01*
X154527109Y-169370022D01*
X154746722Y-169370022D01*
X154744512Y-169745730D01*
X154742303Y-170121438D01*
X154725927Y-170154686D01*
X154709450Y-170181718D01*
X154689266Y-170200697D01*
X154662684Y-170212993D01*
X154627009Y-170219980D01*
X154592635Y-170222561D01*
X154527109Y-170225427D01*
X154527109Y-170371911D01*
X154599428Y-170371319D01*
X154635209Y-170370180D01*
X154670543Y-170367623D01*
X154699946Y-170364100D01*
X154710553Y-170362153D01*
X154738261Y-170354705D01*
X154765054Y-170345415D01*
X154775937Y-170340717D01*
X154808551Y-170318596D01*
X154839334Y-170286223D01*
X154865199Y-170247399D01*
X154881509Y-170210715D01*
X154884906Y-170200371D01*
X154887788Y-170190235D01*
X154890205Y-170179089D01*
X154892205Y-170165715D01*
X154893839Y-170148895D01*
X154895154Y-170127411D01*
X154896202Y-170100046D01*
X154897031Y-170065580D01*
X154897690Y-170022797D01*
X154898229Y-169970478D01*
X154898697Y-169907405D01*
X154899143Y-169832360D01*
X154899497Y-169766897D01*
X154901607Y-169370022D01*
X155020997Y-169370022D01*
X155020997Y-169221855D01*
X154901053Y-169221855D01*
X154901053Y-168890244D01*
X154746091Y-168890244D01*
X154744197Y-169054286D01*
G37*
X154744197Y-169054286D02*
X154742303Y-169218327D01*
X154527109Y-169222223D01*
X154527109Y-169370022D01*
X154746722Y-169370022D01*
X154744512Y-169745730D01*
X154742303Y-170121438D01*
X154725927Y-170154686D01*
X154709450Y-170181718D01*
X154689266Y-170200697D01*
X154662684Y-170212993D01*
X154627009Y-170219980D01*
X154592635Y-170222561D01*
X154527109Y-170225427D01*
X154527109Y-170371911D01*
X154599428Y-170371319D01*
X154635209Y-170370180D01*
X154670543Y-170367623D01*
X154699946Y-170364100D01*
X154710553Y-170362153D01*
X154738261Y-170354705D01*
X154765054Y-170345415D01*
X154775937Y-170340717D01*
X154808551Y-170318596D01*
X154839334Y-170286223D01*
X154865199Y-170247399D01*
X154881509Y-170210715D01*
X154884906Y-170200371D01*
X154887788Y-170190235D01*
X154890205Y-170179089D01*
X154892205Y-170165715D01*
X154893839Y-170148895D01*
X154895154Y-170127411D01*
X154896202Y-170100046D01*
X154897031Y-170065580D01*
X154897690Y-170022797D01*
X154898229Y-169970478D01*
X154898697Y-169907405D01*
X154899143Y-169832360D01*
X154899497Y-169766897D01*
X154901607Y-169370022D01*
X155020997Y-169370022D01*
X155020997Y-169221855D01*
X154901053Y-169221855D01*
X154901053Y-168890244D01*
X154746091Y-168890244D01*
X154744197Y-169054286D01*
G36*
X153228886Y-169221855D02*
G01*
X153010164Y-169221855D01*
X153010164Y-169370022D01*
X153228886Y-169370022D01*
X153228577Y-169742202D01*
X153228472Y-169828059D01*
X153228254Y-169900980D01*
X153227836Y-169962142D01*
X153227132Y-170012720D01*
X153226053Y-170053890D01*
X153224515Y-170086827D01*
X153222429Y-170112707D01*
X153219710Y-170132707D01*
X153216270Y-170148002D01*
X153212022Y-170159766D01*
X153206880Y-170169178D01*
X153200756Y-170177411D01*
X153196043Y-170182874D01*
X153168848Y-170204115D01*
X153131595Y-170217488D01*
X153083370Y-170223285D01*
X153068372Y-170223589D01*
X153010164Y-170223744D01*
X153010164Y-170371911D01*
X153082484Y-170371081D01*
X153117186Y-170370173D01*
X153150389Y-170368425D01*
X153177112Y-170366137D01*
X153186963Y-170364804D01*
X153243148Y-170349307D01*
X153290038Y-170323352D01*
X153327739Y-170286818D01*
X153356356Y-170239581D01*
X153375996Y-170181519D01*
X153384232Y-170136137D01*
X153385518Y-170119225D01*
X153386729Y-170089786D01*
X153387837Y-170049404D01*
X153388817Y-169999664D01*
X153389644Y-169942149D01*
X153390290Y-169878444D01*
X153390729Y-169810133D01*
X153390937Y-169738800D01*
X153390946Y-169728091D01*
X153391164Y-169370022D01*
X153504053Y-169370022D01*
X153504053Y-169221855D01*
X153391164Y-169221855D01*
X153391164Y-168890244D01*
X153228886Y-168890244D01*
X153228886Y-169221855D01*
G37*
X153228886Y-169221855D02*
X153010164Y-169221855D01*
X153010164Y-169370022D01*
X153228886Y-169370022D01*
X153228577Y-169742202D01*
X153228472Y-169828059D01*
X153228254Y-169900980D01*
X153227836Y-169962142D01*
X153227132Y-170012720D01*
X153226053Y-170053890D01*
X153224515Y-170086827D01*
X153222429Y-170112707D01*
X153219710Y-170132707D01*
X153216270Y-170148002D01*
X153212022Y-170159766D01*
X153206880Y-170169178D01*
X153200756Y-170177411D01*
X153196043Y-170182874D01*
X153168848Y-170204115D01*
X153131595Y-170217488D01*
X153083370Y-170223285D01*
X153068372Y-170223589D01*
X153010164Y-170223744D01*
X153010164Y-170371911D01*
X153082484Y-170371081D01*
X153117186Y-170370173D01*
X153150389Y-170368425D01*
X153177112Y-170366137D01*
X153186963Y-170364804D01*
X153243148Y-170349307D01*
X153290038Y-170323352D01*
X153327739Y-170286818D01*
X153356356Y-170239581D01*
X153375996Y-170181519D01*
X153384232Y-170136137D01*
X153385518Y-170119225D01*
X153386729Y-170089786D01*
X153387837Y-170049404D01*
X153388817Y-169999664D01*
X153389644Y-169942149D01*
X153390290Y-169878444D01*
X153390729Y-169810133D01*
X153390937Y-169738800D01*
X153390946Y-169728091D01*
X153391164Y-169370022D01*
X153504053Y-169370022D01*
X153504053Y-169221855D01*
X153391164Y-169221855D01*
X153391164Y-168890244D01*
X153228886Y-168890244D01*
X153228886Y-169221855D01*
G36*
X152636220Y-169221855D02*
G01*
X152417497Y-169221855D01*
X152417497Y-169370022D01*
X152636220Y-169370022D01*
X152636220Y-169739551D01*
X152636169Y-169823417D01*
X152635994Y-169894344D01*
X152635665Y-169953507D01*
X152635149Y-170002079D01*
X152634416Y-170041232D01*
X152633433Y-170072140D01*
X152632168Y-170095975D01*
X152630591Y-170113912D01*
X152628670Y-170127122D01*
X152626373Y-170136780D01*
X152625451Y-170139604D01*
X152609225Y-170173231D01*
X152586664Y-170197461D01*
X152556035Y-170213266D01*
X152515603Y-170221620D01*
X152475706Y-170223589D01*
X152417497Y-170223744D01*
X152417497Y-170371911D01*
X152489817Y-170371081D01*
X152524600Y-170370165D01*
X152557962Y-170368395D01*
X152584884Y-170366076D01*
X152594799Y-170364732D01*
X152650571Y-170349482D01*
X152697012Y-170323936D01*
X152734561Y-170287688D01*
X152763654Y-170240330D01*
X152782111Y-170190868D01*
X152784754Y-170180425D01*
X152787012Y-170167882D01*
X152788927Y-170152041D01*
X152790538Y-170131705D01*
X152791888Y-170105677D01*
X152793016Y-170072760D01*
X152793962Y-170031758D01*
X152794769Y-169981473D01*
X152795477Y-169920708D01*
X152796126Y-169848266D01*
X152796757Y-169762951D01*
X152796778Y-169759841D01*
X152799456Y-169370022D01*
X152911386Y-169370022D01*
X152911386Y-169221855D01*
X152798497Y-169221855D01*
X152798497Y-168890244D01*
X152636220Y-168890244D01*
X152636220Y-169221855D01*
G37*
X152636220Y-169221855D02*
X152417497Y-169221855D01*
X152417497Y-169370022D01*
X152636220Y-169370022D01*
X152636220Y-169739551D01*
X152636169Y-169823417D01*
X152635994Y-169894344D01*
X152635665Y-169953507D01*
X152635149Y-170002079D01*
X152634416Y-170041232D01*
X152633433Y-170072140D01*
X152632168Y-170095975D01*
X152630591Y-170113912D01*
X152628670Y-170127122D01*
X152626373Y-170136780D01*
X152625451Y-170139604D01*
X152609225Y-170173231D01*
X152586664Y-170197461D01*
X152556035Y-170213266D01*
X152515603Y-170221620D01*
X152475706Y-170223589D01*
X152417497Y-170223744D01*
X152417497Y-170371911D01*
X152489817Y-170371081D01*
X152524600Y-170370165D01*
X152557962Y-170368395D01*
X152584884Y-170366076D01*
X152594799Y-170364732D01*
X152650571Y-170349482D01*
X152697012Y-170323936D01*
X152734561Y-170287688D01*
X152763654Y-170240330D01*
X152782111Y-170190868D01*
X152784754Y-170180425D01*
X152787012Y-170167882D01*
X152788927Y-170152041D01*
X152790538Y-170131705D01*
X152791888Y-170105677D01*
X152793016Y-170072760D01*
X152793962Y-170031758D01*
X152794769Y-169981473D01*
X152795477Y-169920708D01*
X152796126Y-169848266D01*
X152796757Y-169762951D01*
X152796778Y-169759841D01*
X152799456Y-169370022D01*
X152911386Y-169370022D01*
X152911386Y-169221855D01*
X152798497Y-169221855D01*
X152798497Y-168890244D01*
X152636220Y-168890244D01*
X152636220Y-169221855D01*
G36*
X158315942Y-168911411D02*
G01*
X158389566Y-168911411D01*
X158431747Y-168912237D01*
X158463018Y-168915244D01*
X158486512Y-168921227D01*
X158505360Y-168930978D01*
X158522483Y-168945088D01*
X158537919Y-168964275D01*
X158549252Y-168989474D01*
X158556906Y-169022604D01*
X158561303Y-169065580D01*
X158562869Y-169120318D01*
X158562886Y-169127886D01*
X158562886Y-169221855D01*
X158315942Y-169221855D01*
X158315942Y-169355911D01*
X158562886Y-169355911D01*
X158562886Y-170364855D01*
X158725164Y-170364855D01*
X158725164Y-169355911D01*
X158845109Y-169355911D01*
X158845109Y-169221855D01*
X158785136Y-169221855D01*
X158757912Y-169221663D01*
X158736945Y-169221150D01*
X158725530Y-169220413D01*
X158724382Y-169220091D01*
X158723857Y-169212828D01*
X158722875Y-169193729D01*
X158721543Y-169165062D01*
X158719966Y-169129089D01*
X158718382Y-169091327D01*
X158716144Y-169042836D01*
X158713741Y-169005818D01*
X158710844Y-168977635D01*
X158707124Y-168955651D01*
X158702253Y-168937228D01*
X158697499Y-168923781D01*
X158672502Y-168877011D01*
X158636797Y-168834959D01*
X158593735Y-168801164D01*
X158568471Y-168787534D01*
X158549970Y-168779532D01*
X158533283Y-168773853D01*
X158515242Y-168770006D01*
X158492681Y-168767499D01*
X158462432Y-168765840D01*
X158421326Y-168764539D01*
X158420011Y-168764504D01*
X158315942Y-168761706D01*
X158315942Y-168911411D01*
G37*
X158315942Y-168911411D02*
X158389566Y-168911411D01*
X158431747Y-168912237D01*
X158463018Y-168915244D01*
X158486512Y-168921227D01*
X158505360Y-168930978D01*
X158522483Y-168945088D01*
X158537919Y-168964275D01*
X158549252Y-168989474D01*
X158556906Y-169022604D01*
X158561303Y-169065580D01*
X158562869Y-169120318D01*
X158562886Y-169127886D01*
X158562886Y-169221855D01*
X158315942Y-169221855D01*
X158315942Y-169355911D01*
X158562886Y-169355911D01*
X158562886Y-170364855D01*
X158725164Y-170364855D01*
X158725164Y-169355911D01*
X158845109Y-169355911D01*
X158845109Y-169221855D01*
X158785136Y-169221855D01*
X158757912Y-169221663D01*
X158736945Y-169221150D01*
X158725530Y-169220413D01*
X158724382Y-169220091D01*
X158723857Y-169212828D01*
X158722875Y-169193729D01*
X158721543Y-169165062D01*
X158719966Y-169129089D01*
X158718382Y-169091327D01*
X158716144Y-169042836D01*
X158713741Y-169005818D01*
X158710844Y-168977635D01*
X158707124Y-168955651D01*
X158702253Y-168937228D01*
X158697499Y-168923781D01*
X158672502Y-168877011D01*
X158636797Y-168834959D01*
X158593735Y-168801164D01*
X158568471Y-168787534D01*
X158549970Y-168779532D01*
X158533283Y-168773853D01*
X158515242Y-168770006D01*
X158492681Y-168767499D01*
X158462432Y-168765840D01*
X158421326Y-168764539D01*
X158420011Y-168764504D01*
X158315942Y-168761706D01*
X158315942Y-168911411D01*
G36*
X156810248Y-169205433D02*
G01*
X156781601Y-169207946D01*
X156757860Y-169212804D01*
X156734440Y-169220673D01*
X156732327Y-169221499D01*
X156685663Y-169246858D01*
X156644287Y-169282779D01*
X156612008Y-169325787D01*
X156606197Y-169336463D01*
X156598599Y-169351949D01*
X156592023Y-169366987D01*
X156586382Y-169382698D01*
X156581590Y-169400203D01*
X156577562Y-169420626D01*
X156574211Y-169445086D01*
X156571450Y-169474707D01*
X156569194Y-169510610D01*
X156567356Y-169553917D01*
X156565850Y-169605749D01*
X156564590Y-169667228D01*
X156563490Y-169739476D01*
X156562462Y-169823615D01*
X156561444Y-169918591D01*
X156556826Y-170364855D01*
X156720884Y-170364855D01*
X156722899Y-169922119D01*
X156723311Y-169828332D01*
X156723712Y-169747574D01*
X156724223Y-169678762D01*
X156724966Y-169620816D01*
X156726062Y-169572652D01*
X156727633Y-169533190D01*
X156729800Y-169501347D01*
X156732684Y-169476041D01*
X156736407Y-169456191D01*
X156741091Y-169440714D01*
X156746856Y-169428530D01*
X156753824Y-169418555D01*
X156762118Y-169409709D01*
X156771857Y-169400908D01*
X156782437Y-169391713D01*
X156818361Y-169367515D01*
X156860350Y-169353637D01*
X156910406Y-169349529D01*
X156932976Y-169350487D01*
X156983667Y-169360119D01*
X157025803Y-169380903D01*
X157058932Y-169412435D01*
X157082600Y-169454313D01*
X157094167Y-169493726D01*
X157096172Y-169509847D01*
X157097882Y-169537040D01*
X157099305Y-169575743D01*
X157100448Y-169626392D01*
X157101320Y-169689428D01*
X157101928Y-169765288D01*
X157102281Y-169854410D01*
X157102386Y-169949754D01*
X157102386Y-170364855D01*
X157264664Y-170364855D01*
X157264664Y-169221855D01*
X157102386Y-169221855D01*
X157102386Y-169358673D01*
X157082114Y-169327306D01*
X157042266Y-169277997D01*
X156993717Y-169239635D01*
X156964803Y-169223993D01*
X156943894Y-169214884D01*
X156925485Y-169209111D01*
X156905267Y-169205957D01*
X156878933Y-169204703D01*
X156848386Y-169204596D01*
X156810248Y-169205433D01*
G37*
X156810248Y-169205433D02*
X156781601Y-169207946D01*
X156757860Y-169212804D01*
X156734440Y-169220673D01*
X156732327Y-169221499D01*
X156685663Y-169246858D01*
X156644287Y-169282779D01*
X156612008Y-169325787D01*
X156606197Y-169336463D01*
X156598599Y-169351949D01*
X156592023Y-169366987D01*
X156586382Y-169382698D01*
X156581590Y-169400203D01*
X156577562Y-169420626D01*
X156574211Y-169445086D01*
X156571450Y-169474707D01*
X156569194Y-169510610D01*
X156567356Y-169553917D01*
X156565850Y-169605749D01*
X156564590Y-169667228D01*
X156563490Y-169739476D01*
X156562462Y-169823615D01*
X156561444Y-169918591D01*
X156556826Y-170364855D01*
X156720884Y-170364855D01*
X156722899Y-169922119D01*
X156723311Y-169828332D01*
X156723712Y-169747574D01*
X156724223Y-169678762D01*
X156724966Y-169620816D01*
X156726062Y-169572652D01*
X156727633Y-169533190D01*
X156729800Y-169501347D01*
X156732684Y-169476041D01*
X156736407Y-169456191D01*
X156741091Y-169440714D01*
X156746856Y-169428530D01*
X156753824Y-169418555D01*
X156762118Y-169409709D01*
X156771857Y-169400908D01*
X156782437Y-169391713D01*
X156818361Y-169367515D01*
X156860350Y-169353637D01*
X156910406Y-169349529D01*
X156932976Y-169350487D01*
X156983667Y-169360119D01*
X157025803Y-169380903D01*
X157058932Y-169412435D01*
X157082600Y-169454313D01*
X157094167Y-169493726D01*
X157096172Y-169509847D01*
X157097882Y-169537040D01*
X157099305Y-169575743D01*
X157100448Y-169626392D01*
X157101320Y-169689428D01*
X157101928Y-169765288D01*
X157102281Y-169854410D01*
X157102386Y-169949754D01*
X157102386Y-170364855D01*
X157264664Y-170364855D01*
X157264664Y-169221855D01*
X157102386Y-169221855D01*
X157102386Y-169358673D01*
X157082114Y-169327306D01*
X157042266Y-169277997D01*
X156993717Y-169239635D01*
X156964803Y-169223993D01*
X156943894Y-169214884D01*
X156925485Y-169209111D01*
X156905267Y-169205957D01*
X156878933Y-169204703D01*
X156848386Y-169204596D01*
X156810248Y-169205433D01*
G36*
X155828859Y-169210793D02*
G01*
X155773467Y-169229516D01*
X155727267Y-169257883D01*
X155689834Y-169296417D01*
X155660749Y-169345646D01*
X155639588Y-169406094D01*
X155628453Y-169460467D01*
X155626621Y-169479989D01*
X155625022Y-169513173D01*
X155623664Y-169559568D01*
X155622554Y-169618727D01*
X155621698Y-169690199D01*
X155621105Y-169773538D01*
X155620782Y-169868293D01*
X155620720Y-169937582D01*
X155620720Y-170364855D01*
X155782997Y-170364855D01*
X155782997Y-169934063D01*
X155783128Y-169830554D01*
X155783518Y-169739681D01*
X155784163Y-169661662D01*
X155785060Y-169596719D01*
X155786206Y-169545069D01*
X155787596Y-169506935D01*
X155789227Y-169482534D01*
X155790524Y-169473688D01*
X155808282Y-169429261D01*
X155836322Y-169394370D01*
X155874268Y-169369302D01*
X155921743Y-169354345D01*
X155951567Y-169350547D01*
X156003241Y-169351612D01*
X156048928Y-169362066D01*
X156086247Y-169381241D01*
X156099387Y-169392250D01*
X156111751Y-169404852D01*
X156122430Y-169417484D01*
X156131550Y-169431230D01*
X156139231Y-169447176D01*
X156145598Y-169466408D01*
X156150772Y-169490013D01*
X156154878Y-169519075D01*
X156158037Y-169554681D01*
X156160372Y-169597916D01*
X156162007Y-169649867D01*
X156163064Y-169711619D01*
X156163666Y-169784257D01*
X156163937Y-169868869D01*
X156163997Y-169963309D01*
X156163997Y-170364855D01*
X156319220Y-170364855D01*
X156319220Y-169221855D01*
X156165761Y-169221855D01*
X156161352Y-169243904D01*
X156158912Y-169263298D01*
X156157311Y-169289833D01*
X156156942Y-169308785D01*
X156156942Y-169351618D01*
X156137012Y-169320250D01*
X156100242Y-169274963D01*
X156054808Y-169240022D01*
X156002174Y-169215947D01*
X155943803Y-169203258D01*
X155881160Y-169202476D01*
X155828859Y-169210793D01*
G37*
X155828859Y-169210793D02*
X155773467Y-169229516D01*
X155727267Y-169257883D01*
X155689834Y-169296417D01*
X155660749Y-169345646D01*
X155639588Y-169406094D01*
X155628453Y-169460467D01*
X155626621Y-169479989D01*
X155625022Y-169513173D01*
X155623664Y-169559568D01*
X155622554Y-169618727D01*
X155621698Y-169690199D01*
X155621105Y-169773538D01*
X155620782Y-169868293D01*
X155620720Y-169937582D01*
X155620720Y-170364855D01*
X155782997Y-170364855D01*
X155782997Y-169934063D01*
X155783128Y-169830554D01*
X155783518Y-169739681D01*
X155784163Y-169661662D01*
X155785060Y-169596719D01*
X155786206Y-169545069D01*
X155787596Y-169506935D01*
X155789227Y-169482534D01*
X155790524Y-169473688D01*
X155808282Y-169429261D01*
X155836322Y-169394370D01*
X155874268Y-169369302D01*
X155921743Y-169354345D01*
X155951567Y-169350547D01*
X156003241Y-169351612D01*
X156048928Y-169362066D01*
X156086247Y-169381241D01*
X156099387Y-169392250D01*
X156111751Y-169404852D01*
X156122430Y-169417484D01*
X156131550Y-169431230D01*
X156139231Y-169447176D01*
X156145598Y-169466408D01*
X156150772Y-169490013D01*
X156154878Y-169519075D01*
X156158037Y-169554681D01*
X156160372Y-169597916D01*
X156162007Y-169649867D01*
X156163064Y-169711619D01*
X156163666Y-169784257D01*
X156163937Y-169868869D01*
X156163997Y-169963309D01*
X156163997Y-170364855D01*
X156319220Y-170364855D01*
X156319220Y-169221855D01*
X156165761Y-169221855D01*
X156161352Y-169243904D01*
X156158912Y-169263298D01*
X156157311Y-169289833D01*
X156156942Y-169308785D01*
X156156942Y-169351618D01*
X156137012Y-169320250D01*
X156100242Y-169274963D01*
X156054808Y-169240022D01*
X156002174Y-169215947D01*
X155943803Y-169203258D01*
X155881160Y-169202476D01*
X155828859Y-169210793D01*
G36*
X155197386Y-170364855D02*
G01*
X155359664Y-170364855D01*
X155359664Y-169221855D01*
X155197386Y-169221855D01*
X155197386Y-170364855D01*
G37*
X155197386Y-170364855D02*
X155359664Y-170364855D01*
X155359664Y-169221855D01*
X155197386Y-169221855D01*
X155197386Y-170364855D01*
G36*
X152050609Y-170364855D02*
G01*
X152212886Y-170364855D01*
X152212886Y-169221855D01*
X152050609Y-169221855D01*
X152050609Y-170364855D01*
G37*
X152050609Y-170364855D02*
X152212886Y-170364855D01*
X152212886Y-169221855D01*
X152050609Y-169221855D01*
X152050609Y-170364855D01*
G36*
X150436156Y-168749187D02*
G01*
X150392026Y-168752237D01*
X150354846Y-168757911D01*
X150347267Y-168759725D01*
X150282636Y-168783249D01*
X150227487Y-168817225D01*
X150181821Y-168861648D01*
X150145642Y-168916517D01*
X150118953Y-168981827D01*
X150112882Y-169003133D01*
X150105767Y-169042923D01*
X150101927Y-169091925D01*
X150101351Y-169145625D01*
X150104031Y-169199512D01*
X150109957Y-169249073D01*
X150113454Y-169267716D01*
X150122014Y-169305020D01*
X150131688Y-169341003D01*
X150143058Y-169376842D01*
X150156707Y-169413715D01*
X150173217Y-169452799D01*
X150193171Y-169495270D01*
X150217150Y-169542305D01*
X150245738Y-169595083D01*
X150279517Y-169654778D01*
X150319070Y-169722569D01*
X150364978Y-169799633D01*
X150417824Y-169887146D01*
X150429421Y-169906244D01*
X150615946Y-170213161D01*
X150359611Y-170215011D01*
X150103275Y-170216862D01*
X150103275Y-170364855D01*
X150815886Y-170364855D01*
X150815824Y-170234327D01*
X150607000Y-169881550D01*
X150567491Y-169814609D01*
X150529108Y-169749207D01*
X150492649Y-169686724D01*
X150458909Y-169628544D01*
X150428687Y-169576048D01*
X150402779Y-169530619D01*
X150381981Y-169493639D01*
X150367091Y-169466490D01*
X150360917Y-169454688D01*
X150323310Y-169372045D01*
X150294879Y-169292417D01*
X150276037Y-169217393D01*
X150267196Y-169148562D01*
X150267827Y-169096393D01*
X150273287Y-169052823D01*
X150281680Y-169018484D01*
X150294525Y-168988566D01*
X150309840Y-168963372D01*
X150339726Y-168929531D01*
X150376291Y-168907506D01*
X150420664Y-168896739D01*
X150447398Y-168895404D01*
X150494752Y-168899573D01*
X150533689Y-168912703D01*
X150567791Y-168936327D01*
X150586256Y-168954873D01*
X150611688Y-168988680D01*
X150630812Y-169027597D01*
X150644680Y-169074429D01*
X150654349Y-169131978D01*
X150655059Y-169137863D01*
X150663258Y-169207744D01*
X150822942Y-169207744D01*
X150822849Y-169160119D01*
X150819888Y-169113914D01*
X150811923Y-169062324D01*
X150800092Y-169010526D01*
X150785533Y-168963693D01*
X150773284Y-168934490D01*
X150739106Y-168879398D01*
X150695328Y-168831621D01*
X150644261Y-168793071D01*
X150588216Y-168765663D01*
X150558359Y-168756566D01*
X150524510Y-168751274D01*
X150482046Y-168748840D01*
X150436156Y-168749187D01*
G37*
X150436156Y-168749187D02*
X150392026Y-168752237D01*
X150354846Y-168757911D01*
X150347267Y-168759725D01*
X150282636Y-168783249D01*
X150227487Y-168817225D01*
X150181821Y-168861648D01*
X150145642Y-168916517D01*
X150118953Y-168981827D01*
X150112882Y-169003133D01*
X150105767Y-169042923D01*
X150101927Y-169091925D01*
X150101351Y-169145625D01*
X150104031Y-169199512D01*
X150109957Y-169249073D01*
X150113454Y-169267716D01*
X150122014Y-169305020D01*
X150131688Y-169341003D01*
X150143058Y-169376842D01*
X150156707Y-169413715D01*
X150173217Y-169452799D01*
X150193171Y-169495270D01*
X150217150Y-169542305D01*
X150245738Y-169595083D01*
X150279517Y-169654778D01*
X150319070Y-169722569D01*
X150364978Y-169799633D01*
X150417824Y-169887146D01*
X150429421Y-169906244D01*
X150615946Y-170213161D01*
X150359611Y-170215011D01*
X150103275Y-170216862D01*
X150103275Y-170364855D01*
X150815886Y-170364855D01*
X150815824Y-170234327D01*
X150607000Y-169881550D01*
X150567491Y-169814609D01*
X150529108Y-169749207D01*
X150492649Y-169686724D01*
X150458909Y-169628544D01*
X150428687Y-169576048D01*
X150402779Y-169530619D01*
X150381981Y-169493639D01*
X150367091Y-169466490D01*
X150360917Y-169454688D01*
X150323310Y-169372045D01*
X150294879Y-169292417D01*
X150276037Y-169217393D01*
X150267196Y-169148562D01*
X150267827Y-169096393D01*
X150273287Y-169052823D01*
X150281680Y-169018484D01*
X150294525Y-168988566D01*
X150309840Y-168963372D01*
X150339726Y-168929531D01*
X150376291Y-168907506D01*
X150420664Y-168896739D01*
X150447398Y-168895404D01*
X150494752Y-168899573D01*
X150533689Y-168912703D01*
X150567791Y-168936327D01*
X150586256Y-168954873D01*
X150611688Y-168988680D01*
X150630812Y-169027597D01*
X150644680Y-169074429D01*
X150654349Y-169131978D01*
X150655059Y-169137863D01*
X150663258Y-169207744D01*
X150822942Y-169207744D01*
X150822849Y-169160119D01*
X150819888Y-169113914D01*
X150811923Y-169062324D01*
X150800092Y-169010526D01*
X150785533Y-168963693D01*
X150773284Y-168934490D01*
X150739106Y-168879398D01*
X150695328Y-168831621D01*
X150644261Y-168793071D01*
X150588216Y-168765663D01*
X150558359Y-168756566D01*
X150524510Y-168751274D01*
X150482046Y-168748840D01*
X150436156Y-168749187D01*
G36*
X148592292Y-168749337D02*
G01*
X148548162Y-168752544D01*
X148511555Y-168758314D01*
X148505720Y-168759737D01*
X148441357Y-168783189D01*
X148386526Y-168816959D01*
X148341368Y-168860833D01*
X148306021Y-168914599D01*
X148280626Y-168978043D01*
X148265324Y-169050951D01*
X148260255Y-169133110D01*
X148260256Y-169133661D01*
X148265007Y-169215673D01*
X148279355Y-169297453D01*
X148303900Y-169381200D01*
X148339238Y-169469111D01*
X148367897Y-169528772D01*
X148380727Y-169552785D01*
X148400079Y-169587309D01*
X148425063Y-169630849D01*
X148454788Y-169681907D01*
X148488365Y-169738988D01*
X148524902Y-169800595D01*
X148563510Y-169865233D01*
X148603298Y-169931405D01*
X148643376Y-169997615D01*
X148682853Y-170062366D01*
X148720839Y-170124163D01*
X148754180Y-170177883D01*
X148776195Y-170213161D01*
X148518985Y-170215011D01*
X148261775Y-170216862D01*
X148261775Y-170364855D01*
X148974386Y-170364855D01*
X148974386Y-170233543D01*
X148775860Y-169898796D01*
X148736957Y-169833021D01*
X148698903Y-169768344D01*
X148662562Y-169706253D01*
X148628797Y-169648242D01*
X148598473Y-169595800D01*
X148572453Y-169550418D01*
X148551602Y-169513587D01*
X148536783Y-169486799D01*
X148532818Y-169479383D01*
X148491028Y-169391925D01*
X148459433Y-169308309D01*
X148438160Y-169229386D01*
X148427340Y-169156005D01*
X148427102Y-169089016D01*
X148437573Y-169029271D01*
X148457185Y-168980678D01*
X148483449Y-168942641D01*
X148515208Y-168916483D01*
X148554274Y-168901179D01*
X148602463Y-168895703D01*
X148607497Y-168895657D01*
X148654842Y-168899874D01*
X148694113Y-168913691D01*
X148728795Y-168938612D01*
X148744756Y-168954873D01*
X148771593Y-168991042D01*
X148791595Y-169033251D01*
X148805739Y-169084088D01*
X148814222Y-169138952D01*
X148821984Y-169207744D01*
X148983568Y-169207744D01*
X148979253Y-169135425D01*
X148970596Y-169060926D01*
X148954267Y-168991555D01*
X148931153Y-168930935D01*
X148927507Y-168923513D01*
X148896989Y-168876511D01*
X148856382Y-168833458D01*
X148808977Y-168796965D01*
X148758062Y-168769645D01*
X148716531Y-168756037D01*
X148681805Y-168750990D01*
X148638616Y-168748788D01*
X148592292Y-168749337D01*
G37*
X148592292Y-168749337D02*
X148548162Y-168752544D01*
X148511555Y-168758314D01*
X148505720Y-168759737D01*
X148441357Y-168783189D01*
X148386526Y-168816959D01*
X148341368Y-168860833D01*
X148306021Y-168914599D01*
X148280626Y-168978043D01*
X148265324Y-169050951D01*
X148260255Y-169133110D01*
X148260256Y-169133661D01*
X148265007Y-169215673D01*
X148279355Y-169297453D01*
X148303900Y-169381200D01*
X148339238Y-169469111D01*
X148367897Y-169528772D01*
X148380727Y-169552785D01*
X148400079Y-169587309D01*
X148425063Y-169630849D01*
X148454788Y-169681907D01*
X148488365Y-169738988D01*
X148524902Y-169800595D01*
X148563510Y-169865233D01*
X148603298Y-169931405D01*
X148643376Y-169997615D01*
X148682853Y-170062366D01*
X148720839Y-170124163D01*
X148754180Y-170177883D01*
X148776195Y-170213161D01*
X148518985Y-170215011D01*
X148261775Y-170216862D01*
X148261775Y-170364855D01*
X148974386Y-170364855D01*
X148974386Y-170233543D01*
X148775860Y-169898796D01*
X148736957Y-169833021D01*
X148698903Y-169768344D01*
X148662562Y-169706253D01*
X148628797Y-169648242D01*
X148598473Y-169595800D01*
X148572453Y-169550418D01*
X148551602Y-169513587D01*
X148536783Y-169486799D01*
X148532818Y-169479383D01*
X148491028Y-169391925D01*
X148459433Y-169308309D01*
X148438160Y-169229386D01*
X148427340Y-169156005D01*
X148427102Y-169089016D01*
X148437573Y-169029271D01*
X148457185Y-168980678D01*
X148483449Y-168942641D01*
X148515208Y-168916483D01*
X148554274Y-168901179D01*
X148602463Y-168895703D01*
X148607497Y-168895657D01*
X148654842Y-168899874D01*
X148694113Y-168913691D01*
X148728795Y-168938612D01*
X148744756Y-168954873D01*
X148771593Y-168991042D01*
X148791595Y-169033251D01*
X148805739Y-169084088D01*
X148814222Y-169138952D01*
X148821984Y-169207744D01*
X148983568Y-169207744D01*
X148979253Y-169135425D01*
X148970596Y-169060926D01*
X148954267Y-168991555D01*
X148931153Y-168930935D01*
X148927507Y-168923513D01*
X148896989Y-168876511D01*
X148856382Y-168833458D01*
X148808977Y-168796965D01*
X148758062Y-168769645D01*
X148716531Y-168756037D01*
X148681805Y-168750990D01*
X148638616Y-168748788D01*
X148592292Y-168749337D01*
G36*
X155197386Y-168981966D02*
G01*
X155359664Y-168981966D01*
X155359664Y-168826744D01*
X155197386Y-168826744D01*
X155197386Y-168981966D01*
G37*
X155197386Y-168981966D02*
X155359664Y-168981966D01*
X155359664Y-168826744D01*
X155197386Y-168826744D01*
X155197386Y-168981966D01*
G36*
X152050609Y-168981966D02*
G01*
X152212886Y-168981966D01*
X152212886Y-168826744D01*
X152050609Y-168826744D01*
X152050609Y-168981966D01*
G37*
X152050609Y-168981966D02*
X152212886Y-168981966D01*
X152212886Y-168826744D01*
X152050609Y-168826744D01*
X152050609Y-168981966D01*
D13*
X166325144Y-167154210D02*
X144025144Y-167154210D01*
X166305144Y-160474210D02*
X144025144Y-160474210D01*
D11*
G36*
X145613528Y-162655368D02*
G01*
X145477829Y-162657925D01*
X145387521Y-162663614D01*
X145332655Y-162673607D01*
X145303281Y-162689070D01*
X145289449Y-162711174D01*
X145287992Y-162715472D01*
X145281579Y-162794519D01*
X145289285Y-162829739D01*
X145306590Y-162852466D01*
X145345058Y-162867835D01*
X145415438Y-162877197D01*
X145528478Y-162881902D01*
X145694926Y-162883300D01*
X145715672Y-162883310D01*
X146121502Y-162883310D01*
X146112115Y-163185303D01*
X146102728Y-163487295D01*
X145751764Y-163496561D01*
X145400800Y-163505828D01*
X145400800Y-163699506D01*
X146119052Y-163699506D01*
X146119052Y-164415807D01*
X145286532Y-164434081D01*
X145286532Y-164629968D01*
X145793414Y-164638922D01*
X146008869Y-164640947D01*
X146165499Y-164638059D01*
X146269615Y-164629900D01*
X146327528Y-164616111D01*
X146340265Y-164607907D01*
X146352632Y-164563582D01*
X146362905Y-164464305D01*
X146371078Y-164320384D01*
X146377148Y-164142124D01*
X146381110Y-163939834D01*
X146382961Y-163723818D01*
X146382695Y-163504386D01*
X146380309Y-163291842D01*
X146375798Y-163096495D01*
X146369158Y-162928651D01*
X146360386Y-162798616D01*
X146349475Y-162716699D01*
X146341057Y-162693953D01*
X146294802Y-162676565D01*
X146193908Y-162664409D01*
X146034918Y-162657231D01*
X145814376Y-162654779D01*
X145804568Y-162654776D01*
X145613528Y-162655368D01*
G37*
X145613528Y-162655368D02*
X145477829Y-162657925D01*
X145387521Y-162663614D01*
X145332655Y-162673607D01*
X145303281Y-162689070D01*
X145289449Y-162711174D01*
X145287992Y-162715472D01*
X145281579Y-162794519D01*
X145289285Y-162829739D01*
X145306590Y-162852466D01*
X145345058Y-162867835D01*
X145415438Y-162877197D01*
X145528478Y-162881902D01*
X145694926Y-162883300D01*
X145715672Y-162883310D01*
X146121502Y-162883310D01*
X146112115Y-163185303D01*
X146102728Y-163487295D01*
X145751764Y-163496561D01*
X145400800Y-163505828D01*
X145400800Y-163699506D01*
X146119052Y-163699506D01*
X146119052Y-164415807D01*
X145286532Y-164434081D01*
X145286532Y-164629968D01*
X145793414Y-164638922D01*
X146008869Y-164640947D01*
X146165499Y-164638059D01*
X146269615Y-164629900D01*
X146327528Y-164616111D01*
X146340265Y-164607907D01*
X146352632Y-164563582D01*
X146362905Y-164464305D01*
X146371078Y-164320384D01*
X146377148Y-164142124D01*
X146381110Y-163939834D01*
X146382961Y-163723818D01*
X146382695Y-163504386D01*
X146380309Y-163291842D01*
X146375798Y-163096495D01*
X146369158Y-162928651D01*
X146360386Y-162798616D01*
X146349475Y-162716699D01*
X146341057Y-162693953D01*
X146294802Y-162676565D01*
X146193908Y-162664409D01*
X146034918Y-162657231D01*
X145814376Y-162654779D01*
X145804568Y-162654776D01*
X145613528Y-162655368D01*
G36*
X147628531Y-163640268D02*
G01*
X147637175Y-164629968D01*
X147751442Y-164639583D01*
X147844999Y-164634566D01*
X147917123Y-164609338D01*
X147920441Y-164606936D01*
X147950103Y-164568132D01*
X148006403Y-164479783D01*
X148084740Y-164349678D01*
X148180508Y-164185608D01*
X148289105Y-163995362D01*
X148405926Y-163786732D01*
X148417744Y-163765409D01*
X148860315Y-162966146D01*
X148869054Y-163798057D01*
X148877792Y-164629968D01*
X148984379Y-164640235D01*
X149090966Y-164650501D01*
X149082323Y-163660800D01*
X149073679Y-162671099D01*
X148922261Y-162661298D01*
X148821471Y-162660739D01*
X148759094Y-162681279D01*
X148710050Y-162730572D01*
X148677901Y-162780561D01*
X148619765Y-162879148D01*
X148540674Y-163017470D01*
X148445656Y-163186666D01*
X148339741Y-163377872D01*
X148257483Y-163527999D01*
X147865710Y-164246351D01*
X147833062Y-162671099D01*
X147726475Y-162660833D01*
X147619887Y-162650567D01*
X147628531Y-163640268D01*
G37*
X147628531Y-163640268D02*
X147637175Y-164629968D01*
X147751442Y-164639583D01*
X147844999Y-164634566D01*
X147917123Y-164609338D01*
X147920441Y-164606936D01*
X147950103Y-164568132D01*
X148006403Y-164479783D01*
X148084740Y-164349678D01*
X148180508Y-164185608D01*
X148289105Y-163995362D01*
X148405926Y-163786732D01*
X148417744Y-163765409D01*
X148860315Y-162966146D01*
X148869054Y-163798057D01*
X148877792Y-164629968D01*
X148984379Y-164640235D01*
X149090966Y-164650501D01*
X149082323Y-163660800D01*
X149073679Y-162671099D01*
X148922261Y-162661298D01*
X148821471Y-162660739D01*
X148759094Y-162681279D01*
X148710050Y-162730572D01*
X148677901Y-162780561D01*
X148619765Y-162879148D01*
X148540674Y-163017470D01*
X148445656Y-163186666D01*
X148339741Y-163377872D01*
X148257483Y-163527999D01*
X147865710Y-164246351D01*
X147833062Y-162671099D01*
X147726475Y-162660833D01*
X147619887Y-162650567D01*
X147628531Y-163640268D01*
G36*
X150469373Y-162660967D02*
G01*
X150346944Y-162671099D01*
X150346944Y-164629968D01*
X150591802Y-164650234D01*
X150591802Y-162650834D01*
X150469373Y-162660967D01*
G37*
X150469373Y-162660967D02*
X150346944Y-162671099D01*
X150346944Y-164629968D01*
X150591802Y-164650234D01*
X150591802Y-162650834D01*
X150469373Y-162660967D01*
G36*
X152493537Y-162660967D02*
G01*
X152371108Y-162671099D01*
X152353722Y-164415629D01*
X151620208Y-164434081D01*
X151620208Y-164629968D01*
X152095486Y-164638967D01*
X152265492Y-164640682D01*
X152411792Y-164639315D01*
X152522200Y-164635199D01*
X152584530Y-164628668D01*
X152593365Y-164625364D01*
X152599050Y-164588205D01*
X152604212Y-164493994D01*
X152608662Y-164350974D01*
X152612215Y-164167387D01*
X152614684Y-163951478D01*
X152615882Y-163711488D01*
X152615967Y-163626798D01*
X152615967Y-162650834D01*
X152493537Y-162660967D01*
G37*
X152493537Y-162660967D02*
X152371108Y-162671099D01*
X152353722Y-164415629D01*
X151620208Y-164434081D01*
X151620208Y-164629968D01*
X152095486Y-164638967D01*
X152265492Y-164640682D01*
X152411792Y-164639315D01*
X152522200Y-164635199D01*
X152584530Y-164628668D01*
X152593365Y-164625364D01*
X152599050Y-164588205D01*
X152604212Y-164493994D01*
X152608662Y-164350974D01*
X152612215Y-164167387D01*
X152614684Y-163951478D01*
X152615882Y-163711488D01*
X152615967Y-163626798D01*
X152615967Y-162650834D01*
X152493537Y-162660967D01*
G36*
X154498950Y-162660711D02*
G01*
X154328807Y-162669015D01*
X154208260Y-162680525D01*
X154121607Y-162698121D01*
X154053149Y-162724684D01*
X154005997Y-162751175D01*
X153879408Y-162851186D01*
X153801397Y-162971445D01*
X153764624Y-163126571D01*
X153759299Y-163242436D01*
X153783009Y-163453977D01*
X153854154Y-163622394D01*
X153974128Y-163748994D01*
X154144328Y-163835080D01*
X154366147Y-163881960D01*
X154450225Y-163889009D01*
X154705427Y-163903782D01*
X154705427Y-164646292D01*
X154814253Y-164646292D01*
X154894923Y-164640319D01*
X154943370Y-164625812D01*
X154944844Y-164624527D01*
X154950426Y-164587498D01*
X154955479Y-164493586D01*
X154959811Y-164351203D01*
X154963232Y-164168760D01*
X154965551Y-163954668D01*
X154966576Y-163717340D01*
X154966609Y-163665414D01*
X154966172Y-163387409D01*
X154964628Y-163167721D01*
X154961626Y-162999379D01*
X154957124Y-162883310D01*
X154705427Y-162883310D01*
X154705427Y-163269643D01*
X154703686Y-163422368D01*
X154698950Y-163550448D01*
X154691947Y-163640207D01*
X154683662Y-163677740D01*
X154631662Y-163694686D01*
X154538225Y-163698293D01*
X154425690Y-163689223D01*
X154316399Y-163668137D01*
X154311229Y-163666725D01*
X154172297Y-163602535D01*
X154080919Y-163497595D01*
X154033096Y-163346643D01*
X154026708Y-163292377D01*
X154021132Y-163185561D01*
X154032974Y-163116034D01*
X154071603Y-163056290D01*
X154126842Y-162998296D01*
X154191221Y-162937956D01*
X154247496Y-162903537D01*
X154317530Y-162887790D01*
X154423184Y-162883466D01*
X154473627Y-162883310D01*
X154705427Y-162883310D01*
X154957124Y-162883310D01*
X154956817Y-162875408D01*
X154949851Y-162788836D01*
X154940377Y-162732690D01*
X154928045Y-162699996D01*
X154917510Y-162687318D01*
X154869382Y-162668250D01*
X154777155Y-162658270D01*
X154633129Y-162656887D01*
X154498950Y-162660711D01*
G37*
X154498950Y-162660711D02*
X154328807Y-162669015D01*
X154208260Y-162680525D01*
X154121607Y-162698121D01*
X154053149Y-162724684D01*
X154005997Y-162751175D01*
X153879408Y-162851186D01*
X153801397Y-162971445D01*
X153764624Y-163126571D01*
X153759299Y-163242436D01*
X153783009Y-163453977D01*
X153854154Y-163622394D01*
X153974128Y-163748994D01*
X154144328Y-163835080D01*
X154366147Y-163881960D01*
X154450225Y-163889009D01*
X154705427Y-163903782D01*
X154705427Y-164646292D01*
X154814253Y-164646292D01*
X154894923Y-164640319D01*
X154943370Y-164625812D01*
X154944844Y-164624527D01*
X154950426Y-164587498D01*
X154955479Y-164493586D01*
X154959811Y-164351203D01*
X154963232Y-164168760D01*
X154965551Y-163954668D01*
X154966576Y-163717340D01*
X154966609Y-163665414D01*
X154966172Y-163387409D01*
X154964628Y-163167721D01*
X154961626Y-162999379D01*
X154957124Y-162883310D01*
X154705427Y-162883310D01*
X154705427Y-163269643D01*
X154703686Y-163422368D01*
X154698950Y-163550448D01*
X154691947Y-163640207D01*
X154683662Y-163677740D01*
X154631662Y-163694686D01*
X154538225Y-163698293D01*
X154425690Y-163689223D01*
X154316399Y-163668137D01*
X154311229Y-163666725D01*
X154172297Y-163602535D01*
X154080919Y-163497595D01*
X154033096Y-163346643D01*
X154026708Y-163292377D01*
X154021132Y-163185561D01*
X154032974Y-163116034D01*
X154071603Y-163056290D01*
X154126842Y-162998296D01*
X154191221Y-162937956D01*
X154247496Y-162903537D01*
X154317530Y-162887790D01*
X154423184Y-162883466D01*
X154473627Y-162883310D01*
X154705427Y-162883310D01*
X154957124Y-162883310D01*
X154956817Y-162875408D01*
X154949851Y-162788836D01*
X154940377Y-162732690D01*
X154928045Y-162699996D01*
X154917510Y-162687318D01*
X154869382Y-162668250D01*
X154777155Y-162658270D01*
X154633129Y-162656887D01*
X154498950Y-162660711D01*
G36*
X156207226Y-164646292D02*
G01*
X156322518Y-164646292D01*
X156403405Y-164635741D01*
X156451013Y-164609863D01*
X156453623Y-164605085D01*
X156457379Y-164562951D01*
X156460224Y-164464122D01*
X156462095Y-164317194D01*
X156462931Y-164130761D01*
X156462669Y-163913418D01*
X156461248Y-163673761D01*
X156460760Y-163617489D01*
X156452085Y-162671099D01*
X156329656Y-162660967D01*
X156207226Y-162650834D01*
X156207226Y-164646292D01*
G37*
X156207226Y-164646292D02*
X156322518Y-164646292D01*
X156403405Y-164635741D01*
X156451013Y-164609863D01*
X156453623Y-164605085D01*
X156457379Y-164562951D01*
X156460224Y-164464122D01*
X156462095Y-164317194D01*
X156462931Y-164130761D01*
X156462669Y-163913418D01*
X156461248Y-163673761D01*
X156460760Y-163617489D01*
X156452085Y-162671099D01*
X156329656Y-162660967D01*
X156207226Y-162650834D01*
X156207226Y-164646292D01*
G36*
X162230748Y-164629968D02*
G01*
X162337078Y-164640216D01*
X162423078Y-164635155D01*
X162460021Y-164607170D01*
X162463982Y-164564485D01*
X162467013Y-164465130D01*
X162469043Y-164317724D01*
X162470004Y-164130887D01*
X162469827Y-163913238D01*
X162468441Y-163673398D01*
X162467958Y-163617489D01*
X162459283Y-162671099D01*
X162230748Y-162671099D01*
X162230748Y-164629968D01*
G37*
X162230748Y-164629968D02*
X162337078Y-164640216D01*
X162423078Y-164635155D01*
X162460021Y-164607170D01*
X162463982Y-164564485D01*
X162467013Y-164465130D01*
X162469043Y-164317724D01*
X162470004Y-164130887D01*
X162469827Y-163913238D01*
X162468441Y-163673398D01*
X162467958Y-163617489D01*
X162459283Y-162671099D01*
X162230748Y-162671099D01*
X162230748Y-164629968D01*
G36*
X164517808Y-162663531D02*
G01*
X164304699Y-162687634D01*
X164128105Y-162736457D01*
X163975173Y-162812457D01*
X163968020Y-162816950D01*
X163816407Y-162950535D01*
X163702555Y-163130150D01*
X163629620Y-163346453D01*
X163600760Y-163590101D01*
X163618869Y-163850102D01*
X163681188Y-164098167D01*
X163782652Y-164296471D01*
X163926600Y-164449859D01*
X164107998Y-164559414D01*
X164199174Y-164588215D01*
X164327241Y-164612240D01*
X164478383Y-164630801D01*
X164638781Y-164643212D01*
X164794618Y-164648785D01*
X164932077Y-164646834D01*
X165037341Y-164636671D01*
X165096591Y-164617610D01*
X165103818Y-164608931D01*
X165107953Y-164565780D01*
X165111141Y-164465980D01*
X165113305Y-164318171D01*
X165114372Y-164130992D01*
X165114265Y-163913086D01*
X165112911Y-163673092D01*
X165112431Y-163617489D01*
X165105702Y-162883310D01*
X164858897Y-162883310D01*
X164858897Y-164417758D01*
X164604633Y-164417758D01*
X164447425Y-164412346D01*
X164329965Y-164393063D01*
X164227373Y-164355341D01*
X164204697Y-164344300D01*
X164066807Y-164246591D01*
X163969737Y-164109937D01*
X163910112Y-163927864D01*
X163886448Y-163734335D01*
X163887629Y-163502917D01*
X163922865Y-163316878D01*
X163995265Y-163164100D01*
X164051728Y-163090229D01*
X164158409Y-162989823D01*
X164277628Y-162926035D01*
X164426331Y-162892618D01*
X164612990Y-162883310D01*
X164858897Y-162883310D01*
X165105702Y-162883310D01*
X165103756Y-162671099D01*
X164780284Y-162661693D01*
X164517808Y-162663531D01*
G37*
X164517808Y-162663531D02*
X164304699Y-162687634D01*
X164128105Y-162736457D01*
X163975173Y-162812457D01*
X163968020Y-162816950D01*
X163816407Y-162950535D01*
X163702555Y-163130150D01*
X163629620Y-163346453D01*
X163600760Y-163590101D01*
X163618869Y-163850102D01*
X163681188Y-164098167D01*
X163782652Y-164296471D01*
X163926600Y-164449859D01*
X164107998Y-164559414D01*
X164199174Y-164588215D01*
X164327241Y-164612240D01*
X164478383Y-164630801D01*
X164638781Y-164643212D01*
X164794618Y-164648785D01*
X164932077Y-164646834D01*
X165037341Y-164636671D01*
X165096591Y-164617610D01*
X165103818Y-164608931D01*
X165107953Y-164565780D01*
X165111141Y-164465980D01*
X165113305Y-164318171D01*
X165114372Y-164130992D01*
X165114265Y-163913086D01*
X165112911Y-163673092D01*
X165112431Y-163617489D01*
X165105702Y-162883310D01*
X164858897Y-162883310D01*
X164858897Y-164417758D01*
X164604633Y-164417758D01*
X164447425Y-164412346D01*
X164329965Y-164393063D01*
X164227373Y-164355341D01*
X164204697Y-164344300D01*
X164066807Y-164246591D01*
X163969737Y-164109937D01*
X163910112Y-163927864D01*
X163886448Y-163734335D01*
X163887629Y-163502917D01*
X163922865Y-163316878D01*
X163995265Y-163164100D01*
X164051728Y-163090229D01*
X164158409Y-162989823D01*
X164277628Y-162926035D01*
X164426331Y-162892618D01*
X164612990Y-162883310D01*
X164858897Y-162883310D01*
X165105702Y-162883310D01*
X165103756Y-162671099D01*
X164780284Y-162661693D01*
X164517808Y-162663531D01*
G36*
X157954214Y-162635959D02*
G01*
X157741356Y-162690119D01*
X157682638Y-162716878D01*
X157578113Y-162784344D01*
X157525844Y-162860616D01*
X157513139Y-162949349D01*
X157528111Y-163012693D01*
X157575871Y-163026512D01*
X157660679Y-162991031D01*
X157710835Y-162959858D01*
X157849010Y-162891158D01*
X158009659Y-162860803D01*
X158030294Y-162859344D01*
X158219538Y-162872186D01*
X158373017Y-162938547D01*
X158496213Y-163061565D01*
X158555951Y-163160111D01*
X158594535Y-163242415D01*
X158619110Y-163320306D01*
X158632723Y-163412270D01*
X158638419Y-163536793D01*
X158639326Y-163666152D01*
X158637283Y-163830258D01*
X158629527Y-163946696D01*
X158613343Y-164033021D01*
X158586015Y-164106793D01*
X158564552Y-164149694D01*
X158454067Y-164293309D01*
X158307800Y-164390362D01*
X158137995Y-164438527D01*
X157956897Y-164435479D01*
X157776751Y-164378891D01*
X157674782Y-164318677D01*
X157603164Y-164274662D01*
X157551220Y-164254634D01*
X157548909Y-164254519D01*
X157518111Y-164280286D01*
X157512684Y-164343086D01*
X157529579Y-164421166D01*
X157565744Y-164492776D01*
X157585478Y-164515256D01*
X157706153Y-164591254D01*
X157869350Y-164643959D01*
X158055395Y-164669959D01*
X158244618Y-164665847D01*
X158350288Y-164647796D01*
X158537799Y-164571180D01*
X158693729Y-164441890D01*
X158814756Y-164266117D01*
X158897561Y-164050050D01*
X158938822Y-163799878D01*
X158937841Y-163552590D01*
X158896236Y-163300088D01*
X158815123Y-163078068D01*
X158699359Y-162897078D01*
X158586516Y-162789979D01*
X158394655Y-162687333D01*
X158177934Y-162635512D01*
X157954214Y-162635959D01*
G37*
X157954214Y-162635959D02*
X157741356Y-162690119D01*
X157682638Y-162716878D01*
X157578113Y-162784344D01*
X157525844Y-162860616D01*
X157513139Y-162949349D01*
X157528111Y-163012693D01*
X157575871Y-163026512D01*
X157660679Y-162991031D01*
X157710835Y-162959858D01*
X157849010Y-162891158D01*
X158009659Y-162860803D01*
X158030294Y-162859344D01*
X158219538Y-162872186D01*
X158373017Y-162938547D01*
X158496213Y-163061565D01*
X158555951Y-163160111D01*
X158594535Y-163242415D01*
X158619110Y-163320306D01*
X158632723Y-163412270D01*
X158638419Y-163536793D01*
X158639326Y-163666152D01*
X158637283Y-163830258D01*
X158629527Y-163946696D01*
X158613343Y-164033021D01*
X158586015Y-164106793D01*
X158564552Y-164149694D01*
X158454067Y-164293309D01*
X158307800Y-164390362D01*
X158137995Y-164438527D01*
X157956897Y-164435479D01*
X157776751Y-164378891D01*
X157674782Y-164318677D01*
X157603164Y-164274662D01*
X157551220Y-164254634D01*
X157548909Y-164254519D01*
X157518111Y-164280286D01*
X157512684Y-164343086D01*
X157529579Y-164421166D01*
X157565744Y-164492776D01*
X157585478Y-164515256D01*
X157706153Y-164591254D01*
X157869350Y-164643959D01*
X158055395Y-164669959D01*
X158244618Y-164665847D01*
X158350288Y-164647796D01*
X158537799Y-164571180D01*
X158693729Y-164441890D01*
X158814756Y-164266117D01*
X158897561Y-164050050D01*
X158938822Y-163799878D01*
X158937841Y-163552590D01*
X158896236Y-163300088D01*
X158815123Y-163078068D01*
X158699359Y-162897078D01*
X158586516Y-162789979D01*
X158394655Y-162687333D01*
X158177934Y-162635512D01*
X157954214Y-162635959D01*
G36*
X160303980Y-162650150D02*
G01*
X160180909Y-162684296D01*
X160088420Y-162728554D01*
X160046194Y-162773391D01*
X160028328Y-162857763D01*
X160035111Y-162931595D01*
X160054840Y-162961945D01*
X160098499Y-162958916D01*
X160175184Y-162930900D01*
X160208658Y-162914901D01*
X160366587Y-162858251D01*
X160515671Y-162847564D01*
X160645003Y-162878974D01*
X160743677Y-162948617D01*
X160800786Y-163052629D01*
X160810568Y-163128169D01*
X160787179Y-163240997D01*
X160713307Y-163340158D01*
X160583396Y-163431459D01*
X160463980Y-163490354D01*
X160236766Y-163606298D01*
X160073448Y-163724770D01*
X159990080Y-163819849D01*
X159947881Y-163927832D01*
X159930175Y-164068767D01*
X159937654Y-164214800D01*
X159971011Y-164338078D01*
X159976876Y-164350194D01*
X160086250Y-164493769D01*
X160239843Y-164598390D01*
X160426856Y-164660265D01*
X160636489Y-164675603D01*
X160826892Y-164648620D01*
X160943481Y-164610095D01*
X161045629Y-164558593D01*
X161109427Y-164506351D01*
X161112061Y-164502652D01*
X161133370Y-164437173D01*
X161132748Y-164361057D01*
X161111144Y-164308359D01*
X161106550Y-164304820D01*
X161061885Y-164307535D01*
X160983487Y-164335935D01*
X160939792Y-164356995D01*
X160765621Y-164424087D01*
X160597972Y-164446056D01*
X160446829Y-164426186D01*
X160322175Y-164367761D01*
X160233993Y-164274064D01*
X160192267Y-164148378D01*
X160190260Y-164110470D01*
X160211747Y-164021260D01*
X160279731Y-163932090D01*
X160399495Y-163838044D01*
X160576322Y-163734206D01*
X160618283Y-163712201D01*
X160802221Y-163608427D01*
X160931324Y-163511457D01*
X161013799Y-163411095D01*
X161057855Y-163297144D01*
X161071701Y-163159409D01*
X161071751Y-163148930D01*
X161046077Y-162961799D01*
X160969422Y-162815336D01*
X160842339Y-162710107D01*
X160665380Y-162646681D01*
X160569122Y-162631877D01*
X160439446Y-162631036D01*
X160303980Y-162650150D01*
G37*
X160303980Y-162650150D02*
X160180909Y-162684296D01*
X160088420Y-162728554D01*
X160046194Y-162773391D01*
X160028328Y-162857763D01*
X160035111Y-162931595D01*
X160054840Y-162961945D01*
X160098499Y-162958916D01*
X160175184Y-162930900D01*
X160208658Y-162914901D01*
X160366587Y-162858251D01*
X160515671Y-162847564D01*
X160645003Y-162878974D01*
X160743677Y-162948617D01*
X160800786Y-163052629D01*
X160810568Y-163128169D01*
X160787179Y-163240997D01*
X160713307Y-163340158D01*
X160583396Y-163431459D01*
X160463980Y-163490354D01*
X160236766Y-163606298D01*
X160073448Y-163724770D01*
X159990080Y-163819849D01*
X159947881Y-163927832D01*
X159930175Y-164068767D01*
X159937654Y-164214800D01*
X159971011Y-164338078D01*
X159976876Y-164350194D01*
X160086250Y-164493769D01*
X160239843Y-164598390D01*
X160426856Y-164660265D01*
X160636489Y-164675603D01*
X160826892Y-164648620D01*
X160943481Y-164610095D01*
X161045629Y-164558593D01*
X161109427Y-164506351D01*
X161112061Y-164502652D01*
X161133370Y-164437173D01*
X161132748Y-164361057D01*
X161111144Y-164308359D01*
X161106550Y-164304820D01*
X161061885Y-164307535D01*
X160983487Y-164335935D01*
X160939792Y-164356995D01*
X160765621Y-164424087D01*
X160597972Y-164446056D01*
X160446829Y-164426186D01*
X160322175Y-164367761D01*
X160233993Y-164274064D01*
X160192267Y-164148378D01*
X160190260Y-164110470D01*
X160211747Y-164021260D01*
X160279731Y-163932090D01*
X160399495Y-163838044D01*
X160576322Y-163734206D01*
X160618283Y-163712201D01*
X160802221Y-163608427D01*
X160931324Y-163511457D01*
X161013799Y-163411095D01*
X161057855Y-163297144D01*
X161071701Y-163159409D01*
X161071751Y-163148930D01*
X161046077Y-162961799D01*
X160969422Y-162815336D01*
X160842339Y-162710107D01*
X160665380Y-162646681D01*
X160569122Y-162631877D01*
X160439446Y-162631036D01*
X160303980Y-162650150D01*
D13*
X144035144Y-160474210D02*
G75*
G03*
X144035144Y-167154210I0J-3340000D01*
G01*
X166335144Y-167154210D02*
G75*
G03*
X166335144Y-160474210I0J3340000D01*
G01*
D14*
X65603750Y-109823750D03*
D15*
X65563750Y-118903750D03*
D16*
X62261750Y-118903750D03*
D17*
X73183750Y-113823750D03*
D18*
X68103750Y-113823750D03*
D16*
X75188750Y-116363750D03*
D15*
X71913750Y-116363750D03*
G36*
G01*
X63457336Y-112212683D02*
X63457336Y-112212683D01*
G75*
G02*
X63364818Y-110447339I836413J928931D01*
G01*
X64677358Y-108989615D01*
G75*
G02*
X66442702Y-108897097I928931J-836413D01*
G01*
X66442702Y-108897097D01*
G75*
G02*
X66535220Y-110662441I-836413J-928931D01*
G01*
X65222680Y-112120165D01*
G75*
G02*
X63457336Y-112212683I-928931J836413D01*
G01*
G37*
D17*
X63023750Y-113823750D03*
G36*
G01*
X70516277Y-110570686D02*
X70516277Y-110570686D01*
G75*
G02*
X69356518Y-109236535I87196J1246955D01*
G01*
X69397072Y-108656573D01*
G75*
G02*
X70731223Y-107496814I1246955J-87196D01*
G01*
X70731223Y-107496814D01*
G75*
G02*
X71890982Y-108830965I-87196J-1246955D01*
G01*
X71850428Y-109410927D01*
G75*
G02*
X70516277Y-110570686I-1246955J87196D01*
G01*
G37*
D18*
X70485050Y-132863620D03*
G36*
G01*
X65838636Y-131252553D02*
X65838636Y-131252553D01*
G75*
G02*
X65746118Y-129487209I836413J928931D01*
G01*
X67058658Y-128029485D01*
G75*
G02*
X68824002Y-127936967I928931J-836413D01*
G01*
X68824002Y-127936967D01*
G75*
G02*
X68916520Y-129702311I-836413J-928931D01*
G01*
X67603980Y-131160035D01*
G75*
G02*
X65838636Y-131252553I-928931J836413D01*
G01*
G37*
D17*
X65405050Y-132863620D03*
D15*
X67945050Y-137943620D03*
X74295050Y-135403620D03*
D14*
X67985050Y-128863620D03*
D16*
X77570050Y-135403620D03*
X64643050Y-137943620D03*
D17*
X75565050Y-132863620D03*
G36*
G01*
X72897577Y-129610556D02*
X72897577Y-129610556D01*
G75*
G02*
X71737818Y-128276405I87196J1246955D01*
G01*
X71778372Y-127696443D01*
G75*
G02*
X73112523Y-126536684I1246955J-87196D01*
G01*
X73112523Y-126536684D01*
G75*
G02*
X74272282Y-127870835I-87196J-1246955D01*
G01*
X74231728Y-128450797D01*
G75*
G02*
X72897577Y-129610556I-1246955J87196D01*
G01*
G37*
D18*
X63347450Y-160163750D03*
D19*
X63347450Y-144923750D03*
X87147450Y-144923750D03*
D18*
X87147450Y-160163750D03*
D17*
X80327450Y-151923750D03*
D15*
X79057450Y-154463750D03*
G36*
G01*
X77659977Y-148670686D02*
X77659977Y-148670686D01*
G75*
G02*
X76500218Y-147336535I87196J1246955D01*
G01*
X76540772Y-146756573D01*
G75*
G02*
X77874923Y-145596814I1246955J-87196D01*
G01*
X77874923Y-145596814D01*
G75*
G02*
X79034682Y-146930965I-87196J-1246955D01*
G01*
X78994128Y-147510927D01*
G75*
G02*
X77659977Y-148670686I-1246955J87196D01*
G01*
G37*
D16*
X69405450Y-157003750D03*
D15*
X72707450Y-157003750D03*
D14*
X72747450Y-147923750D03*
D18*
X75247450Y-151923750D03*
D17*
X70167450Y-151923750D03*
G36*
G01*
X70601036Y-150312683D02*
X70601036Y-150312683D01*
G75*
G02*
X70508518Y-148547339I836413J928931D01*
G01*
X71821058Y-147089615D01*
G75*
G02*
X73586402Y-146997097I928931J-836413D01*
G01*
X73586402Y-146997097D01*
G75*
G02*
X73678920Y-148762441I-836413J-928931D01*
G01*
X72366380Y-150220165D01*
G75*
G02*
X70601036Y-150312683I-928931J836413D01*
G01*
G37*
D16*
X82332450Y-154463750D03*
G36*
G01*
X108701036Y-169352553D02*
X108701036Y-169352553D01*
G75*
G02*
X108608518Y-167587209I836413J928931D01*
G01*
X109921058Y-166129485D01*
G75*
G02*
X111686402Y-166036967I928931J-836413D01*
G01*
X111686402Y-166036967D01*
G75*
G02*
X111778920Y-167802311I-836413J-928931D01*
G01*
X110466380Y-169260035D01*
G75*
G02*
X108701036Y-169352553I-928931J836413D01*
G01*
G37*
X120432450Y-173503620D03*
D15*
X117157450Y-173503620D03*
X110807450Y-176043620D03*
D17*
X108267450Y-170963620D03*
G36*
G01*
X115759977Y-167710556D02*
X115759977Y-167710556D01*
G75*
G02*
X114600218Y-166376405I87196J1246955D01*
G01*
X114640772Y-165796443D01*
G75*
G02*
X115974923Y-164636684I1246955J-87196D01*
G01*
X115974923Y-164636684D01*
G75*
G02*
X117134682Y-165970835I-87196J-1246955D01*
G01*
X117094128Y-166550797D01*
G75*
G02*
X115759977Y-167710556I-1246955J87196D01*
G01*
G37*
D14*
X110847450Y-166963620D03*
D16*
X107505450Y-176043620D03*
D17*
X118427450Y-170963620D03*
D18*
X113347450Y-170963620D03*
G36*
G01*
X84888636Y-169362683D02*
X84888636Y-169362683D01*
G75*
G02*
X84796118Y-167597339I836413J928931D01*
G01*
X86108658Y-166139615D01*
G75*
G02*
X87874002Y-166047097I928931J-836413D01*
G01*
X87874002Y-166047097D01*
G75*
G02*
X87966520Y-167812441I-836413J-928931D01*
G01*
X86653980Y-169270165D01*
G75*
G02*
X84888636Y-169362683I-928931J836413D01*
G01*
G37*
D16*
X96620050Y-173513750D03*
D15*
X93345050Y-173513750D03*
X86995050Y-176053750D03*
D17*
X84455050Y-170973750D03*
G36*
G01*
X91947577Y-167720686D02*
X91947577Y-167720686D01*
G75*
G02*
X90787818Y-166386535I87196J1246955D01*
G01*
X90828372Y-165806573D01*
G75*
G02*
X92162523Y-164646814I1246955J-87196D01*
G01*
X92162523Y-164646814D01*
G75*
G02*
X93322282Y-165980965I-87196J-1246955D01*
G01*
X93281728Y-166560927D01*
G75*
G02*
X91947577Y-167720686I-1246955J87196D01*
G01*
G37*
D14*
X87035050Y-166973750D03*
D16*
X83693050Y-176053750D03*
D17*
X94615050Y-170973750D03*
D18*
X89535050Y-170973750D03*
G36*
G01*
X61076036Y-169352553D02*
X61076036Y-169352553D01*
G75*
G02*
X60983518Y-167587209I836413J928931D01*
G01*
X62296058Y-166129485D01*
G75*
G02*
X64061402Y-166036967I928931J-836413D01*
G01*
X64061402Y-166036967D01*
G75*
G02*
X64153920Y-167802311I-836413J-928931D01*
G01*
X62841380Y-169260035D01*
G75*
G02*
X61076036Y-169352553I-928931J836413D01*
G01*
G37*
D16*
X72807450Y-173503620D03*
D15*
X69532450Y-173503620D03*
X63182450Y-176043620D03*
D17*
X60642450Y-170963620D03*
G36*
G01*
X68134977Y-167710556D02*
X68134977Y-167710556D01*
G75*
G02*
X66975218Y-166376405I87196J1246955D01*
G01*
X67015772Y-165796443D01*
G75*
G02*
X68349923Y-164636684I1246955J-87196D01*
G01*
X68349923Y-164636684D01*
G75*
G02*
X69509682Y-165970835I-87196J-1246955D01*
G01*
X69469128Y-166550797D01*
G75*
G02*
X68134977Y-167710556I-1246955J87196D01*
G01*
G37*
D14*
X63222450Y-166963620D03*
D16*
X59880450Y-176043620D03*
D17*
X70802450Y-170963620D03*
D18*
X65722450Y-170963620D03*
D15*
X352901250Y-97313750D03*
X346551250Y-99853750D03*
D16*
X356176250Y-97313750D03*
X343249250Y-99853750D03*
D18*
X349091250Y-94773750D03*
D14*
X346591250Y-90773750D03*
G36*
G01*
X351503777Y-91520686D02*
X351503777Y-91520686D01*
G75*
G02*
X350344018Y-90186535I87196J1246955D01*
G01*
X350384572Y-89606573D01*
G75*
G02*
X351718723Y-88446814I1246955J-87196D01*
G01*
X351718723Y-88446814D01*
G75*
G02*
X352878482Y-89780965I-87196J-1246955D01*
G01*
X352837928Y-90360927D01*
G75*
G02*
X351503777Y-91520686I-1246955J87196D01*
G01*
G37*
D17*
X354171250Y-94773750D03*
X344011250Y-94773750D03*
G36*
G01*
X344444836Y-93162683D02*
X344444836Y-93162683D01*
G75*
G02*
X344352318Y-91397339I836413J928931D01*
G01*
X345664858Y-89939615D01*
G75*
G02*
X347430202Y-89847097I928931J-836413D01*
G01*
X347430202Y-89847097D01*
G75*
G02*
X347522720Y-91612441I-836413J-928931D01*
G01*
X346210180Y-93070165D01*
G75*
G02*
X344444836Y-93162683I-928931J836413D01*
G01*
G37*
D15*
X352901250Y-116363750D03*
X346551250Y-118903750D03*
D16*
X356176250Y-116363750D03*
X343249250Y-118903750D03*
D18*
X349091250Y-113823750D03*
D14*
X346591250Y-109823750D03*
G36*
G01*
X351503777Y-110570686D02*
X351503777Y-110570686D01*
G75*
G02*
X350344018Y-109236535I87196J1246955D01*
G01*
X350384572Y-108656573D01*
G75*
G02*
X351718723Y-107496814I1246955J-87196D01*
G01*
X351718723Y-107496814D01*
G75*
G02*
X352878482Y-108830965I-87196J-1246955D01*
G01*
X352837928Y-109410927D01*
G75*
G02*
X351503777Y-110570686I-1246955J87196D01*
G01*
G37*
D17*
X354171250Y-113823750D03*
X344011250Y-113823750D03*
G36*
G01*
X344444836Y-112212683D02*
X344444836Y-112212683D01*
G75*
G02*
X344352318Y-110447339I836413J928931D01*
G01*
X345664858Y-108989615D01*
G75*
G02*
X347430202Y-108897097I928931J-836413D01*
G01*
X347430202Y-108897097D01*
G75*
G02*
X347522720Y-110662441I-836413J-928931D01*
G01*
X346210180Y-112120165D01*
G75*
G02*
X344444836Y-112212683I-928931J836413D01*
G01*
G37*
D15*
X352901250Y-135413750D03*
X346551250Y-137953750D03*
D16*
X356176250Y-135413750D03*
X343249250Y-137953750D03*
D18*
X349091250Y-132873750D03*
D14*
X346591250Y-128873750D03*
G36*
G01*
X351503777Y-129620686D02*
X351503777Y-129620686D01*
G75*
G02*
X350344018Y-128286535I87196J1246955D01*
G01*
X350384572Y-127706573D01*
G75*
G02*
X351718723Y-126546814I1246955J-87196D01*
G01*
X351718723Y-126546814D01*
G75*
G02*
X352878482Y-127880965I-87196J-1246955D01*
G01*
X352837928Y-128460927D01*
G75*
G02*
X351503777Y-129620686I-1246955J87196D01*
G01*
G37*
D17*
X354171250Y-132873750D03*
X344011250Y-132873750D03*
G36*
G01*
X344444836Y-131262683D02*
X344444836Y-131262683D01*
G75*
G02*
X344352318Y-129497339I836413J928931D01*
G01*
X345664858Y-128039615D01*
G75*
G02*
X347430202Y-127947097I928931J-836413D01*
G01*
X347430202Y-127947097D01*
G75*
G02*
X347522720Y-129712441I-836413J-928931D01*
G01*
X346210180Y-131170165D01*
G75*
G02*
X344444836Y-131262683I-928931J836413D01*
G01*
G37*
D15*
X352901250Y-154463750D03*
X346551250Y-157003750D03*
D16*
X356176250Y-154463750D03*
X343249250Y-157003750D03*
D18*
X349091250Y-151923750D03*
D14*
X346591250Y-147923750D03*
G36*
G01*
X351503777Y-148670686D02*
X351503777Y-148670686D01*
G75*
G02*
X350344018Y-147336535I87196J1246955D01*
G01*
X350384572Y-146756573D01*
G75*
G02*
X351718723Y-145596814I1246955J-87196D01*
G01*
X351718723Y-145596814D01*
G75*
G02*
X352878482Y-146930965I-87196J-1246955D01*
G01*
X352837928Y-147510927D01*
G75*
G02*
X351503777Y-148670686I-1246955J87196D01*
G01*
G37*
D17*
X354171250Y-151923750D03*
X344011250Y-151923750D03*
G36*
G01*
X344444836Y-150312683D02*
X344444836Y-150312683D01*
G75*
G02*
X344352318Y-148547339I836413J928931D01*
G01*
X345664858Y-147089615D01*
G75*
G02*
X347430202Y-146997097I928931J-836413D01*
G01*
X347430202Y-146997097D01*
G75*
G02*
X347522720Y-148762441I-836413J-928931D01*
G01*
X346210180Y-150220165D01*
G75*
G02*
X344444836Y-150312683I-928931J836413D01*
G01*
G37*
D15*
X352901250Y-173513750D03*
X346551250Y-176053750D03*
D16*
X356176250Y-173513750D03*
X343249250Y-176053750D03*
D18*
X349091250Y-170973750D03*
D14*
X346591250Y-166973750D03*
G36*
G01*
X351503777Y-167720686D02*
X351503777Y-167720686D01*
G75*
G02*
X350344018Y-166386535I87196J1246955D01*
G01*
X350384572Y-165806573D01*
G75*
G02*
X351718723Y-164646814I1246955J-87196D01*
G01*
X351718723Y-164646814D01*
G75*
G02*
X352878482Y-165980965I-87196J-1246955D01*
G01*
X352837928Y-166560927D01*
G75*
G02*
X351503777Y-167720686I-1246955J87196D01*
G01*
G37*
D17*
X354171250Y-170973750D03*
X344011250Y-170973750D03*
G36*
G01*
X344444836Y-169362683D02*
X344444836Y-169362683D01*
G75*
G02*
X344352318Y-167597339I836413J928931D01*
G01*
X345664858Y-166139615D01*
G75*
G02*
X347430202Y-166047097I928931J-836413D01*
G01*
X347430202Y-166047097D01*
G75*
G02*
X347522720Y-167812441I-836413J-928931D01*
G01*
X346210180Y-169270165D01*
G75*
G02*
X344444836Y-169362683I-928931J836413D01*
G01*
G37*
D15*
X333851250Y-154463750D03*
X327501250Y-157003750D03*
D16*
X337126250Y-154463750D03*
X324199250Y-157003750D03*
D18*
X330041250Y-151923750D03*
D14*
X327541250Y-147923750D03*
G36*
G01*
X332453777Y-148670686D02*
X332453777Y-148670686D01*
G75*
G02*
X331294018Y-147336535I87196J1246955D01*
G01*
X331334572Y-146756573D01*
G75*
G02*
X332668723Y-145596814I1246955J-87196D01*
G01*
X332668723Y-145596814D01*
G75*
G02*
X333828482Y-146930965I-87196J-1246955D01*
G01*
X333787928Y-147510927D01*
G75*
G02*
X332453777Y-148670686I-1246955J87196D01*
G01*
G37*
D17*
X335121250Y-151923750D03*
X324961250Y-151923750D03*
G36*
G01*
X325394836Y-150312683D02*
X325394836Y-150312683D01*
G75*
G02*
X325302318Y-148547339I836413J928931D01*
G01*
X326614858Y-147089615D01*
G75*
G02*
X328380202Y-146997097I928931J-836413D01*
G01*
X328380202Y-146997097D01*
G75*
G02*
X328472720Y-148762441I-836413J-928931D01*
G01*
X327160180Y-150220165D01*
G75*
G02*
X325394836Y-150312683I-928931J836413D01*
G01*
G37*
D15*
X305276250Y-116363750D03*
X298926250Y-118903750D03*
D16*
X308551250Y-116363750D03*
X295624250Y-118903750D03*
D18*
X301466250Y-113823750D03*
D14*
X298966250Y-109823750D03*
G36*
G01*
X303878777Y-110570686D02*
X303878777Y-110570686D01*
G75*
G02*
X302719018Y-109236535I87196J1246955D01*
G01*
X302759572Y-108656573D01*
G75*
G02*
X304093723Y-107496814I1246955J-87196D01*
G01*
X304093723Y-107496814D01*
G75*
G02*
X305253482Y-108830965I-87196J-1246955D01*
G01*
X305212928Y-109410927D01*
G75*
G02*
X303878777Y-110570686I-1246955J87196D01*
G01*
G37*
D17*
X306546250Y-113823750D03*
X296386250Y-113823750D03*
G36*
G01*
X296819836Y-112212683D02*
X296819836Y-112212683D01*
G75*
G02*
X296727318Y-110447339I836413J928931D01*
G01*
X298039858Y-108989615D01*
G75*
G02*
X299805202Y-108897097I928931J-836413D01*
G01*
X299805202Y-108897097D01*
G75*
G02*
X299897720Y-110662441I-836413J-928931D01*
G01*
X298585180Y-112120165D01*
G75*
G02*
X296819836Y-112212683I-928931J836413D01*
G01*
G37*
D15*
X295751250Y-97313750D03*
X289401250Y-99853750D03*
D16*
X299026250Y-97313750D03*
X286099250Y-99853750D03*
D18*
X291941250Y-94773750D03*
D14*
X289441250Y-90773750D03*
G36*
G01*
X294353777Y-91520686D02*
X294353777Y-91520686D01*
G75*
G02*
X293194018Y-90186535I87196J1246955D01*
G01*
X293234572Y-89606573D01*
G75*
G02*
X294568723Y-88446814I1246955J-87196D01*
G01*
X294568723Y-88446814D01*
G75*
G02*
X295728482Y-89780965I-87196J-1246955D01*
G01*
X295687928Y-90360927D01*
G75*
G02*
X294353777Y-91520686I-1246955J87196D01*
G01*
G37*
D17*
X297021250Y-94773750D03*
X286861250Y-94773750D03*
G36*
G01*
X287294836Y-93162683D02*
X287294836Y-93162683D01*
G75*
G02*
X287202318Y-91397339I836413J928931D01*
G01*
X288514858Y-89939615D01*
G75*
G02*
X290280202Y-89847097I928931J-836413D01*
G01*
X290280202Y-89847097D01*
G75*
G02*
X290372720Y-91612441I-836413J-928931D01*
G01*
X289060180Y-93070165D01*
G75*
G02*
X287294836Y-93162683I-928931J836413D01*
G01*
G37*
D15*
X281464250Y-154463750D03*
X275114250Y-157003750D03*
D16*
X284739250Y-154463750D03*
X271812250Y-157003750D03*
D18*
X277654250Y-151923750D03*
D14*
X275154250Y-147923750D03*
G36*
G01*
X280066777Y-148670686D02*
X280066777Y-148670686D01*
G75*
G02*
X278907018Y-147336535I87196J1246955D01*
G01*
X278947572Y-146756573D01*
G75*
G02*
X280281723Y-145596814I1246955J-87196D01*
G01*
X280281723Y-145596814D01*
G75*
G02*
X281441482Y-146930965I-87196J-1246955D01*
G01*
X281400928Y-147510927D01*
G75*
G02*
X280066777Y-148670686I-1246955J87196D01*
G01*
G37*
D17*
X282734250Y-151923750D03*
X272574250Y-151923750D03*
G36*
G01*
X273007836Y-150312683D02*
X273007836Y-150312683D01*
G75*
G02*
X272915318Y-148547339I836413J928931D01*
G01*
X274227858Y-147089615D01*
G75*
G02*
X275993202Y-146997097I928931J-836413D01*
G01*
X275993202Y-146997097D01*
G75*
G02*
X276085720Y-148762441I-836413J-928931D01*
G01*
X274773180Y-150220165D01*
G75*
G02*
X273007836Y-150312683I-928931J836413D01*
G01*
G37*
D15*
X290988250Y-135413750D03*
X284638250Y-137953750D03*
D16*
X294263250Y-135413750D03*
X281336250Y-137953750D03*
D18*
X287178250Y-132873750D03*
D14*
X284678250Y-128873750D03*
G36*
G01*
X289590777Y-129620686D02*
X289590777Y-129620686D01*
G75*
G02*
X288431018Y-128286535I87196J1246955D01*
G01*
X288471572Y-127706573D01*
G75*
G02*
X289805723Y-126546814I1246955J-87196D01*
G01*
X289805723Y-126546814D01*
G75*
G02*
X290965482Y-127880965I-87196J-1246955D01*
G01*
X290924928Y-128460927D01*
G75*
G02*
X289590777Y-129620686I-1246955J87196D01*
G01*
G37*
D17*
X292258250Y-132873750D03*
X282098250Y-132873750D03*
G36*
G01*
X282531836Y-131262683D02*
X282531836Y-131262683D01*
G75*
G02*
X282439318Y-129497339I836413J928931D01*
G01*
X283751858Y-128039615D01*
G75*
G02*
X285517202Y-127947097I928931J-836413D01*
G01*
X285517202Y-127947097D01*
G75*
G02*
X285609720Y-129712441I-836413J-928931D01*
G01*
X284297180Y-131170165D01*
G75*
G02*
X282531836Y-131262683I-928931J836413D01*
G01*
G37*
D15*
X286226250Y-116363750D03*
X279876250Y-118903750D03*
D16*
X289501250Y-116363750D03*
X276574250Y-118903750D03*
D18*
X282416250Y-113823750D03*
D14*
X279916250Y-109823750D03*
G36*
G01*
X284828777Y-110570686D02*
X284828777Y-110570686D01*
G75*
G02*
X283669018Y-109236535I87196J1246955D01*
G01*
X283709572Y-108656573D01*
G75*
G02*
X285043723Y-107496814I1246955J-87196D01*
G01*
X285043723Y-107496814D01*
G75*
G02*
X286203482Y-108830965I-87196J-1246955D01*
G01*
X286162928Y-109410927D01*
G75*
G02*
X284828777Y-110570686I-1246955J87196D01*
G01*
G37*
D17*
X287496250Y-113823750D03*
X277336250Y-113823750D03*
G36*
G01*
X277769836Y-112212683D02*
X277769836Y-112212683D01*
G75*
G02*
X277677318Y-110447339I836413J928931D01*
G01*
X278989858Y-108989615D01*
G75*
G02*
X280755202Y-108897097I928931J-836413D01*
G01*
X280755202Y-108897097D01*
G75*
G02*
X280847720Y-110662441I-836413J-928931D01*
G01*
X279535180Y-112120165D01*
G75*
G02*
X277769836Y-112212683I-928931J836413D01*
G01*
G37*
D15*
X276701250Y-97313750D03*
X270351250Y-99853750D03*
D16*
X279976250Y-97313750D03*
X267049250Y-99853750D03*
D18*
X272891250Y-94773750D03*
D14*
X270391250Y-90773750D03*
G36*
G01*
X275303777Y-91520686D02*
X275303777Y-91520686D01*
G75*
G02*
X274144018Y-90186535I87196J1246955D01*
G01*
X274184572Y-89606573D01*
G75*
G02*
X275518723Y-88446814I1246955J-87196D01*
G01*
X275518723Y-88446814D01*
G75*
G02*
X276678482Y-89780965I-87196J-1246955D01*
G01*
X276637928Y-90360927D01*
G75*
G02*
X275303777Y-91520686I-1246955J87196D01*
G01*
G37*
D17*
X277971250Y-94773750D03*
X267811250Y-94773750D03*
G36*
G01*
X268244836Y-93162683D02*
X268244836Y-93162683D01*
G75*
G02*
X268152318Y-91397339I836413J928931D01*
G01*
X269464858Y-89939615D01*
G75*
G02*
X271230202Y-89847097I928931J-836413D01*
G01*
X271230202Y-89847097D01*
G75*
G02*
X271322720Y-91612441I-836413J-928931D01*
G01*
X270010180Y-93070165D01*
G75*
G02*
X268244836Y-93162683I-928931J836413D01*
G01*
G37*
D15*
X262414250Y-154463750D03*
X256064250Y-157003750D03*
D16*
X265689250Y-154463750D03*
X252762250Y-157003750D03*
D18*
X258604250Y-151923750D03*
D14*
X256104250Y-147923750D03*
G36*
G01*
X261016777Y-148670686D02*
X261016777Y-148670686D01*
G75*
G02*
X259857018Y-147336535I87196J1246955D01*
G01*
X259897572Y-146756573D01*
G75*
G02*
X261231723Y-145596814I1246955J-87196D01*
G01*
X261231723Y-145596814D01*
G75*
G02*
X262391482Y-146930965I-87196J-1246955D01*
G01*
X262350928Y-147510927D01*
G75*
G02*
X261016777Y-148670686I-1246955J87196D01*
G01*
G37*
D17*
X263684250Y-151923750D03*
X253524250Y-151923750D03*
G36*
G01*
X253957836Y-150312683D02*
X253957836Y-150312683D01*
G75*
G02*
X253865318Y-148547339I836413J928931D01*
G01*
X255177858Y-147089615D01*
G75*
G02*
X256943202Y-146997097I928931J-836413D01*
G01*
X256943202Y-146997097D01*
G75*
G02*
X257035720Y-148762441I-836413J-928931D01*
G01*
X255723180Y-150220165D01*
G75*
G02*
X253957836Y-150312683I-928931J836413D01*
G01*
G37*
D15*
X271938250Y-135413750D03*
X265588250Y-137953750D03*
D16*
X275213250Y-135413750D03*
X262286250Y-137953750D03*
D18*
X268128250Y-132873750D03*
D14*
X265628250Y-128873750D03*
G36*
G01*
X270540777Y-129620686D02*
X270540777Y-129620686D01*
G75*
G02*
X269381018Y-128286535I87196J1246955D01*
G01*
X269421572Y-127706573D01*
G75*
G02*
X270755723Y-126546814I1246955J-87196D01*
G01*
X270755723Y-126546814D01*
G75*
G02*
X271915482Y-127880965I-87196J-1246955D01*
G01*
X271874928Y-128460927D01*
G75*
G02*
X270540777Y-129620686I-1246955J87196D01*
G01*
G37*
D17*
X273208250Y-132873750D03*
X263048250Y-132873750D03*
G36*
G01*
X263481836Y-131262683D02*
X263481836Y-131262683D01*
G75*
G02*
X263389318Y-129497339I836413J928931D01*
G01*
X264701858Y-128039615D01*
G75*
G02*
X266467202Y-127947097I928931J-836413D01*
G01*
X266467202Y-127947097D01*
G75*
G02*
X266559720Y-129712441I-836413J-928931D01*
G01*
X265247180Y-131170165D01*
G75*
G02*
X263481836Y-131262683I-928931J836413D01*
G01*
G37*
D15*
X267176250Y-116363750D03*
X260826250Y-118903750D03*
D16*
X270451250Y-116363750D03*
X257524250Y-118903750D03*
D18*
X263366250Y-113823750D03*
D14*
X260866250Y-109823750D03*
G36*
G01*
X265778777Y-110570686D02*
X265778777Y-110570686D01*
G75*
G02*
X264619018Y-109236535I87196J1246955D01*
G01*
X264659572Y-108656573D01*
G75*
G02*
X265993723Y-107496814I1246955J-87196D01*
G01*
X265993723Y-107496814D01*
G75*
G02*
X267153482Y-108830965I-87196J-1246955D01*
G01*
X267112928Y-109410927D01*
G75*
G02*
X265778777Y-110570686I-1246955J87196D01*
G01*
G37*
D17*
X268446250Y-113823750D03*
X258286250Y-113823750D03*
G36*
G01*
X258719836Y-112212683D02*
X258719836Y-112212683D01*
G75*
G02*
X258627318Y-110447339I836413J928931D01*
G01*
X259939858Y-108989615D01*
G75*
G02*
X261705202Y-108897097I928931J-836413D01*
G01*
X261705202Y-108897097D01*
G75*
G02*
X261797720Y-110662441I-836413J-928931D01*
G01*
X260485180Y-112120165D01*
G75*
G02*
X258719836Y-112212683I-928931J836413D01*
G01*
G37*
D15*
X257651250Y-97313750D03*
X251301250Y-99853750D03*
D16*
X260926250Y-97313750D03*
X247999250Y-99853750D03*
D18*
X253841250Y-94773750D03*
D14*
X251341250Y-90773750D03*
G36*
G01*
X256253777Y-91520686D02*
X256253777Y-91520686D01*
G75*
G02*
X255094018Y-90186535I87196J1246955D01*
G01*
X255134572Y-89606573D01*
G75*
G02*
X256468723Y-88446814I1246955J-87196D01*
G01*
X256468723Y-88446814D01*
G75*
G02*
X257628482Y-89780965I-87196J-1246955D01*
G01*
X257587928Y-90360927D01*
G75*
G02*
X256253777Y-91520686I-1246955J87196D01*
G01*
G37*
D17*
X258921250Y-94773750D03*
X248761250Y-94773750D03*
G36*
G01*
X249194836Y-93162683D02*
X249194836Y-93162683D01*
G75*
G02*
X249102318Y-91397339I836413J928931D01*
G01*
X250414858Y-89939615D01*
G75*
G02*
X252180202Y-89847097I928931J-836413D01*
G01*
X252180202Y-89847097D01*
G75*
G02*
X252272720Y-91612441I-836413J-928931D01*
G01*
X250960180Y-93070165D01*
G75*
G02*
X249194836Y-93162683I-928931J836413D01*
G01*
G37*
D15*
X243364250Y-154463750D03*
X237014250Y-157003750D03*
D16*
X246639250Y-154463750D03*
X233712250Y-157003750D03*
D18*
X239554250Y-151923750D03*
D14*
X237054250Y-147923750D03*
G36*
G01*
X241966777Y-148670686D02*
X241966777Y-148670686D01*
G75*
G02*
X240807018Y-147336535I87196J1246955D01*
G01*
X240847572Y-146756573D01*
G75*
G02*
X242181723Y-145596814I1246955J-87196D01*
G01*
X242181723Y-145596814D01*
G75*
G02*
X243341482Y-146930965I-87196J-1246955D01*
G01*
X243300928Y-147510927D01*
G75*
G02*
X241966777Y-148670686I-1246955J87196D01*
G01*
G37*
D17*
X244634250Y-151923750D03*
X234474250Y-151923750D03*
G36*
G01*
X234907836Y-150312683D02*
X234907836Y-150312683D01*
G75*
G02*
X234815318Y-148547339I836413J928931D01*
G01*
X236127858Y-147089615D01*
G75*
G02*
X237893202Y-146997097I928931J-836413D01*
G01*
X237893202Y-146997097D01*
G75*
G02*
X237985720Y-148762441I-836413J-928931D01*
G01*
X236673180Y-150220165D01*
G75*
G02*
X234907836Y-150312683I-928931J836413D01*
G01*
G37*
D15*
X295791528Y-173503620D03*
X289441528Y-176043620D03*
D16*
X299066528Y-173503620D03*
X286139528Y-176043620D03*
D18*
X291981528Y-170963620D03*
D14*
X289481528Y-166963620D03*
G36*
G01*
X294394055Y-167710556D02*
X294394055Y-167710556D01*
G75*
G02*
X293234296Y-166376405I87196J1246955D01*
G01*
X293274850Y-165796443D01*
G75*
G02*
X294609001Y-164636684I1246955J-87196D01*
G01*
X294609001Y-164636684D01*
G75*
G02*
X295768760Y-165970835I-87196J-1246955D01*
G01*
X295728206Y-166550797D01*
G75*
G02*
X294394055Y-167710556I-1246955J87196D01*
G01*
G37*
D17*
X297061528Y-170963620D03*
X286901528Y-170963620D03*
G36*
G01*
X287335114Y-169352553D02*
X287335114Y-169352553D01*
G75*
G02*
X287242596Y-167587209I836413J928931D01*
G01*
X288555136Y-166129485D01*
G75*
G02*
X290320480Y-166036967I928931J-836413D01*
G01*
X290320480Y-166036967D01*
G75*
G02*
X290412998Y-167802311I-836413J-928931D01*
G01*
X289100458Y-169260035D01*
G75*
G02*
X287335114Y-169352553I-928931J836413D01*
G01*
G37*
D15*
X333851250Y-173513750D03*
X327501250Y-176053750D03*
D16*
X337126250Y-173513750D03*
X324199250Y-176053750D03*
D18*
X330041250Y-170973750D03*
D14*
X327541250Y-166973750D03*
G36*
G01*
X332453777Y-167720686D02*
X332453777Y-167720686D01*
G75*
G02*
X331294018Y-166386535I87196J1246955D01*
G01*
X331334572Y-165806573D01*
G75*
G02*
X332668723Y-164646814I1246955J-87196D01*
G01*
X332668723Y-164646814D01*
G75*
G02*
X333828482Y-165980965I-87196J-1246955D01*
G01*
X333787928Y-166560927D01*
G75*
G02*
X332453777Y-167720686I-1246955J87196D01*
G01*
G37*
D17*
X335121250Y-170973750D03*
X324961250Y-170973750D03*
G36*
G01*
X325394836Y-169362683D02*
X325394836Y-169362683D01*
G75*
G02*
X325302318Y-167597339I836413J928931D01*
G01*
X326614858Y-166139615D01*
G75*
G02*
X328380202Y-166047097I928931J-836413D01*
G01*
X328380202Y-166047097D01*
G75*
G02*
X328472720Y-167812441I-836413J-928931D01*
G01*
X327160180Y-169270165D01*
G75*
G02*
X325394836Y-169362683I-928931J836413D01*
G01*
G37*
D15*
X314801250Y-173513750D03*
X308451250Y-176053750D03*
D16*
X318076250Y-173513750D03*
X305149250Y-176053750D03*
D18*
X310991250Y-170973750D03*
D14*
X308491250Y-166973750D03*
G36*
G01*
X313403777Y-167720686D02*
X313403777Y-167720686D01*
G75*
G02*
X312244018Y-166386535I87196J1246955D01*
G01*
X312284572Y-165806573D01*
G75*
G02*
X313618723Y-164646814I1246955J-87196D01*
G01*
X313618723Y-164646814D01*
G75*
G02*
X314778482Y-165980965I-87196J-1246955D01*
G01*
X314737928Y-166560927D01*
G75*
G02*
X313403777Y-167720686I-1246955J87196D01*
G01*
G37*
D17*
X316071250Y-170973750D03*
X305911250Y-170973750D03*
G36*
G01*
X306344836Y-169362683D02*
X306344836Y-169362683D01*
G75*
G02*
X306252318Y-167597339I836413J928931D01*
G01*
X307564858Y-166139615D01*
G75*
G02*
X309330202Y-166047097I928931J-836413D01*
G01*
X309330202Y-166047097D01*
G75*
G02*
X309422720Y-167812441I-836413J-928931D01*
G01*
X308110180Y-169270165D01*
G75*
G02*
X306344836Y-169362683I-928931J836413D01*
G01*
G37*
D15*
X188595250Y-173513750D03*
X182245250Y-176053750D03*
D16*
X191870250Y-173513750D03*
X178943250Y-176053750D03*
D18*
X184785250Y-170973750D03*
D14*
X182285250Y-166973750D03*
G36*
G01*
X187197777Y-167720686D02*
X187197777Y-167720686D01*
G75*
G02*
X186038018Y-166386535I87196J1246955D01*
G01*
X186078572Y-165806573D01*
G75*
G02*
X187412723Y-164646814I1246955J-87196D01*
G01*
X187412723Y-164646814D01*
G75*
G02*
X188572482Y-165980965I-87196J-1246955D01*
G01*
X188531928Y-166560927D01*
G75*
G02*
X187197777Y-167720686I-1246955J87196D01*
G01*
G37*
D17*
X189865250Y-170973750D03*
X179705250Y-170973750D03*
G36*
G01*
X180138836Y-169362683D02*
X180138836Y-169362683D01*
G75*
G02*
X180046318Y-167597339I836413J928931D01*
G01*
X181358858Y-166139615D01*
G75*
G02*
X183124202Y-166047097I928931J-836413D01*
G01*
X183124202Y-166047097D01*
G75*
G02*
X183216720Y-167812441I-836413J-928931D01*
G01*
X181904180Y-169270165D01*
G75*
G02*
X180138836Y-169362683I-928931J836413D01*
G01*
G37*
D15*
X224314250Y-154463750D03*
X217964250Y-157003750D03*
D16*
X227589250Y-154463750D03*
X214662250Y-157003750D03*
D18*
X220504250Y-151923750D03*
D14*
X218004250Y-147923750D03*
G36*
G01*
X222916777Y-148670686D02*
X222916777Y-148670686D01*
G75*
G02*
X221757018Y-147336535I87196J1246955D01*
G01*
X221797572Y-146756573D01*
G75*
G02*
X223131723Y-145596814I1246955J-87196D01*
G01*
X223131723Y-145596814D01*
G75*
G02*
X224291482Y-146930965I-87196J-1246955D01*
G01*
X224250928Y-147510927D01*
G75*
G02*
X222916777Y-148670686I-1246955J87196D01*
G01*
G37*
D17*
X225584250Y-151923750D03*
X215424250Y-151923750D03*
G36*
G01*
X215857836Y-150312683D02*
X215857836Y-150312683D01*
G75*
G02*
X215765318Y-148547339I836413J928931D01*
G01*
X217077858Y-147089615D01*
G75*
G02*
X218843202Y-146997097I928931J-836413D01*
G01*
X218843202Y-146997097D01*
G75*
G02*
X218935720Y-148762441I-836413J-928931D01*
G01*
X217623180Y-150220165D01*
G75*
G02*
X215857836Y-150312683I-928931J836413D01*
G01*
G37*
D15*
X205264250Y-154463750D03*
X198914250Y-157003750D03*
D16*
X208539250Y-154463750D03*
X195612250Y-157003750D03*
D18*
X201454250Y-151923750D03*
D14*
X198954250Y-147923750D03*
G36*
G01*
X203866777Y-148670686D02*
X203866777Y-148670686D01*
G75*
G02*
X202707018Y-147336535I87196J1246955D01*
G01*
X202747572Y-146756573D01*
G75*
G02*
X204081723Y-145596814I1246955J-87196D01*
G01*
X204081723Y-145596814D01*
G75*
G02*
X205241482Y-146930965I-87196J-1246955D01*
G01*
X205200928Y-147510927D01*
G75*
G02*
X203866777Y-148670686I-1246955J87196D01*
G01*
G37*
D17*
X206534250Y-151923750D03*
X196374250Y-151923750D03*
G36*
G01*
X196807836Y-150312683D02*
X196807836Y-150312683D01*
G75*
G02*
X196715318Y-148547339I836413J928931D01*
G01*
X198027858Y-147089615D01*
G75*
G02*
X199793202Y-146997097I928931J-836413D01*
G01*
X199793202Y-146997097D01*
G75*
G02*
X199885720Y-148762441I-836413J-928931D01*
G01*
X198573180Y-150220165D01*
G75*
G02*
X196807836Y-150312683I-928931J836413D01*
G01*
G37*
D15*
X186214250Y-154463750D03*
X179864250Y-157003750D03*
D16*
X189489250Y-154463750D03*
X176562250Y-157003750D03*
D18*
X182404250Y-151923750D03*
D14*
X179904250Y-147923750D03*
G36*
G01*
X184816777Y-148670686D02*
X184816777Y-148670686D01*
G75*
G02*
X183657018Y-147336535I87196J1246955D01*
G01*
X183697572Y-146756573D01*
G75*
G02*
X185031723Y-145596814I1246955J-87196D01*
G01*
X185031723Y-145596814D01*
G75*
G02*
X186191482Y-146930965I-87196J-1246955D01*
G01*
X186150928Y-147510927D01*
G75*
G02*
X184816777Y-148670686I-1246955J87196D01*
G01*
G37*
D17*
X187484250Y-151923750D03*
X177324250Y-151923750D03*
G36*
G01*
X177757836Y-150312683D02*
X177757836Y-150312683D01*
G75*
G02*
X177665318Y-148547339I836413J928931D01*
G01*
X178977858Y-147089615D01*
G75*
G02*
X180743202Y-146997097I928931J-836413D01*
G01*
X180743202Y-146997097D01*
G75*
G02*
X180835720Y-148762441I-836413J-928931D01*
G01*
X179523180Y-150220165D01*
G75*
G02*
X177757836Y-150312683I-928931J836413D01*
G01*
G37*
D15*
X167164250Y-154463750D03*
X160814250Y-157003750D03*
D16*
X170439250Y-154463750D03*
X157512250Y-157003750D03*
D18*
X163354250Y-151923750D03*
D14*
X160854250Y-147923750D03*
G36*
G01*
X165766777Y-148670686D02*
X165766777Y-148670686D01*
G75*
G02*
X164607018Y-147336535I87196J1246955D01*
G01*
X164647572Y-146756573D01*
G75*
G02*
X165981723Y-145596814I1246955J-87196D01*
G01*
X165981723Y-145596814D01*
G75*
G02*
X167141482Y-146930965I-87196J-1246955D01*
G01*
X167100928Y-147510927D01*
G75*
G02*
X165766777Y-148670686I-1246955J87196D01*
G01*
G37*
D17*
X168434250Y-151923750D03*
X158274250Y-151923750D03*
G36*
G01*
X158707836Y-150312683D02*
X158707836Y-150312683D01*
G75*
G02*
X158615318Y-148547339I836413J928931D01*
G01*
X159927858Y-147089615D01*
G75*
G02*
X161693202Y-146997097I928931J-836413D01*
G01*
X161693202Y-146997097D01*
G75*
G02*
X161785720Y-148762441I-836413J-928931D01*
G01*
X160473180Y-150220165D01*
G75*
G02*
X158707836Y-150312683I-928931J836413D01*
G01*
G37*
D15*
X148113750Y-154463750D03*
X141763750Y-157003750D03*
D16*
X151388750Y-154463750D03*
X138461750Y-157003750D03*
D18*
X144303750Y-151923750D03*
D14*
X141803750Y-147923750D03*
G36*
G01*
X146716277Y-148670686D02*
X146716277Y-148670686D01*
G75*
G02*
X145556518Y-147336535I87196J1246955D01*
G01*
X145597072Y-146756573D01*
G75*
G02*
X146931223Y-145596814I1246955J-87196D01*
G01*
X146931223Y-145596814D01*
G75*
G02*
X148090982Y-146930965I-87196J-1246955D01*
G01*
X148050428Y-147510927D01*
G75*
G02*
X146716277Y-148670686I-1246955J87196D01*
G01*
G37*
D17*
X149383750Y-151923750D03*
X139223750Y-151923750D03*
G36*
G01*
X139657336Y-150312683D02*
X139657336Y-150312683D01*
G75*
G02*
X139564818Y-148547339I836413J928931D01*
G01*
X140877358Y-147089615D01*
G75*
G02*
X142642702Y-146997097I928931J-836413D01*
G01*
X142642702Y-146997097D01*
G75*
G02*
X142735220Y-148762441I-836413J-928931D01*
G01*
X141422680Y-150220165D01*
G75*
G02*
X139657336Y-150312683I-928931J836413D01*
G01*
G37*
D15*
X129063750Y-154463750D03*
X122713750Y-157003750D03*
D16*
X132338750Y-154463750D03*
X119411750Y-157003750D03*
D18*
X125253750Y-151923750D03*
D14*
X122753750Y-147923750D03*
G36*
G01*
X127666277Y-148670686D02*
X127666277Y-148670686D01*
G75*
G02*
X126506518Y-147336535I87196J1246955D01*
G01*
X126547072Y-146756573D01*
G75*
G02*
X127881223Y-145596814I1246955J-87196D01*
G01*
X127881223Y-145596814D01*
G75*
G02*
X129040982Y-146930965I-87196J-1246955D01*
G01*
X129000428Y-147510927D01*
G75*
G02*
X127666277Y-148670686I-1246955J87196D01*
G01*
G37*
D17*
X130333750Y-151923750D03*
X120173750Y-151923750D03*
G36*
G01*
X120607336Y-150312683D02*
X120607336Y-150312683D01*
G75*
G02*
X120514818Y-148547339I836413J928931D01*
G01*
X121827358Y-147089615D01*
G75*
G02*
X123592702Y-146997097I928931J-836413D01*
G01*
X123592702Y-146997097D01*
G75*
G02*
X123685220Y-148762441I-836413J-928931D01*
G01*
X122372680Y-150220165D01*
G75*
G02*
X120607336Y-150312683I-928931J836413D01*
G01*
G37*
D15*
X110013750Y-154463750D03*
X103663750Y-157003750D03*
D16*
X113288750Y-154463750D03*
X100361750Y-157003750D03*
D18*
X106203750Y-151923750D03*
D14*
X103703750Y-147923750D03*
G36*
G01*
X108616277Y-148670686D02*
X108616277Y-148670686D01*
G75*
G02*
X107456518Y-147336535I87196J1246955D01*
G01*
X107497072Y-146756573D01*
G75*
G02*
X108831223Y-145596814I1246955J-87196D01*
G01*
X108831223Y-145596814D01*
G75*
G02*
X109990982Y-146930965I-87196J-1246955D01*
G01*
X109950428Y-147510927D01*
G75*
G02*
X108616277Y-148670686I-1246955J87196D01*
G01*
G37*
D17*
X111283750Y-151923750D03*
X101123750Y-151923750D03*
G36*
G01*
X101557336Y-150312683D02*
X101557336Y-150312683D01*
G75*
G02*
X101464818Y-148547339I836413J928931D01*
G01*
X102777358Y-147089615D01*
G75*
G02*
X104542702Y-146997097I928931J-836413D01*
G01*
X104542702Y-146997097D01*
G75*
G02*
X104635220Y-148762441I-836413J-928931D01*
G01*
X103322680Y-150220165D01*
G75*
G02*
X101557336Y-150312683I-928931J836413D01*
G01*
G37*
D15*
X252888250Y-135413750D03*
X246538250Y-137953750D03*
D16*
X256163250Y-135413750D03*
X243236250Y-137953750D03*
D18*
X249078250Y-132873750D03*
D14*
X246578250Y-128873750D03*
G36*
G01*
X251490777Y-129620686D02*
X251490777Y-129620686D01*
G75*
G02*
X250331018Y-128286535I87196J1246955D01*
G01*
X250371572Y-127706573D01*
G75*
G02*
X251705723Y-126546814I1246955J-87196D01*
G01*
X251705723Y-126546814D01*
G75*
G02*
X252865482Y-127880965I-87196J-1246955D01*
G01*
X252824928Y-128460927D01*
G75*
G02*
X251490777Y-129620686I-1246955J87196D01*
G01*
G37*
D17*
X254158250Y-132873750D03*
X243998250Y-132873750D03*
G36*
G01*
X244431836Y-131262683D02*
X244431836Y-131262683D01*
G75*
G02*
X244339318Y-129497339I836413J928931D01*
G01*
X245651858Y-128039615D01*
G75*
G02*
X247417202Y-127947097I928931J-836413D01*
G01*
X247417202Y-127947097D01*
G75*
G02*
X247509720Y-129712441I-836413J-928931D01*
G01*
X246197180Y-131170165D01*
G75*
G02*
X244431836Y-131262683I-928931J836413D01*
G01*
G37*
D15*
X233838250Y-135413750D03*
X227488250Y-137953750D03*
D16*
X237113250Y-135413750D03*
X224186250Y-137953750D03*
D18*
X230028250Y-132873750D03*
D14*
X227528250Y-128873750D03*
G36*
G01*
X232440777Y-129620686D02*
X232440777Y-129620686D01*
G75*
G02*
X231281018Y-128286535I87196J1246955D01*
G01*
X231321572Y-127706573D01*
G75*
G02*
X232655723Y-126546814I1246955J-87196D01*
G01*
X232655723Y-126546814D01*
G75*
G02*
X233815482Y-127880965I-87196J-1246955D01*
G01*
X233774928Y-128460927D01*
G75*
G02*
X232440777Y-129620686I-1246955J87196D01*
G01*
G37*
D17*
X235108250Y-132873750D03*
X224948250Y-132873750D03*
G36*
G01*
X225381836Y-131262683D02*
X225381836Y-131262683D01*
G75*
G02*
X225289318Y-129497339I836413J928931D01*
G01*
X226601858Y-128039615D01*
G75*
G02*
X228367202Y-127947097I928931J-836413D01*
G01*
X228367202Y-127947097D01*
G75*
G02*
X228459720Y-129712441I-836413J-928931D01*
G01*
X227147180Y-131170165D01*
G75*
G02*
X225381836Y-131262683I-928931J836413D01*
G01*
G37*
D15*
X214788250Y-135413750D03*
X208438250Y-137953750D03*
D16*
X218063250Y-135413750D03*
X205136250Y-137953750D03*
D18*
X210978250Y-132873750D03*
D14*
X208478250Y-128873750D03*
G36*
G01*
X213390777Y-129620686D02*
X213390777Y-129620686D01*
G75*
G02*
X212231018Y-128286535I87196J1246955D01*
G01*
X212271572Y-127706573D01*
G75*
G02*
X213605723Y-126546814I1246955J-87196D01*
G01*
X213605723Y-126546814D01*
G75*
G02*
X214765482Y-127880965I-87196J-1246955D01*
G01*
X214724928Y-128460927D01*
G75*
G02*
X213390777Y-129620686I-1246955J87196D01*
G01*
G37*
D17*
X216058250Y-132873750D03*
X205898250Y-132873750D03*
G36*
G01*
X206331836Y-131262683D02*
X206331836Y-131262683D01*
G75*
G02*
X206239318Y-129497339I836413J928931D01*
G01*
X207551858Y-128039615D01*
G75*
G02*
X209317202Y-127947097I928931J-836413D01*
G01*
X209317202Y-127947097D01*
G75*
G02*
X209409720Y-129712441I-836413J-928931D01*
G01*
X208097180Y-131170165D01*
G75*
G02*
X206331836Y-131262683I-928931J836413D01*
G01*
G37*
D15*
X195738250Y-135413750D03*
X189388250Y-137953750D03*
D16*
X199013250Y-135413750D03*
X186086250Y-137953750D03*
D18*
X191928250Y-132873750D03*
D14*
X189428250Y-128873750D03*
G36*
G01*
X194340777Y-129620686D02*
X194340777Y-129620686D01*
G75*
G02*
X193181018Y-128286535I87196J1246955D01*
G01*
X193221572Y-127706573D01*
G75*
G02*
X194555723Y-126546814I1246955J-87196D01*
G01*
X194555723Y-126546814D01*
G75*
G02*
X195715482Y-127880965I-87196J-1246955D01*
G01*
X195674928Y-128460927D01*
G75*
G02*
X194340777Y-129620686I-1246955J87196D01*
G01*
G37*
D17*
X197008250Y-132873750D03*
X186848250Y-132873750D03*
G36*
G01*
X187281836Y-131262683D02*
X187281836Y-131262683D01*
G75*
G02*
X187189318Y-129497339I836413J928931D01*
G01*
X188501858Y-128039615D01*
G75*
G02*
X190267202Y-127947097I928931J-836413D01*
G01*
X190267202Y-127947097D01*
G75*
G02*
X190359720Y-129712441I-836413J-928931D01*
G01*
X189047180Y-131170165D01*
G75*
G02*
X187281836Y-131262683I-928931J836413D01*
G01*
G37*
D15*
X176688250Y-135413750D03*
X170338250Y-137953750D03*
D16*
X179963250Y-135413750D03*
X167036250Y-137953750D03*
D18*
X172878250Y-132873750D03*
D14*
X170378250Y-128873750D03*
G36*
G01*
X175290777Y-129620686D02*
X175290777Y-129620686D01*
G75*
G02*
X174131018Y-128286535I87196J1246955D01*
G01*
X174171572Y-127706573D01*
G75*
G02*
X175505723Y-126546814I1246955J-87196D01*
G01*
X175505723Y-126546814D01*
G75*
G02*
X176665482Y-127880965I-87196J-1246955D01*
G01*
X176624928Y-128460927D01*
G75*
G02*
X175290777Y-129620686I-1246955J87196D01*
G01*
G37*
D17*
X177958250Y-132873750D03*
X167798250Y-132873750D03*
G36*
G01*
X168231836Y-131262683D02*
X168231836Y-131262683D01*
G75*
G02*
X168139318Y-129497339I836413J928931D01*
G01*
X169451858Y-128039615D01*
G75*
G02*
X171217202Y-127947097I928931J-836413D01*
G01*
X171217202Y-127947097D01*
G75*
G02*
X171309720Y-129712441I-836413J-928931D01*
G01*
X169997180Y-131170165D01*
G75*
G02*
X168231836Y-131262683I-928931J836413D01*
G01*
G37*
D15*
X157638250Y-135413750D03*
X151288250Y-137953750D03*
D16*
X160913250Y-135413750D03*
X147986250Y-137953750D03*
D18*
X153828250Y-132873750D03*
D14*
X151328250Y-128873750D03*
G36*
G01*
X156240777Y-129620686D02*
X156240777Y-129620686D01*
G75*
G02*
X155081018Y-128286535I87196J1246955D01*
G01*
X155121572Y-127706573D01*
G75*
G02*
X156455723Y-126546814I1246955J-87196D01*
G01*
X156455723Y-126546814D01*
G75*
G02*
X157615482Y-127880965I-87196J-1246955D01*
G01*
X157574928Y-128460927D01*
G75*
G02*
X156240777Y-129620686I-1246955J87196D01*
G01*
G37*
D17*
X158908250Y-132873750D03*
X148748250Y-132873750D03*
G36*
G01*
X149181836Y-131262683D02*
X149181836Y-131262683D01*
G75*
G02*
X149089318Y-129497339I836413J928931D01*
G01*
X150401858Y-128039615D01*
G75*
G02*
X152167202Y-127947097I928931J-836413D01*
G01*
X152167202Y-127947097D01*
G75*
G02*
X152259720Y-129712441I-836413J-928931D01*
G01*
X150947180Y-131170165D01*
G75*
G02*
X149181836Y-131262683I-928931J836413D01*
G01*
G37*
D15*
X138588750Y-135413750D03*
X132238750Y-137953750D03*
D16*
X141863750Y-135413750D03*
X128936750Y-137953750D03*
D18*
X134778750Y-132873750D03*
D14*
X132278750Y-128873750D03*
G36*
G01*
X137191277Y-129620686D02*
X137191277Y-129620686D01*
G75*
G02*
X136031518Y-128286535I87196J1246955D01*
G01*
X136072072Y-127706573D01*
G75*
G02*
X137406223Y-126546814I1246955J-87196D01*
G01*
X137406223Y-126546814D01*
G75*
G02*
X138565982Y-127880965I-87196J-1246955D01*
G01*
X138525428Y-128460927D01*
G75*
G02*
X137191277Y-129620686I-1246955J87196D01*
G01*
G37*
D17*
X139858750Y-132873750D03*
X129698750Y-132873750D03*
G36*
G01*
X130132336Y-131262683D02*
X130132336Y-131262683D01*
G75*
G02*
X130039818Y-129497339I836413J928931D01*
G01*
X131352358Y-128039615D01*
G75*
G02*
X133117702Y-127947097I928931J-836413D01*
G01*
X133117702Y-127947097D01*
G75*
G02*
X133210220Y-129712441I-836413J-928931D01*
G01*
X131897680Y-131170165D01*
G75*
G02*
X130132336Y-131262683I-928931J836413D01*
G01*
G37*
D15*
X119538750Y-135413750D03*
X113188750Y-137953750D03*
D16*
X122813750Y-135413750D03*
X109886750Y-137953750D03*
D18*
X115728750Y-132873750D03*
D14*
X113228750Y-128873750D03*
G36*
G01*
X118141277Y-129620686D02*
X118141277Y-129620686D01*
G75*
G02*
X116981518Y-128286535I87196J1246955D01*
G01*
X117022072Y-127706573D01*
G75*
G02*
X118356223Y-126546814I1246955J-87196D01*
G01*
X118356223Y-126546814D01*
G75*
G02*
X119515982Y-127880965I-87196J-1246955D01*
G01*
X119475428Y-128460927D01*
G75*
G02*
X118141277Y-129620686I-1246955J87196D01*
G01*
G37*
D17*
X120808750Y-132873750D03*
X110648750Y-132873750D03*
G36*
G01*
X111082336Y-131262683D02*
X111082336Y-131262683D01*
G75*
G02*
X110989818Y-129497339I836413J928931D01*
G01*
X112302358Y-128039615D01*
G75*
G02*
X114067702Y-127947097I928931J-836413D01*
G01*
X114067702Y-127947097D01*
G75*
G02*
X114160220Y-129712441I-836413J-928931D01*
G01*
X112847680Y-131170165D01*
G75*
G02*
X111082336Y-131262683I-928931J836413D01*
G01*
G37*
D15*
X100488750Y-135413750D03*
X94138750Y-137953750D03*
D16*
X103763750Y-135413750D03*
X90836750Y-137953750D03*
D18*
X96678750Y-132873750D03*
D14*
X94178750Y-128873750D03*
G36*
G01*
X99091277Y-129620686D02*
X99091277Y-129620686D01*
G75*
G02*
X97931518Y-128286535I87196J1246955D01*
G01*
X97972072Y-127706573D01*
G75*
G02*
X99306223Y-126546814I1246955J-87196D01*
G01*
X99306223Y-126546814D01*
G75*
G02*
X100465982Y-127880965I-87196J-1246955D01*
G01*
X100425428Y-128460927D01*
G75*
G02*
X99091277Y-129620686I-1246955J87196D01*
G01*
G37*
D17*
X101758750Y-132873750D03*
X91598750Y-132873750D03*
G36*
G01*
X92032336Y-131262683D02*
X92032336Y-131262683D01*
G75*
G02*
X91939818Y-129497339I836413J928931D01*
G01*
X93252358Y-128039615D01*
G75*
G02*
X95017702Y-127947097I928931J-836413D01*
G01*
X95017702Y-127947097D01*
G75*
G02*
X95110220Y-129712441I-836413J-928931D01*
G01*
X93797680Y-131170165D01*
G75*
G02*
X92032336Y-131262683I-928931J836413D01*
G01*
G37*
D15*
X248126250Y-116363750D03*
X241776250Y-118903750D03*
D16*
X251401250Y-116363750D03*
X238474250Y-118903750D03*
D18*
X244316250Y-113823750D03*
D14*
X241816250Y-109823750D03*
G36*
G01*
X246728777Y-110570686D02*
X246728777Y-110570686D01*
G75*
G02*
X245569018Y-109236535I87196J1246955D01*
G01*
X245609572Y-108656573D01*
G75*
G02*
X246943723Y-107496814I1246955J-87196D01*
G01*
X246943723Y-107496814D01*
G75*
G02*
X248103482Y-108830965I-87196J-1246955D01*
G01*
X248062928Y-109410927D01*
G75*
G02*
X246728777Y-110570686I-1246955J87196D01*
G01*
G37*
D17*
X249396250Y-113823750D03*
X239236250Y-113823750D03*
G36*
G01*
X239669836Y-112212683D02*
X239669836Y-112212683D01*
G75*
G02*
X239577318Y-110447339I836413J928931D01*
G01*
X240889858Y-108989615D01*
G75*
G02*
X242655202Y-108897097I928931J-836413D01*
G01*
X242655202Y-108897097D01*
G75*
G02*
X242747720Y-110662441I-836413J-928931D01*
G01*
X241435180Y-112120165D01*
G75*
G02*
X239669836Y-112212683I-928931J836413D01*
G01*
G37*
D15*
X229076250Y-116363750D03*
X222726250Y-118903750D03*
D16*
X232351250Y-116363750D03*
X219424250Y-118903750D03*
D18*
X225266250Y-113823750D03*
D14*
X222766250Y-109823750D03*
G36*
G01*
X227678777Y-110570686D02*
X227678777Y-110570686D01*
G75*
G02*
X226519018Y-109236535I87196J1246955D01*
G01*
X226559572Y-108656573D01*
G75*
G02*
X227893723Y-107496814I1246955J-87196D01*
G01*
X227893723Y-107496814D01*
G75*
G02*
X229053482Y-108830965I-87196J-1246955D01*
G01*
X229012928Y-109410927D01*
G75*
G02*
X227678777Y-110570686I-1246955J87196D01*
G01*
G37*
D17*
X230346250Y-113823750D03*
X220186250Y-113823750D03*
G36*
G01*
X220619836Y-112212683D02*
X220619836Y-112212683D01*
G75*
G02*
X220527318Y-110447339I836413J928931D01*
G01*
X221839858Y-108989615D01*
G75*
G02*
X223605202Y-108897097I928931J-836413D01*
G01*
X223605202Y-108897097D01*
G75*
G02*
X223697720Y-110662441I-836413J-928931D01*
G01*
X222385180Y-112120165D01*
G75*
G02*
X220619836Y-112212683I-928931J836413D01*
G01*
G37*
D15*
X210026250Y-116363750D03*
X203676250Y-118903750D03*
D16*
X213301250Y-116363750D03*
X200374250Y-118903750D03*
D18*
X206216250Y-113823750D03*
D14*
X203716250Y-109823750D03*
G36*
G01*
X208628777Y-110570686D02*
X208628777Y-110570686D01*
G75*
G02*
X207469018Y-109236535I87196J1246955D01*
G01*
X207509572Y-108656573D01*
G75*
G02*
X208843723Y-107496814I1246955J-87196D01*
G01*
X208843723Y-107496814D01*
G75*
G02*
X210003482Y-108830965I-87196J-1246955D01*
G01*
X209962928Y-109410927D01*
G75*
G02*
X208628777Y-110570686I-1246955J87196D01*
G01*
G37*
D17*
X211296250Y-113823750D03*
X201136250Y-113823750D03*
G36*
G01*
X201569836Y-112212683D02*
X201569836Y-112212683D01*
G75*
G02*
X201477318Y-110447339I836413J928931D01*
G01*
X202789858Y-108989615D01*
G75*
G02*
X204555202Y-108897097I928931J-836413D01*
G01*
X204555202Y-108897097D01*
G75*
G02*
X204647720Y-110662441I-836413J-928931D01*
G01*
X203335180Y-112120165D01*
G75*
G02*
X201569836Y-112212683I-928931J836413D01*
G01*
G37*
D15*
X190976250Y-116363750D03*
X184626250Y-118903750D03*
D16*
X194251250Y-116363750D03*
X181324250Y-118903750D03*
D18*
X187166250Y-113823750D03*
D14*
X184666250Y-109823750D03*
G36*
G01*
X189578777Y-110570686D02*
X189578777Y-110570686D01*
G75*
G02*
X188419018Y-109236535I87196J1246955D01*
G01*
X188459572Y-108656573D01*
G75*
G02*
X189793723Y-107496814I1246955J-87196D01*
G01*
X189793723Y-107496814D01*
G75*
G02*
X190953482Y-108830965I-87196J-1246955D01*
G01*
X190912928Y-109410927D01*
G75*
G02*
X189578777Y-110570686I-1246955J87196D01*
G01*
G37*
D17*
X192246250Y-113823750D03*
X182086250Y-113823750D03*
G36*
G01*
X182519836Y-112212683D02*
X182519836Y-112212683D01*
G75*
G02*
X182427318Y-110447339I836413J928931D01*
G01*
X183739858Y-108989615D01*
G75*
G02*
X185505202Y-108897097I928931J-836413D01*
G01*
X185505202Y-108897097D01*
G75*
G02*
X185597720Y-110662441I-836413J-928931D01*
G01*
X184285180Y-112120165D01*
G75*
G02*
X182519836Y-112212683I-928931J836413D01*
G01*
G37*
D15*
X171926250Y-116363750D03*
X165576250Y-118903750D03*
D16*
X175201250Y-116363750D03*
X162274250Y-118903750D03*
D18*
X168116250Y-113823750D03*
D14*
X165616250Y-109823750D03*
G36*
G01*
X170528777Y-110570686D02*
X170528777Y-110570686D01*
G75*
G02*
X169369018Y-109236535I87196J1246955D01*
G01*
X169409572Y-108656573D01*
G75*
G02*
X170743723Y-107496814I1246955J-87196D01*
G01*
X170743723Y-107496814D01*
G75*
G02*
X171903482Y-108830965I-87196J-1246955D01*
G01*
X171862928Y-109410927D01*
G75*
G02*
X170528777Y-110570686I-1246955J87196D01*
G01*
G37*
D17*
X173196250Y-113823750D03*
X163036250Y-113823750D03*
G36*
G01*
X163469836Y-112212683D02*
X163469836Y-112212683D01*
G75*
G02*
X163377318Y-110447339I836413J928931D01*
G01*
X164689858Y-108989615D01*
G75*
G02*
X166455202Y-108897097I928931J-836413D01*
G01*
X166455202Y-108897097D01*
G75*
G02*
X166547720Y-110662441I-836413J-928931D01*
G01*
X165235180Y-112120165D01*
G75*
G02*
X163469836Y-112212683I-928931J836413D01*
G01*
G37*
D15*
X152876250Y-116363750D03*
X146526250Y-118903750D03*
D16*
X156151250Y-116363750D03*
X143224250Y-118903750D03*
D18*
X149066250Y-113823750D03*
D14*
X146566250Y-109823750D03*
G36*
G01*
X151478777Y-110570686D02*
X151478777Y-110570686D01*
G75*
G02*
X150319018Y-109236535I87196J1246955D01*
G01*
X150359572Y-108656573D01*
G75*
G02*
X151693723Y-107496814I1246955J-87196D01*
G01*
X151693723Y-107496814D01*
G75*
G02*
X152853482Y-108830965I-87196J-1246955D01*
G01*
X152812928Y-109410927D01*
G75*
G02*
X151478777Y-110570686I-1246955J87196D01*
G01*
G37*
D17*
X154146250Y-113823750D03*
X143986250Y-113823750D03*
G36*
G01*
X144419836Y-112212683D02*
X144419836Y-112212683D01*
G75*
G02*
X144327318Y-110447339I836413J928931D01*
G01*
X145639858Y-108989615D01*
G75*
G02*
X147405202Y-108897097I928931J-836413D01*
G01*
X147405202Y-108897097D01*
G75*
G02*
X147497720Y-110662441I-836413J-928931D01*
G01*
X146185180Y-112120165D01*
G75*
G02*
X144419836Y-112212683I-928931J836413D01*
G01*
G37*
D15*
X114776250Y-116363750D03*
X108426250Y-118903750D03*
D16*
X118051250Y-116363750D03*
X105124250Y-118903750D03*
D18*
X110966250Y-113823750D03*
D14*
X108466250Y-109823750D03*
G36*
G01*
X113378777Y-110570686D02*
X113378777Y-110570686D01*
G75*
G02*
X112219018Y-109236535I87196J1246955D01*
G01*
X112259572Y-108656573D01*
G75*
G02*
X113593723Y-107496814I1246955J-87196D01*
G01*
X113593723Y-107496814D01*
G75*
G02*
X114753482Y-108830965I-87196J-1246955D01*
G01*
X114712928Y-109410927D01*
G75*
G02*
X113378777Y-110570686I-1246955J87196D01*
G01*
G37*
D17*
X116046250Y-113823750D03*
X105886250Y-113823750D03*
G36*
G01*
X106319836Y-112212683D02*
X106319836Y-112212683D01*
G75*
G02*
X106227318Y-110447339I836413J928931D01*
G01*
X107539858Y-108989615D01*
G75*
G02*
X109305202Y-108897097I928931J-836413D01*
G01*
X109305202Y-108897097D01*
G75*
G02*
X109397720Y-110662441I-836413J-928931D01*
G01*
X108085180Y-112120165D01*
G75*
G02*
X106319836Y-112212683I-928931J836413D01*
G01*
G37*
D15*
X95726250Y-116363750D03*
X89376250Y-118903750D03*
D16*
X99001250Y-116363750D03*
X86074250Y-118903750D03*
D18*
X91916250Y-113823750D03*
D14*
X89416250Y-109823750D03*
G36*
G01*
X94328777Y-110570686D02*
X94328777Y-110570686D01*
G75*
G02*
X93169018Y-109236535I87196J1246955D01*
G01*
X93209572Y-108656573D01*
G75*
G02*
X94543723Y-107496814I1246955J-87196D01*
G01*
X94543723Y-107496814D01*
G75*
G02*
X95703482Y-108830965I-87196J-1246955D01*
G01*
X95662928Y-109410927D01*
G75*
G02*
X94328777Y-110570686I-1246955J87196D01*
G01*
G37*
D17*
X96996250Y-113823750D03*
X86836250Y-113823750D03*
G36*
G01*
X87269836Y-112212683D02*
X87269836Y-112212683D01*
G75*
G02*
X87177318Y-110447339I836413J928931D01*
G01*
X88489858Y-108989615D01*
G75*
G02*
X90255202Y-108897097I928931J-836413D01*
G01*
X90255202Y-108897097D01*
G75*
G02*
X90347720Y-110662441I-836413J-928931D01*
G01*
X89035180Y-112120165D01*
G75*
G02*
X87269836Y-112212683I-928931J836413D01*
G01*
G37*
D15*
X238601250Y-97313750D03*
X232251250Y-99853750D03*
D16*
X241876250Y-97313750D03*
X228949250Y-99853750D03*
D18*
X234791250Y-94773750D03*
D14*
X232291250Y-90773750D03*
G36*
G01*
X237203777Y-91520686D02*
X237203777Y-91520686D01*
G75*
G02*
X236044018Y-90186535I87196J1246955D01*
G01*
X236084572Y-89606573D01*
G75*
G02*
X237418723Y-88446814I1246955J-87196D01*
G01*
X237418723Y-88446814D01*
G75*
G02*
X238578482Y-89780965I-87196J-1246955D01*
G01*
X238537928Y-90360927D01*
G75*
G02*
X237203777Y-91520686I-1246955J87196D01*
G01*
G37*
D17*
X239871250Y-94773750D03*
X229711250Y-94773750D03*
G36*
G01*
X230144836Y-93162683D02*
X230144836Y-93162683D01*
G75*
G02*
X230052318Y-91397339I836413J928931D01*
G01*
X231364858Y-89939615D01*
G75*
G02*
X233130202Y-89847097I928931J-836413D01*
G01*
X233130202Y-89847097D01*
G75*
G02*
X233222720Y-91612441I-836413J-928931D01*
G01*
X231910180Y-93070165D01*
G75*
G02*
X230144836Y-93162683I-928931J836413D01*
G01*
G37*
D15*
X219551250Y-97313750D03*
X213201250Y-99853750D03*
D16*
X222826250Y-97313750D03*
X209899250Y-99853750D03*
D18*
X215741250Y-94773750D03*
D14*
X213241250Y-90773750D03*
G36*
G01*
X218153777Y-91520686D02*
X218153777Y-91520686D01*
G75*
G02*
X216994018Y-90186535I87196J1246955D01*
G01*
X217034572Y-89606573D01*
G75*
G02*
X218368723Y-88446814I1246955J-87196D01*
G01*
X218368723Y-88446814D01*
G75*
G02*
X219528482Y-89780965I-87196J-1246955D01*
G01*
X219487928Y-90360927D01*
G75*
G02*
X218153777Y-91520686I-1246955J87196D01*
G01*
G37*
D17*
X220821250Y-94773750D03*
X210661250Y-94773750D03*
G36*
G01*
X211094836Y-93162683D02*
X211094836Y-93162683D01*
G75*
G02*
X211002318Y-91397339I836413J928931D01*
G01*
X212314858Y-89939615D01*
G75*
G02*
X214080202Y-89847097I928931J-836413D01*
G01*
X214080202Y-89847097D01*
G75*
G02*
X214172720Y-91612441I-836413J-928931D01*
G01*
X212860180Y-93070165D01*
G75*
G02*
X211094836Y-93162683I-928931J836413D01*
G01*
G37*
D15*
X200501250Y-97313750D03*
X194151250Y-99853750D03*
D16*
X203776250Y-97313750D03*
X190849250Y-99853750D03*
D18*
X196691250Y-94773750D03*
D14*
X194191250Y-90773750D03*
G36*
G01*
X199103777Y-91520686D02*
X199103777Y-91520686D01*
G75*
G02*
X197944018Y-90186535I87196J1246955D01*
G01*
X197984572Y-89606573D01*
G75*
G02*
X199318723Y-88446814I1246955J-87196D01*
G01*
X199318723Y-88446814D01*
G75*
G02*
X200478482Y-89780965I-87196J-1246955D01*
G01*
X200437928Y-90360927D01*
G75*
G02*
X199103777Y-91520686I-1246955J87196D01*
G01*
G37*
D17*
X201771250Y-94773750D03*
X191611250Y-94773750D03*
G36*
G01*
X192044836Y-93162683D02*
X192044836Y-93162683D01*
G75*
G02*
X191952318Y-91397339I836413J928931D01*
G01*
X193264858Y-89939615D01*
G75*
G02*
X195030202Y-89847097I928931J-836413D01*
G01*
X195030202Y-89847097D01*
G75*
G02*
X195122720Y-91612441I-836413J-928931D01*
G01*
X193810180Y-93070165D01*
G75*
G02*
X192044836Y-93162683I-928931J836413D01*
G01*
G37*
D15*
X181451250Y-97313750D03*
X175101250Y-99853750D03*
D16*
X184726250Y-97313750D03*
X171799250Y-99853750D03*
D18*
X177641250Y-94773750D03*
D14*
X175141250Y-90773750D03*
G36*
G01*
X180053777Y-91520686D02*
X180053777Y-91520686D01*
G75*
G02*
X178894018Y-90186535I87196J1246955D01*
G01*
X178934572Y-89606573D01*
G75*
G02*
X180268723Y-88446814I1246955J-87196D01*
G01*
X180268723Y-88446814D01*
G75*
G02*
X181428482Y-89780965I-87196J-1246955D01*
G01*
X181387928Y-90360927D01*
G75*
G02*
X180053777Y-91520686I-1246955J87196D01*
G01*
G37*
D17*
X182721250Y-94773750D03*
X172561250Y-94773750D03*
G36*
G01*
X172994836Y-93162683D02*
X172994836Y-93162683D01*
G75*
G02*
X172902318Y-91397339I836413J928931D01*
G01*
X174214858Y-89939615D01*
G75*
G02*
X175980202Y-89847097I928931J-836413D01*
G01*
X175980202Y-89847097D01*
G75*
G02*
X176072720Y-91612441I-836413J-928931D01*
G01*
X174760180Y-93070165D01*
G75*
G02*
X172994836Y-93162683I-928931J836413D01*
G01*
G37*
D15*
X162401250Y-97313750D03*
X156051250Y-99853750D03*
D16*
X165676250Y-97313750D03*
X152749250Y-99853750D03*
D18*
X158591250Y-94773750D03*
D14*
X156091250Y-90773750D03*
G36*
G01*
X161003777Y-91520686D02*
X161003777Y-91520686D01*
G75*
G02*
X159844018Y-90186535I87196J1246955D01*
G01*
X159884572Y-89606573D01*
G75*
G02*
X161218723Y-88446814I1246955J-87196D01*
G01*
X161218723Y-88446814D01*
G75*
G02*
X162378482Y-89780965I-87196J-1246955D01*
G01*
X162337928Y-90360927D01*
G75*
G02*
X161003777Y-91520686I-1246955J87196D01*
G01*
G37*
D17*
X163671250Y-94773750D03*
X153511250Y-94773750D03*
G36*
G01*
X153944836Y-93162683D02*
X153944836Y-93162683D01*
G75*
G02*
X153852318Y-91397339I836413J928931D01*
G01*
X155164858Y-89939615D01*
G75*
G02*
X156930202Y-89847097I928931J-836413D01*
G01*
X156930202Y-89847097D01*
G75*
G02*
X157022720Y-91612441I-836413J-928931D01*
G01*
X155710180Y-93070165D01*
G75*
G02*
X153944836Y-93162683I-928931J836413D01*
G01*
G37*
D15*
X143351250Y-97313750D03*
X137001250Y-99853750D03*
D16*
X146626250Y-97313750D03*
X133699250Y-99853750D03*
D18*
X139541250Y-94773750D03*
D14*
X137041250Y-90773750D03*
G36*
G01*
X141953777Y-91520686D02*
X141953777Y-91520686D01*
G75*
G02*
X140794018Y-90186535I87196J1246955D01*
G01*
X140834572Y-89606573D01*
G75*
G02*
X142168723Y-88446814I1246955J-87196D01*
G01*
X142168723Y-88446814D01*
G75*
G02*
X143328482Y-89780965I-87196J-1246955D01*
G01*
X143287928Y-90360927D01*
G75*
G02*
X141953777Y-91520686I-1246955J87196D01*
G01*
G37*
D17*
X144621250Y-94773750D03*
X134461250Y-94773750D03*
G36*
G01*
X134894836Y-93162683D02*
X134894836Y-93162683D01*
G75*
G02*
X134802318Y-91397339I836413J928931D01*
G01*
X136114858Y-89939615D01*
G75*
G02*
X137880202Y-89847097I928931J-836413D01*
G01*
X137880202Y-89847097D01*
G75*
G02*
X137972720Y-91612441I-836413J-928931D01*
G01*
X136660180Y-93070165D01*
G75*
G02*
X134894836Y-93162683I-928931J836413D01*
G01*
G37*
D15*
X124301250Y-97313750D03*
X117951250Y-99853750D03*
D16*
X127576250Y-97313750D03*
X114649250Y-99853750D03*
D18*
X120491250Y-94773750D03*
D14*
X117991250Y-90773750D03*
G36*
G01*
X122903777Y-91520686D02*
X122903777Y-91520686D01*
G75*
G02*
X121744018Y-90186535I87196J1246955D01*
G01*
X121784572Y-89606573D01*
G75*
G02*
X123118723Y-88446814I1246955J-87196D01*
G01*
X123118723Y-88446814D01*
G75*
G02*
X124278482Y-89780965I-87196J-1246955D01*
G01*
X124237928Y-90360927D01*
G75*
G02*
X122903777Y-91520686I-1246955J87196D01*
G01*
G37*
D17*
X125571250Y-94773750D03*
X115411250Y-94773750D03*
G36*
G01*
X115844836Y-93162683D02*
X115844836Y-93162683D01*
G75*
G02*
X115752318Y-91397339I836413J928931D01*
G01*
X117064858Y-89939615D01*
G75*
G02*
X118830202Y-89847097I928931J-836413D01*
G01*
X118830202Y-89847097D01*
G75*
G02*
X118922720Y-91612441I-836413J-928931D01*
G01*
X117610180Y-93070165D01*
G75*
G02*
X115844836Y-93162683I-928931J836413D01*
G01*
G37*
D15*
X105251250Y-97313750D03*
X98901250Y-99853750D03*
D16*
X108526250Y-97313750D03*
X95599250Y-99853750D03*
D18*
X101441250Y-94773750D03*
D14*
X98941250Y-90773750D03*
G36*
G01*
X103853777Y-91520686D02*
X103853777Y-91520686D01*
G75*
G02*
X102694018Y-90186535I87196J1246955D01*
G01*
X102734572Y-89606573D01*
G75*
G02*
X104068723Y-88446814I1246955J-87196D01*
G01*
X104068723Y-88446814D01*
G75*
G02*
X105228482Y-89780965I-87196J-1246955D01*
G01*
X105187928Y-90360927D01*
G75*
G02*
X103853777Y-91520686I-1246955J87196D01*
G01*
G37*
D17*
X106521250Y-94773750D03*
X96361250Y-94773750D03*
G36*
G01*
X96794836Y-93162683D02*
X96794836Y-93162683D01*
G75*
G02*
X96702318Y-91397339I836413J928931D01*
G01*
X98014858Y-89939615D01*
G75*
G02*
X99780202Y-89847097I928931J-836413D01*
G01*
X99780202Y-89847097D01*
G75*
G02*
X99872720Y-91612441I-836413J-928931D01*
G01*
X98560180Y-93070165D01*
G75*
G02*
X96794836Y-93162683I-928931J836413D01*
G01*
G37*
D15*
X86201250Y-97313750D03*
X79851250Y-99853750D03*
D16*
X89476250Y-97313750D03*
X76549250Y-99853750D03*
D18*
X82391250Y-94773750D03*
D14*
X79891250Y-90773750D03*
G36*
G01*
X84803777Y-91520686D02*
X84803777Y-91520686D01*
G75*
G02*
X83644018Y-90186535I87196J1246955D01*
G01*
X83684572Y-89606573D01*
G75*
G02*
X85018723Y-88446814I1246955J-87196D01*
G01*
X85018723Y-88446814D01*
G75*
G02*
X86178482Y-89780965I-87196J-1246955D01*
G01*
X86137928Y-90360927D01*
G75*
G02*
X84803777Y-91520686I-1246955J87196D01*
G01*
G37*
D17*
X87471250Y-94773750D03*
X77311250Y-94773750D03*
G36*
G01*
X77744836Y-93162683D02*
X77744836Y-93162683D01*
G75*
G02*
X77652318Y-91397339I836413J928931D01*
G01*
X78964858Y-89939615D01*
G75*
G02*
X80730202Y-89847097I928931J-836413D01*
G01*
X80730202Y-89847097D01*
G75*
G02*
X80822720Y-91612441I-836413J-928931D01*
G01*
X79510180Y-93070165D01*
G75*
G02*
X77744836Y-93162683I-928931J836413D01*
G01*
G37*
D15*
X67151250Y-97313750D03*
X60801250Y-99853750D03*
D16*
X70426250Y-97313750D03*
X57499250Y-99853750D03*
D18*
X63341250Y-94773750D03*
D14*
X60841250Y-90773750D03*
G36*
G01*
X65753777Y-91520686D02*
X65753777Y-91520686D01*
G75*
G02*
X64594018Y-90186535I87196J1246955D01*
G01*
X64634572Y-89606573D01*
G75*
G02*
X65968723Y-88446814I1246955J-87196D01*
G01*
X65968723Y-88446814D01*
G75*
G02*
X67128482Y-89780965I-87196J-1246955D01*
G01*
X67087928Y-90360927D01*
G75*
G02*
X65753777Y-91520686I-1246955J87196D01*
G01*
G37*
D17*
X68421250Y-94773750D03*
X58261250Y-94773750D03*
G36*
G01*
X58694836Y-93162683D02*
X58694836Y-93162683D01*
G75*
G02*
X58602318Y-91397339I836413J928931D01*
G01*
X59914858Y-89939615D01*
G75*
G02*
X61680202Y-89847097I928931J-836413D01*
G01*
X61680202Y-89847097D01*
G75*
G02*
X61772720Y-91612441I-836413J-928931D01*
G01*
X60460180Y-93070165D01*
G75*
G02*
X58694836Y-93162683I-928931J836413D01*
G01*
G37*
D15*
X133826250Y-116363750D03*
X127476250Y-118903750D03*
D16*
X137101250Y-116363750D03*
X124174250Y-118903750D03*
D18*
X130016250Y-113823750D03*
D14*
X127516250Y-109823750D03*
G36*
G01*
X132428777Y-110570686D02*
X132428777Y-110570686D01*
G75*
G02*
X131269018Y-109236535I87196J1246955D01*
G01*
X131309572Y-108656573D01*
G75*
G02*
X132643723Y-107496814I1246955J-87196D01*
G01*
X132643723Y-107496814D01*
G75*
G02*
X133803482Y-108830965I-87196J-1246955D01*
G01*
X133762928Y-109410927D01*
G75*
G02*
X132428777Y-110570686I-1246955J87196D01*
G01*
G37*
D17*
X135096250Y-113823750D03*
X124936250Y-113823750D03*
G36*
G01*
X125369836Y-112212683D02*
X125369836Y-112212683D01*
G75*
G02*
X125277318Y-110447339I836413J928931D01*
G01*
X126589858Y-108989615D01*
G75*
G02*
X128355202Y-108897097I928931J-836413D01*
G01*
X128355202Y-108897097D01*
G75*
G02*
X128447720Y-110662441I-836413J-928931D01*
G01*
X127135180Y-112120165D01*
G75*
G02*
X125369836Y-112212683I-928931J836413D01*
G01*
G37*
D15*
X257680884Y-173503620D03*
X251330884Y-176043620D03*
D16*
X260955884Y-173503620D03*
X248028884Y-176043620D03*
D18*
X253870884Y-170963620D03*
D14*
X251370884Y-166963620D03*
G36*
G01*
X256283411Y-167710556D02*
X256283411Y-167710556D01*
G75*
G02*
X255123652Y-166376405I87196J1246955D01*
G01*
X255164206Y-165796443D01*
G75*
G02*
X256498357Y-164636684I1246955J-87196D01*
G01*
X256498357Y-164636684D01*
G75*
G02*
X257658116Y-165970835I-87196J-1246955D01*
G01*
X257617562Y-166550797D01*
G75*
G02*
X256283411Y-167710556I-1246955J87196D01*
G01*
G37*
D17*
X258950884Y-170963620D03*
X248790884Y-170963620D03*
G36*
G01*
X249224470Y-169352553D02*
X249224470Y-169352553D01*
G75*
G02*
X249131952Y-167587209I836413J928931D01*
G01*
X250444492Y-166129485D01*
G75*
G02*
X252209836Y-166036967I928931J-836413D01*
G01*
X252209836Y-166036967D01*
G75*
G02*
X252302354Y-167802311I-836413J-928931D01*
G01*
X250989814Y-169260035D01*
G75*
G02*
X249224470Y-169352553I-928931J836413D01*
G01*
G37*
D15*
X276736206Y-173513750D03*
X270386206Y-176053750D03*
D16*
X280011206Y-173513750D03*
X267084206Y-176053750D03*
D18*
X272926206Y-170973750D03*
D14*
X270426206Y-166973750D03*
G36*
G01*
X275338733Y-167720686D02*
X275338733Y-167720686D01*
G75*
G02*
X274178974Y-166386535I87196J1246955D01*
G01*
X274219528Y-165806573D01*
G75*
G02*
X275553679Y-164646814I1246955J-87196D01*
G01*
X275553679Y-164646814D01*
G75*
G02*
X276713438Y-165980965I-87196J-1246955D01*
G01*
X276672884Y-166560927D01*
G75*
G02*
X275338733Y-167720686I-1246955J87196D01*
G01*
G37*
D17*
X278006206Y-170973750D03*
X267846206Y-170973750D03*
G36*
G01*
X268279792Y-169362683D02*
X268279792Y-169362683D01*
G75*
G02*
X268187274Y-167597339I836413J928931D01*
G01*
X269499814Y-166139615D01*
G75*
G02*
X271265158Y-166047097I928931J-836413D01*
G01*
X271265158Y-166047097D01*
G75*
G02*
X271357676Y-167812441I-836413J-928931D01*
G01*
X270045136Y-169270165D01*
G75*
G02*
X268279792Y-169362683I-928931J836413D01*
G01*
G37*
D18*
X303847250Y-151923750D03*
G36*
G01*
X299200836Y-150312683D02*
X299200836Y-150312683D01*
G75*
G02*
X299108318Y-148547339I836413J928931D01*
G01*
X300420858Y-147089615D01*
G75*
G02*
X302186202Y-146997097I928931J-836413D01*
G01*
X302186202Y-146997097D01*
G75*
G02*
X302278720Y-148762441I-836413J-928931D01*
G01*
X300966180Y-150220165D01*
G75*
G02*
X299200836Y-150312683I-928931J836413D01*
G01*
G37*
D17*
X298767250Y-151923750D03*
D15*
X301307250Y-157003750D03*
X307657250Y-154463750D03*
D14*
X301347250Y-147923750D03*
D16*
X310932250Y-154463750D03*
X298005250Y-157003750D03*
D17*
X308927250Y-151923750D03*
G36*
G01*
X306259777Y-148670686D02*
X306259777Y-148670686D01*
G75*
G02*
X305100018Y-147336535I87196J1246955D01*
G01*
X305140572Y-146756573D01*
G75*
G02*
X306474723Y-145596814I1246955J-87196D01*
G01*
X306474723Y-145596814D01*
G75*
G02*
X307634482Y-146930965I-87196J-1246955D01*
G01*
X307593928Y-147510927D01*
G75*
G02*
X306259777Y-148670686I-1246955J87196D01*
G01*
G37*
D19*
X332416250Y-87773750D03*
X308616250Y-87773750D03*
D18*
X332416250Y-103013750D03*
X308616250Y-103013750D03*
D14*
X318016250Y-90773750D03*
D16*
X314674250Y-99853750D03*
D18*
X320516250Y-94773750D03*
D17*
X325596250Y-94773750D03*
X315436250Y-94773750D03*
D15*
X317976250Y-99853750D03*
D16*
X327601250Y-97313750D03*
G36*
G01*
X322928777Y-91520686D02*
X322928777Y-91520686D01*
G75*
G02*
X321769018Y-90186535I87196J1246955D01*
G01*
X321809572Y-89606573D01*
G75*
G02*
X323143723Y-88446814I1246955J-87196D01*
G01*
X323143723Y-88446814D01*
G75*
G02*
X324303482Y-89780965I-87196J-1246955D01*
G01*
X324262928Y-90360927D01*
G75*
G02*
X322928777Y-91520686I-1246955J87196D01*
G01*
G37*
G36*
G01*
X315869836Y-93162683D02*
X315869836Y-93162683D01*
G75*
G02*
X315777318Y-91397339I836413J928931D01*
G01*
X317089858Y-89939615D01*
G75*
G02*
X318855202Y-89847097I928931J-836413D01*
G01*
X318855202Y-89847097D01*
G75*
G02*
X318947720Y-91612441I-836413J-928931D01*
G01*
X317635180Y-93070165D01*
G75*
G02*
X315869836Y-93162683I-928931J836413D01*
G01*
G37*
D15*
X324326250Y-97313750D03*
D14*
X322778250Y-109823750D03*
D15*
X322738250Y-118903750D03*
D16*
X319436250Y-118903750D03*
D17*
X330358250Y-113823750D03*
D18*
X325278250Y-113823750D03*
D16*
X332363250Y-116363750D03*
D15*
X329088250Y-116363750D03*
G36*
G01*
X320631836Y-112212683D02*
X320631836Y-112212683D01*
G75*
G02*
X320539318Y-110447339I836413J928931D01*
G01*
X321851858Y-108989615D01*
G75*
G02*
X323617202Y-108897097I928931J-836413D01*
G01*
X323617202Y-108897097D01*
G75*
G02*
X323709720Y-110662441I-836413J-928931D01*
G01*
X322397180Y-112120165D01*
G75*
G02*
X320631836Y-112212683I-928931J836413D01*
G01*
G37*
D17*
X320198250Y-113823750D03*
G36*
G01*
X327690777Y-110570686D02*
X327690777Y-110570686D01*
G75*
G02*
X326531018Y-109236535I87196J1246955D01*
G01*
X326571572Y-108656573D01*
G75*
G02*
X327905723Y-107496814I1246955J-87196D01*
G01*
X327905723Y-107496814D01*
G75*
G02*
X329065482Y-108830965I-87196J-1246955D01*
G01*
X329024928Y-109410927D01*
G75*
G02*
X327690777Y-110570686I-1246955J87196D01*
G01*
G37*
D19*
X330035250Y-125873750D03*
X306235250Y-125873750D03*
D18*
X306235250Y-141113750D03*
X330035250Y-141113750D03*
D14*
X315635250Y-128873750D03*
D16*
X312293250Y-137953750D03*
D17*
X313055250Y-132873750D03*
X323215250Y-132873750D03*
G36*
G01*
X320547777Y-129620686D02*
X320547777Y-129620686D01*
G75*
G02*
X319388018Y-128286535I87196J1246955D01*
G01*
X319428572Y-127706573D01*
G75*
G02*
X320762723Y-126546814I1246955J-87196D01*
G01*
X320762723Y-126546814D01*
G75*
G02*
X321922482Y-127880965I-87196J-1246955D01*
G01*
X321881928Y-128460927D01*
G75*
G02*
X320547777Y-129620686I-1246955J87196D01*
G01*
G37*
D15*
X321945250Y-135413750D03*
D16*
X325220250Y-135413750D03*
D18*
X318135250Y-132873750D03*
G36*
G01*
X313488836Y-131262683D02*
X313488836Y-131262683D01*
G75*
G02*
X313396318Y-129497339I836413J928931D01*
G01*
X314708858Y-128039615D01*
G75*
G02*
X316474202Y-127947097I928931J-836413D01*
G01*
X316474202Y-127947097D01*
G75*
G02*
X316566720Y-129712441I-836413J-928931D01*
G01*
X315254180Y-131170165D01*
G75*
G02*
X313488836Y-131262683I-928931J836413D01*
G01*
G37*
D15*
X315595250Y-137953750D03*
D20*
X299753430Y-76389182D03*
D21*
X348013430Y-61149182D03*
X302293430Y-76389182D03*
X345473430Y-61149182D03*
X304833430Y-76389182D03*
X342933430Y-61149182D03*
X307373430Y-76389182D03*
X340393430Y-61149182D03*
X309913430Y-76389182D03*
X337853430Y-61149182D03*
X312453430Y-76389182D03*
X335313430Y-61149182D03*
X314993430Y-76389182D03*
X332773430Y-61149182D03*
X317533430Y-76389182D03*
X330233430Y-61149182D03*
X320073430Y-76389182D03*
X327693430Y-61149182D03*
X322613430Y-76389182D03*
X325153430Y-61149182D03*
X325153430Y-76389182D03*
X322613430Y-61149182D03*
X327693430Y-76389182D03*
X320073430Y-61149182D03*
X330233430Y-76389182D03*
X317533430Y-61149182D03*
X332773430Y-76389182D03*
X314993430Y-61149182D03*
X335313430Y-76389182D03*
X312453430Y-61149182D03*
X337853430Y-76389182D03*
X309913430Y-61149182D03*
X340393430Y-76389182D03*
X307373430Y-61149182D03*
X342933430Y-76389182D03*
X304833430Y-61149182D03*
X345473430Y-76389182D03*
X302293430Y-61149182D03*
X348013430Y-76389182D03*
X299753430Y-61149182D03*
D22*
X325471062Y-78716416D03*
X320471062Y-78716416D03*
X330125530Y-58926178D03*
X325125530Y-58926178D03*
D23*
X284477676Y-70404866D03*
D24*
X284477676Y-68904866D03*
D22*
X327680238Y-79506040D03*
X327680238Y-82006040D03*
X341906112Y-79506040D03*
X341906112Y-82006040D03*
D25*
X290026316Y-78138982D03*
D26*
X295106316Y-78138982D03*
D25*
X290026316Y-75645517D03*
D26*
X295106316Y-75645517D03*
D25*
X290026316Y-73152052D03*
D26*
X295106316Y-73152052D03*
D25*
X295106316Y-70580211D03*
D26*
X290026316Y-70580211D03*
D25*
X295106316Y-68060499D03*
D26*
X290026316Y-68060499D03*
D25*
X295106316Y-65567034D03*
D26*
X290026316Y-65567034D03*
D25*
X290026316Y-63073204D03*
D26*
X295106316Y-63073204D03*
D27*
X206213345Y-61694750D03*
X206213345Y-80444750D03*
D28*
X255293830Y-60350870D03*
D29*
X255293830Y-62890870D03*
X252753830Y-60350870D03*
X252753830Y-62890870D03*
X250213830Y-60350870D03*
X250213830Y-62890870D03*
D30*
X337251644Y-80256240D03*
X332371644Y-80256240D03*
D31*
X286667716Y-61970830D03*
D32*
X284127716Y-61970830D03*
D33*
X278823468Y-66391022D03*
X280523468Y-66391022D03*
X279673468Y-66391022D03*
X277973468Y-66391022D03*
X277123468Y-66391022D03*
X276273468Y-66391022D03*
X275423468Y-66391022D03*
X274573468Y-66391022D03*
X280523468Y-65066022D03*
X279668468Y-65066022D03*
X278818468Y-65066022D03*
X277968468Y-65066022D03*
X277118468Y-65066022D03*
X276268468Y-65066022D03*
X275418468Y-65066022D03*
X274568468Y-65066022D03*
D34*
X281873468Y-65411022D03*
X273223468Y-65411022D03*
D35*
X281873468Y-62031022D03*
X273223468Y-62031022D03*
D26*
X270047614Y-59350838D03*
X270047614Y-64450838D03*
D36*
X244985732Y-59836074D03*
X244985732Y-64336074D03*
X238485732Y-59836074D03*
X238485732Y-64336074D03*
X232985732Y-59836074D03*
X232985732Y-64336074D03*
X226485732Y-59836074D03*
X226485732Y-64336074D03*
D21*
X63600284Y-72555612D03*
D20*
X63600284Y-67475612D03*
D21*
X73108673Y-77516199D03*
D20*
X73108673Y-72436199D03*
D21*
X85786525Y-77516199D03*
D20*
X85786525Y-72436199D03*
D21*
X88955988Y-72555612D03*
D20*
X88955988Y-67475612D03*
D21*
X101633840Y-72555612D03*
D20*
X101633840Y-67475612D03*
D21*
X114311692Y-72555612D03*
D20*
X114311692Y-67475612D03*
D21*
X126989544Y-72555612D03*
D20*
X126989544Y-67475612D03*
D21*
X139667396Y-72555612D03*
D20*
X139667396Y-67475612D03*
D21*
X152345248Y-72555612D03*
D20*
X152345248Y-67475612D03*
D21*
X165023100Y-72555612D03*
D20*
X165023100Y-67475612D03*
D21*
X177700952Y-72555612D03*
D20*
X177700952Y-67475612D03*
D21*
X190378804Y-72555612D03*
D20*
X190378804Y-67475612D03*
D21*
X203056656Y-72555612D03*
D20*
X203056656Y-67475612D03*
D21*
X215734508Y-72555612D03*
D20*
X215734508Y-67475612D03*
D21*
X228342376Y-72555612D03*
D20*
X228342376Y-67475612D03*
D21*
X275541929Y-77516199D03*
D20*
X275541929Y-72436199D03*
D21*
X66769747Y-74209141D03*
D20*
X66769747Y-69129141D03*
D21*
X82617062Y-75862670D03*
D20*
X82617062Y-70782670D03*
D21*
X92125451Y-74209141D03*
D20*
X92125451Y-69129141D03*
D21*
X104803303Y-74209141D03*
D20*
X104803303Y-69129141D03*
D21*
X117481155Y-74209141D03*
D20*
X117481155Y-69129141D03*
D21*
X130159007Y-74209141D03*
D20*
X130159007Y-69129141D03*
D21*
X142836859Y-74209141D03*
D20*
X142836859Y-69129141D03*
D21*
X155514711Y-74209141D03*
D20*
X155514711Y-69129141D03*
D21*
X168192563Y-74209141D03*
D20*
X168192563Y-69129141D03*
D21*
X180870415Y-74209141D03*
D20*
X180870415Y-69129141D03*
D21*
X193548267Y-74209141D03*
D20*
X193548267Y-69129141D03*
D21*
X206226119Y-74209141D03*
D20*
X206226119Y-69129141D03*
D21*
X218886475Y-74209141D03*
D20*
X218886475Y-69129141D03*
D21*
X231493149Y-74209141D03*
D20*
X231493149Y-69129141D03*
D21*
X272453205Y-75862670D03*
D20*
X272453205Y-70782670D03*
D21*
X69939210Y-75862670D03*
D20*
X69939210Y-70782670D03*
D21*
X79447599Y-74209141D03*
D20*
X79447599Y-69129141D03*
D21*
X95294914Y-75862670D03*
D20*
X95294914Y-70782670D03*
D21*
X107972766Y-75862670D03*
D20*
X107972766Y-70782670D03*
D21*
X120650618Y-75862670D03*
D20*
X120650618Y-70782670D03*
D21*
X133328470Y-75862670D03*
D20*
X133328470Y-70782670D03*
D21*
X146006322Y-75862670D03*
D20*
X146006322Y-70782670D03*
D21*
X158684174Y-75862670D03*
D20*
X158684174Y-70782670D03*
D21*
X171362026Y-75862670D03*
D20*
X171362026Y-70782670D03*
D21*
X184039878Y-75862670D03*
D20*
X184039878Y-70782670D03*
D21*
X196717730Y-75862670D03*
D20*
X196717730Y-70782670D03*
D21*
X209395582Y-75862670D03*
D20*
X209395582Y-70782670D03*
D21*
X234643922Y-75862670D03*
D20*
X234643922Y-70782670D03*
D21*
X269364481Y-74209141D03*
D20*
X269364481Y-69129141D03*
D21*
X98464377Y-77516199D03*
D20*
X98464377Y-72436199D03*
D21*
X111142229Y-77516199D03*
D20*
X111142229Y-72436199D03*
D21*
X123820081Y-77516199D03*
D20*
X123820081Y-72436199D03*
D21*
X136497933Y-77516199D03*
D20*
X136497933Y-72436199D03*
D21*
X149175785Y-77516199D03*
D20*
X149175785Y-72436199D03*
D21*
X161853637Y-77516199D03*
D20*
X161853637Y-72436199D03*
D21*
X174531489Y-77516199D03*
D20*
X174531489Y-72436199D03*
D21*
X187209341Y-77516199D03*
D20*
X187209341Y-72436199D03*
D21*
X199887193Y-77516199D03*
D20*
X199887193Y-72436199D03*
D21*
X212565045Y-77516199D03*
D20*
X212565045Y-72436199D03*
D21*
X222038442Y-75862670D03*
D20*
X222038442Y-70782670D03*
D21*
X237794695Y-77516199D03*
D20*
X237794695Y-72436199D03*
D21*
X266089606Y-72555612D03*
D20*
X266089606Y-67475612D03*
D21*
X259788058Y-75862670D03*
D20*
X259788058Y-70782670D03*
D21*
X76278136Y-72555612D03*
D20*
X76278136Y-67475612D03*
D21*
X256637284Y-74209141D03*
D20*
X256637284Y-69129141D03*
D21*
X253486511Y-72555612D03*
D20*
X253486511Y-67475612D03*
D21*
X250335738Y-77516199D03*
D20*
X250335738Y-72436199D03*
D21*
X225190409Y-77516199D03*
D20*
X225190409Y-72436199D03*
D21*
X244096241Y-74209141D03*
D20*
X244096241Y-69129141D03*
D21*
X240945468Y-72555612D03*
D20*
X240945468Y-67475612D03*
D21*
X262938832Y-77516199D03*
D20*
X262938832Y-72436199D03*
D21*
X247184965Y-75862670D03*
D20*
X247184965Y-70782670D03*
D21*
X286174982Y-78242196D03*
D20*
X286174982Y-73162196D03*
D21*
X283305310Y-78242196D03*
D20*
X283305310Y-73162196D03*
D37*
X134811423Y-177966640D03*
X234811223Y-177966640D03*
D38*
X134811423Y-162726640D03*
X234811223Y-162726640D03*
D27*
X206213345Y-166958110D03*
X206213345Y-104302994D03*
X298671968Y-104302994D03*
X113754723Y-104302994D03*
X315860803Y-161146960D03*
X96565888Y-161146960D03*
X354660309Y-80444750D03*
X354660309Y-61694750D03*
X57766382Y-61694750D03*
X57766382Y-80444750D03*
M02*
