G04 #@! TF.GenerationSoftware,KiCad,Pcbnew,5.1.10-88a1d61d58~90~ubuntu20.04.1*
G04 #@! TF.CreationDate,2021-10-08T00:04:58+03:00*
G04 #@! TF.ProjectId,discipline-pcb,64697363-6970-46c6-996e-652d7063622e,rev?*
G04 #@! TF.SameCoordinates,Original*
G04 #@! TF.FileFunction,Soldermask,Top*
G04 #@! TF.FilePolarity,Negative*
%FSLAX46Y46*%
G04 Gerber Fmt 4.6, Leading zero omitted, Abs format (unit mm)*
G04 Created by KiCad (PCBNEW 5.1.10-88a1d61d58~90~ubuntu20.04.1) date 2021-10-08 00:04:58*
%MOMM*%
%LPD*%
G01*
G04 APERTURE LIST*
%ADD10C,1.500000*%
%ADD11C,0.150000*%
%ADD12C,0.010000*%
%ADD13C,0.400000*%
%ADD14C,3.000000*%
%ADD15C,1.750000*%
%ADD16C,4.000000*%
%ADD17C,3.050000*%
%ADD18C,2.500000*%
%ADD19R,1.600000X1.600000*%
%ADD20O,1.600000X1.600000*%
%ADD21C,1.600000*%
%ADD22R,1.200000X1.200000*%
%ADD23C,1.200000*%
%ADD24O,1.400000X1.400000*%
%ADD25C,1.400000*%
%ADD26C,4.400000*%
%ADD27R,1.700000X1.700000*%
%ADD28C,1.700000*%
%ADD29C,1.500000*%
%ADD30C,1.800000*%
%ADD31R,1.800000X1.800000*%
%ADD32O,0.650000X1.000000*%
%ADD33O,0.900000X2.400000*%
%ADD34O,0.900000X1.700000*%
%ADD35C,2.000000*%
%ADD36C,3.048000*%
%ADD37C,3.987800*%
G04 APERTURE END LIST*
D10*
X223254308Y-59503020D02*
X62883004Y-59503020D01*
X223254308Y-61986290D02*
X62883004Y-61986290D01*
X223254308Y-64469560D02*
X62883004Y-64469560D01*
D11*
X151085196Y-172974204D02*
G75*
G03*
X151085196Y-172974204I-56796J0D01*
G01*
D12*
G36*
X151658972Y-173101000D02*
G01*
X151496694Y-173101000D01*
X151496694Y-171634029D01*
X151362156Y-171718413D01*
X151322503Y-171743230D01*
X151286246Y-171765819D01*
X151255305Y-171784992D01*
X151231600Y-171799561D01*
X151217050Y-171808340D01*
X151213990Y-171810091D01*
X151208210Y-171812505D01*
X151204354Y-171810962D01*
X151202040Y-171803315D01*
X151200888Y-171787416D01*
X151200515Y-171761116D01*
X151200515Y-171734234D01*
X151200670Y-171651083D01*
X151315383Y-171575236D01*
X151430095Y-171499388D01*
X151658972Y-171499388D01*
X151658972Y-173101000D01*
G37*
X151658972Y-173101000D02*
X151496694Y-173101000D01*
X151496694Y-171634029D01*
X151362156Y-171718413D01*
X151322503Y-171743230D01*
X151286246Y-171765819D01*
X151255305Y-171784992D01*
X151231600Y-171799561D01*
X151217050Y-171808340D01*
X151213990Y-171810091D01*
X151208210Y-171812505D01*
X151204354Y-171810962D01*
X151202040Y-171803315D01*
X151200888Y-171787416D01*
X151200515Y-171761116D01*
X151200515Y-171734234D01*
X151200670Y-171651083D01*
X151315383Y-171575236D01*
X151430095Y-171499388D01*
X151658972Y-171499388D01*
X151658972Y-173101000D01*
G36*
X148438439Y-171939035D02*
G01*
X148471606Y-171942554D01*
X148504768Y-171947851D01*
X148531151Y-171953828D01*
X148532788Y-171954310D01*
X148580620Y-171974735D01*
X148626988Y-172005329D01*
X148667078Y-172042553D01*
X148686635Y-172067361D01*
X148704974Y-172097070D01*
X148719797Y-172127896D01*
X148731438Y-172161691D01*
X148740229Y-172200304D01*
X148746503Y-172245586D01*
X148750593Y-172299387D01*
X148752830Y-172363557D01*
X148753549Y-172439541D01*
X148753688Y-172593000D01*
X148231577Y-172593000D01*
X148231577Y-172697552D01*
X148232410Y-172752171D01*
X148235277Y-172795424D01*
X148240734Y-172829978D01*
X148249336Y-172858500D01*
X148261636Y-172883658D01*
X148274262Y-172902809D01*
X148305177Y-172934285D01*
X148344787Y-172955098D01*
X148393507Y-172965430D01*
X148422077Y-172966720D01*
X148474696Y-172961517D01*
X148517750Y-172945964D01*
X148551465Y-172919864D01*
X148576069Y-172883021D01*
X148591788Y-172835237D01*
X148595068Y-172817013D01*
X148600068Y-172783500D01*
X148753688Y-172783500D01*
X148753688Y-172817295D01*
X148751756Y-172844151D01*
X148746824Y-172875304D01*
X148743139Y-172891593D01*
X148720553Y-172953800D01*
X148687791Y-173006235D01*
X148644948Y-173048804D01*
X148592114Y-173081412D01*
X148535986Y-173102196D01*
X148496514Y-173109795D01*
X148449075Y-173113867D01*
X148398981Y-173114371D01*
X148351543Y-173111264D01*
X148312070Y-173104506D01*
X148309927Y-173103945D01*
X148248237Y-173080413D01*
X148194451Y-173045500D01*
X148149280Y-172999964D01*
X148113434Y-172944563D01*
X148087624Y-172880055D01*
X148082451Y-172861111D01*
X148079759Y-172842720D01*
X148077469Y-172812191D01*
X148075583Y-172771479D01*
X148074099Y-172722542D01*
X148073017Y-172667333D01*
X148072338Y-172607810D01*
X148072060Y-172545928D01*
X148072184Y-172483643D01*
X148072520Y-172444833D01*
X148230311Y-172444833D01*
X148592889Y-172444833D01*
X148590025Y-172333708D01*
X148588706Y-172290291D01*
X148587079Y-172258200D01*
X148584771Y-172234648D01*
X148581412Y-172216850D01*
X148576629Y-172202021D01*
X148570662Y-172188627D01*
X148545213Y-172146262D01*
X148515209Y-172116464D01*
X148478641Y-172097977D01*
X148433502Y-172089544D01*
X148410972Y-172088695D01*
X148380849Y-172089165D01*
X148359742Y-172091571D01*
X148342576Y-172097092D01*
X148324277Y-172106903D01*
X148319250Y-172109967D01*
X148298023Y-172125125D01*
X148281594Y-172142891D01*
X148266084Y-172167822D01*
X148259800Y-172179779D01*
X148250398Y-172198558D01*
X148243696Y-172214105D01*
X148239172Y-172229433D01*
X148236305Y-172247560D01*
X148234574Y-172271500D01*
X148233457Y-172304269D01*
X148232708Y-172336492D01*
X148230311Y-172444833D01*
X148072520Y-172444833D01*
X148072710Y-172422910D01*
X148073637Y-172365687D01*
X148074965Y-172313927D01*
X148076694Y-172269589D01*
X148078823Y-172234626D01*
X148081353Y-172210996D01*
X148082529Y-172204944D01*
X148106366Y-172133599D01*
X148139323Y-172072741D01*
X148180925Y-172022727D01*
X148230695Y-171983910D01*
X148288157Y-171956649D01*
X148352835Y-171941298D01*
X148424252Y-171938213D01*
X148438439Y-171939035D01*
G37*
X148438439Y-171939035D02*
X148471606Y-171942554D01*
X148504768Y-171947851D01*
X148531151Y-171953828D01*
X148532788Y-171954310D01*
X148580620Y-171974735D01*
X148626988Y-172005329D01*
X148667078Y-172042553D01*
X148686635Y-172067361D01*
X148704974Y-172097070D01*
X148719797Y-172127896D01*
X148731438Y-172161691D01*
X148740229Y-172200304D01*
X148746503Y-172245586D01*
X148750593Y-172299387D01*
X148752830Y-172363557D01*
X148753549Y-172439541D01*
X148753688Y-172593000D01*
X148231577Y-172593000D01*
X148231577Y-172697552D01*
X148232410Y-172752171D01*
X148235277Y-172795424D01*
X148240734Y-172829978D01*
X148249336Y-172858500D01*
X148261636Y-172883658D01*
X148274262Y-172902809D01*
X148305177Y-172934285D01*
X148344787Y-172955098D01*
X148393507Y-172965430D01*
X148422077Y-172966720D01*
X148474696Y-172961517D01*
X148517750Y-172945964D01*
X148551465Y-172919864D01*
X148576069Y-172883021D01*
X148591788Y-172835237D01*
X148595068Y-172817013D01*
X148600068Y-172783500D01*
X148753688Y-172783500D01*
X148753688Y-172817295D01*
X148751756Y-172844151D01*
X148746824Y-172875304D01*
X148743139Y-172891593D01*
X148720553Y-172953800D01*
X148687791Y-173006235D01*
X148644948Y-173048804D01*
X148592114Y-173081412D01*
X148535986Y-173102196D01*
X148496514Y-173109795D01*
X148449075Y-173113867D01*
X148398981Y-173114371D01*
X148351543Y-173111264D01*
X148312070Y-173104506D01*
X148309927Y-173103945D01*
X148248237Y-173080413D01*
X148194451Y-173045500D01*
X148149280Y-172999964D01*
X148113434Y-172944563D01*
X148087624Y-172880055D01*
X148082451Y-172861111D01*
X148079759Y-172842720D01*
X148077469Y-172812191D01*
X148075583Y-172771479D01*
X148074099Y-172722542D01*
X148073017Y-172667333D01*
X148072338Y-172607810D01*
X148072060Y-172545928D01*
X148072184Y-172483643D01*
X148072520Y-172444833D01*
X148230311Y-172444833D01*
X148592889Y-172444833D01*
X148590025Y-172333708D01*
X148588706Y-172290291D01*
X148587079Y-172258200D01*
X148584771Y-172234648D01*
X148581412Y-172216850D01*
X148576629Y-172202021D01*
X148570662Y-172188627D01*
X148545213Y-172146262D01*
X148515209Y-172116464D01*
X148478641Y-172097977D01*
X148433502Y-172089544D01*
X148410972Y-172088695D01*
X148380849Y-172089165D01*
X148359742Y-172091571D01*
X148342576Y-172097092D01*
X148324277Y-172106903D01*
X148319250Y-172109967D01*
X148298023Y-172125125D01*
X148281594Y-172142891D01*
X148266084Y-172167822D01*
X148259800Y-172179779D01*
X148250398Y-172198558D01*
X148243696Y-172214105D01*
X148239172Y-172229433D01*
X148236305Y-172247560D01*
X148234574Y-172271500D01*
X148233457Y-172304269D01*
X148232708Y-172336492D01*
X148230311Y-172444833D01*
X148072520Y-172444833D01*
X148072710Y-172422910D01*
X148073637Y-172365687D01*
X148074965Y-172313927D01*
X148076694Y-172269589D01*
X148078823Y-172234626D01*
X148081353Y-172210996D01*
X148082529Y-172204944D01*
X148106366Y-172133599D01*
X148139323Y-172072741D01*
X148180925Y-172022727D01*
X148230695Y-171983910D01*
X148288157Y-171956649D01*
X148352835Y-171941298D01*
X148424252Y-171938213D01*
X148438439Y-171939035D01*
G36*
X147907022Y-172085000D02*
G01*
X147880563Y-172085053D01*
X147817144Y-172090536D01*
X147756122Y-172105947D01*
X147699738Y-172130113D01*
X147650231Y-172161862D01*
X147609844Y-172200023D01*
X147581876Y-172241314D01*
X147574620Y-172255873D01*
X147568459Y-172269737D01*
X147563302Y-172284152D01*
X147559061Y-172300362D01*
X147555645Y-172319614D01*
X147552965Y-172343154D01*
X147550931Y-172372227D01*
X147549454Y-172408080D01*
X147548443Y-172451959D01*
X147547809Y-172505108D01*
X147547462Y-172568774D01*
X147547312Y-172644203D01*
X147547272Y-172721763D01*
X147547188Y-173101000D01*
X147384911Y-173101000D01*
X147384911Y-171958000D01*
X147547188Y-171958000D01*
X147547188Y-172114006D01*
X147591877Y-172069516D01*
X147653526Y-172017476D01*
X147720973Y-171978152D01*
X147793696Y-171951798D01*
X147861321Y-171939566D01*
X147907022Y-171934884D01*
X147907022Y-172085000D01*
G37*
X147907022Y-172085000D02*
X147880563Y-172085053D01*
X147817144Y-172090536D01*
X147756122Y-172105947D01*
X147699738Y-172130113D01*
X147650231Y-172161862D01*
X147609844Y-172200023D01*
X147581876Y-172241314D01*
X147574620Y-172255873D01*
X147568459Y-172269737D01*
X147563302Y-172284152D01*
X147559061Y-172300362D01*
X147555645Y-172319614D01*
X147552965Y-172343154D01*
X147550931Y-172372227D01*
X147549454Y-172408080D01*
X147548443Y-172451959D01*
X147547809Y-172505108D01*
X147547462Y-172568774D01*
X147547312Y-172644203D01*
X147547272Y-172721763D01*
X147547188Y-173101000D01*
X147384911Y-173101000D01*
X147384911Y-171958000D01*
X147547188Y-171958000D01*
X147547188Y-172114006D01*
X147591877Y-172069516D01*
X147653526Y-172017476D01*
X147720973Y-171978152D01*
X147793696Y-171951798D01*
X147861321Y-171939566D01*
X147907022Y-171934884D01*
X147907022Y-172085000D01*
G36*
X149639535Y-171958173D02*
G01*
X149662567Y-171958930D01*
X149675965Y-171960628D01*
X149681966Y-171963620D01*
X149682807Y-171968264D01*
X149682296Y-171970347D01*
X149679869Y-171978949D01*
X149673963Y-172000092D01*
X149664872Y-172032718D01*
X149652889Y-172075773D01*
X149638308Y-172128198D01*
X149621423Y-172188938D01*
X149602527Y-172256936D01*
X149581916Y-172331134D01*
X149559881Y-172410478D01*
X149536718Y-172493909D01*
X149529776Y-172518916D01*
X149506242Y-172603661D01*
X149483671Y-172684857D01*
X149462367Y-172761421D01*
X149442633Y-172832268D01*
X149424770Y-172896315D01*
X149409082Y-172952477D01*
X149395871Y-172999669D01*
X149385440Y-173036808D01*
X149378092Y-173062809D01*
X149374129Y-173076588D01*
X149373680Y-173078069D01*
X149366427Y-173101000D01*
X149220449Y-173101000D01*
X149213111Y-173078069D01*
X149209423Y-173065703D01*
X149202439Y-173041463D01*
X149192504Y-173006585D01*
X149179964Y-172962302D01*
X149165163Y-172909851D01*
X149148448Y-172850466D01*
X149130162Y-172785382D01*
X149110651Y-172715834D01*
X149090261Y-172643057D01*
X149069335Y-172568285D01*
X149048220Y-172492754D01*
X149027261Y-172417698D01*
X149006802Y-172344353D01*
X148987189Y-172273953D01*
X148968766Y-172207733D01*
X148951880Y-172146929D01*
X148936874Y-172092775D01*
X148924095Y-172046505D01*
X148913887Y-172009356D01*
X148906595Y-171982561D01*
X148902565Y-171967356D01*
X148901855Y-171964295D01*
X148908445Y-171961816D01*
X148926360Y-171959797D01*
X148952814Y-171958454D01*
X148982994Y-171958000D01*
X149014939Y-171958227D01*
X149040964Y-171958844D01*
X149058281Y-171959755D01*
X149064133Y-171960794D01*
X149065820Y-171968149D01*
X149070647Y-171987751D01*
X149078262Y-172018219D01*
X149088313Y-172058170D01*
X149100446Y-172106222D01*
X149114311Y-172160992D01*
X149129556Y-172221098D01*
X149145827Y-172285158D01*
X149162773Y-172351790D01*
X149180042Y-172419610D01*
X149197281Y-172487237D01*
X149214139Y-172553289D01*
X149230263Y-172616382D01*
X149245302Y-172675135D01*
X149258902Y-172728164D01*
X149270712Y-172774089D01*
X149280381Y-172811526D01*
X149287554Y-172839093D01*
X149291881Y-172855408D01*
X149293048Y-172859430D01*
X149295031Y-172853113D01*
X149300156Y-172834266D01*
X149308126Y-172804044D01*
X149318644Y-172763604D01*
X149331410Y-172714099D01*
X149346128Y-172656687D01*
X149362499Y-172592522D01*
X149380226Y-172522760D01*
X149399011Y-172448557D01*
X149402159Y-172436097D01*
X149421305Y-172360294D01*
X149439579Y-172287970D01*
X149456661Y-172220386D01*
X149472233Y-172158802D01*
X149485975Y-172104478D01*
X149497569Y-172058674D01*
X149506696Y-172022651D01*
X149513038Y-171997667D01*
X149516275Y-171984984D01*
X149516412Y-171984458D01*
X149523288Y-171958000D01*
X149604630Y-171958000D01*
X149639535Y-171958173D01*
G37*
X149639535Y-171958173D02*
X149662567Y-171958930D01*
X149675965Y-171960628D01*
X149681966Y-171963620D01*
X149682807Y-171968264D01*
X149682296Y-171970347D01*
X149679869Y-171978949D01*
X149673963Y-172000092D01*
X149664872Y-172032718D01*
X149652889Y-172075773D01*
X149638308Y-172128198D01*
X149621423Y-172188938D01*
X149602527Y-172256936D01*
X149581916Y-172331134D01*
X149559881Y-172410478D01*
X149536718Y-172493909D01*
X149529776Y-172518916D01*
X149506242Y-172603661D01*
X149483671Y-172684857D01*
X149462367Y-172761421D01*
X149442633Y-172832268D01*
X149424770Y-172896315D01*
X149409082Y-172952477D01*
X149395871Y-172999669D01*
X149385440Y-173036808D01*
X149378092Y-173062809D01*
X149374129Y-173076588D01*
X149373680Y-173078069D01*
X149366427Y-173101000D01*
X149220449Y-173101000D01*
X149213111Y-173078069D01*
X149209423Y-173065703D01*
X149202439Y-173041463D01*
X149192504Y-173006585D01*
X149179964Y-172962302D01*
X149165163Y-172909851D01*
X149148448Y-172850466D01*
X149130162Y-172785382D01*
X149110651Y-172715834D01*
X149090261Y-172643057D01*
X149069335Y-172568285D01*
X149048220Y-172492754D01*
X149027261Y-172417698D01*
X149006802Y-172344353D01*
X148987189Y-172273953D01*
X148968766Y-172207733D01*
X148951880Y-172146929D01*
X148936874Y-172092775D01*
X148924095Y-172046505D01*
X148913887Y-172009356D01*
X148906595Y-171982561D01*
X148902565Y-171967356D01*
X148901855Y-171964295D01*
X148908445Y-171961816D01*
X148926360Y-171959797D01*
X148952814Y-171958454D01*
X148982994Y-171958000D01*
X149014939Y-171958227D01*
X149040964Y-171958844D01*
X149058281Y-171959755D01*
X149064133Y-171960794D01*
X149065820Y-171968149D01*
X149070647Y-171987751D01*
X149078262Y-172018219D01*
X149088313Y-172058170D01*
X149100446Y-172106222D01*
X149114311Y-172160992D01*
X149129556Y-172221098D01*
X149145827Y-172285158D01*
X149162773Y-172351790D01*
X149180042Y-172419610D01*
X149197281Y-172487237D01*
X149214139Y-172553289D01*
X149230263Y-172616382D01*
X149245302Y-172675135D01*
X149258902Y-172728164D01*
X149270712Y-172774089D01*
X149280381Y-172811526D01*
X149287554Y-172839093D01*
X149291881Y-172855408D01*
X149293048Y-172859430D01*
X149295031Y-172853113D01*
X149300156Y-172834266D01*
X149308126Y-172804044D01*
X149318644Y-172763604D01*
X149331410Y-172714099D01*
X149346128Y-172656687D01*
X149362499Y-172592522D01*
X149380226Y-172522760D01*
X149399011Y-172448557D01*
X149402159Y-172436097D01*
X149421305Y-172360294D01*
X149439579Y-172287970D01*
X149456661Y-172220386D01*
X149472233Y-172158802D01*
X149485975Y-172104478D01*
X149497569Y-172058674D01*
X149506696Y-172022651D01*
X149513038Y-171997667D01*
X149516275Y-171984984D01*
X149516412Y-171984458D01*
X149523288Y-171958000D01*
X149604630Y-171958000D01*
X149639535Y-171958173D01*
G36*
X150559911Y-173101000D02*
G01*
X150397633Y-173101000D01*
X150397633Y-171634029D01*
X150263095Y-171718413D01*
X150223442Y-171743230D01*
X150187185Y-171765819D01*
X150156244Y-171784992D01*
X150132539Y-171799561D01*
X150117989Y-171808340D01*
X150114929Y-171810091D01*
X150109149Y-171812505D01*
X150105293Y-171810962D01*
X150102979Y-171803315D01*
X150101827Y-171787416D01*
X150101454Y-171761116D01*
X150101454Y-171734234D01*
X150101609Y-171651083D01*
X150216322Y-171575236D01*
X150331034Y-171499388D01*
X150559911Y-171499388D01*
X150559911Y-173101000D01*
G37*
X150559911Y-173101000D02*
X150397633Y-173101000D01*
X150397633Y-171634029D01*
X150263095Y-171718413D01*
X150223442Y-171743230D01*
X150187185Y-171765819D01*
X150156244Y-171784992D01*
X150132539Y-171799561D01*
X150117989Y-171808340D01*
X150114929Y-171810091D01*
X150109149Y-171812505D01*
X150105293Y-171810962D01*
X150102979Y-171803315D01*
X150101827Y-171787416D01*
X150101454Y-171761116D01*
X150101454Y-171734234D01*
X150101609Y-171651083D01*
X150216322Y-171575236D01*
X150331034Y-171499388D01*
X150559911Y-171499388D01*
X150559911Y-173101000D01*
G36*
X158311991Y-168981966D02*
G01*
X158149714Y-168981966D01*
X158149714Y-168826744D01*
X158311991Y-168826744D01*
X158311991Y-168981966D01*
G37*
X158311991Y-168981966D02*
X158149714Y-168981966D01*
X158149714Y-168826744D01*
X158311991Y-168826744D01*
X158311991Y-168981966D01*
G36*
X155165214Y-168981966D02*
G01*
X155002936Y-168981966D01*
X155002936Y-168826744D01*
X155165214Y-168826744D01*
X155165214Y-168981966D01*
G37*
X155165214Y-168981966D02*
X155002936Y-168981966D01*
X155002936Y-168826744D01*
X155165214Y-168826744D01*
X155165214Y-168981966D01*
G36*
X161770308Y-168749337D02*
G01*
X161814438Y-168752544D01*
X161851045Y-168758314D01*
X161856880Y-168759737D01*
X161921243Y-168783189D01*
X161976074Y-168816959D01*
X162021232Y-168860833D01*
X162056579Y-168914599D01*
X162081974Y-168978043D01*
X162097276Y-169050951D01*
X162102345Y-169133110D01*
X162102344Y-169133661D01*
X162097593Y-169215673D01*
X162083245Y-169297453D01*
X162058700Y-169381200D01*
X162023362Y-169469111D01*
X161994703Y-169528772D01*
X161981873Y-169552785D01*
X161962521Y-169587309D01*
X161937537Y-169630849D01*
X161907812Y-169681907D01*
X161874235Y-169738988D01*
X161837698Y-169800595D01*
X161799090Y-169865233D01*
X161759302Y-169931405D01*
X161719224Y-169997615D01*
X161679747Y-170062366D01*
X161641761Y-170124163D01*
X161608420Y-170177883D01*
X161586405Y-170213161D01*
X161843615Y-170215011D01*
X162100825Y-170216862D01*
X162100825Y-170364855D01*
X161388214Y-170364855D01*
X161388214Y-170233543D01*
X161586740Y-169898796D01*
X161625643Y-169833021D01*
X161663697Y-169768344D01*
X161700038Y-169706253D01*
X161733803Y-169648242D01*
X161764127Y-169595800D01*
X161790147Y-169550418D01*
X161810998Y-169513587D01*
X161825817Y-169486799D01*
X161829782Y-169479383D01*
X161871572Y-169391925D01*
X161903167Y-169308309D01*
X161924440Y-169229386D01*
X161935260Y-169156005D01*
X161935498Y-169089016D01*
X161925027Y-169029271D01*
X161905415Y-168980678D01*
X161879151Y-168942641D01*
X161847392Y-168916483D01*
X161808326Y-168901179D01*
X161760137Y-168895703D01*
X161755103Y-168895657D01*
X161707758Y-168899874D01*
X161668487Y-168913691D01*
X161633805Y-168938612D01*
X161617844Y-168954873D01*
X161591007Y-168991042D01*
X161571005Y-169033251D01*
X161556861Y-169084088D01*
X161548378Y-169138952D01*
X161540616Y-169207744D01*
X161379032Y-169207744D01*
X161383347Y-169135425D01*
X161392004Y-169060926D01*
X161408333Y-168991555D01*
X161431447Y-168930935D01*
X161435093Y-168923513D01*
X161465611Y-168876511D01*
X161506218Y-168833458D01*
X161553623Y-168796965D01*
X161604538Y-168769645D01*
X161646069Y-168756037D01*
X161680795Y-168750990D01*
X161723984Y-168748788D01*
X161770308Y-168749337D01*
G37*
X161770308Y-168749337D02*
X161814438Y-168752544D01*
X161851045Y-168758314D01*
X161856880Y-168759737D01*
X161921243Y-168783189D01*
X161976074Y-168816959D01*
X162021232Y-168860833D01*
X162056579Y-168914599D01*
X162081974Y-168978043D01*
X162097276Y-169050951D01*
X162102345Y-169133110D01*
X162102344Y-169133661D01*
X162097593Y-169215673D01*
X162083245Y-169297453D01*
X162058700Y-169381200D01*
X162023362Y-169469111D01*
X161994703Y-169528772D01*
X161981873Y-169552785D01*
X161962521Y-169587309D01*
X161937537Y-169630849D01*
X161907812Y-169681907D01*
X161874235Y-169738988D01*
X161837698Y-169800595D01*
X161799090Y-169865233D01*
X161759302Y-169931405D01*
X161719224Y-169997615D01*
X161679747Y-170062366D01*
X161641761Y-170124163D01*
X161608420Y-170177883D01*
X161586405Y-170213161D01*
X161843615Y-170215011D01*
X162100825Y-170216862D01*
X162100825Y-170364855D01*
X161388214Y-170364855D01*
X161388214Y-170233543D01*
X161586740Y-169898796D01*
X161625643Y-169833021D01*
X161663697Y-169768344D01*
X161700038Y-169706253D01*
X161733803Y-169648242D01*
X161764127Y-169595800D01*
X161790147Y-169550418D01*
X161810998Y-169513587D01*
X161825817Y-169486799D01*
X161829782Y-169479383D01*
X161871572Y-169391925D01*
X161903167Y-169308309D01*
X161924440Y-169229386D01*
X161935260Y-169156005D01*
X161935498Y-169089016D01*
X161925027Y-169029271D01*
X161905415Y-168980678D01*
X161879151Y-168942641D01*
X161847392Y-168916483D01*
X161808326Y-168901179D01*
X161760137Y-168895703D01*
X161755103Y-168895657D01*
X161707758Y-168899874D01*
X161668487Y-168913691D01*
X161633805Y-168938612D01*
X161617844Y-168954873D01*
X161591007Y-168991042D01*
X161571005Y-169033251D01*
X161556861Y-169084088D01*
X161548378Y-169138952D01*
X161540616Y-169207744D01*
X161379032Y-169207744D01*
X161383347Y-169135425D01*
X161392004Y-169060926D01*
X161408333Y-168991555D01*
X161431447Y-168930935D01*
X161435093Y-168923513D01*
X161465611Y-168876511D01*
X161506218Y-168833458D01*
X161553623Y-168796965D01*
X161604538Y-168769645D01*
X161646069Y-168756037D01*
X161680795Y-168750990D01*
X161723984Y-168748788D01*
X161770308Y-168749337D01*
G36*
X159926444Y-168749187D02*
G01*
X159970574Y-168752237D01*
X160007754Y-168757911D01*
X160015333Y-168759725D01*
X160079964Y-168783249D01*
X160135113Y-168817225D01*
X160180779Y-168861648D01*
X160216958Y-168916517D01*
X160243647Y-168981827D01*
X160249718Y-169003133D01*
X160256833Y-169042923D01*
X160260673Y-169091925D01*
X160261249Y-169145625D01*
X160258569Y-169199512D01*
X160252643Y-169249073D01*
X160249146Y-169267716D01*
X160240586Y-169305020D01*
X160230912Y-169341003D01*
X160219542Y-169376842D01*
X160205893Y-169413715D01*
X160189383Y-169452799D01*
X160169429Y-169495270D01*
X160145450Y-169542305D01*
X160116862Y-169595083D01*
X160083083Y-169654778D01*
X160043530Y-169722569D01*
X159997622Y-169799633D01*
X159944776Y-169887146D01*
X159933179Y-169906244D01*
X159746654Y-170213161D01*
X160002989Y-170215011D01*
X160259325Y-170216862D01*
X160259325Y-170364855D01*
X159546714Y-170364855D01*
X159546776Y-170234327D01*
X159755600Y-169881550D01*
X159795109Y-169814609D01*
X159833492Y-169749207D01*
X159869951Y-169686724D01*
X159903691Y-169628544D01*
X159933913Y-169576048D01*
X159959821Y-169530619D01*
X159980619Y-169493639D01*
X159995509Y-169466490D01*
X160001683Y-169454688D01*
X160039290Y-169372045D01*
X160067721Y-169292417D01*
X160086563Y-169217393D01*
X160095404Y-169148562D01*
X160094773Y-169096393D01*
X160089313Y-169052823D01*
X160080920Y-169018484D01*
X160068075Y-168988566D01*
X160052760Y-168963372D01*
X160022874Y-168929531D01*
X159986309Y-168907506D01*
X159941936Y-168896739D01*
X159915202Y-168895404D01*
X159867848Y-168899573D01*
X159828911Y-168912703D01*
X159794809Y-168936327D01*
X159776344Y-168954873D01*
X159750912Y-168988680D01*
X159731788Y-169027597D01*
X159717920Y-169074429D01*
X159708251Y-169131978D01*
X159707541Y-169137863D01*
X159699342Y-169207744D01*
X159539658Y-169207744D01*
X159539751Y-169160119D01*
X159542712Y-169113914D01*
X159550677Y-169062324D01*
X159562508Y-169010526D01*
X159577067Y-168963693D01*
X159589316Y-168934490D01*
X159623494Y-168879398D01*
X159667272Y-168831621D01*
X159718339Y-168793071D01*
X159774384Y-168765663D01*
X159804241Y-168756566D01*
X159838090Y-168751274D01*
X159880554Y-168748840D01*
X159926444Y-168749187D01*
G37*
X159926444Y-168749187D02*
X159970574Y-168752237D01*
X160007754Y-168757911D01*
X160015333Y-168759725D01*
X160079964Y-168783249D01*
X160135113Y-168817225D01*
X160180779Y-168861648D01*
X160216958Y-168916517D01*
X160243647Y-168981827D01*
X160249718Y-169003133D01*
X160256833Y-169042923D01*
X160260673Y-169091925D01*
X160261249Y-169145625D01*
X160258569Y-169199512D01*
X160252643Y-169249073D01*
X160249146Y-169267716D01*
X160240586Y-169305020D01*
X160230912Y-169341003D01*
X160219542Y-169376842D01*
X160205893Y-169413715D01*
X160189383Y-169452799D01*
X160169429Y-169495270D01*
X160145450Y-169542305D01*
X160116862Y-169595083D01*
X160083083Y-169654778D01*
X160043530Y-169722569D01*
X159997622Y-169799633D01*
X159944776Y-169887146D01*
X159933179Y-169906244D01*
X159746654Y-170213161D01*
X160002989Y-170215011D01*
X160259325Y-170216862D01*
X160259325Y-170364855D01*
X159546714Y-170364855D01*
X159546776Y-170234327D01*
X159755600Y-169881550D01*
X159795109Y-169814609D01*
X159833492Y-169749207D01*
X159869951Y-169686724D01*
X159903691Y-169628544D01*
X159933913Y-169576048D01*
X159959821Y-169530619D01*
X159980619Y-169493639D01*
X159995509Y-169466490D01*
X160001683Y-169454688D01*
X160039290Y-169372045D01*
X160067721Y-169292417D01*
X160086563Y-169217393D01*
X160095404Y-169148562D01*
X160094773Y-169096393D01*
X160089313Y-169052823D01*
X160080920Y-169018484D01*
X160068075Y-168988566D01*
X160052760Y-168963372D01*
X160022874Y-168929531D01*
X159986309Y-168907506D01*
X159941936Y-168896739D01*
X159915202Y-168895404D01*
X159867848Y-168899573D01*
X159828911Y-168912703D01*
X159794809Y-168936327D01*
X159776344Y-168954873D01*
X159750912Y-168988680D01*
X159731788Y-169027597D01*
X159717920Y-169074429D01*
X159708251Y-169131978D01*
X159707541Y-169137863D01*
X159699342Y-169207744D01*
X159539658Y-169207744D01*
X159539751Y-169160119D01*
X159542712Y-169113914D01*
X159550677Y-169062324D01*
X159562508Y-169010526D01*
X159577067Y-168963693D01*
X159589316Y-168934490D01*
X159623494Y-168879398D01*
X159667272Y-168831621D01*
X159718339Y-168793071D01*
X159774384Y-168765663D01*
X159804241Y-168756566D01*
X159838090Y-168751274D01*
X159880554Y-168748840D01*
X159926444Y-168749187D01*
G36*
X158311991Y-170364855D02*
G01*
X158149714Y-170364855D01*
X158149714Y-169221855D01*
X158311991Y-169221855D01*
X158311991Y-170364855D01*
G37*
X158311991Y-170364855D02*
X158149714Y-170364855D01*
X158149714Y-169221855D01*
X158311991Y-169221855D01*
X158311991Y-170364855D01*
G36*
X155165214Y-170364855D02*
G01*
X155002936Y-170364855D01*
X155002936Y-169221855D01*
X155165214Y-169221855D01*
X155165214Y-170364855D01*
G37*
X155165214Y-170364855D02*
X155002936Y-170364855D01*
X155002936Y-169221855D01*
X155165214Y-169221855D01*
X155165214Y-170364855D01*
G36*
X154533741Y-169210793D02*
G01*
X154589133Y-169229516D01*
X154635333Y-169257883D01*
X154672766Y-169296417D01*
X154701851Y-169345646D01*
X154723012Y-169406094D01*
X154734147Y-169460467D01*
X154735979Y-169479989D01*
X154737578Y-169513173D01*
X154738936Y-169559568D01*
X154740046Y-169618727D01*
X154740902Y-169690199D01*
X154741495Y-169773538D01*
X154741818Y-169868293D01*
X154741880Y-169937582D01*
X154741880Y-170364855D01*
X154579603Y-170364855D01*
X154579603Y-169934063D01*
X154579472Y-169830554D01*
X154579082Y-169739681D01*
X154578437Y-169661662D01*
X154577540Y-169596719D01*
X154576394Y-169545069D01*
X154575004Y-169506935D01*
X154573373Y-169482534D01*
X154572076Y-169473688D01*
X154554318Y-169429261D01*
X154526278Y-169394370D01*
X154488332Y-169369302D01*
X154440857Y-169354345D01*
X154411033Y-169350547D01*
X154359359Y-169351612D01*
X154313672Y-169362066D01*
X154276353Y-169381241D01*
X154263213Y-169392250D01*
X154250849Y-169404852D01*
X154240170Y-169417484D01*
X154231050Y-169431230D01*
X154223369Y-169447176D01*
X154217002Y-169466408D01*
X154211828Y-169490013D01*
X154207722Y-169519075D01*
X154204563Y-169554681D01*
X154202228Y-169597916D01*
X154200593Y-169649867D01*
X154199536Y-169711619D01*
X154198934Y-169784257D01*
X154198663Y-169868869D01*
X154198603Y-169963309D01*
X154198603Y-170364855D01*
X154043380Y-170364855D01*
X154043380Y-169221855D01*
X154196839Y-169221855D01*
X154201248Y-169243904D01*
X154203688Y-169263298D01*
X154205289Y-169289833D01*
X154205658Y-169308785D01*
X154205658Y-169351618D01*
X154225588Y-169320250D01*
X154262358Y-169274963D01*
X154307792Y-169240022D01*
X154360426Y-169215947D01*
X154418797Y-169203258D01*
X154481440Y-169202476D01*
X154533741Y-169210793D01*
G37*
X154533741Y-169210793D02*
X154589133Y-169229516D01*
X154635333Y-169257883D01*
X154672766Y-169296417D01*
X154701851Y-169345646D01*
X154723012Y-169406094D01*
X154734147Y-169460467D01*
X154735979Y-169479989D01*
X154737578Y-169513173D01*
X154738936Y-169559568D01*
X154740046Y-169618727D01*
X154740902Y-169690199D01*
X154741495Y-169773538D01*
X154741818Y-169868293D01*
X154741880Y-169937582D01*
X154741880Y-170364855D01*
X154579603Y-170364855D01*
X154579603Y-169934063D01*
X154579472Y-169830554D01*
X154579082Y-169739681D01*
X154578437Y-169661662D01*
X154577540Y-169596719D01*
X154576394Y-169545069D01*
X154575004Y-169506935D01*
X154573373Y-169482534D01*
X154572076Y-169473688D01*
X154554318Y-169429261D01*
X154526278Y-169394370D01*
X154488332Y-169369302D01*
X154440857Y-169354345D01*
X154411033Y-169350547D01*
X154359359Y-169351612D01*
X154313672Y-169362066D01*
X154276353Y-169381241D01*
X154263213Y-169392250D01*
X154250849Y-169404852D01*
X154240170Y-169417484D01*
X154231050Y-169431230D01*
X154223369Y-169447176D01*
X154217002Y-169466408D01*
X154211828Y-169490013D01*
X154207722Y-169519075D01*
X154204563Y-169554681D01*
X154202228Y-169597916D01*
X154200593Y-169649867D01*
X154199536Y-169711619D01*
X154198934Y-169784257D01*
X154198663Y-169868869D01*
X154198603Y-169963309D01*
X154198603Y-170364855D01*
X154043380Y-170364855D01*
X154043380Y-169221855D01*
X154196839Y-169221855D01*
X154201248Y-169243904D01*
X154203688Y-169263298D01*
X154205289Y-169289833D01*
X154205658Y-169308785D01*
X154205658Y-169351618D01*
X154225588Y-169320250D01*
X154262358Y-169274963D01*
X154307792Y-169240022D01*
X154360426Y-169215947D01*
X154418797Y-169203258D01*
X154481440Y-169202476D01*
X154533741Y-169210793D01*
G36*
X153552352Y-169205433D02*
G01*
X153580999Y-169207946D01*
X153604740Y-169212804D01*
X153628160Y-169220673D01*
X153630273Y-169221499D01*
X153676937Y-169246858D01*
X153718313Y-169282779D01*
X153750592Y-169325787D01*
X153756403Y-169336463D01*
X153764001Y-169351949D01*
X153770577Y-169366987D01*
X153776218Y-169382698D01*
X153781010Y-169400203D01*
X153785038Y-169420626D01*
X153788389Y-169445086D01*
X153791150Y-169474707D01*
X153793406Y-169510610D01*
X153795244Y-169553917D01*
X153796750Y-169605749D01*
X153798010Y-169667228D01*
X153799110Y-169739476D01*
X153800138Y-169823615D01*
X153801156Y-169918591D01*
X153805774Y-170364855D01*
X153641716Y-170364855D01*
X153639701Y-169922119D01*
X153639289Y-169828332D01*
X153638888Y-169747574D01*
X153638377Y-169678762D01*
X153637634Y-169620816D01*
X153636538Y-169572652D01*
X153634967Y-169533190D01*
X153632800Y-169501347D01*
X153629916Y-169476041D01*
X153626193Y-169456191D01*
X153621509Y-169440714D01*
X153615744Y-169428530D01*
X153608776Y-169418555D01*
X153600482Y-169409709D01*
X153590743Y-169400908D01*
X153580163Y-169391713D01*
X153544239Y-169367515D01*
X153502250Y-169353637D01*
X153452194Y-169349529D01*
X153429624Y-169350487D01*
X153378933Y-169360119D01*
X153336797Y-169380903D01*
X153303668Y-169412435D01*
X153280000Y-169454313D01*
X153268433Y-169493726D01*
X153266428Y-169509847D01*
X153264718Y-169537040D01*
X153263295Y-169575743D01*
X153262152Y-169626392D01*
X153261280Y-169689428D01*
X153260672Y-169765288D01*
X153260319Y-169854410D01*
X153260214Y-169949754D01*
X153260214Y-170364855D01*
X153097936Y-170364855D01*
X153097936Y-169221855D01*
X153260214Y-169221855D01*
X153260214Y-169358673D01*
X153280486Y-169327306D01*
X153320334Y-169277997D01*
X153368883Y-169239635D01*
X153397797Y-169223993D01*
X153418706Y-169214884D01*
X153437115Y-169209111D01*
X153457333Y-169205957D01*
X153483667Y-169204703D01*
X153514214Y-169204596D01*
X153552352Y-169205433D01*
G37*
X153552352Y-169205433D02*
X153580999Y-169207946D01*
X153604740Y-169212804D01*
X153628160Y-169220673D01*
X153630273Y-169221499D01*
X153676937Y-169246858D01*
X153718313Y-169282779D01*
X153750592Y-169325787D01*
X153756403Y-169336463D01*
X153764001Y-169351949D01*
X153770577Y-169366987D01*
X153776218Y-169382698D01*
X153781010Y-169400203D01*
X153785038Y-169420626D01*
X153788389Y-169445086D01*
X153791150Y-169474707D01*
X153793406Y-169510610D01*
X153795244Y-169553917D01*
X153796750Y-169605749D01*
X153798010Y-169667228D01*
X153799110Y-169739476D01*
X153800138Y-169823615D01*
X153801156Y-169918591D01*
X153805774Y-170364855D01*
X153641716Y-170364855D01*
X153639701Y-169922119D01*
X153639289Y-169828332D01*
X153638888Y-169747574D01*
X153638377Y-169678762D01*
X153637634Y-169620816D01*
X153636538Y-169572652D01*
X153634967Y-169533190D01*
X153632800Y-169501347D01*
X153629916Y-169476041D01*
X153626193Y-169456191D01*
X153621509Y-169440714D01*
X153615744Y-169428530D01*
X153608776Y-169418555D01*
X153600482Y-169409709D01*
X153590743Y-169400908D01*
X153580163Y-169391713D01*
X153544239Y-169367515D01*
X153502250Y-169353637D01*
X153452194Y-169349529D01*
X153429624Y-169350487D01*
X153378933Y-169360119D01*
X153336797Y-169380903D01*
X153303668Y-169412435D01*
X153280000Y-169454313D01*
X153268433Y-169493726D01*
X153266428Y-169509847D01*
X153264718Y-169537040D01*
X153263295Y-169575743D01*
X153262152Y-169626392D01*
X153261280Y-169689428D01*
X153260672Y-169765288D01*
X153260319Y-169854410D01*
X153260214Y-169949754D01*
X153260214Y-170364855D01*
X153097936Y-170364855D01*
X153097936Y-169221855D01*
X153260214Y-169221855D01*
X153260214Y-169358673D01*
X153280486Y-169327306D01*
X153320334Y-169277997D01*
X153368883Y-169239635D01*
X153397797Y-169223993D01*
X153418706Y-169214884D01*
X153437115Y-169209111D01*
X153457333Y-169205957D01*
X153483667Y-169204703D01*
X153514214Y-169204596D01*
X153552352Y-169205433D01*
G36*
X152046658Y-168911411D02*
G01*
X151973034Y-168911411D01*
X151930853Y-168912237D01*
X151899582Y-168915244D01*
X151876088Y-168921227D01*
X151857240Y-168930978D01*
X151840117Y-168945088D01*
X151824681Y-168964275D01*
X151813348Y-168989474D01*
X151805694Y-169022604D01*
X151801297Y-169065580D01*
X151799731Y-169120318D01*
X151799714Y-169127886D01*
X151799714Y-169221855D01*
X152046658Y-169221855D01*
X152046658Y-169355911D01*
X151799714Y-169355911D01*
X151799714Y-170364855D01*
X151637436Y-170364855D01*
X151637436Y-169355911D01*
X151517491Y-169355911D01*
X151517491Y-169221855D01*
X151577464Y-169221855D01*
X151604688Y-169221663D01*
X151625655Y-169221150D01*
X151637070Y-169220413D01*
X151638218Y-169220091D01*
X151638743Y-169212828D01*
X151639725Y-169193729D01*
X151641057Y-169165062D01*
X151642634Y-169129089D01*
X151644218Y-169091327D01*
X151646456Y-169042836D01*
X151648859Y-169005818D01*
X151651756Y-168977635D01*
X151655476Y-168955651D01*
X151660347Y-168937228D01*
X151665101Y-168923781D01*
X151690098Y-168877011D01*
X151725803Y-168834959D01*
X151768865Y-168801164D01*
X151794129Y-168787534D01*
X151812630Y-168779532D01*
X151829317Y-168773853D01*
X151847358Y-168770006D01*
X151869919Y-168767499D01*
X151900168Y-168765840D01*
X151941274Y-168764539D01*
X151942589Y-168764504D01*
X152046658Y-168761706D01*
X152046658Y-168911411D01*
G37*
X152046658Y-168911411D02*
X151973034Y-168911411D01*
X151930853Y-168912237D01*
X151899582Y-168915244D01*
X151876088Y-168921227D01*
X151857240Y-168930978D01*
X151840117Y-168945088D01*
X151824681Y-168964275D01*
X151813348Y-168989474D01*
X151805694Y-169022604D01*
X151801297Y-169065580D01*
X151799731Y-169120318D01*
X151799714Y-169127886D01*
X151799714Y-169221855D01*
X152046658Y-169221855D01*
X152046658Y-169355911D01*
X151799714Y-169355911D01*
X151799714Y-170364855D01*
X151637436Y-170364855D01*
X151637436Y-169355911D01*
X151517491Y-169355911D01*
X151517491Y-169221855D01*
X151577464Y-169221855D01*
X151604688Y-169221663D01*
X151625655Y-169221150D01*
X151637070Y-169220413D01*
X151638218Y-169220091D01*
X151638743Y-169212828D01*
X151639725Y-169193729D01*
X151641057Y-169165062D01*
X151642634Y-169129089D01*
X151644218Y-169091327D01*
X151646456Y-169042836D01*
X151648859Y-169005818D01*
X151651756Y-168977635D01*
X151655476Y-168955651D01*
X151660347Y-168937228D01*
X151665101Y-168923781D01*
X151690098Y-168877011D01*
X151725803Y-168834959D01*
X151768865Y-168801164D01*
X151794129Y-168787534D01*
X151812630Y-168779532D01*
X151829317Y-168773853D01*
X151847358Y-168770006D01*
X151869919Y-168767499D01*
X151900168Y-168765840D01*
X151941274Y-168764539D01*
X151942589Y-168764504D01*
X152046658Y-168761706D01*
X152046658Y-168911411D01*
G36*
X157726380Y-169221855D02*
G01*
X157945103Y-169221855D01*
X157945103Y-169370022D01*
X157726380Y-169370022D01*
X157726380Y-169739551D01*
X157726431Y-169823417D01*
X157726606Y-169894344D01*
X157726935Y-169953507D01*
X157727451Y-170002079D01*
X157728184Y-170041232D01*
X157729167Y-170072140D01*
X157730432Y-170095975D01*
X157732009Y-170113912D01*
X157733930Y-170127122D01*
X157736227Y-170136780D01*
X157737149Y-170139604D01*
X157753375Y-170173231D01*
X157775936Y-170197461D01*
X157806565Y-170213266D01*
X157846997Y-170221620D01*
X157886894Y-170223589D01*
X157945103Y-170223744D01*
X157945103Y-170371911D01*
X157872783Y-170371081D01*
X157838000Y-170370165D01*
X157804638Y-170368395D01*
X157777716Y-170366076D01*
X157767801Y-170364732D01*
X157712029Y-170349482D01*
X157665588Y-170323936D01*
X157628039Y-170287688D01*
X157598946Y-170240330D01*
X157580489Y-170190868D01*
X157577846Y-170180425D01*
X157575588Y-170167882D01*
X157573673Y-170152041D01*
X157572062Y-170131705D01*
X157570712Y-170105677D01*
X157569584Y-170072760D01*
X157568638Y-170031758D01*
X157567831Y-169981473D01*
X157567123Y-169920708D01*
X157566474Y-169848266D01*
X157565843Y-169762951D01*
X157565822Y-169759841D01*
X157563144Y-169370022D01*
X157451214Y-169370022D01*
X157451214Y-169221855D01*
X157564103Y-169221855D01*
X157564103Y-168890244D01*
X157726380Y-168890244D01*
X157726380Y-169221855D01*
G37*
X157726380Y-169221855D02*
X157945103Y-169221855D01*
X157945103Y-169370022D01*
X157726380Y-169370022D01*
X157726380Y-169739551D01*
X157726431Y-169823417D01*
X157726606Y-169894344D01*
X157726935Y-169953507D01*
X157727451Y-170002079D01*
X157728184Y-170041232D01*
X157729167Y-170072140D01*
X157730432Y-170095975D01*
X157732009Y-170113912D01*
X157733930Y-170127122D01*
X157736227Y-170136780D01*
X157737149Y-170139604D01*
X157753375Y-170173231D01*
X157775936Y-170197461D01*
X157806565Y-170213266D01*
X157846997Y-170221620D01*
X157886894Y-170223589D01*
X157945103Y-170223744D01*
X157945103Y-170371911D01*
X157872783Y-170371081D01*
X157838000Y-170370165D01*
X157804638Y-170368395D01*
X157777716Y-170366076D01*
X157767801Y-170364732D01*
X157712029Y-170349482D01*
X157665588Y-170323936D01*
X157628039Y-170287688D01*
X157598946Y-170240330D01*
X157580489Y-170190868D01*
X157577846Y-170180425D01*
X157575588Y-170167882D01*
X157573673Y-170152041D01*
X157572062Y-170131705D01*
X157570712Y-170105677D01*
X157569584Y-170072760D01*
X157568638Y-170031758D01*
X157567831Y-169981473D01*
X157567123Y-169920708D01*
X157566474Y-169848266D01*
X157565843Y-169762951D01*
X157565822Y-169759841D01*
X157563144Y-169370022D01*
X157451214Y-169370022D01*
X157451214Y-169221855D01*
X157564103Y-169221855D01*
X157564103Y-168890244D01*
X157726380Y-168890244D01*
X157726380Y-169221855D01*
G36*
X157133714Y-169221855D02*
G01*
X157352436Y-169221855D01*
X157352436Y-169370022D01*
X157133714Y-169370022D01*
X157134023Y-169742202D01*
X157134128Y-169828059D01*
X157134346Y-169900980D01*
X157134764Y-169962142D01*
X157135468Y-170012720D01*
X157136547Y-170053890D01*
X157138085Y-170086827D01*
X157140171Y-170112707D01*
X157142890Y-170132707D01*
X157146330Y-170148002D01*
X157150578Y-170159766D01*
X157155720Y-170169178D01*
X157161844Y-170177411D01*
X157166557Y-170182874D01*
X157193752Y-170204115D01*
X157231005Y-170217488D01*
X157279230Y-170223285D01*
X157294228Y-170223589D01*
X157352436Y-170223744D01*
X157352436Y-170371911D01*
X157280116Y-170371081D01*
X157245414Y-170370173D01*
X157212211Y-170368425D01*
X157185488Y-170366137D01*
X157175637Y-170364804D01*
X157119452Y-170349307D01*
X157072562Y-170323352D01*
X157034861Y-170286818D01*
X157006244Y-170239581D01*
X156986604Y-170181519D01*
X156978368Y-170136137D01*
X156977082Y-170119225D01*
X156975871Y-170089786D01*
X156974763Y-170049404D01*
X156973783Y-169999664D01*
X156972956Y-169942149D01*
X156972310Y-169878444D01*
X156971871Y-169810133D01*
X156971663Y-169738800D01*
X156971654Y-169728091D01*
X156971436Y-169370022D01*
X156858547Y-169370022D01*
X156858547Y-169221855D01*
X156971436Y-169221855D01*
X156971436Y-168890244D01*
X157133714Y-168890244D01*
X157133714Y-169221855D01*
G37*
X157133714Y-169221855D02*
X157352436Y-169221855D01*
X157352436Y-169370022D01*
X157133714Y-169370022D01*
X157134023Y-169742202D01*
X157134128Y-169828059D01*
X157134346Y-169900980D01*
X157134764Y-169962142D01*
X157135468Y-170012720D01*
X157136547Y-170053890D01*
X157138085Y-170086827D01*
X157140171Y-170112707D01*
X157142890Y-170132707D01*
X157146330Y-170148002D01*
X157150578Y-170159766D01*
X157155720Y-170169178D01*
X157161844Y-170177411D01*
X157166557Y-170182874D01*
X157193752Y-170204115D01*
X157231005Y-170217488D01*
X157279230Y-170223285D01*
X157294228Y-170223589D01*
X157352436Y-170223744D01*
X157352436Y-170371911D01*
X157280116Y-170371081D01*
X157245414Y-170370173D01*
X157212211Y-170368425D01*
X157185488Y-170366137D01*
X157175637Y-170364804D01*
X157119452Y-170349307D01*
X157072562Y-170323352D01*
X157034861Y-170286818D01*
X157006244Y-170239581D01*
X156986604Y-170181519D01*
X156978368Y-170136137D01*
X156977082Y-170119225D01*
X156975871Y-170089786D01*
X156974763Y-170049404D01*
X156973783Y-169999664D01*
X156972956Y-169942149D01*
X156972310Y-169878444D01*
X156971871Y-169810133D01*
X156971663Y-169738800D01*
X156971654Y-169728091D01*
X156971436Y-169370022D01*
X156858547Y-169370022D01*
X156858547Y-169221855D01*
X156971436Y-169221855D01*
X156971436Y-168890244D01*
X157133714Y-168890244D01*
X157133714Y-169221855D01*
G36*
X155618403Y-169054286D02*
G01*
X155620297Y-169218327D01*
X155835491Y-169222223D01*
X155835491Y-169370022D01*
X155615878Y-169370022D01*
X155618088Y-169745730D01*
X155620297Y-170121438D01*
X155636673Y-170154686D01*
X155653150Y-170181718D01*
X155673334Y-170200697D01*
X155699916Y-170212993D01*
X155735591Y-170219980D01*
X155769965Y-170222561D01*
X155835491Y-170225427D01*
X155835491Y-170371911D01*
X155763172Y-170371319D01*
X155727391Y-170370180D01*
X155692057Y-170367623D01*
X155662654Y-170364100D01*
X155652047Y-170362153D01*
X155624339Y-170354705D01*
X155597546Y-170345415D01*
X155586663Y-170340717D01*
X155554049Y-170318596D01*
X155523266Y-170286223D01*
X155497401Y-170247399D01*
X155481091Y-170210715D01*
X155477694Y-170200371D01*
X155474812Y-170190235D01*
X155472395Y-170179089D01*
X155470395Y-170165715D01*
X155468761Y-170148895D01*
X155467446Y-170127411D01*
X155466398Y-170100046D01*
X155465569Y-170065580D01*
X155464910Y-170022797D01*
X155464371Y-169970478D01*
X155463903Y-169907405D01*
X155463457Y-169832360D01*
X155463103Y-169766897D01*
X155460993Y-169370022D01*
X155341603Y-169370022D01*
X155341603Y-169221855D01*
X155461547Y-169221855D01*
X155461547Y-168890244D01*
X155616509Y-168890244D01*
X155618403Y-169054286D01*
G37*
X155618403Y-169054286D02*
X155620297Y-169218327D01*
X155835491Y-169222223D01*
X155835491Y-169370022D01*
X155615878Y-169370022D01*
X155618088Y-169745730D01*
X155620297Y-170121438D01*
X155636673Y-170154686D01*
X155653150Y-170181718D01*
X155673334Y-170200697D01*
X155699916Y-170212993D01*
X155735591Y-170219980D01*
X155769965Y-170222561D01*
X155835491Y-170225427D01*
X155835491Y-170371911D01*
X155763172Y-170371319D01*
X155727391Y-170370180D01*
X155692057Y-170367623D01*
X155662654Y-170364100D01*
X155652047Y-170362153D01*
X155624339Y-170354705D01*
X155597546Y-170345415D01*
X155586663Y-170340717D01*
X155554049Y-170318596D01*
X155523266Y-170286223D01*
X155497401Y-170247399D01*
X155481091Y-170210715D01*
X155477694Y-170200371D01*
X155474812Y-170190235D01*
X155472395Y-170179089D01*
X155470395Y-170165715D01*
X155468761Y-170148895D01*
X155467446Y-170127411D01*
X155466398Y-170100046D01*
X155465569Y-170065580D01*
X155464910Y-170022797D01*
X155464371Y-169970478D01*
X155463903Y-169907405D01*
X155463457Y-169832360D01*
X155463103Y-169766897D01*
X155460993Y-169370022D01*
X155341603Y-169370022D01*
X155341603Y-169221855D01*
X155461547Y-169221855D01*
X155461547Y-168890244D01*
X155616509Y-168890244D01*
X155618403Y-169054286D01*
G36*
X162721938Y-168751424D02*
G01*
X162761583Y-168756261D01*
X162779533Y-168760013D01*
X162842083Y-168782992D01*
X162896421Y-168817154D01*
X162941769Y-168861688D01*
X162977351Y-168915783D01*
X163002389Y-168978628D01*
X163007410Y-168997706D01*
X163009433Y-169008213D01*
X163011187Y-169022022D01*
X163012689Y-169040109D01*
X163013957Y-169063451D01*
X163015009Y-169093025D01*
X163015863Y-169129807D01*
X163016538Y-169174773D01*
X163017050Y-169228900D01*
X163017418Y-169293164D01*
X163017660Y-169368541D01*
X163017794Y-169456009D01*
X163017838Y-169556543D01*
X163017838Y-169564050D01*
X163017825Y-169666992D01*
X163017745Y-169756855D01*
X163017534Y-169834668D01*
X163017131Y-169901464D01*
X163016473Y-169958272D01*
X163015497Y-170006124D01*
X163014142Y-170046051D01*
X163012345Y-170079084D01*
X163010043Y-170106253D01*
X163007175Y-170128591D01*
X163003677Y-170147127D01*
X162999487Y-170162893D01*
X162994544Y-170176920D01*
X162988784Y-170190238D01*
X162982144Y-170203880D01*
X162978698Y-170210705D01*
X162944991Y-170261969D01*
X162900361Y-170305694D01*
X162846571Y-170340521D01*
X162785384Y-170365094D01*
X162774337Y-170368163D01*
X162740822Y-170374065D01*
X162698567Y-170377430D01*
X162652420Y-170378260D01*
X162607229Y-170376556D01*
X162567840Y-170372321D01*
X162547191Y-170368089D01*
X162483377Y-170344908D01*
X162429446Y-170312085D01*
X162384677Y-170268953D01*
X162348347Y-170214848D01*
X162324871Y-170163208D01*
X162308964Y-170121438D01*
X162308964Y-169567577D01*
X162308977Y-169465796D01*
X162309034Y-169377141D01*
X162309111Y-169327935D01*
X162461506Y-169327935D01*
X162461534Y-169404590D01*
X162461783Y-169493331D01*
X162462197Y-169592272D01*
X162462657Y-169687717D01*
X162463120Y-169770090D01*
X162463614Y-169840434D01*
X162464170Y-169899786D01*
X162464815Y-169949188D01*
X162465581Y-169989680D01*
X162466495Y-170022302D01*
X162467588Y-170048094D01*
X162468889Y-170068096D01*
X162470427Y-170083348D01*
X162472232Y-170094891D01*
X162474333Y-170103765D01*
X162476759Y-170111010D01*
X162476851Y-170111250D01*
X162500964Y-170157301D01*
X162533448Y-170192085D01*
X162574487Y-170215721D01*
X162624264Y-170228326D01*
X162661741Y-170230662D01*
X162696160Y-170229540D01*
X162722272Y-170225487D01*
X162745754Y-170217471D01*
X162753464Y-170213984D01*
X162791559Y-170190869D01*
X162820571Y-170160601D01*
X162843044Y-170121438D01*
X162859297Y-170086161D01*
X162859297Y-169041938D01*
X162842578Y-169004956D01*
X162818212Y-168965591D01*
X162784779Y-168931898D01*
X162746413Y-168908006D01*
X162744801Y-168907298D01*
X162717919Y-168900012D01*
X162682773Y-168896258D01*
X162644711Y-168896043D01*
X162609081Y-168899371D01*
X162581230Y-168906249D01*
X162579101Y-168907123D01*
X162544723Y-168927261D01*
X162513550Y-168954984D01*
X162490668Y-168985673D01*
X162488852Y-168989076D01*
X162483441Y-169000480D01*
X162478751Y-169012686D01*
X162474736Y-169026722D01*
X162471352Y-169043612D01*
X162468552Y-169064382D01*
X162466293Y-169090059D01*
X162464528Y-169121667D01*
X162463212Y-169160233D01*
X162462300Y-169206783D01*
X162461747Y-169262341D01*
X162461506Y-169327935D01*
X162309111Y-169327935D01*
X162309154Y-169300626D01*
X162309362Y-169235268D01*
X162309678Y-169180080D01*
X162310125Y-169134078D01*
X162310725Y-169096277D01*
X162311501Y-169065691D01*
X162312474Y-169041336D01*
X162313666Y-169022226D01*
X162315099Y-169007377D01*
X162316797Y-168995803D01*
X162318780Y-168986519D01*
X162321071Y-168978540D01*
X162322278Y-168974911D01*
X162339318Y-168930576D01*
X162357711Y-168895259D01*
X162380359Y-168863948D01*
X162398138Y-168844006D01*
X162438579Y-168809625D01*
X162488125Y-168780808D01*
X162542080Y-168760167D01*
X162554908Y-168756782D01*
X162588134Y-168751595D01*
X162630314Y-168749021D01*
X162676549Y-168748987D01*
X162721938Y-168751424D01*
G37*
X162721938Y-168751424D02*
X162761583Y-168756261D01*
X162779533Y-168760013D01*
X162842083Y-168782992D01*
X162896421Y-168817154D01*
X162941769Y-168861688D01*
X162977351Y-168915783D01*
X163002389Y-168978628D01*
X163007410Y-168997706D01*
X163009433Y-169008213D01*
X163011187Y-169022022D01*
X163012689Y-169040109D01*
X163013957Y-169063451D01*
X163015009Y-169093025D01*
X163015863Y-169129807D01*
X163016538Y-169174773D01*
X163017050Y-169228900D01*
X163017418Y-169293164D01*
X163017660Y-169368541D01*
X163017794Y-169456009D01*
X163017838Y-169556543D01*
X163017838Y-169564050D01*
X163017825Y-169666992D01*
X163017745Y-169756855D01*
X163017534Y-169834668D01*
X163017131Y-169901464D01*
X163016473Y-169958272D01*
X163015497Y-170006124D01*
X163014142Y-170046051D01*
X163012345Y-170079084D01*
X163010043Y-170106253D01*
X163007175Y-170128591D01*
X163003677Y-170147127D01*
X162999487Y-170162893D01*
X162994544Y-170176920D01*
X162988784Y-170190238D01*
X162982144Y-170203880D01*
X162978698Y-170210705D01*
X162944991Y-170261969D01*
X162900361Y-170305694D01*
X162846571Y-170340521D01*
X162785384Y-170365094D01*
X162774337Y-170368163D01*
X162740822Y-170374065D01*
X162698567Y-170377430D01*
X162652420Y-170378260D01*
X162607229Y-170376556D01*
X162567840Y-170372321D01*
X162547191Y-170368089D01*
X162483377Y-170344908D01*
X162429446Y-170312085D01*
X162384677Y-170268953D01*
X162348347Y-170214848D01*
X162324871Y-170163208D01*
X162308964Y-170121438D01*
X162308964Y-169567577D01*
X162308977Y-169465796D01*
X162309034Y-169377141D01*
X162309111Y-169327935D01*
X162461506Y-169327935D01*
X162461534Y-169404590D01*
X162461783Y-169493331D01*
X162462197Y-169592272D01*
X162462657Y-169687717D01*
X162463120Y-169770090D01*
X162463614Y-169840434D01*
X162464170Y-169899786D01*
X162464815Y-169949188D01*
X162465581Y-169989680D01*
X162466495Y-170022302D01*
X162467588Y-170048094D01*
X162468889Y-170068096D01*
X162470427Y-170083348D01*
X162472232Y-170094891D01*
X162474333Y-170103765D01*
X162476759Y-170111010D01*
X162476851Y-170111250D01*
X162500964Y-170157301D01*
X162533448Y-170192085D01*
X162574487Y-170215721D01*
X162624264Y-170228326D01*
X162661741Y-170230662D01*
X162696160Y-170229540D01*
X162722272Y-170225487D01*
X162745754Y-170217471D01*
X162753464Y-170213984D01*
X162791559Y-170190869D01*
X162820571Y-170160601D01*
X162843044Y-170121438D01*
X162859297Y-170086161D01*
X162859297Y-169041938D01*
X162842578Y-169004956D01*
X162818212Y-168965591D01*
X162784779Y-168931898D01*
X162746413Y-168908006D01*
X162744801Y-168907298D01*
X162717919Y-168900012D01*
X162682773Y-168896258D01*
X162644711Y-168896043D01*
X162609081Y-168899371D01*
X162581230Y-168906249D01*
X162579101Y-168907123D01*
X162544723Y-168927261D01*
X162513550Y-168954984D01*
X162490668Y-168985673D01*
X162488852Y-168989076D01*
X162483441Y-169000480D01*
X162478751Y-169012686D01*
X162474736Y-169026722D01*
X162471352Y-169043612D01*
X162468552Y-169064382D01*
X162466293Y-169090059D01*
X162464528Y-169121667D01*
X162463212Y-169160233D01*
X162462300Y-169206783D01*
X162461747Y-169262341D01*
X162461506Y-169327935D01*
X162309111Y-169327935D01*
X162309154Y-169300626D01*
X162309362Y-169235268D01*
X162309678Y-169180080D01*
X162310125Y-169134078D01*
X162310725Y-169096277D01*
X162311501Y-169065691D01*
X162312474Y-169041336D01*
X162313666Y-169022226D01*
X162315099Y-169007377D01*
X162316797Y-168995803D01*
X162318780Y-168986519D01*
X162321071Y-168978540D01*
X162322278Y-168974911D01*
X162339318Y-168930576D01*
X162357711Y-168895259D01*
X162380359Y-168863948D01*
X162398138Y-168844006D01*
X162438579Y-168809625D01*
X162488125Y-168780808D01*
X162542080Y-168760167D01*
X162554908Y-168756782D01*
X162588134Y-168751595D01*
X162630314Y-168749021D01*
X162676549Y-168748987D01*
X162721938Y-168751424D01*
G36*
X160888429Y-168751622D02*
G01*
X160943736Y-168760894D01*
X160991588Y-168777453D01*
X161034794Y-168802286D01*
X161076161Y-168836377D01*
X161078057Y-168838176D01*
X161118200Y-168885188D01*
X161148166Y-168940449D01*
X161165908Y-168993474D01*
X161168160Y-169009400D01*
X161170173Y-169038035D01*
X161171948Y-169077978D01*
X161173484Y-169127830D01*
X161174782Y-169186190D01*
X161175842Y-169251659D01*
X161176665Y-169322835D01*
X161177251Y-169398319D01*
X161177600Y-169476711D01*
X161177713Y-169556610D01*
X161177588Y-169636617D01*
X161177228Y-169715330D01*
X161176632Y-169791350D01*
X161175801Y-169863277D01*
X161174734Y-169929711D01*
X161173433Y-169989251D01*
X161171896Y-170040497D01*
X161170125Y-170082048D01*
X161168120Y-170112506D01*
X161165882Y-170130469D01*
X161165683Y-170131365D01*
X161143780Y-170196178D01*
X161110946Y-170252209D01*
X161067667Y-170298962D01*
X161014432Y-170335945D01*
X160951728Y-170362664D01*
X160931393Y-170368539D01*
X160898304Y-170374295D01*
X160856283Y-170377513D01*
X160810215Y-170378209D01*
X160764987Y-170376397D01*
X160725486Y-170372094D01*
X160704617Y-170367815D01*
X160647169Y-170346308D01*
X160594466Y-170314868D01*
X160549223Y-170275580D01*
X160514158Y-170230530D01*
X160505266Y-170214722D01*
X160496505Y-170194003D01*
X160486723Y-170165510D01*
X160477970Y-170135241D01*
X160477612Y-170133850D01*
X160475013Y-170123087D01*
X160472765Y-170111856D01*
X160470843Y-170099102D01*
X160469220Y-170083770D01*
X160467873Y-170064803D01*
X160466775Y-170041148D01*
X160465901Y-170011748D01*
X160465226Y-169975548D01*
X160464725Y-169931493D01*
X160464372Y-169878527D01*
X160464142Y-169815596D01*
X160464010Y-169741644D01*
X160463949Y-169655615D01*
X160463936Y-169564050D01*
X160463950Y-169465954D01*
X160464011Y-169380912D01*
X160464145Y-169307866D01*
X160464376Y-169245758D01*
X160464732Y-169193531D01*
X160465237Y-169150127D01*
X160465918Y-169114489D01*
X160466800Y-169085558D01*
X160467910Y-169062277D01*
X160468878Y-169048994D01*
X160622686Y-169048994D01*
X160622686Y-169560522D01*
X160622706Y-169658456D01*
X160622784Y-169743300D01*
X160622941Y-169816072D01*
X160623201Y-169877792D01*
X160623586Y-169929481D01*
X160624121Y-169972158D01*
X160624829Y-170006843D01*
X160625731Y-170034556D01*
X160626852Y-170056317D01*
X160628215Y-170073146D01*
X160629843Y-170086062D01*
X160631758Y-170096086D01*
X160633984Y-170104237D01*
X160635088Y-170107551D01*
X160657615Y-170154090D01*
X160688860Y-170189579D01*
X160728909Y-170214076D01*
X160777846Y-170227635D01*
X160820241Y-170230662D01*
X160854660Y-170229540D01*
X160880772Y-170225487D01*
X160904254Y-170217471D01*
X160911964Y-170213984D01*
X160950059Y-170190869D01*
X160979071Y-170160601D01*
X161001544Y-170121438D01*
X161017797Y-170086161D01*
X161017797Y-169041938D01*
X161001123Y-169005059D01*
X160980600Y-168970812D01*
X160952898Y-168939800D01*
X160921872Y-168915793D01*
X160898177Y-168904462D01*
X160864378Y-168897487D01*
X160823700Y-168895208D01*
X160782585Y-168897658D01*
X160751379Y-168903690D01*
X160711402Y-168922001D01*
X160676029Y-168951432D01*
X160648378Y-168989068D01*
X160638982Y-169008653D01*
X160622686Y-169048994D01*
X160468878Y-169048994D01*
X160469273Y-169043589D01*
X160470916Y-169028436D01*
X160472863Y-169015760D01*
X160475141Y-169004505D01*
X160477776Y-168993611D01*
X160477893Y-168993152D01*
X160496421Y-168935771D01*
X160520726Y-168888609D01*
X160552692Y-168848319D01*
X160567722Y-168833674D01*
X160611500Y-168799413D01*
X160658536Y-168774646D01*
X160711339Y-168758535D01*
X160772414Y-168750246D01*
X160822859Y-168748652D01*
X160888429Y-168751622D01*
G37*
X160888429Y-168751622D02*
X160943736Y-168760894D01*
X160991588Y-168777453D01*
X161034794Y-168802286D01*
X161076161Y-168836377D01*
X161078057Y-168838176D01*
X161118200Y-168885188D01*
X161148166Y-168940449D01*
X161165908Y-168993474D01*
X161168160Y-169009400D01*
X161170173Y-169038035D01*
X161171948Y-169077978D01*
X161173484Y-169127830D01*
X161174782Y-169186190D01*
X161175842Y-169251659D01*
X161176665Y-169322835D01*
X161177251Y-169398319D01*
X161177600Y-169476711D01*
X161177713Y-169556610D01*
X161177588Y-169636617D01*
X161177228Y-169715330D01*
X161176632Y-169791350D01*
X161175801Y-169863277D01*
X161174734Y-169929711D01*
X161173433Y-169989251D01*
X161171896Y-170040497D01*
X161170125Y-170082048D01*
X161168120Y-170112506D01*
X161165882Y-170130469D01*
X161165683Y-170131365D01*
X161143780Y-170196178D01*
X161110946Y-170252209D01*
X161067667Y-170298962D01*
X161014432Y-170335945D01*
X160951728Y-170362664D01*
X160931393Y-170368539D01*
X160898304Y-170374295D01*
X160856283Y-170377513D01*
X160810215Y-170378209D01*
X160764987Y-170376397D01*
X160725486Y-170372094D01*
X160704617Y-170367815D01*
X160647169Y-170346308D01*
X160594466Y-170314868D01*
X160549223Y-170275580D01*
X160514158Y-170230530D01*
X160505266Y-170214722D01*
X160496505Y-170194003D01*
X160486723Y-170165510D01*
X160477970Y-170135241D01*
X160477612Y-170133850D01*
X160475013Y-170123087D01*
X160472765Y-170111856D01*
X160470843Y-170099102D01*
X160469220Y-170083770D01*
X160467873Y-170064803D01*
X160466775Y-170041148D01*
X160465901Y-170011748D01*
X160465226Y-169975548D01*
X160464725Y-169931493D01*
X160464372Y-169878527D01*
X160464142Y-169815596D01*
X160464010Y-169741644D01*
X160463949Y-169655615D01*
X160463936Y-169564050D01*
X160463950Y-169465954D01*
X160464011Y-169380912D01*
X160464145Y-169307866D01*
X160464376Y-169245758D01*
X160464732Y-169193531D01*
X160465237Y-169150127D01*
X160465918Y-169114489D01*
X160466800Y-169085558D01*
X160467910Y-169062277D01*
X160468878Y-169048994D01*
X160622686Y-169048994D01*
X160622686Y-169560522D01*
X160622706Y-169658456D01*
X160622784Y-169743300D01*
X160622941Y-169816072D01*
X160623201Y-169877792D01*
X160623586Y-169929481D01*
X160624121Y-169972158D01*
X160624829Y-170006843D01*
X160625731Y-170034556D01*
X160626852Y-170056317D01*
X160628215Y-170073146D01*
X160629843Y-170086062D01*
X160631758Y-170096086D01*
X160633984Y-170104237D01*
X160635088Y-170107551D01*
X160657615Y-170154090D01*
X160688860Y-170189579D01*
X160728909Y-170214076D01*
X160777846Y-170227635D01*
X160820241Y-170230662D01*
X160854660Y-170229540D01*
X160880772Y-170225487D01*
X160904254Y-170217471D01*
X160911964Y-170213984D01*
X160950059Y-170190869D01*
X160979071Y-170160601D01*
X161001544Y-170121438D01*
X161017797Y-170086161D01*
X161017797Y-169041938D01*
X161001123Y-169005059D01*
X160980600Y-168970812D01*
X160952898Y-168939800D01*
X160921872Y-168915793D01*
X160898177Y-168904462D01*
X160864378Y-168897487D01*
X160823700Y-168895208D01*
X160782585Y-168897658D01*
X160751379Y-168903690D01*
X160711402Y-168922001D01*
X160676029Y-168951432D01*
X160648378Y-168989068D01*
X160638982Y-169008653D01*
X160622686Y-169048994D01*
X160468878Y-169048994D01*
X160469273Y-169043589D01*
X160470916Y-169028436D01*
X160472863Y-169015760D01*
X160475141Y-169004505D01*
X160477776Y-168993611D01*
X160477893Y-168993152D01*
X160496421Y-168935771D01*
X160520726Y-168888609D01*
X160552692Y-168848319D01*
X160567722Y-168833674D01*
X160611500Y-168799413D01*
X160658536Y-168774646D01*
X160711339Y-168758535D01*
X160772414Y-168750246D01*
X160822859Y-168748652D01*
X160888429Y-168751622D01*
G36*
X156181214Y-169654491D02*
G01*
X156181235Y-169748438D01*
X156181357Y-169829356D01*
X156181664Y-169898327D01*
X156182241Y-169956434D01*
X156183172Y-170004759D01*
X156184541Y-170044384D01*
X156186435Y-170076391D01*
X156188936Y-170101862D01*
X156192131Y-170121880D01*
X156196103Y-170137527D01*
X156200938Y-170149885D01*
X156206721Y-170160036D01*
X156213535Y-170169063D01*
X156221465Y-170178047D01*
X156222257Y-170178914D01*
X156244976Y-170200184D01*
X156269493Y-170214616D01*
X156299409Y-170223573D01*
X156338319Y-170228415D01*
X156355813Y-170229441D01*
X156387945Y-170230549D01*
X156410605Y-170229826D01*
X156428389Y-170226567D01*
X156445892Y-170220067D01*
X156459892Y-170213478D01*
X156487807Y-170197039D01*
X156507464Y-170177544D01*
X156518126Y-170161484D01*
X156537519Y-170128494D01*
X156539482Y-169675175D01*
X156541445Y-169221855D01*
X156703325Y-169221855D01*
X156703325Y-170364855D01*
X156541618Y-170364855D01*
X156539568Y-170307780D01*
X156537519Y-170250705D01*
X156515335Y-170282233D01*
X156480256Y-170320422D01*
X156435622Y-170350434D01*
X156393165Y-170367645D01*
X156357234Y-170374737D01*
X156314069Y-170377955D01*
X156269407Y-170377288D01*
X156228988Y-170372728D01*
X156208470Y-170367911D01*
X156157024Y-170344868D01*
X156112602Y-170309674D01*
X156075399Y-170262522D01*
X156045868Y-170204254D01*
X156029519Y-170163772D01*
X156027473Y-169692813D01*
X156025427Y-169221855D01*
X156181214Y-169221855D01*
X156181214Y-169654491D01*
G37*
X156181214Y-169654491D02*
X156181235Y-169748438D01*
X156181357Y-169829356D01*
X156181664Y-169898327D01*
X156182241Y-169956434D01*
X156183172Y-170004759D01*
X156184541Y-170044384D01*
X156186435Y-170076391D01*
X156188936Y-170101862D01*
X156192131Y-170121880D01*
X156196103Y-170137527D01*
X156200938Y-170149885D01*
X156206721Y-170160036D01*
X156213535Y-170169063D01*
X156221465Y-170178047D01*
X156222257Y-170178914D01*
X156244976Y-170200184D01*
X156269493Y-170214616D01*
X156299409Y-170223573D01*
X156338319Y-170228415D01*
X156355813Y-170229441D01*
X156387945Y-170230549D01*
X156410605Y-170229826D01*
X156428389Y-170226567D01*
X156445892Y-170220067D01*
X156459892Y-170213478D01*
X156487807Y-170197039D01*
X156507464Y-170177544D01*
X156518126Y-170161484D01*
X156537519Y-170128494D01*
X156539482Y-169675175D01*
X156541445Y-169221855D01*
X156703325Y-169221855D01*
X156703325Y-170364855D01*
X156541618Y-170364855D01*
X156539568Y-170307780D01*
X156537519Y-170250705D01*
X156515335Y-170282233D01*
X156480256Y-170320422D01*
X156435622Y-170350434D01*
X156393165Y-170367645D01*
X156357234Y-170374737D01*
X156314069Y-170377955D01*
X156269407Y-170377288D01*
X156228988Y-170372728D01*
X156208470Y-170367911D01*
X156157024Y-170344868D01*
X156112602Y-170309674D01*
X156075399Y-170262522D01*
X156045868Y-170204254D01*
X156029519Y-170163772D01*
X156027473Y-169692813D01*
X156025427Y-169221855D01*
X156181214Y-169221855D01*
X156181214Y-169654491D01*
G36*
X152617357Y-169212302D02*
G01*
X152680532Y-169231194D01*
X152734164Y-169260064D01*
X152778819Y-169299285D01*
X152815062Y-169349230D01*
X152838519Y-169397501D01*
X152841700Y-169405535D01*
X152844434Y-169413468D01*
X152846759Y-169422389D01*
X152848714Y-169433391D01*
X152850339Y-169447563D01*
X152851673Y-169465995D01*
X152852755Y-169489779D01*
X152853624Y-169520004D01*
X152854319Y-169557762D01*
X152854880Y-169604142D01*
X152855344Y-169660235D01*
X152855752Y-169727132D01*
X152856143Y-169805923D01*
X152856555Y-169897698D01*
X152856569Y-169900952D01*
X152858619Y-170364855D01*
X152709880Y-170364855D01*
X152709880Y-170263960D01*
X152689011Y-170292769D01*
X152658447Y-170324159D01*
X152617383Y-170350029D01*
X152568981Y-170368405D01*
X152567104Y-170368912D01*
X152537459Y-170374112D01*
X152498978Y-170377129D01*
X152456438Y-170377964D01*
X152414616Y-170376616D01*
X152378288Y-170373087D01*
X152357103Y-170368893D01*
X152302061Y-170347761D01*
X152256719Y-170317400D01*
X152220848Y-170277434D01*
X152194222Y-170227487D01*
X152176612Y-170167183D01*
X152167792Y-170096146D01*
X152166603Y-170054057D01*
X152166924Y-170047355D01*
X152312143Y-170047355D01*
X152314614Y-170106326D01*
X152323795Y-170154041D01*
X152340226Y-170191937D01*
X152364446Y-170221448D01*
X152382963Y-170235740D01*
X152417477Y-170251484D01*
X152460318Y-170260694D01*
X152507217Y-170263198D01*
X152553906Y-170258825D01*
X152596116Y-170247403D01*
X152602954Y-170244566D01*
X152640772Y-170222982D01*
X152668787Y-170194663D01*
X152689880Y-170157651D01*
X152695119Y-170145224D01*
X152699147Y-170132799D01*
X152702160Y-170118282D01*
X152704354Y-170099580D01*
X152705923Y-170074601D01*
X152707063Y-170041253D01*
X152707969Y-169997443D01*
X152708606Y-169956839D01*
X152711029Y-169792240D01*
X152578163Y-169794562D01*
X152531667Y-169795437D01*
X152496919Y-169796414D01*
X152471556Y-169797802D01*
X152453217Y-169799914D01*
X152439539Y-169803061D01*
X152428160Y-169807552D01*
X152416719Y-169813701D01*
X152412022Y-169816443D01*
X152375575Y-169844148D01*
X152347835Y-169879835D01*
X152328334Y-169924592D01*
X152316600Y-169979504D01*
X152312163Y-170045660D01*
X152312143Y-170047355D01*
X152166924Y-170047355D01*
X152170297Y-169977060D01*
X152181690Y-169910708D01*
X152201243Y-169853528D01*
X152229422Y-169804050D01*
X152255282Y-169772400D01*
X152281450Y-169746997D01*
X152308698Y-169726597D01*
X152339005Y-169710600D01*
X152374349Y-169698410D01*
X152416710Y-169689427D01*
X152468066Y-169683054D01*
X152530397Y-169678691D01*
X152571188Y-169676891D01*
X152711113Y-169671644D01*
X152708614Y-169564930D01*
X152707387Y-169522263D01*
X152705774Y-169490981D01*
X152703421Y-169468360D01*
X152699971Y-169451673D01*
X152695070Y-169438196D01*
X152691005Y-169429994D01*
X152663900Y-169390815D01*
X152629830Y-169362701D01*
X152587407Y-169344835D01*
X152535243Y-169336401D01*
X152531609Y-169336167D01*
X152484317Y-169336541D01*
X152446340Y-169344689D01*
X152414554Y-169361725D01*
X152386696Y-169387777D01*
X152359087Y-169428842D01*
X152344966Y-169473865D01*
X152342991Y-169499604D01*
X152342991Y-169525244D01*
X152187769Y-169525244D01*
X152187873Y-169498786D01*
X152189603Y-169477498D01*
X152193978Y-169449496D01*
X152198644Y-169427077D01*
X152219532Y-169366278D01*
X152251061Y-169314346D01*
X152292554Y-169271720D01*
X152343336Y-169238838D01*
X152402730Y-169216140D01*
X152470060Y-169204064D01*
X152544075Y-169203014D01*
X152617357Y-169212302D01*
G37*
X152617357Y-169212302D02*
X152680532Y-169231194D01*
X152734164Y-169260064D01*
X152778819Y-169299285D01*
X152815062Y-169349230D01*
X152838519Y-169397501D01*
X152841700Y-169405535D01*
X152844434Y-169413468D01*
X152846759Y-169422389D01*
X152848714Y-169433391D01*
X152850339Y-169447563D01*
X152851673Y-169465995D01*
X152852755Y-169489779D01*
X152853624Y-169520004D01*
X152854319Y-169557762D01*
X152854880Y-169604142D01*
X152855344Y-169660235D01*
X152855752Y-169727132D01*
X152856143Y-169805923D01*
X152856555Y-169897698D01*
X152856569Y-169900952D01*
X152858619Y-170364855D01*
X152709880Y-170364855D01*
X152709880Y-170263960D01*
X152689011Y-170292769D01*
X152658447Y-170324159D01*
X152617383Y-170350029D01*
X152568981Y-170368405D01*
X152567104Y-170368912D01*
X152537459Y-170374112D01*
X152498978Y-170377129D01*
X152456438Y-170377964D01*
X152414616Y-170376616D01*
X152378288Y-170373087D01*
X152357103Y-170368893D01*
X152302061Y-170347761D01*
X152256719Y-170317400D01*
X152220848Y-170277434D01*
X152194222Y-170227487D01*
X152176612Y-170167183D01*
X152167792Y-170096146D01*
X152166603Y-170054057D01*
X152166924Y-170047355D01*
X152312143Y-170047355D01*
X152314614Y-170106326D01*
X152323795Y-170154041D01*
X152340226Y-170191937D01*
X152364446Y-170221448D01*
X152382963Y-170235740D01*
X152417477Y-170251484D01*
X152460318Y-170260694D01*
X152507217Y-170263198D01*
X152553906Y-170258825D01*
X152596116Y-170247403D01*
X152602954Y-170244566D01*
X152640772Y-170222982D01*
X152668787Y-170194663D01*
X152689880Y-170157651D01*
X152695119Y-170145224D01*
X152699147Y-170132799D01*
X152702160Y-170118282D01*
X152704354Y-170099580D01*
X152705923Y-170074601D01*
X152707063Y-170041253D01*
X152707969Y-169997443D01*
X152708606Y-169956839D01*
X152711029Y-169792240D01*
X152578163Y-169794562D01*
X152531667Y-169795437D01*
X152496919Y-169796414D01*
X152471556Y-169797802D01*
X152453217Y-169799914D01*
X152439539Y-169803061D01*
X152428160Y-169807552D01*
X152416719Y-169813701D01*
X152412022Y-169816443D01*
X152375575Y-169844148D01*
X152347835Y-169879835D01*
X152328334Y-169924592D01*
X152316600Y-169979504D01*
X152312163Y-170045660D01*
X152312143Y-170047355D01*
X152166924Y-170047355D01*
X152170297Y-169977060D01*
X152181690Y-169910708D01*
X152201243Y-169853528D01*
X152229422Y-169804050D01*
X152255282Y-169772400D01*
X152281450Y-169746997D01*
X152308698Y-169726597D01*
X152339005Y-169710600D01*
X152374349Y-169698410D01*
X152416710Y-169689427D01*
X152468066Y-169683054D01*
X152530397Y-169678691D01*
X152571188Y-169676891D01*
X152711113Y-169671644D01*
X152708614Y-169564930D01*
X152707387Y-169522263D01*
X152705774Y-169490981D01*
X152703421Y-169468360D01*
X152699971Y-169451673D01*
X152695070Y-169438196D01*
X152691005Y-169429994D01*
X152663900Y-169390815D01*
X152629830Y-169362701D01*
X152587407Y-169344835D01*
X152535243Y-169336401D01*
X152531609Y-169336167D01*
X152484317Y-169336541D01*
X152446340Y-169344689D01*
X152414554Y-169361725D01*
X152386696Y-169387777D01*
X152359087Y-169428842D01*
X152344966Y-169473865D01*
X152342991Y-169499604D01*
X152342991Y-169525244D01*
X152187769Y-169525244D01*
X152187873Y-169498786D01*
X152189603Y-169477498D01*
X152193978Y-169449496D01*
X152198644Y-169427077D01*
X152219532Y-169366278D01*
X152251061Y-169314346D01*
X152292554Y-169271720D01*
X152343336Y-169238838D01*
X152402730Y-169216140D01*
X152470060Y-169204064D01*
X152544075Y-169203014D01*
X152617357Y-169212302D01*
G36*
X150284673Y-169211055D02*
G01*
X150347088Y-169230762D01*
X150402139Y-169261374D01*
X150448408Y-169301848D01*
X150484479Y-169351140D01*
X150490856Y-169362966D01*
X150502396Y-169386571D01*
X150511582Y-169408257D01*
X150518715Y-169430079D01*
X150524097Y-169454093D01*
X150528027Y-169482355D01*
X150530809Y-169516921D01*
X150532742Y-169559846D01*
X150534128Y-169613186D01*
X150535043Y-169664591D01*
X150538105Y-169856855D01*
X150013235Y-169856855D01*
X150016264Y-169975036D01*
X150017808Y-170022818D01*
X150019815Y-170058824D01*
X150022531Y-170085386D01*
X150026205Y-170104836D01*
X150031083Y-170119509D01*
X150031730Y-170120990D01*
X150057847Y-170165999D01*
X150090783Y-170198828D01*
X150131289Y-170219957D01*
X150180115Y-170229867D01*
X150203242Y-170230800D01*
X150238025Y-170228983D01*
X150267837Y-170224056D01*
X150281232Y-170219842D01*
X150319628Y-170196437D01*
X150349960Y-170162679D01*
X150370689Y-170120728D01*
X150379392Y-170082150D01*
X150383512Y-170047355D01*
X150536769Y-170047355D01*
X150536685Y-170084397D01*
X150529968Y-170146131D01*
X150510843Y-170204674D01*
X150480429Y-170257371D01*
X150448419Y-170293822D01*
X150403933Y-170329558D01*
X150356026Y-170354878D01*
X150302247Y-170370632D01*
X150240145Y-170377672D01*
X150205440Y-170378193D01*
X150171862Y-170377199D01*
X150139872Y-170375206D01*
X150114679Y-170372576D01*
X150107624Y-170371417D01*
X150048797Y-170352858D01*
X149995551Y-170322039D01*
X149949010Y-170280087D01*
X149910302Y-170228133D01*
X149880552Y-170167304D01*
X149868849Y-170132022D01*
X149865581Y-170119269D01*
X149862908Y-170105423D01*
X149860771Y-170088985D01*
X149859112Y-170068458D01*
X149857873Y-170042346D01*
X149856996Y-170009151D01*
X149856422Y-169967377D01*
X149856092Y-169915527D01*
X149855949Y-169852103D01*
X149855928Y-169800411D01*
X149856014Y-169722774D01*
X149856372Y-169657681D01*
X149856864Y-169624369D01*
X150014658Y-169624369D01*
X150014658Y-169708688D01*
X150374491Y-169708688D01*
X150374491Y-169611032D01*
X150373566Y-169557802D01*
X150370410Y-169515727D01*
X150364457Y-169481951D01*
X150355137Y-169453617D01*
X150341883Y-169427868D01*
X150336328Y-169419116D01*
X150307535Y-169387647D01*
X150270718Y-169365388D01*
X150228839Y-169352689D01*
X150184858Y-169349900D01*
X150141734Y-169357372D01*
X150102427Y-169375453D01*
X150084303Y-169389323D01*
X150059780Y-169415422D01*
X150041284Y-169445022D01*
X150028175Y-169480286D01*
X150019810Y-169523382D01*
X150015548Y-169576475D01*
X150014658Y-169624369D01*
X149856864Y-169624369D01*
X149857172Y-169603564D01*
X149858584Y-169558855D01*
X149860776Y-169521986D01*
X149863919Y-169491390D01*
X149868182Y-169465500D01*
X149873735Y-169442748D01*
X149880746Y-169421566D01*
X149889386Y-169400387D01*
X149899824Y-169377643D01*
X149902179Y-169372691D01*
X149935422Y-169318548D01*
X149978249Y-169274020D01*
X150029469Y-169239611D01*
X150087889Y-169215824D01*
X150152319Y-169203162D01*
X150221568Y-169202130D01*
X150284673Y-169211055D01*
G37*
X150284673Y-169211055D02*
X150347088Y-169230762D01*
X150402139Y-169261374D01*
X150448408Y-169301848D01*
X150484479Y-169351140D01*
X150490856Y-169362966D01*
X150502396Y-169386571D01*
X150511582Y-169408257D01*
X150518715Y-169430079D01*
X150524097Y-169454093D01*
X150528027Y-169482355D01*
X150530809Y-169516921D01*
X150532742Y-169559846D01*
X150534128Y-169613186D01*
X150535043Y-169664591D01*
X150538105Y-169856855D01*
X150013235Y-169856855D01*
X150016264Y-169975036D01*
X150017808Y-170022818D01*
X150019815Y-170058824D01*
X150022531Y-170085386D01*
X150026205Y-170104836D01*
X150031083Y-170119509D01*
X150031730Y-170120990D01*
X150057847Y-170165999D01*
X150090783Y-170198828D01*
X150131289Y-170219957D01*
X150180115Y-170229867D01*
X150203242Y-170230800D01*
X150238025Y-170228983D01*
X150267837Y-170224056D01*
X150281232Y-170219842D01*
X150319628Y-170196437D01*
X150349960Y-170162679D01*
X150370689Y-170120728D01*
X150379392Y-170082150D01*
X150383512Y-170047355D01*
X150536769Y-170047355D01*
X150536685Y-170084397D01*
X150529968Y-170146131D01*
X150510843Y-170204674D01*
X150480429Y-170257371D01*
X150448419Y-170293822D01*
X150403933Y-170329558D01*
X150356026Y-170354878D01*
X150302247Y-170370632D01*
X150240145Y-170377672D01*
X150205440Y-170378193D01*
X150171862Y-170377199D01*
X150139872Y-170375206D01*
X150114679Y-170372576D01*
X150107624Y-170371417D01*
X150048797Y-170352858D01*
X149995551Y-170322039D01*
X149949010Y-170280087D01*
X149910302Y-170228133D01*
X149880552Y-170167304D01*
X149868849Y-170132022D01*
X149865581Y-170119269D01*
X149862908Y-170105423D01*
X149860771Y-170088985D01*
X149859112Y-170068458D01*
X149857873Y-170042346D01*
X149856996Y-170009151D01*
X149856422Y-169967377D01*
X149856092Y-169915527D01*
X149855949Y-169852103D01*
X149855928Y-169800411D01*
X149856014Y-169722774D01*
X149856372Y-169657681D01*
X149856864Y-169624369D01*
X150014658Y-169624369D01*
X150014658Y-169708688D01*
X150374491Y-169708688D01*
X150374491Y-169611032D01*
X150373566Y-169557802D01*
X150370410Y-169515727D01*
X150364457Y-169481951D01*
X150355137Y-169453617D01*
X150341883Y-169427868D01*
X150336328Y-169419116D01*
X150307535Y-169387647D01*
X150270718Y-169365388D01*
X150228839Y-169352689D01*
X150184858Y-169349900D01*
X150141734Y-169357372D01*
X150102427Y-169375453D01*
X150084303Y-169389323D01*
X150059780Y-169415422D01*
X150041284Y-169445022D01*
X150028175Y-169480286D01*
X150019810Y-169523382D01*
X150015548Y-169576475D01*
X150014658Y-169624369D01*
X149856864Y-169624369D01*
X149857172Y-169603564D01*
X149858584Y-169558855D01*
X149860776Y-169521986D01*
X149863919Y-169491390D01*
X149868182Y-169465500D01*
X149873735Y-169442748D01*
X149880746Y-169421566D01*
X149889386Y-169400387D01*
X149899824Y-169377643D01*
X149902179Y-169372691D01*
X149935422Y-169318548D01*
X149978249Y-169274020D01*
X150029469Y-169239611D01*
X150087889Y-169215824D01*
X150152319Y-169203162D01*
X150221568Y-169202130D01*
X150284673Y-169211055D01*
G36*
X149393424Y-169203209D02*
G01*
X149453470Y-169213492D01*
X149508939Y-169231672D01*
X149557231Y-169257691D01*
X149588346Y-169283486D01*
X149615143Y-169318144D01*
X149638113Y-169362070D01*
X149655046Y-169410514D01*
X149661516Y-169440577D01*
X149666977Y-169474424D01*
X149669091Y-169496703D01*
X149665791Y-169509817D01*
X149655015Y-169516170D01*
X149634697Y-169518164D01*
X149602774Y-169518204D01*
X149594853Y-169518188D01*
X149520769Y-169518188D01*
X149520769Y-169498302D01*
X149514980Y-169456852D01*
X149499008Y-169417461D01*
X149474947Y-169383389D01*
X149444894Y-169357895D01*
X149424038Y-169347780D01*
X149393446Y-169341006D01*
X149356111Y-169338506D01*
X149317160Y-169340078D01*
X149281723Y-169345520D01*
X149255309Y-169354431D01*
X149219014Y-169380720D01*
X149192077Y-169416701D01*
X149175168Y-169460949D01*
X149168954Y-169512039D01*
X149169819Y-169536801D01*
X149177671Y-169580535D01*
X149194347Y-169617136D01*
X149221011Y-169647790D01*
X149258828Y-169673683D01*
X149308962Y-169696002D01*
X149334780Y-169704854D01*
X149401184Y-169726234D01*
X149455626Y-169744292D01*
X149499656Y-169759771D01*
X149534827Y-169773413D01*
X149562690Y-169785960D01*
X149584795Y-169798154D01*
X149602693Y-169810736D01*
X149617937Y-169824450D01*
X149632077Y-169840036D01*
X149641416Y-169851530D01*
X149669625Y-169897454D01*
X149687856Y-169951644D01*
X149696393Y-170015079D01*
X149697158Y-170043607D01*
X149692923Y-170119003D01*
X149679939Y-170183705D01*
X149657786Y-170238412D01*
X149626047Y-170283821D01*
X149584300Y-170320629D01*
X149532128Y-170349534D01*
X149507407Y-170359341D01*
X149485335Y-170365924D01*
X149459884Y-170370526D01*
X149427769Y-170373545D01*
X149385706Y-170375381D01*
X149372603Y-170375717D01*
X149335829Y-170376285D01*
X149302843Y-170376291D01*
X149276888Y-170375769D01*
X149261205Y-170374753D01*
X149259714Y-170374519D01*
X149193880Y-170356380D01*
X149138374Y-170328989D01*
X149092914Y-170292016D01*
X149057215Y-170245134D01*
X149030994Y-170188014D01*
X149013966Y-170120327D01*
X149009018Y-170084397D01*
X149004328Y-170040300D01*
X149151937Y-170040300D01*
X149156686Y-170080869D01*
X149168555Y-170132868D01*
X149190700Y-170175271D01*
X149222841Y-170207845D01*
X149264701Y-170230362D01*
X149315999Y-170242589D01*
X149354964Y-170244911D01*
X149412323Y-170239669D01*
X149460171Y-170224122D01*
X149498234Y-170198540D01*
X149526234Y-170163190D01*
X149543895Y-170118341D01*
X149550943Y-170064263D01*
X149551065Y-170054115D01*
X149549022Y-170016505D01*
X149543482Y-169988500D01*
X149540004Y-169979885D01*
X149518311Y-169948769D01*
X149486769Y-169921288D01*
X149444214Y-169896721D01*
X149389484Y-169874350D01*
X149347908Y-169860964D01*
X149298643Y-169845419D01*
X149250807Y-169828604D01*
X149207470Y-169811716D01*
X149171703Y-169795951D01*
X149146825Y-169782660D01*
X149119065Y-169761095D01*
X149090579Y-169732296D01*
X149065577Y-169701013D01*
X149048267Y-169672000D01*
X149047695Y-169670731D01*
X149030434Y-169617667D01*
X149022184Y-169559450D01*
X149022473Y-169498857D01*
X149030828Y-169438665D01*
X149046778Y-169381650D01*
X149069849Y-169330588D01*
X149099571Y-169288256D01*
X149115439Y-169272397D01*
X149159411Y-169242276D01*
X149211794Y-169220358D01*
X149269989Y-169206581D01*
X149331398Y-169200885D01*
X149393424Y-169203209D01*
G37*
X149393424Y-169203209D02*
X149453470Y-169213492D01*
X149508939Y-169231672D01*
X149557231Y-169257691D01*
X149588346Y-169283486D01*
X149615143Y-169318144D01*
X149638113Y-169362070D01*
X149655046Y-169410514D01*
X149661516Y-169440577D01*
X149666977Y-169474424D01*
X149669091Y-169496703D01*
X149665791Y-169509817D01*
X149655015Y-169516170D01*
X149634697Y-169518164D01*
X149602774Y-169518204D01*
X149594853Y-169518188D01*
X149520769Y-169518188D01*
X149520769Y-169498302D01*
X149514980Y-169456852D01*
X149499008Y-169417461D01*
X149474947Y-169383389D01*
X149444894Y-169357895D01*
X149424038Y-169347780D01*
X149393446Y-169341006D01*
X149356111Y-169338506D01*
X149317160Y-169340078D01*
X149281723Y-169345520D01*
X149255309Y-169354431D01*
X149219014Y-169380720D01*
X149192077Y-169416701D01*
X149175168Y-169460949D01*
X149168954Y-169512039D01*
X149169819Y-169536801D01*
X149177671Y-169580535D01*
X149194347Y-169617136D01*
X149221011Y-169647790D01*
X149258828Y-169673683D01*
X149308962Y-169696002D01*
X149334780Y-169704854D01*
X149401184Y-169726234D01*
X149455626Y-169744292D01*
X149499656Y-169759771D01*
X149534827Y-169773413D01*
X149562690Y-169785960D01*
X149584795Y-169798154D01*
X149602693Y-169810736D01*
X149617937Y-169824450D01*
X149632077Y-169840036D01*
X149641416Y-169851530D01*
X149669625Y-169897454D01*
X149687856Y-169951644D01*
X149696393Y-170015079D01*
X149697158Y-170043607D01*
X149692923Y-170119003D01*
X149679939Y-170183705D01*
X149657786Y-170238412D01*
X149626047Y-170283821D01*
X149584300Y-170320629D01*
X149532128Y-170349534D01*
X149507407Y-170359341D01*
X149485335Y-170365924D01*
X149459884Y-170370526D01*
X149427769Y-170373545D01*
X149385706Y-170375381D01*
X149372603Y-170375717D01*
X149335829Y-170376285D01*
X149302843Y-170376291D01*
X149276888Y-170375769D01*
X149261205Y-170374753D01*
X149259714Y-170374519D01*
X149193880Y-170356380D01*
X149138374Y-170328989D01*
X149092914Y-170292016D01*
X149057215Y-170245134D01*
X149030994Y-170188014D01*
X149013966Y-170120327D01*
X149009018Y-170084397D01*
X149004328Y-170040300D01*
X149151937Y-170040300D01*
X149156686Y-170080869D01*
X149168555Y-170132868D01*
X149190700Y-170175271D01*
X149222841Y-170207845D01*
X149264701Y-170230362D01*
X149315999Y-170242589D01*
X149354964Y-170244911D01*
X149412323Y-170239669D01*
X149460171Y-170224122D01*
X149498234Y-170198540D01*
X149526234Y-170163190D01*
X149543895Y-170118341D01*
X149550943Y-170064263D01*
X149551065Y-170054115D01*
X149549022Y-170016505D01*
X149543482Y-169988500D01*
X149540004Y-169979885D01*
X149518311Y-169948769D01*
X149486769Y-169921288D01*
X149444214Y-169896721D01*
X149389484Y-169874350D01*
X149347908Y-169860964D01*
X149298643Y-169845419D01*
X149250807Y-169828604D01*
X149207470Y-169811716D01*
X149171703Y-169795951D01*
X149146825Y-169782660D01*
X149119065Y-169761095D01*
X149090579Y-169732296D01*
X149065577Y-169701013D01*
X149048267Y-169672000D01*
X149047695Y-169670731D01*
X149030434Y-169617667D01*
X149022184Y-169559450D01*
X149022473Y-169498857D01*
X149030828Y-169438665D01*
X149046778Y-169381650D01*
X149069849Y-169330588D01*
X149099571Y-169288256D01*
X149115439Y-169272397D01*
X149159411Y-169242276D01*
X149211794Y-169220358D01*
X149269989Y-169206581D01*
X149331398Y-169200885D01*
X149393424Y-169203209D01*
G36*
X148586815Y-169206797D02*
G01*
X148651426Y-169223969D01*
X148707723Y-169251795D01*
X148755042Y-169289744D01*
X148792722Y-169337284D01*
X148820101Y-169393882D01*
X148836517Y-169459008D01*
X148836587Y-169459466D01*
X148838772Y-169482293D01*
X148840460Y-169518888D01*
X148841646Y-169568919D01*
X148842327Y-169632051D01*
X148842496Y-169707950D01*
X148842149Y-169796283D01*
X148841961Y-169822827D01*
X148841369Y-169897526D01*
X148840794Y-169959526D01*
X148840164Y-170010240D01*
X148839404Y-170051080D01*
X148838440Y-170083459D01*
X148837200Y-170108787D01*
X148835609Y-170128479D01*
X148833593Y-170143946D01*
X148831080Y-170156600D01*
X148827994Y-170167853D01*
X148824262Y-170179118D01*
X148823198Y-170182164D01*
X148795671Y-170240672D01*
X148757691Y-170290218D01*
X148710164Y-170329852D01*
X148654928Y-170358269D01*
X148622396Y-170367196D01*
X148580467Y-170373500D01*
X148533644Y-170376996D01*
X148486428Y-170377496D01*
X148443323Y-170374815D01*
X148408829Y-170368766D01*
X148407858Y-170368498D01*
X148345268Y-170344687D01*
X148292998Y-170311259D01*
X148251075Y-170268240D01*
X148219524Y-170215656D01*
X148198370Y-170153533D01*
X148198144Y-170152577D01*
X148195219Y-170132636D01*
X148192706Y-170100606D01*
X148190605Y-170058336D01*
X148188916Y-170007675D01*
X148187639Y-169950473D01*
X148187099Y-169911824D01*
X148343205Y-169911824D01*
X148343251Y-169962829D01*
X148343610Y-170003911D01*
X148344322Y-170036464D01*
X148345424Y-170061885D01*
X148346954Y-170081568D01*
X148348952Y-170096909D01*
X148351454Y-170109303D01*
X148353262Y-170116070D01*
X148371377Y-170161034D01*
X148396670Y-170194255D01*
X148430102Y-170216435D01*
X148472634Y-170228275D01*
X148510287Y-170230794D01*
X148544563Y-170228999D01*
X148574151Y-170224144D01*
X148587802Y-170219879D01*
X148622802Y-170199513D01*
X148650199Y-170169760D01*
X148662442Y-170149661D01*
X148665968Y-170142787D01*
X148668901Y-170135576D01*
X148671297Y-170126738D01*
X148673208Y-170114980D01*
X148674690Y-170099010D01*
X148675798Y-170077536D01*
X148676586Y-170049268D01*
X148677108Y-170012912D01*
X148677418Y-169967177D01*
X148677573Y-169910772D01*
X148677625Y-169842404D01*
X148677630Y-169789827D01*
X148677630Y-169458216D01*
X148658040Y-169424890D01*
X148629739Y-169389876D01*
X148592501Y-169365710D01*
X148546605Y-169352555D01*
X148530947Y-169350761D01*
X148478534Y-169352175D01*
X148433767Y-169365196D01*
X148397026Y-169389624D01*
X148368689Y-169425258D01*
X148360717Y-169440577D01*
X148357144Y-169448837D01*
X148354186Y-169457669D01*
X148351775Y-169468456D01*
X148349839Y-169482578D01*
X148348311Y-169501418D01*
X148347120Y-169526357D01*
X148346196Y-169558777D01*
X148345471Y-169600060D01*
X148344874Y-169651586D01*
X148344336Y-169714739D01*
X148343903Y-169774461D01*
X148343435Y-169849500D01*
X148343205Y-169911824D01*
X148187099Y-169911824D01*
X148186774Y-169888577D01*
X148186321Y-169823837D01*
X148186282Y-169758101D01*
X148186654Y-169693219D01*
X148187440Y-169631040D01*
X148188639Y-169573412D01*
X148190251Y-169522184D01*
X148192276Y-169479205D01*
X148194715Y-169446324D01*
X148197567Y-169425390D01*
X148198085Y-169423185D01*
X148220613Y-169362114D01*
X148253660Y-169310118D01*
X148296572Y-169267659D01*
X148348692Y-169235198D01*
X148409364Y-169213196D01*
X148477932Y-169202114D01*
X148514552Y-169200811D01*
X148586815Y-169206797D01*
G37*
X148586815Y-169206797D02*
X148651426Y-169223969D01*
X148707723Y-169251795D01*
X148755042Y-169289744D01*
X148792722Y-169337284D01*
X148820101Y-169393882D01*
X148836517Y-169459008D01*
X148836587Y-169459466D01*
X148838772Y-169482293D01*
X148840460Y-169518888D01*
X148841646Y-169568919D01*
X148842327Y-169632051D01*
X148842496Y-169707950D01*
X148842149Y-169796283D01*
X148841961Y-169822827D01*
X148841369Y-169897526D01*
X148840794Y-169959526D01*
X148840164Y-170010240D01*
X148839404Y-170051080D01*
X148838440Y-170083459D01*
X148837200Y-170108787D01*
X148835609Y-170128479D01*
X148833593Y-170143946D01*
X148831080Y-170156600D01*
X148827994Y-170167853D01*
X148824262Y-170179118D01*
X148823198Y-170182164D01*
X148795671Y-170240672D01*
X148757691Y-170290218D01*
X148710164Y-170329852D01*
X148654928Y-170358269D01*
X148622396Y-170367196D01*
X148580467Y-170373500D01*
X148533644Y-170376996D01*
X148486428Y-170377496D01*
X148443323Y-170374815D01*
X148408829Y-170368766D01*
X148407858Y-170368498D01*
X148345268Y-170344687D01*
X148292998Y-170311259D01*
X148251075Y-170268240D01*
X148219524Y-170215656D01*
X148198370Y-170153533D01*
X148198144Y-170152577D01*
X148195219Y-170132636D01*
X148192706Y-170100606D01*
X148190605Y-170058336D01*
X148188916Y-170007675D01*
X148187639Y-169950473D01*
X148187099Y-169911824D01*
X148343205Y-169911824D01*
X148343251Y-169962829D01*
X148343610Y-170003911D01*
X148344322Y-170036464D01*
X148345424Y-170061885D01*
X148346954Y-170081568D01*
X148348952Y-170096909D01*
X148351454Y-170109303D01*
X148353262Y-170116070D01*
X148371377Y-170161034D01*
X148396670Y-170194255D01*
X148430102Y-170216435D01*
X148472634Y-170228275D01*
X148510287Y-170230794D01*
X148544563Y-170228999D01*
X148574151Y-170224144D01*
X148587802Y-170219879D01*
X148622802Y-170199513D01*
X148650199Y-170169760D01*
X148662442Y-170149661D01*
X148665968Y-170142787D01*
X148668901Y-170135576D01*
X148671297Y-170126738D01*
X148673208Y-170114980D01*
X148674690Y-170099010D01*
X148675798Y-170077536D01*
X148676586Y-170049268D01*
X148677108Y-170012912D01*
X148677418Y-169967177D01*
X148677573Y-169910772D01*
X148677625Y-169842404D01*
X148677630Y-169789827D01*
X148677630Y-169458216D01*
X148658040Y-169424890D01*
X148629739Y-169389876D01*
X148592501Y-169365710D01*
X148546605Y-169352555D01*
X148530947Y-169350761D01*
X148478534Y-169352175D01*
X148433767Y-169365196D01*
X148397026Y-169389624D01*
X148368689Y-169425258D01*
X148360717Y-169440577D01*
X148357144Y-169448837D01*
X148354186Y-169457669D01*
X148351775Y-169468456D01*
X148349839Y-169482578D01*
X148348311Y-169501418D01*
X148347120Y-169526357D01*
X148346196Y-169558777D01*
X148345471Y-169600060D01*
X148344874Y-169651586D01*
X148344336Y-169714739D01*
X148343903Y-169774461D01*
X148343435Y-169849500D01*
X148343205Y-169911824D01*
X148187099Y-169911824D01*
X148186774Y-169888577D01*
X148186321Y-169823837D01*
X148186282Y-169758101D01*
X148186654Y-169693219D01*
X148187440Y-169631040D01*
X148188639Y-169573412D01*
X148190251Y-169522184D01*
X148192276Y-169479205D01*
X148194715Y-169446324D01*
X148197567Y-169425390D01*
X148198085Y-169423185D01*
X148220613Y-169362114D01*
X148253660Y-169310118D01*
X148296572Y-169267659D01*
X148348692Y-169235198D01*
X148409364Y-169213196D01*
X148477932Y-169202114D01*
X148514552Y-169200811D01*
X148586815Y-169206797D01*
G36*
X147712376Y-169202920D02*
G01*
X147784249Y-169213827D01*
X147847903Y-169235586D01*
X147902777Y-169267805D01*
X147948311Y-169310089D01*
X147983946Y-169362046D01*
X148004168Y-169408053D01*
X148010089Y-169429144D01*
X148015817Y-169456712D01*
X148020897Y-169487324D01*
X148024872Y-169517552D01*
X148027286Y-169543962D01*
X148027681Y-169563124D01*
X148025893Y-169571379D01*
X148017907Y-169572739D01*
X147998949Y-169573820D01*
X147972160Y-169574486D01*
X147950706Y-169574633D01*
X147878773Y-169574633D01*
X147873980Y-169527848D01*
X147866287Y-169481482D01*
X147852980Y-169444916D01*
X147832579Y-169414463D01*
X147825314Y-169406445D01*
X147797673Y-169381397D01*
X147769447Y-169365083D01*
X147736643Y-169355993D01*
X147695269Y-169352614D01*
X147682797Y-169352484D01*
X147636661Y-169354978D01*
X147600537Y-169363351D01*
X147571074Y-169378945D01*
X147544924Y-169403099D01*
X147539037Y-169409991D01*
X147529074Y-169422430D01*
X147520772Y-169434343D01*
X147513982Y-169447098D01*
X147508551Y-169462061D01*
X147504329Y-169480600D01*
X147501163Y-169504081D01*
X147498904Y-169533872D01*
X147497399Y-169571340D01*
X147496497Y-169617851D01*
X147496048Y-169674772D01*
X147495899Y-169743471D01*
X147495894Y-169799904D01*
X147495963Y-170100272D01*
X147512599Y-170135550D01*
X147537454Y-170175355D01*
X147569692Y-170204010D01*
X147610287Y-170222073D01*
X147660211Y-170230103D01*
X147678451Y-170230645D01*
X147724081Y-170228537D01*
X147760039Y-170221027D01*
X147790159Y-170206799D01*
X147818275Y-170184535D01*
X147821406Y-170181544D01*
X147851054Y-170143370D01*
X147870068Y-170098202D01*
X147876824Y-170049904D01*
X147876825Y-170049602D01*
X147876825Y-170026188D01*
X148032047Y-170026188D01*
X148031994Y-170045591D01*
X148026640Y-170102134D01*
X148011905Y-170159692D01*
X147989328Y-170214302D01*
X147960445Y-170262001D01*
X147937587Y-170288868D01*
X147898984Y-170319976D01*
X147851591Y-170346549D01*
X147800608Y-170365879D01*
X147779464Y-170371169D01*
X147745784Y-170375804D01*
X147704251Y-170378025D01*
X147659732Y-170377905D01*
X147617097Y-170375518D01*
X147581215Y-170370937D01*
X147567832Y-170367983D01*
X147503769Y-170344531D01*
X147449879Y-170311314D01*
X147405987Y-170268158D01*
X147371915Y-170214887D01*
X147347484Y-170151325D01*
X147347011Y-170149661D01*
X147344551Y-170138178D01*
X147342508Y-170121956D01*
X147340847Y-170099798D01*
X147339536Y-170070509D01*
X147338542Y-170032892D01*
X147337833Y-169985751D01*
X147337374Y-169927891D01*
X147337133Y-169858116D01*
X147337075Y-169789827D01*
X147337088Y-169713719D01*
X147337168Y-169650350D01*
X147337375Y-169598344D01*
X147337771Y-169556331D01*
X147338416Y-169522935D01*
X147339372Y-169496785D01*
X147340698Y-169476507D01*
X147342457Y-169460728D01*
X147344708Y-169448074D01*
X147347514Y-169437173D01*
X147350934Y-169426650D01*
X147353499Y-169419411D01*
X147382857Y-169355734D01*
X147421318Y-169302750D01*
X147468545Y-169260660D01*
X147524199Y-169229669D01*
X147587942Y-169209982D01*
X147659436Y-169201802D01*
X147712376Y-169202920D01*
G37*
X147712376Y-169202920D02*
X147784249Y-169213827D01*
X147847903Y-169235586D01*
X147902777Y-169267805D01*
X147948311Y-169310089D01*
X147983946Y-169362046D01*
X148004168Y-169408053D01*
X148010089Y-169429144D01*
X148015817Y-169456712D01*
X148020897Y-169487324D01*
X148024872Y-169517552D01*
X148027286Y-169543962D01*
X148027681Y-169563124D01*
X148025893Y-169571379D01*
X148017907Y-169572739D01*
X147998949Y-169573820D01*
X147972160Y-169574486D01*
X147950706Y-169574633D01*
X147878773Y-169574633D01*
X147873980Y-169527848D01*
X147866287Y-169481482D01*
X147852980Y-169444916D01*
X147832579Y-169414463D01*
X147825314Y-169406445D01*
X147797673Y-169381397D01*
X147769447Y-169365083D01*
X147736643Y-169355993D01*
X147695269Y-169352614D01*
X147682797Y-169352484D01*
X147636661Y-169354978D01*
X147600537Y-169363351D01*
X147571074Y-169378945D01*
X147544924Y-169403099D01*
X147539037Y-169409991D01*
X147529074Y-169422430D01*
X147520772Y-169434343D01*
X147513982Y-169447098D01*
X147508551Y-169462061D01*
X147504329Y-169480600D01*
X147501163Y-169504081D01*
X147498904Y-169533872D01*
X147497399Y-169571340D01*
X147496497Y-169617851D01*
X147496048Y-169674772D01*
X147495899Y-169743471D01*
X147495894Y-169799904D01*
X147495963Y-170100272D01*
X147512599Y-170135550D01*
X147537454Y-170175355D01*
X147569692Y-170204010D01*
X147610287Y-170222073D01*
X147660211Y-170230103D01*
X147678451Y-170230645D01*
X147724081Y-170228537D01*
X147760039Y-170221027D01*
X147790159Y-170206799D01*
X147818275Y-170184535D01*
X147821406Y-170181544D01*
X147851054Y-170143370D01*
X147870068Y-170098202D01*
X147876824Y-170049904D01*
X147876825Y-170049602D01*
X147876825Y-170026188D01*
X148032047Y-170026188D01*
X148031994Y-170045591D01*
X148026640Y-170102134D01*
X148011905Y-170159692D01*
X147989328Y-170214302D01*
X147960445Y-170262001D01*
X147937587Y-170288868D01*
X147898984Y-170319976D01*
X147851591Y-170346549D01*
X147800608Y-170365879D01*
X147779464Y-170371169D01*
X147745784Y-170375804D01*
X147704251Y-170378025D01*
X147659732Y-170377905D01*
X147617097Y-170375518D01*
X147581215Y-170370937D01*
X147567832Y-170367983D01*
X147503769Y-170344531D01*
X147449879Y-170311314D01*
X147405987Y-170268158D01*
X147371915Y-170214887D01*
X147347484Y-170151325D01*
X147347011Y-170149661D01*
X147344551Y-170138178D01*
X147342508Y-170121956D01*
X147340847Y-170099798D01*
X147339536Y-170070509D01*
X147338542Y-170032892D01*
X147337833Y-169985751D01*
X147337374Y-169927891D01*
X147337133Y-169858116D01*
X147337075Y-169789827D01*
X147337088Y-169713719D01*
X147337168Y-169650350D01*
X147337375Y-169598344D01*
X147337771Y-169556331D01*
X147338416Y-169522935D01*
X147339372Y-169496785D01*
X147340698Y-169476507D01*
X147342457Y-169460728D01*
X147344708Y-169448074D01*
X147347514Y-169437173D01*
X147350934Y-169426650D01*
X147353499Y-169419411D01*
X147382857Y-169355734D01*
X147421318Y-169302750D01*
X147468545Y-169260660D01*
X147524199Y-169229669D01*
X147587942Y-169209982D01*
X147659436Y-169201802D01*
X147712376Y-169202920D01*
G36*
X150856844Y-169258897D02*
G01*
X150861043Y-169273919D01*
X150868471Y-169300906D01*
X150878677Y-169338202D01*
X150891212Y-169384149D01*
X150905627Y-169437090D01*
X150921472Y-169495366D01*
X150938297Y-169557320D01*
X150955653Y-169621295D01*
X150973091Y-169685633D01*
X150990161Y-169748677D01*
X151006414Y-169808769D01*
X151021400Y-169864252D01*
X151034669Y-169913468D01*
X151045772Y-169954759D01*
X151054260Y-169986468D01*
X151059181Y-170005022D01*
X151066867Y-170033233D01*
X151073782Y-170056772D01*
X151078794Y-170071852D01*
X151079961Y-170074572D01*
X151082495Y-170069618D01*
X151088100Y-170052084D01*
X151096478Y-170023093D01*
X151107328Y-169983766D01*
X151120349Y-169935226D01*
X151135242Y-169878595D01*
X151151706Y-169814995D01*
X151169441Y-169745549D01*
X151188147Y-169671378D01*
X151192746Y-169653002D01*
X151300508Y-169221855D01*
X151380778Y-169221855D01*
X151417707Y-169222280D01*
X151442250Y-169223683D01*
X151456108Y-169226254D01*
X151460984Y-169230182D01*
X151461047Y-169230816D01*
X151459259Y-169241710D01*
X151454554Y-169261929D01*
X151447923Y-169287237D01*
X151447431Y-169289025D01*
X151443675Y-169302824D01*
X151436548Y-169329235D01*
X151426321Y-169367239D01*
X151413269Y-169415817D01*
X151397664Y-169473948D01*
X151379781Y-169540614D01*
X151359893Y-169614794D01*
X151338273Y-169695469D01*
X151315195Y-169781620D01*
X151290932Y-169872226D01*
X151265757Y-169966269D01*
X151256525Y-170000764D01*
X151231121Y-170095397D01*
X151206466Y-170186660D01*
X151182835Y-170273565D01*
X151160506Y-170355123D01*
X151139753Y-170430346D01*
X151120852Y-170498244D01*
X151104079Y-170557829D01*
X151089710Y-170608112D01*
X151078021Y-170648105D01*
X151069287Y-170676818D01*
X151063785Y-170693264D01*
X151062579Y-170696130D01*
X151034632Y-170739451D01*
X150998311Y-170774666D01*
X150952597Y-170802324D01*
X150896473Y-170822974D01*
X150828919Y-170837166D01*
X150792533Y-170841803D01*
X150748436Y-170846456D01*
X150748436Y-170691343D01*
X150792741Y-170687786D01*
X150844389Y-170677321D01*
X150888628Y-170654855D01*
X150925349Y-170620463D01*
X150952812Y-170577536D01*
X150960333Y-170559108D01*
X150969772Y-170531019D01*
X150980233Y-170496562D01*
X150990819Y-170459028D01*
X151000633Y-170421707D01*
X151008779Y-170387892D01*
X151014361Y-170360875D01*
X151016480Y-170343945D01*
X151016481Y-170343822D01*
X151014487Y-170334479D01*
X151008689Y-170312682D01*
X150999392Y-170279478D01*
X150986903Y-170235911D01*
X150971528Y-170183028D01*
X150953573Y-170121873D01*
X150933345Y-170053493D01*
X150911150Y-169978933D01*
X150887293Y-169899238D01*
X150862082Y-169815455D01*
X150850741Y-169777903D01*
X150825098Y-169693041D01*
X150800668Y-169612104D01*
X150777755Y-169536103D01*
X150756662Y-169466052D01*
X150737695Y-169402962D01*
X150721156Y-169347847D01*
X150707350Y-169301719D01*
X150696580Y-169265590D01*
X150689152Y-169240473D01*
X150685369Y-169227380D01*
X150684936Y-169225673D01*
X150691525Y-169224165D01*
X150709431Y-169222939D01*
X150735860Y-169222125D01*
X150765574Y-169221855D01*
X150846212Y-169221855D01*
X150856844Y-169258897D01*
G37*
X150856844Y-169258897D02*
X150861043Y-169273919D01*
X150868471Y-169300906D01*
X150878677Y-169338202D01*
X150891212Y-169384149D01*
X150905627Y-169437090D01*
X150921472Y-169495366D01*
X150938297Y-169557320D01*
X150955653Y-169621295D01*
X150973091Y-169685633D01*
X150990161Y-169748677D01*
X151006414Y-169808769D01*
X151021400Y-169864252D01*
X151034669Y-169913468D01*
X151045772Y-169954759D01*
X151054260Y-169986468D01*
X151059181Y-170005022D01*
X151066867Y-170033233D01*
X151073782Y-170056772D01*
X151078794Y-170071852D01*
X151079961Y-170074572D01*
X151082495Y-170069618D01*
X151088100Y-170052084D01*
X151096478Y-170023093D01*
X151107328Y-169983766D01*
X151120349Y-169935226D01*
X151135242Y-169878595D01*
X151151706Y-169814995D01*
X151169441Y-169745549D01*
X151188147Y-169671378D01*
X151192746Y-169653002D01*
X151300508Y-169221855D01*
X151380778Y-169221855D01*
X151417707Y-169222280D01*
X151442250Y-169223683D01*
X151456108Y-169226254D01*
X151460984Y-169230182D01*
X151461047Y-169230816D01*
X151459259Y-169241710D01*
X151454554Y-169261929D01*
X151447923Y-169287237D01*
X151447431Y-169289025D01*
X151443675Y-169302824D01*
X151436548Y-169329235D01*
X151426321Y-169367239D01*
X151413269Y-169415817D01*
X151397664Y-169473948D01*
X151379781Y-169540614D01*
X151359893Y-169614794D01*
X151338273Y-169695469D01*
X151315195Y-169781620D01*
X151290932Y-169872226D01*
X151265757Y-169966269D01*
X151256525Y-170000764D01*
X151231121Y-170095397D01*
X151206466Y-170186660D01*
X151182835Y-170273565D01*
X151160506Y-170355123D01*
X151139753Y-170430346D01*
X151120852Y-170498244D01*
X151104079Y-170557829D01*
X151089710Y-170608112D01*
X151078021Y-170648105D01*
X151069287Y-170676818D01*
X151063785Y-170693264D01*
X151062579Y-170696130D01*
X151034632Y-170739451D01*
X150998311Y-170774666D01*
X150952597Y-170802324D01*
X150896473Y-170822974D01*
X150828919Y-170837166D01*
X150792533Y-170841803D01*
X150748436Y-170846456D01*
X150748436Y-170691343D01*
X150792741Y-170687786D01*
X150844389Y-170677321D01*
X150888628Y-170654855D01*
X150925349Y-170620463D01*
X150952812Y-170577536D01*
X150960333Y-170559108D01*
X150969772Y-170531019D01*
X150980233Y-170496562D01*
X150990819Y-170459028D01*
X151000633Y-170421707D01*
X151008779Y-170387892D01*
X151014361Y-170360875D01*
X151016480Y-170343945D01*
X151016481Y-170343822D01*
X151014487Y-170334479D01*
X151008689Y-170312682D01*
X150999392Y-170279478D01*
X150986903Y-170235911D01*
X150971528Y-170183028D01*
X150953573Y-170121873D01*
X150933345Y-170053493D01*
X150911150Y-169978933D01*
X150887293Y-169899238D01*
X150862082Y-169815455D01*
X150850741Y-169777903D01*
X150825098Y-169693041D01*
X150800668Y-169612104D01*
X150777755Y-169536103D01*
X150756662Y-169466052D01*
X150737695Y-169402962D01*
X150721156Y-169347847D01*
X150707350Y-169301719D01*
X150696580Y-169265590D01*
X150689152Y-169240473D01*
X150685369Y-169227380D01*
X150684936Y-169225673D01*
X150691525Y-169224165D01*
X150709431Y-169222939D01*
X150735860Y-169222125D01*
X150765574Y-169221855D01*
X150846212Y-169221855D01*
X150856844Y-169258897D01*
G36*
X354287356Y-69739610D02*
G01*
X354856739Y-69741787D01*
X355426122Y-69743963D01*
X355426122Y-70150363D01*
X354287356Y-70154715D01*
X354287356Y-70814996D01*
X355007023Y-70814996D01*
X355007023Y-71246796D01*
X354287356Y-71246796D01*
X354287356Y-71924010D01*
X354856739Y-71926187D01*
X355426122Y-71928363D01*
X355428385Y-72142146D01*
X355430647Y-72355929D01*
X354287356Y-72355929D01*
X354287356Y-72973996D01*
X353847089Y-72973996D01*
X353847089Y-72355929D01*
X352712556Y-72355929D01*
X352712556Y-71924130D01*
X353847089Y-71924130D01*
X353847089Y-71246796D01*
X353135889Y-71246796D01*
X353135889Y-70814996D01*
X353847089Y-70814996D01*
X353847089Y-70154596D01*
X352712556Y-70154596D01*
X352712556Y-69739730D01*
X353846870Y-69739730D01*
X353851322Y-69151296D01*
X354069339Y-69149037D01*
X354287356Y-69146777D01*
X354287356Y-69739610D01*
G37*
X354287356Y-69739610D02*
X354856739Y-69741787D01*
X355426122Y-69743963D01*
X355426122Y-70150363D01*
X354287356Y-70154715D01*
X354287356Y-70814996D01*
X355007023Y-70814996D01*
X355007023Y-71246796D01*
X354287356Y-71246796D01*
X354287356Y-71924010D01*
X354856739Y-71926187D01*
X355426122Y-71928363D01*
X355428385Y-72142146D01*
X355430647Y-72355929D01*
X354287356Y-72355929D01*
X354287356Y-72973996D01*
X353847089Y-72973996D01*
X353847089Y-72355929D01*
X352712556Y-72355929D01*
X352712556Y-71924130D01*
X353847089Y-71924130D01*
X353847089Y-71246796D01*
X353135889Y-71246796D01*
X353135889Y-70814996D01*
X353847089Y-70814996D01*
X353847089Y-70154596D01*
X352712556Y-70154596D01*
X352712556Y-69739730D01*
X353846870Y-69739730D01*
X353851322Y-69151296D01*
X354069339Y-69149037D01*
X354287356Y-69146777D01*
X354287356Y-69739610D01*
G36*
X58671725Y-69739610D02*
G01*
X59241108Y-69741787D01*
X59810491Y-69743963D01*
X59810491Y-70150363D01*
X58671725Y-70154715D01*
X58671725Y-70814996D01*
X59391392Y-70814996D01*
X59391392Y-71246796D01*
X58671725Y-71246796D01*
X58671725Y-71924010D01*
X59241108Y-71926187D01*
X59810491Y-71928363D01*
X59812754Y-72142146D01*
X59815016Y-72355929D01*
X58671725Y-72355929D01*
X58671725Y-72973996D01*
X58231458Y-72973996D01*
X58231458Y-72355929D01*
X57096925Y-72355929D01*
X57096925Y-71924130D01*
X58231458Y-71924130D01*
X58231458Y-71246796D01*
X57520258Y-71246796D01*
X57520258Y-70814996D01*
X58231458Y-70814996D01*
X58231458Y-70154596D01*
X57096925Y-70154596D01*
X57096925Y-69739730D01*
X58231239Y-69739730D01*
X58235691Y-69151296D01*
X58453708Y-69149037D01*
X58671725Y-69146777D01*
X58671725Y-69739610D01*
G37*
X58671725Y-69739610D02*
X59241108Y-69741787D01*
X59810491Y-69743963D01*
X59810491Y-70150363D01*
X58671725Y-70154715D01*
X58671725Y-70814996D01*
X59391392Y-70814996D01*
X59391392Y-71246796D01*
X58671725Y-71246796D01*
X58671725Y-71924010D01*
X59241108Y-71926187D01*
X59810491Y-71928363D01*
X59812754Y-72142146D01*
X59815016Y-72355929D01*
X58671725Y-72355929D01*
X58671725Y-72973996D01*
X58231458Y-72973996D01*
X58231458Y-72355929D01*
X57096925Y-72355929D01*
X57096925Y-71924130D01*
X58231458Y-71924130D01*
X58231458Y-71246796D01*
X57520258Y-71246796D01*
X57520258Y-70814996D01*
X58231458Y-70814996D01*
X58231458Y-70154596D01*
X57096925Y-70154596D01*
X57096925Y-69739730D01*
X58231239Y-69739730D01*
X58235691Y-69151296D01*
X58453708Y-69149037D01*
X58671725Y-69146777D01*
X58671725Y-69739610D01*
G36*
X150058620Y-162650150D02*
G01*
X150181691Y-162684296D01*
X150274180Y-162728554D01*
X150316406Y-162773391D01*
X150334272Y-162857763D01*
X150327489Y-162931595D01*
X150307760Y-162961945D01*
X150264101Y-162958916D01*
X150187416Y-162930900D01*
X150153942Y-162914901D01*
X149996013Y-162858251D01*
X149846929Y-162847564D01*
X149717597Y-162878974D01*
X149618923Y-162948617D01*
X149561814Y-163052629D01*
X149552032Y-163128169D01*
X149575421Y-163240997D01*
X149649293Y-163340158D01*
X149779204Y-163431459D01*
X149898620Y-163490354D01*
X150125834Y-163606298D01*
X150289152Y-163724770D01*
X150372520Y-163819849D01*
X150414719Y-163927832D01*
X150432425Y-164068767D01*
X150424946Y-164214800D01*
X150391589Y-164338078D01*
X150385724Y-164350194D01*
X150276350Y-164493769D01*
X150122757Y-164598390D01*
X149935744Y-164660265D01*
X149726111Y-164675603D01*
X149535708Y-164648620D01*
X149419119Y-164610095D01*
X149316971Y-164558593D01*
X149253173Y-164506351D01*
X149250539Y-164502652D01*
X149229230Y-164437173D01*
X149229852Y-164361057D01*
X149251456Y-164308359D01*
X149256050Y-164304820D01*
X149300715Y-164307535D01*
X149379113Y-164335935D01*
X149422808Y-164356995D01*
X149596979Y-164424087D01*
X149764628Y-164446056D01*
X149915771Y-164426186D01*
X150040425Y-164367761D01*
X150128607Y-164274064D01*
X150170333Y-164148378D01*
X150172340Y-164110470D01*
X150150853Y-164021260D01*
X150082869Y-163932090D01*
X149963105Y-163838044D01*
X149786278Y-163734206D01*
X149744317Y-163712201D01*
X149560379Y-163608427D01*
X149431276Y-163511457D01*
X149348801Y-163411095D01*
X149304745Y-163297144D01*
X149290899Y-163159409D01*
X149290849Y-163148930D01*
X149316523Y-162961799D01*
X149393178Y-162815336D01*
X149520261Y-162710107D01*
X149697220Y-162646681D01*
X149793478Y-162631877D01*
X149923154Y-162631036D01*
X150058620Y-162650150D01*
G37*
X150058620Y-162650150D02*
X150181691Y-162684296D01*
X150274180Y-162728554D01*
X150316406Y-162773391D01*
X150334272Y-162857763D01*
X150327489Y-162931595D01*
X150307760Y-162961945D01*
X150264101Y-162958916D01*
X150187416Y-162930900D01*
X150153942Y-162914901D01*
X149996013Y-162858251D01*
X149846929Y-162847564D01*
X149717597Y-162878974D01*
X149618923Y-162948617D01*
X149561814Y-163052629D01*
X149552032Y-163128169D01*
X149575421Y-163240997D01*
X149649293Y-163340158D01*
X149779204Y-163431459D01*
X149898620Y-163490354D01*
X150125834Y-163606298D01*
X150289152Y-163724770D01*
X150372520Y-163819849D01*
X150414719Y-163927832D01*
X150432425Y-164068767D01*
X150424946Y-164214800D01*
X150391589Y-164338078D01*
X150385724Y-164350194D01*
X150276350Y-164493769D01*
X150122757Y-164598390D01*
X149935744Y-164660265D01*
X149726111Y-164675603D01*
X149535708Y-164648620D01*
X149419119Y-164610095D01*
X149316971Y-164558593D01*
X149253173Y-164506351D01*
X149250539Y-164502652D01*
X149229230Y-164437173D01*
X149229852Y-164361057D01*
X149251456Y-164308359D01*
X149256050Y-164304820D01*
X149300715Y-164307535D01*
X149379113Y-164335935D01*
X149422808Y-164356995D01*
X149596979Y-164424087D01*
X149764628Y-164446056D01*
X149915771Y-164426186D01*
X150040425Y-164367761D01*
X150128607Y-164274064D01*
X150170333Y-164148378D01*
X150172340Y-164110470D01*
X150150853Y-164021260D01*
X150082869Y-163932090D01*
X149963105Y-163838044D01*
X149786278Y-163734206D01*
X149744317Y-163712201D01*
X149560379Y-163608427D01*
X149431276Y-163511457D01*
X149348801Y-163411095D01*
X149304745Y-163297144D01*
X149290899Y-163159409D01*
X149290849Y-163148930D01*
X149316523Y-162961799D01*
X149393178Y-162815336D01*
X149520261Y-162710107D01*
X149697220Y-162646681D01*
X149793478Y-162631877D01*
X149923154Y-162631036D01*
X150058620Y-162650150D01*
G36*
X152408386Y-162635959D02*
G01*
X152621244Y-162690119D01*
X152679962Y-162716878D01*
X152784487Y-162784344D01*
X152836756Y-162860616D01*
X152849461Y-162949349D01*
X152834489Y-163012693D01*
X152786729Y-163026512D01*
X152701921Y-162991031D01*
X152651765Y-162959858D01*
X152513590Y-162891158D01*
X152352941Y-162860803D01*
X152332306Y-162859344D01*
X152143062Y-162872186D01*
X151989583Y-162938547D01*
X151866387Y-163061565D01*
X151806649Y-163160111D01*
X151768065Y-163242415D01*
X151743490Y-163320306D01*
X151729877Y-163412270D01*
X151724181Y-163536793D01*
X151723274Y-163666152D01*
X151725317Y-163830258D01*
X151733073Y-163946696D01*
X151749257Y-164033021D01*
X151776585Y-164106793D01*
X151798048Y-164149694D01*
X151908533Y-164293309D01*
X152054800Y-164390362D01*
X152224605Y-164438527D01*
X152405703Y-164435479D01*
X152585849Y-164378891D01*
X152687818Y-164318677D01*
X152759436Y-164274662D01*
X152811380Y-164254634D01*
X152813691Y-164254519D01*
X152844489Y-164280286D01*
X152849916Y-164343086D01*
X152833021Y-164421166D01*
X152796856Y-164492776D01*
X152777122Y-164515256D01*
X152656447Y-164591254D01*
X152493250Y-164643959D01*
X152307205Y-164669959D01*
X152117982Y-164665847D01*
X152012312Y-164647796D01*
X151824801Y-164571180D01*
X151668871Y-164441890D01*
X151547844Y-164266117D01*
X151465039Y-164050050D01*
X151423778Y-163799878D01*
X151424759Y-163552590D01*
X151466364Y-163300088D01*
X151547477Y-163078068D01*
X151663241Y-162897078D01*
X151776084Y-162789979D01*
X151967945Y-162687333D01*
X152184666Y-162635512D01*
X152408386Y-162635959D01*
G37*
X152408386Y-162635959D02*
X152621244Y-162690119D01*
X152679962Y-162716878D01*
X152784487Y-162784344D01*
X152836756Y-162860616D01*
X152849461Y-162949349D01*
X152834489Y-163012693D01*
X152786729Y-163026512D01*
X152701921Y-162991031D01*
X152651765Y-162959858D01*
X152513590Y-162891158D01*
X152352941Y-162860803D01*
X152332306Y-162859344D01*
X152143062Y-162872186D01*
X151989583Y-162938547D01*
X151866387Y-163061565D01*
X151806649Y-163160111D01*
X151768065Y-163242415D01*
X151743490Y-163320306D01*
X151729877Y-163412270D01*
X151724181Y-163536793D01*
X151723274Y-163666152D01*
X151725317Y-163830258D01*
X151733073Y-163946696D01*
X151749257Y-164033021D01*
X151776585Y-164106793D01*
X151798048Y-164149694D01*
X151908533Y-164293309D01*
X152054800Y-164390362D01*
X152224605Y-164438527D01*
X152405703Y-164435479D01*
X152585849Y-164378891D01*
X152687818Y-164318677D01*
X152759436Y-164274662D01*
X152811380Y-164254634D01*
X152813691Y-164254519D01*
X152844489Y-164280286D01*
X152849916Y-164343086D01*
X152833021Y-164421166D01*
X152796856Y-164492776D01*
X152777122Y-164515256D01*
X152656447Y-164591254D01*
X152493250Y-164643959D01*
X152307205Y-164669959D01*
X152117982Y-164665847D01*
X152012312Y-164647796D01*
X151824801Y-164571180D01*
X151668871Y-164441890D01*
X151547844Y-164266117D01*
X151465039Y-164050050D01*
X151423778Y-163799878D01*
X151424759Y-163552590D01*
X151466364Y-163300088D01*
X151547477Y-163078068D01*
X151663241Y-162897078D01*
X151776084Y-162789979D01*
X151967945Y-162687333D01*
X152184666Y-162635512D01*
X152408386Y-162635959D01*
G36*
X145844792Y-162663531D02*
G01*
X146057901Y-162687634D01*
X146234495Y-162736457D01*
X146387427Y-162812457D01*
X146394580Y-162816950D01*
X146546193Y-162950535D01*
X146660045Y-163130150D01*
X146732980Y-163346453D01*
X146761840Y-163590101D01*
X146743731Y-163850102D01*
X146681412Y-164098167D01*
X146579948Y-164296471D01*
X146436000Y-164449859D01*
X146254602Y-164559414D01*
X146163426Y-164588215D01*
X146035359Y-164612240D01*
X145884217Y-164630801D01*
X145723819Y-164643212D01*
X145567982Y-164648785D01*
X145430523Y-164646834D01*
X145325259Y-164636671D01*
X145266009Y-164617610D01*
X145258782Y-164608931D01*
X145254647Y-164565780D01*
X145251459Y-164465980D01*
X145249295Y-164318171D01*
X145248228Y-164130992D01*
X145248335Y-163913086D01*
X145249689Y-163673092D01*
X145250169Y-163617489D01*
X145256898Y-162883310D01*
X145503703Y-162883310D01*
X145503703Y-164417758D01*
X145757967Y-164417758D01*
X145915175Y-164412346D01*
X146032635Y-164393063D01*
X146135227Y-164355341D01*
X146157903Y-164344300D01*
X146295793Y-164246591D01*
X146392863Y-164109937D01*
X146452488Y-163927864D01*
X146476152Y-163734335D01*
X146474971Y-163502917D01*
X146439735Y-163316878D01*
X146367335Y-163164100D01*
X146310872Y-163090229D01*
X146204191Y-162989823D01*
X146084972Y-162926035D01*
X145936269Y-162892618D01*
X145749610Y-162883310D01*
X145503703Y-162883310D01*
X145256898Y-162883310D01*
X145258844Y-162671099D01*
X145582316Y-162661693D01*
X145844792Y-162663531D01*
G37*
X145844792Y-162663531D02*
X146057901Y-162687634D01*
X146234495Y-162736457D01*
X146387427Y-162812457D01*
X146394580Y-162816950D01*
X146546193Y-162950535D01*
X146660045Y-163130150D01*
X146732980Y-163346453D01*
X146761840Y-163590101D01*
X146743731Y-163850102D01*
X146681412Y-164098167D01*
X146579948Y-164296471D01*
X146436000Y-164449859D01*
X146254602Y-164559414D01*
X146163426Y-164588215D01*
X146035359Y-164612240D01*
X145884217Y-164630801D01*
X145723819Y-164643212D01*
X145567982Y-164648785D01*
X145430523Y-164646834D01*
X145325259Y-164636671D01*
X145266009Y-164617610D01*
X145258782Y-164608931D01*
X145254647Y-164565780D01*
X145251459Y-164465980D01*
X145249295Y-164318171D01*
X145248228Y-164130992D01*
X145248335Y-163913086D01*
X145249689Y-163673092D01*
X145250169Y-163617489D01*
X145256898Y-162883310D01*
X145503703Y-162883310D01*
X145503703Y-164417758D01*
X145757967Y-164417758D01*
X145915175Y-164412346D01*
X146032635Y-164393063D01*
X146135227Y-164355341D01*
X146157903Y-164344300D01*
X146295793Y-164246591D01*
X146392863Y-164109937D01*
X146452488Y-163927864D01*
X146476152Y-163734335D01*
X146474971Y-163502917D01*
X146439735Y-163316878D01*
X146367335Y-163164100D01*
X146310872Y-163090229D01*
X146204191Y-162989823D01*
X146084972Y-162926035D01*
X145936269Y-162892618D01*
X145749610Y-162883310D01*
X145503703Y-162883310D01*
X145256898Y-162883310D01*
X145258844Y-162671099D01*
X145582316Y-162661693D01*
X145844792Y-162663531D01*
G36*
X148131852Y-164629968D02*
G01*
X148025522Y-164640216D01*
X147939522Y-164635155D01*
X147902579Y-164607170D01*
X147898618Y-164564485D01*
X147895587Y-164465130D01*
X147893557Y-164317724D01*
X147892596Y-164130887D01*
X147892773Y-163913238D01*
X147894159Y-163673398D01*
X147894642Y-163617489D01*
X147903317Y-162671099D01*
X148131852Y-162671099D01*
X148131852Y-164629968D01*
G37*
X148131852Y-164629968D02*
X148025522Y-164640216D01*
X147939522Y-164635155D01*
X147902579Y-164607170D01*
X147898618Y-164564485D01*
X147895587Y-164465130D01*
X147893557Y-164317724D01*
X147892596Y-164130887D01*
X147892773Y-163913238D01*
X147894159Y-163673398D01*
X147894642Y-163617489D01*
X147903317Y-162671099D01*
X148131852Y-162671099D01*
X148131852Y-164629968D01*
G36*
X154155374Y-164646292D02*
G01*
X154040082Y-164646292D01*
X153959195Y-164635741D01*
X153911587Y-164609863D01*
X153908977Y-164605085D01*
X153905221Y-164562951D01*
X153902376Y-164464122D01*
X153900505Y-164317194D01*
X153899669Y-164130761D01*
X153899931Y-163913418D01*
X153901352Y-163673761D01*
X153901840Y-163617489D01*
X153910515Y-162671099D01*
X154032944Y-162660967D01*
X154155374Y-162650834D01*
X154155374Y-164646292D01*
G37*
X154155374Y-164646292D02*
X154040082Y-164646292D01*
X153959195Y-164635741D01*
X153911587Y-164609863D01*
X153908977Y-164605085D01*
X153905221Y-164562951D01*
X153902376Y-164464122D01*
X153900505Y-164317194D01*
X153899669Y-164130761D01*
X153899931Y-163913418D01*
X153901352Y-163673761D01*
X153901840Y-163617489D01*
X153910515Y-162671099D01*
X154032944Y-162660967D01*
X154155374Y-162650834D01*
X154155374Y-164646292D01*
G36*
X155863650Y-162660711D02*
G01*
X156033793Y-162669015D01*
X156154340Y-162680525D01*
X156240993Y-162698121D01*
X156309451Y-162724684D01*
X156356603Y-162751175D01*
X156483192Y-162851186D01*
X156561203Y-162971445D01*
X156597976Y-163126571D01*
X156603301Y-163242436D01*
X156579591Y-163453977D01*
X156508446Y-163622394D01*
X156388472Y-163748994D01*
X156218272Y-163835080D01*
X155996453Y-163881960D01*
X155912375Y-163889009D01*
X155657173Y-163903782D01*
X155657173Y-164646292D01*
X155548347Y-164646292D01*
X155467677Y-164640319D01*
X155419230Y-164625812D01*
X155417756Y-164624527D01*
X155412174Y-164587498D01*
X155407121Y-164493586D01*
X155402789Y-164351203D01*
X155399368Y-164168760D01*
X155397049Y-163954668D01*
X155396024Y-163717340D01*
X155395991Y-163665414D01*
X155396428Y-163387409D01*
X155397972Y-163167721D01*
X155400974Y-162999379D01*
X155405476Y-162883310D01*
X155657173Y-162883310D01*
X155657173Y-163269643D01*
X155658914Y-163422368D01*
X155663650Y-163550448D01*
X155670653Y-163640207D01*
X155678938Y-163677740D01*
X155730938Y-163694686D01*
X155824375Y-163698293D01*
X155936910Y-163689223D01*
X156046201Y-163668137D01*
X156051371Y-163666725D01*
X156190303Y-163602535D01*
X156281681Y-163497595D01*
X156329504Y-163346643D01*
X156335892Y-163292377D01*
X156341468Y-163185561D01*
X156329626Y-163116034D01*
X156290997Y-163056290D01*
X156235758Y-162998296D01*
X156171379Y-162937956D01*
X156115104Y-162903537D01*
X156045070Y-162887790D01*
X155939416Y-162883466D01*
X155888973Y-162883310D01*
X155657173Y-162883310D01*
X155405476Y-162883310D01*
X155405783Y-162875408D01*
X155412749Y-162788836D01*
X155422223Y-162732690D01*
X155434555Y-162699996D01*
X155445090Y-162687318D01*
X155493218Y-162668250D01*
X155585445Y-162658270D01*
X155729471Y-162656887D01*
X155863650Y-162660711D01*
G37*
X155863650Y-162660711D02*
X156033793Y-162669015D01*
X156154340Y-162680525D01*
X156240993Y-162698121D01*
X156309451Y-162724684D01*
X156356603Y-162751175D01*
X156483192Y-162851186D01*
X156561203Y-162971445D01*
X156597976Y-163126571D01*
X156603301Y-163242436D01*
X156579591Y-163453977D01*
X156508446Y-163622394D01*
X156388472Y-163748994D01*
X156218272Y-163835080D01*
X155996453Y-163881960D01*
X155912375Y-163889009D01*
X155657173Y-163903782D01*
X155657173Y-164646292D01*
X155548347Y-164646292D01*
X155467677Y-164640319D01*
X155419230Y-164625812D01*
X155417756Y-164624527D01*
X155412174Y-164587498D01*
X155407121Y-164493586D01*
X155402789Y-164351203D01*
X155399368Y-164168760D01*
X155397049Y-163954668D01*
X155396024Y-163717340D01*
X155395991Y-163665414D01*
X155396428Y-163387409D01*
X155397972Y-163167721D01*
X155400974Y-162999379D01*
X155405476Y-162883310D01*
X155657173Y-162883310D01*
X155657173Y-163269643D01*
X155658914Y-163422368D01*
X155663650Y-163550448D01*
X155670653Y-163640207D01*
X155678938Y-163677740D01*
X155730938Y-163694686D01*
X155824375Y-163698293D01*
X155936910Y-163689223D01*
X156046201Y-163668137D01*
X156051371Y-163666725D01*
X156190303Y-163602535D01*
X156281681Y-163497595D01*
X156329504Y-163346643D01*
X156335892Y-163292377D01*
X156341468Y-163185561D01*
X156329626Y-163116034D01*
X156290997Y-163056290D01*
X156235758Y-162998296D01*
X156171379Y-162937956D01*
X156115104Y-162903537D01*
X156045070Y-162887790D01*
X155939416Y-162883466D01*
X155888973Y-162883310D01*
X155657173Y-162883310D01*
X155405476Y-162883310D01*
X155405783Y-162875408D01*
X155412749Y-162788836D01*
X155422223Y-162732690D01*
X155434555Y-162699996D01*
X155445090Y-162687318D01*
X155493218Y-162668250D01*
X155585445Y-162658270D01*
X155729471Y-162656887D01*
X155863650Y-162660711D01*
G36*
X157869063Y-162660967D02*
G01*
X157991492Y-162671099D01*
X158008878Y-164415629D01*
X158742392Y-164434081D01*
X158742392Y-164629968D01*
X158267114Y-164638967D01*
X158097108Y-164640682D01*
X157950808Y-164639315D01*
X157840400Y-164635199D01*
X157778070Y-164628668D01*
X157769235Y-164625364D01*
X157763550Y-164588205D01*
X157758388Y-164493994D01*
X157753938Y-164350974D01*
X157750385Y-164167387D01*
X157747916Y-163951478D01*
X157746718Y-163711488D01*
X157746633Y-163626798D01*
X157746633Y-162650834D01*
X157869063Y-162660967D01*
G37*
X157869063Y-162660967D02*
X157991492Y-162671099D01*
X158008878Y-164415629D01*
X158742392Y-164434081D01*
X158742392Y-164629968D01*
X158267114Y-164638967D01*
X158097108Y-164640682D01*
X157950808Y-164639315D01*
X157840400Y-164635199D01*
X157778070Y-164628668D01*
X157769235Y-164625364D01*
X157763550Y-164588205D01*
X157758388Y-164493994D01*
X157753938Y-164350974D01*
X157750385Y-164167387D01*
X157747916Y-163951478D01*
X157746718Y-163711488D01*
X157746633Y-163626798D01*
X157746633Y-162650834D01*
X157869063Y-162660967D01*
G36*
X159893227Y-162660967D02*
G01*
X160015656Y-162671099D01*
X160015656Y-164629968D01*
X159770798Y-164650234D01*
X159770798Y-162650834D01*
X159893227Y-162660967D01*
G37*
X159893227Y-162660967D02*
X160015656Y-162671099D01*
X160015656Y-164629968D01*
X159770798Y-164650234D01*
X159770798Y-162650834D01*
X159893227Y-162660967D01*
G36*
X162734069Y-163640268D02*
G01*
X162725425Y-164629968D01*
X162611158Y-164639583D01*
X162517601Y-164634566D01*
X162445477Y-164609338D01*
X162442159Y-164606936D01*
X162412497Y-164568132D01*
X162356197Y-164479783D01*
X162277860Y-164349678D01*
X162182092Y-164185608D01*
X162073495Y-163995362D01*
X161956674Y-163786732D01*
X161944856Y-163765409D01*
X161502285Y-162966146D01*
X161493546Y-163798057D01*
X161484808Y-164629968D01*
X161378221Y-164640235D01*
X161271634Y-164650501D01*
X161280277Y-163660800D01*
X161288921Y-162671099D01*
X161440339Y-162661298D01*
X161541129Y-162660739D01*
X161603506Y-162681279D01*
X161652550Y-162730572D01*
X161684699Y-162780561D01*
X161742835Y-162879148D01*
X161821926Y-163017470D01*
X161916944Y-163186666D01*
X162022859Y-163377872D01*
X162105117Y-163527999D01*
X162496890Y-164246351D01*
X162529538Y-162671099D01*
X162636125Y-162660833D01*
X162742713Y-162650567D01*
X162734069Y-163640268D01*
G37*
X162734069Y-163640268D02*
X162725425Y-164629968D01*
X162611158Y-164639583D01*
X162517601Y-164634566D01*
X162445477Y-164609338D01*
X162442159Y-164606936D01*
X162412497Y-164568132D01*
X162356197Y-164479783D01*
X162277860Y-164349678D01*
X162182092Y-164185608D01*
X162073495Y-163995362D01*
X161956674Y-163786732D01*
X161944856Y-163765409D01*
X161502285Y-162966146D01*
X161493546Y-163798057D01*
X161484808Y-164629968D01*
X161378221Y-164640235D01*
X161271634Y-164650501D01*
X161280277Y-163660800D01*
X161288921Y-162671099D01*
X161440339Y-162661298D01*
X161541129Y-162660739D01*
X161603506Y-162681279D01*
X161652550Y-162730572D01*
X161684699Y-162780561D01*
X161742835Y-162879148D01*
X161821926Y-163017470D01*
X161916944Y-163186666D01*
X162022859Y-163377872D01*
X162105117Y-163527999D01*
X162496890Y-164246351D01*
X162529538Y-162671099D01*
X162636125Y-162660833D01*
X162742713Y-162650567D01*
X162734069Y-163640268D01*
G36*
X164749072Y-162655368D02*
G01*
X164884771Y-162657925D01*
X164975079Y-162663614D01*
X165029945Y-162673607D01*
X165059319Y-162689070D01*
X165073151Y-162711174D01*
X165074608Y-162715472D01*
X165081021Y-162794519D01*
X165073315Y-162829739D01*
X165056010Y-162852466D01*
X165017542Y-162867835D01*
X164947162Y-162877197D01*
X164834122Y-162881902D01*
X164667674Y-162883300D01*
X164646928Y-162883310D01*
X164241098Y-162883310D01*
X164250485Y-163185303D01*
X164259872Y-163487295D01*
X164610836Y-163496561D01*
X164961800Y-163505828D01*
X164961800Y-163699506D01*
X164243548Y-163699506D01*
X164243548Y-164415807D01*
X165076068Y-164434081D01*
X165076068Y-164629968D01*
X164569186Y-164638922D01*
X164353731Y-164640947D01*
X164197101Y-164638059D01*
X164092985Y-164629900D01*
X164035072Y-164616111D01*
X164022335Y-164607907D01*
X164009968Y-164563582D01*
X163999695Y-164464305D01*
X163991522Y-164320384D01*
X163985452Y-164142124D01*
X163981490Y-163939834D01*
X163979639Y-163723818D01*
X163979905Y-163504386D01*
X163982291Y-163291842D01*
X163986802Y-163096495D01*
X163993442Y-162928651D01*
X164002214Y-162798616D01*
X164013125Y-162716699D01*
X164021543Y-162693953D01*
X164067798Y-162676565D01*
X164168692Y-162664409D01*
X164327682Y-162657231D01*
X164548224Y-162654779D01*
X164558032Y-162654776D01*
X164749072Y-162655368D01*
G37*
X164749072Y-162655368D02*
X164884771Y-162657925D01*
X164975079Y-162663614D01*
X165029945Y-162673607D01*
X165059319Y-162689070D01*
X165073151Y-162711174D01*
X165074608Y-162715472D01*
X165081021Y-162794519D01*
X165073315Y-162829739D01*
X165056010Y-162852466D01*
X165017542Y-162867835D01*
X164947162Y-162877197D01*
X164834122Y-162881902D01*
X164667674Y-162883300D01*
X164646928Y-162883310D01*
X164241098Y-162883310D01*
X164250485Y-163185303D01*
X164259872Y-163487295D01*
X164610836Y-163496561D01*
X164961800Y-163505828D01*
X164961800Y-163699506D01*
X164243548Y-163699506D01*
X164243548Y-164415807D01*
X165076068Y-164434081D01*
X165076068Y-164629968D01*
X164569186Y-164638922D01*
X164353731Y-164640947D01*
X164197101Y-164638059D01*
X164092985Y-164629900D01*
X164035072Y-164616111D01*
X164022335Y-164607907D01*
X164009968Y-164563582D01*
X163999695Y-164464305D01*
X163991522Y-164320384D01*
X163985452Y-164142124D01*
X163981490Y-163939834D01*
X163979639Y-163723818D01*
X163979905Y-163504386D01*
X163982291Y-163291842D01*
X163986802Y-163096495D01*
X163993442Y-162928651D01*
X164002214Y-162798616D01*
X164013125Y-162716699D01*
X164021543Y-162693953D01*
X164067798Y-162676565D01*
X164168692Y-162664409D01*
X164327682Y-162657231D01*
X164548224Y-162654779D01*
X164558032Y-162654776D01*
X164749072Y-162655368D01*
D13*
X144057456Y-160474210D02*
X166337456Y-160474210D01*
X144037456Y-167154210D02*
X166337456Y-167154210D01*
X144027456Y-167154210D02*
G75*
G02*
X144027456Y-160474210I0J3340000D01*
G01*
X166327456Y-160474210D02*
G75*
G02*
X166327456Y-167154210I0J-3340000D01*
G01*
D14*
X65563750Y-118903750D03*
D15*
X73183750Y-113823750D03*
D16*
X68103750Y-113823750D03*
D14*
X71913750Y-116363750D03*
D15*
X63023750Y-113823750D03*
D16*
X70485050Y-132863620D03*
D15*
X65405050Y-132863620D03*
D14*
X67945050Y-137943620D03*
X74295050Y-135403620D03*
D15*
X75565050Y-132863620D03*
D16*
X63347450Y-160163750D03*
D17*
X63347450Y-144923750D03*
X87147450Y-144923750D03*
D16*
X87147450Y-160163750D03*
D15*
X80327450Y-151923750D03*
D14*
X79057450Y-154463750D03*
X72707450Y-157003750D03*
D16*
X75247450Y-151923750D03*
D15*
X70167450Y-151923750D03*
D14*
X117157450Y-173503620D03*
X110807450Y-176043620D03*
D15*
X108267450Y-170963620D03*
X118427450Y-170963620D03*
D16*
X113347450Y-170963620D03*
D14*
X93345050Y-173513750D03*
X86995050Y-176053750D03*
D15*
X84455050Y-170973750D03*
X94615050Y-170973750D03*
D16*
X89535050Y-170973750D03*
D14*
X69532450Y-173503620D03*
X63182450Y-176043620D03*
D15*
X60642450Y-170963620D03*
X70802450Y-170963620D03*
D16*
X65722450Y-170963620D03*
D14*
X352901250Y-97313750D03*
X346551250Y-99853750D03*
D16*
X349091250Y-94773750D03*
D18*
X346591250Y-90773750D03*
G36*
G01*
X351503777Y-91520686D02*
X351503777Y-91520686D01*
G75*
G02*
X350344018Y-90186535I87196J1246955D01*
G01*
X350384572Y-89606573D01*
G75*
G02*
X351718723Y-88446814I1246955J-87196D01*
G01*
X351718723Y-88446814D01*
G75*
G02*
X352878482Y-89780965I-87196J-1246955D01*
G01*
X352837928Y-90360927D01*
G75*
G02*
X351503777Y-91520686I-1246955J87196D01*
G01*
G37*
D15*
X354171250Y-94773750D03*
X344011250Y-94773750D03*
G36*
G01*
X344444836Y-93162683D02*
X344444836Y-93162683D01*
G75*
G02*
X344352318Y-91397339I836413J928931D01*
G01*
X345664858Y-89939615D01*
G75*
G02*
X347430202Y-89847097I928931J-836413D01*
G01*
X347430202Y-89847097D01*
G75*
G02*
X347522720Y-91612441I-836413J-928931D01*
G01*
X346210180Y-93070165D01*
G75*
G02*
X344444836Y-93162683I-928931J836413D01*
G01*
G37*
D14*
X352901250Y-116363750D03*
X346551250Y-118903750D03*
D16*
X349091250Y-113823750D03*
D18*
X346591250Y-109823750D03*
G36*
G01*
X351503777Y-110570686D02*
X351503777Y-110570686D01*
G75*
G02*
X350344018Y-109236535I87196J1246955D01*
G01*
X350384572Y-108656573D01*
G75*
G02*
X351718723Y-107496814I1246955J-87196D01*
G01*
X351718723Y-107496814D01*
G75*
G02*
X352878482Y-108830965I-87196J-1246955D01*
G01*
X352837928Y-109410927D01*
G75*
G02*
X351503777Y-110570686I-1246955J87196D01*
G01*
G37*
D15*
X354171250Y-113823750D03*
X344011250Y-113823750D03*
G36*
G01*
X344444836Y-112212683D02*
X344444836Y-112212683D01*
G75*
G02*
X344352318Y-110447339I836413J928931D01*
G01*
X345664858Y-108989615D01*
G75*
G02*
X347430202Y-108897097I928931J-836413D01*
G01*
X347430202Y-108897097D01*
G75*
G02*
X347522720Y-110662441I-836413J-928931D01*
G01*
X346210180Y-112120165D01*
G75*
G02*
X344444836Y-112212683I-928931J836413D01*
G01*
G37*
D14*
X352901250Y-135413750D03*
X346551250Y-137953750D03*
D16*
X349091250Y-132873750D03*
D18*
X346591250Y-128873750D03*
G36*
G01*
X351503777Y-129620686D02*
X351503777Y-129620686D01*
G75*
G02*
X350344018Y-128286535I87196J1246955D01*
G01*
X350384572Y-127706573D01*
G75*
G02*
X351718723Y-126546814I1246955J-87196D01*
G01*
X351718723Y-126546814D01*
G75*
G02*
X352878482Y-127880965I-87196J-1246955D01*
G01*
X352837928Y-128460927D01*
G75*
G02*
X351503777Y-129620686I-1246955J87196D01*
G01*
G37*
D15*
X354171250Y-132873750D03*
X344011250Y-132873750D03*
G36*
G01*
X344444836Y-131262683D02*
X344444836Y-131262683D01*
G75*
G02*
X344352318Y-129497339I836413J928931D01*
G01*
X345664858Y-128039615D01*
G75*
G02*
X347430202Y-127947097I928931J-836413D01*
G01*
X347430202Y-127947097D01*
G75*
G02*
X347522720Y-129712441I-836413J-928931D01*
G01*
X346210180Y-131170165D01*
G75*
G02*
X344444836Y-131262683I-928931J836413D01*
G01*
G37*
D14*
X352901250Y-154463750D03*
X346551250Y-157003750D03*
D16*
X349091250Y-151923750D03*
D18*
X346591250Y-147923750D03*
G36*
G01*
X351503777Y-148670686D02*
X351503777Y-148670686D01*
G75*
G02*
X350344018Y-147336535I87196J1246955D01*
G01*
X350384572Y-146756573D01*
G75*
G02*
X351718723Y-145596814I1246955J-87196D01*
G01*
X351718723Y-145596814D01*
G75*
G02*
X352878482Y-146930965I-87196J-1246955D01*
G01*
X352837928Y-147510927D01*
G75*
G02*
X351503777Y-148670686I-1246955J87196D01*
G01*
G37*
D15*
X354171250Y-151923750D03*
X344011250Y-151923750D03*
G36*
G01*
X344444836Y-150312683D02*
X344444836Y-150312683D01*
G75*
G02*
X344352318Y-148547339I836413J928931D01*
G01*
X345664858Y-147089615D01*
G75*
G02*
X347430202Y-146997097I928931J-836413D01*
G01*
X347430202Y-146997097D01*
G75*
G02*
X347522720Y-148762441I-836413J-928931D01*
G01*
X346210180Y-150220165D01*
G75*
G02*
X344444836Y-150312683I-928931J836413D01*
G01*
G37*
D14*
X352901250Y-173513750D03*
X346551250Y-176053750D03*
D16*
X349091250Y-170973750D03*
D18*
X346591250Y-166973750D03*
G36*
G01*
X351503777Y-167720686D02*
X351503777Y-167720686D01*
G75*
G02*
X350344018Y-166386535I87196J1246955D01*
G01*
X350384572Y-165806573D01*
G75*
G02*
X351718723Y-164646814I1246955J-87196D01*
G01*
X351718723Y-164646814D01*
G75*
G02*
X352878482Y-165980965I-87196J-1246955D01*
G01*
X352837928Y-166560927D01*
G75*
G02*
X351503777Y-167720686I-1246955J87196D01*
G01*
G37*
D15*
X354171250Y-170973750D03*
X344011250Y-170973750D03*
G36*
G01*
X344444836Y-169362683D02*
X344444836Y-169362683D01*
G75*
G02*
X344352318Y-167597339I836413J928931D01*
G01*
X345664858Y-166139615D01*
G75*
G02*
X347430202Y-166047097I928931J-836413D01*
G01*
X347430202Y-166047097D01*
G75*
G02*
X347522720Y-167812441I-836413J-928931D01*
G01*
X346210180Y-169270165D01*
G75*
G02*
X344444836Y-169362683I-928931J836413D01*
G01*
G37*
D14*
X333851250Y-154463750D03*
X327501250Y-157003750D03*
D16*
X330041250Y-151923750D03*
D18*
X327541250Y-147923750D03*
G36*
G01*
X332453777Y-148670686D02*
X332453777Y-148670686D01*
G75*
G02*
X331294018Y-147336535I87196J1246955D01*
G01*
X331334572Y-146756573D01*
G75*
G02*
X332668723Y-145596814I1246955J-87196D01*
G01*
X332668723Y-145596814D01*
G75*
G02*
X333828482Y-146930965I-87196J-1246955D01*
G01*
X333787928Y-147510927D01*
G75*
G02*
X332453777Y-148670686I-1246955J87196D01*
G01*
G37*
D15*
X335121250Y-151923750D03*
X324961250Y-151923750D03*
G36*
G01*
X325394836Y-150312683D02*
X325394836Y-150312683D01*
G75*
G02*
X325302318Y-148547339I836413J928931D01*
G01*
X326614858Y-147089615D01*
G75*
G02*
X328380202Y-146997097I928931J-836413D01*
G01*
X328380202Y-146997097D01*
G75*
G02*
X328472720Y-148762441I-836413J-928931D01*
G01*
X327160180Y-150220165D01*
G75*
G02*
X325394836Y-150312683I-928931J836413D01*
G01*
G37*
D14*
X305276250Y-116363750D03*
X298926250Y-118903750D03*
D16*
X301466250Y-113823750D03*
D18*
X298966250Y-109823750D03*
G36*
G01*
X303878777Y-110570686D02*
X303878777Y-110570686D01*
G75*
G02*
X302719018Y-109236535I87196J1246955D01*
G01*
X302759572Y-108656573D01*
G75*
G02*
X304093723Y-107496814I1246955J-87196D01*
G01*
X304093723Y-107496814D01*
G75*
G02*
X305253482Y-108830965I-87196J-1246955D01*
G01*
X305212928Y-109410927D01*
G75*
G02*
X303878777Y-110570686I-1246955J87196D01*
G01*
G37*
D15*
X306546250Y-113823750D03*
X296386250Y-113823750D03*
G36*
G01*
X296819836Y-112212683D02*
X296819836Y-112212683D01*
G75*
G02*
X296727318Y-110447339I836413J928931D01*
G01*
X298039858Y-108989615D01*
G75*
G02*
X299805202Y-108897097I928931J-836413D01*
G01*
X299805202Y-108897097D01*
G75*
G02*
X299897720Y-110662441I-836413J-928931D01*
G01*
X298585180Y-112120165D01*
G75*
G02*
X296819836Y-112212683I-928931J836413D01*
G01*
G37*
D14*
X295751250Y-97313750D03*
X289401250Y-99853750D03*
D16*
X291941250Y-94773750D03*
D18*
X289441250Y-90773750D03*
G36*
G01*
X294353777Y-91520686D02*
X294353777Y-91520686D01*
G75*
G02*
X293194018Y-90186535I87196J1246955D01*
G01*
X293234572Y-89606573D01*
G75*
G02*
X294568723Y-88446814I1246955J-87196D01*
G01*
X294568723Y-88446814D01*
G75*
G02*
X295728482Y-89780965I-87196J-1246955D01*
G01*
X295687928Y-90360927D01*
G75*
G02*
X294353777Y-91520686I-1246955J87196D01*
G01*
G37*
D15*
X297021250Y-94773750D03*
X286861250Y-94773750D03*
G36*
G01*
X287294836Y-93162683D02*
X287294836Y-93162683D01*
G75*
G02*
X287202318Y-91397339I836413J928931D01*
G01*
X288514858Y-89939615D01*
G75*
G02*
X290280202Y-89847097I928931J-836413D01*
G01*
X290280202Y-89847097D01*
G75*
G02*
X290372720Y-91612441I-836413J-928931D01*
G01*
X289060180Y-93070165D01*
G75*
G02*
X287294836Y-93162683I-928931J836413D01*
G01*
G37*
D14*
X281464250Y-154463750D03*
X275114250Y-157003750D03*
D16*
X277654250Y-151923750D03*
D18*
X275154250Y-147923750D03*
G36*
G01*
X280066777Y-148670686D02*
X280066777Y-148670686D01*
G75*
G02*
X278907018Y-147336535I87196J1246955D01*
G01*
X278947572Y-146756573D01*
G75*
G02*
X280281723Y-145596814I1246955J-87196D01*
G01*
X280281723Y-145596814D01*
G75*
G02*
X281441482Y-146930965I-87196J-1246955D01*
G01*
X281400928Y-147510927D01*
G75*
G02*
X280066777Y-148670686I-1246955J87196D01*
G01*
G37*
D15*
X282734250Y-151923750D03*
X272574250Y-151923750D03*
G36*
G01*
X273007836Y-150312683D02*
X273007836Y-150312683D01*
G75*
G02*
X272915318Y-148547339I836413J928931D01*
G01*
X274227858Y-147089615D01*
G75*
G02*
X275993202Y-146997097I928931J-836413D01*
G01*
X275993202Y-146997097D01*
G75*
G02*
X276085720Y-148762441I-836413J-928931D01*
G01*
X274773180Y-150220165D01*
G75*
G02*
X273007836Y-150312683I-928931J836413D01*
G01*
G37*
D14*
X290988250Y-135413750D03*
X284638250Y-137953750D03*
D16*
X287178250Y-132873750D03*
D18*
X284678250Y-128873750D03*
G36*
G01*
X289590777Y-129620686D02*
X289590777Y-129620686D01*
G75*
G02*
X288431018Y-128286535I87196J1246955D01*
G01*
X288471572Y-127706573D01*
G75*
G02*
X289805723Y-126546814I1246955J-87196D01*
G01*
X289805723Y-126546814D01*
G75*
G02*
X290965482Y-127880965I-87196J-1246955D01*
G01*
X290924928Y-128460927D01*
G75*
G02*
X289590777Y-129620686I-1246955J87196D01*
G01*
G37*
D15*
X292258250Y-132873750D03*
X282098250Y-132873750D03*
G36*
G01*
X282531836Y-131262683D02*
X282531836Y-131262683D01*
G75*
G02*
X282439318Y-129497339I836413J928931D01*
G01*
X283751858Y-128039615D01*
G75*
G02*
X285517202Y-127947097I928931J-836413D01*
G01*
X285517202Y-127947097D01*
G75*
G02*
X285609720Y-129712441I-836413J-928931D01*
G01*
X284297180Y-131170165D01*
G75*
G02*
X282531836Y-131262683I-928931J836413D01*
G01*
G37*
D14*
X286226250Y-116363750D03*
X279876250Y-118903750D03*
D16*
X282416250Y-113823750D03*
D18*
X279916250Y-109823750D03*
G36*
G01*
X284828777Y-110570686D02*
X284828777Y-110570686D01*
G75*
G02*
X283669018Y-109236535I87196J1246955D01*
G01*
X283709572Y-108656573D01*
G75*
G02*
X285043723Y-107496814I1246955J-87196D01*
G01*
X285043723Y-107496814D01*
G75*
G02*
X286203482Y-108830965I-87196J-1246955D01*
G01*
X286162928Y-109410927D01*
G75*
G02*
X284828777Y-110570686I-1246955J87196D01*
G01*
G37*
D15*
X287496250Y-113823750D03*
X277336250Y-113823750D03*
G36*
G01*
X277769836Y-112212683D02*
X277769836Y-112212683D01*
G75*
G02*
X277677318Y-110447339I836413J928931D01*
G01*
X278989858Y-108989615D01*
G75*
G02*
X280755202Y-108897097I928931J-836413D01*
G01*
X280755202Y-108897097D01*
G75*
G02*
X280847720Y-110662441I-836413J-928931D01*
G01*
X279535180Y-112120165D01*
G75*
G02*
X277769836Y-112212683I-928931J836413D01*
G01*
G37*
D14*
X276701250Y-97313750D03*
X270351250Y-99853750D03*
D16*
X272891250Y-94773750D03*
D18*
X270391250Y-90773750D03*
G36*
G01*
X275303777Y-91520686D02*
X275303777Y-91520686D01*
G75*
G02*
X274144018Y-90186535I87196J1246955D01*
G01*
X274184572Y-89606573D01*
G75*
G02*
X275518723Y-88446814I1246955J-87196D01*
G01*
X275518723Y-88446814D01*
G75*
G02*
X276678482Y-89780965I-87196J-1246955D01*
G01*
X276637928Y-90360927D01*
G75*
G02*
X275303777Y-91520686I-1246955J87196D01*
G01*
G37*
D15*
X277971250Y-94773750D03*
X267811250Y-94773750D03*
G36*
G01*
X268244836Y-93162683D02*
X268244836Y-93162683D01*
G75*
G02*
X268152318Y-91397339I836413J928931D01*
G01*
X269464858Y-89939615D01*
G75*
G02*
X271230202Y-89847097I928931J-836413D01*
G01*
X271230202Y-89847097D01*
G75*
G02*
X271322720Y-91612441I-836413J-928931D01*
G01*
X270010180Y-93070165D01*
G75*
G02*
X268244836Y-93162683I-928931J836413D01*
G01*
G37*
D14*
X262414250Y-154463750D03*
X256064250Y-157003750D03*
D16*
X258604250Y-151923750D03*
D18*
X256104250Y-147923750D03*
G36*
G01*
X261016777Y-148670686D02*
X261016777Y-148670686D01*
G75*
G02*
X259857018Y-147336535I87196J1246955D01*
G01*
X259897572Y-146756573D01*
G75*
G02*
X261231723Y-145596814I1246955J-87196D01*
G01*
X261231723Y-145596814D01*
G75*
G02*
X262391482Y-146930965I-87196J-1246955D01*
G01*
X262350928Y-147510927D01*
G75*
G02*
X261016777Y-148670686I-1246955J87196D01*
G01*
G37*
D15*
X263684250Y-151923750D03*
X253524250Y-151923750D03*
G36*
G01*
X253957836Y-150312683D02*
X253957836Y-150312683D01*
G75*
G02*
X253865318Y-148547339I836413J928931D01*
G01*
X255177858Y-147089615D01*
G75*
G02*
X256943202Y-146997097I928931J-836413D01*
G01*
X256943202Y-146997097D01*
G75*
G02*
X257035720Y-148762441I-836413J-928931D01*
G01*
X255723180Y-150220165D01*
G75*
G02*
X253957836Y-150312683I-928931J836413D01*
G01*
G37*
D14*
X271938250Y-135413750D03*
X265588250Y-137953750D03*
D16*
X268128250Y-132873750D03*
D18*
X265628250Y-128873750D03*
G36*
G01*
X270540777Y-129620686D02*
X270540777Y-129620686D01*
G75*
G02*
X269381018Y-128286535I87196J1246955D01*
G01*
X269421572Y-127706573D01*
G75*
G02*
X270755723Y-126546814I1246955J-87196D01*
G01*
X270755723Y-126546814D01*
G75*
G02*
X271915482Y-127880965I-87196J-1246955D01*
G01*
X271874928Y-128460927D01*
G75*
G02*
X270540777Y-129620686I-1246955J87196D01*
G01*
G37*
D15*
X273208250Y-132873750D03*
X263048250Y-132873750D03*
G36*
G01*
X263481836Y-131262683D02*
X263481836Y-131262683D01*
G75*
G02*
X263389318Y-129497339I836413J928931D01*
G01*
X264701858Y-128039615D01*
G75*
G02*
X266467202Y-127947097I928931J-836413D01*
G01*
X266467202Y-127947097D01*
G75*
G02*
X266559720Y-129712441I-836413J-928931D01*
G01*
X265247180Y-131170165D01*
G75*
G02*
X263481836Y-131262683I-928931J836413D01*
G01*
G37*
D14*
X267176250Y-116363750D03*
X260826250Y-118903750D03*
D16*
X263366250Y-113823750D03*
D18*
X260866250Y-109823750D03*
G36*
G01*
X265778777Y-110570686D02*
X265778777Y-110570686D01*
G75*
G02*
X264619018Y-109236535I87196J1246955D01*
G01*
X264659572Y-108656573D01*
G75*
G02*
X265993723Y-107496814I1246955J-87196D01*
G01*
X265993723Y-107496814D01*
G75*
G02*
X267153482Y-108830965I-87196J-1246955D01*
G01*
X267112928Y-109410927D01*
G75*
G02*
X265778777Y-110570686I-1246955J87196D01*
G01*
G37*
D15*
X268446250Y-113823750D03*
X258286250Y-113823750D03*
G36*
G01*
X258719836Y-112212683D02*
X258719836Y-112212683D01*
G75*
G02*
X258627318Y-110447339I836413J928931D01*
G01*
X259939858Y-108989615D01*
G75*
G02*
X261705202Y-108897097I928931J-836413D01*
G01*
X261705202Y-108897097D01*
G75*
G02*
X261797720Y-110662441I-836413J-928931D01*
G01*
X260485180Y-112120165D01*
G75*
G02*
X258719836Y-112212683I-928931J836413D01*
G01*
G37*
D14*
X257651250Y-97313750D03*
X251301250Y-99853750D03*
D16*
X253841250Y-94773750D03*
D18*
X251341250Y-90773750D03*
G36*
G01*
X256253777Y-91520686D02*
X256253777Y-91520686D01*
G75*
G02*
X255094018Y-90186535I87196J1246955D01*
G01*
X255134572Y-89606573D01*
G75*
G02*
X256468723Y-88446814I1246955J-87196D01*
G01*
X256468723Y-88446814D01*
G75*
G02*
X257628482Y-89780965I-87196J-1246955D01*
G01*
X257587928Y-90360927D01*
G75*
G02*
X256253777Y-91520686I-1246955J87196D01*
G01*
G37*
D15*
X258921250Y-94773750D03*
X248761250Y-94773750D03*
G36*
G01*
X249194836Y-93162683D02*
X249194836Y-93162683D01*
G75*
G02*
X249102318Y-91397339I836413J928931D01*
G01*
X250414858Y-89939615D01*
G75*
G02*
X252180202Y-89847097I928931J-836413D01*
G01*
X252180202Y-89847097D01*
G75*
G02*
X252272720Y-91612441I-836413J-928931D01*
G01*
X250960180Y-93070165D01*
G75*
G02*
X249194836Y-93162683I-928931J836413D01*
G01*
G37*
D14*
X243364250Y-154463750D03*
X237014250Y-157003750D03*
D16*
X239554250Y-151923750D03*
D18*
X237054250Y-147923750D03*
G36*
G01*
X241966777Y-148670686D02*
X241966777Y-148670686D01*
G75*
G02*
X240807018Y-147336535I87196J1246955D01*
G01*
X240847572Y-146756573D01*
G75*
G02*
X242181723Y-145596814I1246955J-87196D01*
G01*
X242181723Y-145596814D01*
G75*
G02*
X243341482Y-146930965I-87196J-1246955D01*
G01*
X243300928Y-147510927D01*
G75*
G02*
X241966777Y-148670686I-1246955J87196D01*
G01*
G37*
D15*
X244634250Y-151923750D03*
X234474250Y-151923750D03*
G36*
G01*
X234907836Y-150312683D02*
X234907836Y-150312683D01*
G75*
G02*
X234815318Y-148547339I836413J928931D01*
G01*
X236127858Y-147089615D01*
G75*
G02*
X237893202Y-146997097I928931J-836413D01*
G01*
X237893202Y-146997097D01*
G75*
G02*
X237985720Y-148762441I-836413J-928931D01*
G01*
X236673180Y-150220165D01*
G75*
G02*
X234907836Y-150312683I-928931J836413D01*
G01*
G37*
D14*
X295791528Y-173503620D03*
X289441528Y-176043620D03*
D16*
X291981528Y-170963620D03*
D18*
X289481528Y-166963620D03*
G36*
G01*
X294394055Y-167710556D02*
X294394055Y-167710556D01*
G75*
G02*
X293234296Y-166376405I87196J1246955D01*
G01*
X293274850Y-165796443D01*
G75*
G02*
X294609001Y-164636684I1246955J-87196D01*
G01*
X294609001Y-164636684D01*
G75*
G02*
X295768760Y-165970835I-87196J-1246955D01*
G01*
X295728206Y-166550797D01*
G75*
G02*
X294394055Y-167710556I-1246955J87196D01*
G01*
G37*
D15*
X297061528Y-170963620D03*
X286901528Y-170963620D03*
G36*
G01*
X287335114Y-169352553D02*
X287335114Y-169352553D01*
G75*
G02*
X287242596Y-167587209I836413J928931D01*
G01*
X288555136Y-166129485D01*
G75*
G02*
X290320480Y-166036967I928931J-836413D01*
G01*
X290320480Y-166036967D01*
G75*
G02*
X290412998Y-167802311I-836413J-928931D01*
G01*
X289100458Y-169260035D01*
G75*
G02*
X287335114Y-169352553I-928931J836413D01*
G01*
G37*
D14*
X333851250Y-173513750D03*
X327501250Y-176053750D03*
D16*
X330041250Y-170973750D03*
D18*
X327541250Y-166973750D03*
G36*
G01*
X332453777Y-167720686D02*
X332453777Y-167720686D01*
G75*
G02*
X331294018Y-166386535I87196J1246955D01*
G01*
X331334572Y-165806573D01*
G75*
G02*
X332668723Y-164646814I1246955J-87196D01*
G01*
X332668723Y-164646814D01*
G75*
G02*
X333828482Y-165980965I-87196J-1246955D01*
G01*
X333787928Y-166560927D01*
G75*
G02*
X332453777Y-167720686I-1246955J87196D01*
G01*
G37*
D15*
X335121250Y-170973750D03*
X324961250Y-170973750D03*
G36*
G01*
X325394836Y-169362683D02*
X325394836Y-169362683D01*
G75*
G02*
X325302318Y-167597339I836413J928931D01*
G01*
X326614858Y-166139615D01*
G75*
G02*
X328380202Y-166047097I928931J-836413D01*
G01*
X328380202Y-166047097D01*
G75*
G02*
X328472720Y-167812441I-836413J-928931D01*
G01*
X327160180Y-169270165D01*
G75*
G02*
X325394836Y-169362683I-928931J836413D01*
G01*
G37*
D14*
X314801250Y-173513750D03*
X308451250Y-176053750D03*
D16*
X310991250Y-170973750D03*
D18*
X308491250Y-166973750D03*
G36*
G01*
X313403777Y-167720686D02*
X313403777Y-167720686D01*
G75*
G02*
X312244018Y-166386535I87196J1246955D01*
G01*
X312284572Y-165806573D01*
G75*
G02*
X313618723Y-164646814I1246955J-87196D01*
G01*
X313618723Y-164646814D01*
G75*
G02*
X314778482Y-165980965I-87196J-1246955D01*
G01*
X314737928Y-166560927D01*
G75*
G02*
X313403777Y-167720686I-1246955J87196D01*
G01*
G37*
D15*
X316071250Y-170973750D03*
X305911250Y-170973750D03*
G36*
G01*
X306344836Y-169362683D02*
X306344836Y-169362683D01*
G75*
G02*
X306252318Y-167597339I836413J928931D01*
G01*
X307564858Y-166139615D01*
G75*
G02*
X309330202Y-166047097I928931J-836413D01*
G01*
X309330202Y-166047097D01*
G75*
G02*
X309422720Y-167812441I-836413J-928931D01*
G01*
X308110180Y-169270165D01*
G75*
G02*
X306344836Y-169362683I-928931J836413D01*
G01*
G37*
D14*
X188595250Y-173513750D03*
X182245250Y-176053750D03*
D16*
X184785250Y-170973750D03*
D18*
X182285250Y-166973750D03*
G36*
G01*
X187197777Y-167720686D02*
X187197777Y-167720686D01*
G75*
G02*
X186038018Y-166386535I87196J1246955D01*
G01*
X186078572Y-165806573D01*
G75*
G02*
X187412723Y-164646814I1246955J-87196D01*
G01*
X187412723Y-164646814D01*
G75*
G02*
X188572482Y-165980965I-87196J-1246955D01*
G01*
X188531928Y-166560927D01*
G75*
G02*
X187197777Y-167720686I-1246955J87196D01*
G01*
G37*
D15*
X189865250Y-170973750D03*
X179705250Y-170973750D03*
G36*
G01*
X180138836Y-169362683D02*
X180138836Y-169362683D01*
G75*
G02*
X180046318Y-167597339I836413J928931D01*
G01*
X181358858Y-166139615D01*
G75*
G02*
X183124202Y-166047097I928931J-836413D01*
G01*
X183124202Y-166047097D01*
G75*
G02*
X183216720Y-167812441I-836413J-928931D01*
G01*
X181904180Y-169270165D01*
G75*
G02*
X180138836Y-169362683I-928931J836413D01*
G01*
G37*
D14*
X224314250Y-154463750D03*
X217964250Y-157003750D03*
D16*
X220504250Y-151923750D03*
D18*
X218004250Y-147923750D03*
G36*
G01*
X222916777Y-148670686D02*
X222916777Y-148670686D01*
G75*
G02*
X221757018Y-147336535I87196J1246955D01*
G01*
X221797572Y-146756573D01*
G75*
G02*
X223131723Y-145596814I1246955J-87196D01*
G01*
X223131723Y-145596814D01*
G75*
G02*
X224291482Y-146930965I-87196J-1246955D01*
G01*
X224250928Y-147510927D01*
G75*
G02*
X222916777Y-148670686I-1246955J87196D01*
G01*
G37*
D15*
X225584250Y-151923750D03*
X215424250Y-151923750D03*
G36*
G01*
X215857836Y-150312683D02*
X215857836Y-150312683D01*
G75*
G02*
X215765318Y-148547339I836413J928931D01*
G01*
X217077858Y-147089615D01*
G75*
G02*
X218843202Y-146997097I928931J-836413D01*
G01*
X218843202Y-146997097D01*
G75*
G02*
X218935720Y-148762441I-836413J-928931D01*
G01*
X217623180Y-150220165D01*
G75*
G02*
X215857836Y-150312683I-928931J836413D01*
G01*
G37*
D14*
X205264250Y-154463750D03*
X198914250Y-157003750D03*
D16*
X201454250Y-151923750D03*
D18*
X198954250Y-147923750D03*
G36*
G01*
X203866777Y-148670686D02*
X203866777Y-148670686D01*
G75*
G02*
X202707018Y-147336535I87196J1246955D01*
G01*
X202747572Y-146756573D01*
G75*
G02*
X204081723Y-145596814I1246955J-87196D01*
G01*
X204081723Y-145596814D01*
G75*
G02*
X205241482Y-146930965I-87196J-1246955D01*
G01*
X205200928Y-147510927D01*
G75*
G02*
X203866777Y-148670686I-1246955J87196D01*
G01*
G37*
D15*
X206534250Y-151923750D03*
X196374250Y-151923750D03*
G36*
G01*
X196807836Y-150312683D02*
X196807836Y-150312683D01*
G75*
G02*
X196715318Y-148547339I836413J928931D01*
G01*
X198027858Y-147089615D01*
G75*
G02*
X199793202Y-146997097I928931J-836413D01*
G01*
X199793202Y-146997097D01*
G75*
G02*
X199885720Y-148762441I-836413J-928931D01*
G01*
X198573180Y-150220165D01*
G75*
G02*
X196807836Y-150312683I-928931J836413D01*
G01*
G37*
D14*
X186214250Y-154463750D03*
X179864250Y-157003750D03*
D16*
X182404250Y-151923750D03*
D18*
X179904250Y-147923750D03*
G36*
G01*
X184816777Y-148670686D02*
X184816777Y-148670686D01*
G75*
G02*
X183657018Y-147336535I87196J1246955D01*
G01*
X183697572Y-146756573D01*
G75*
G02*
X185031723Y-145596814I1246955J-87196D01*
G01*
X185031723Y-145596814D01*
G75*
G02*
X186191482Y-146930965I-87196J-1246955D01*
G01*
X186150928Y-147510927D01*
G75*
G02*
X184816777Y-148670686I-1246955J87196D01*
G01*
G37*
D15*
X187484250Y-151923750D03*
X177324250Y-151923750D03*
G36*
G01*
X177757836Y-150312683D02*
X177757836Y-150312683D01*
G75*
G02*
X177665318Y-148547339I836413J928931D01*
G01*
X178977858Y-147089615D01*
G75*
G02*
X180743202Y-146997097I928931J-836413D01*
G01*
X180743202Y-146997097D01*
G75*
G02*
X180835720Y-148762441I-836413J-928931D01*
G01*
X179523180Y-150220165D01*
G75*
G02*
X177757836Y-150312683I-928931J836413D01*
G01*
G37*
D14*
X167164250Y-154463750D03*
X160814250Y-157003750D03*
D16*
X163354250Y-151923750D03*
D18*
X160854250Y-147923750D03*
G36*
G01*
X165766777Y-148670686D02*
X165766777Y-148670686D01*
G75*
G02*
X164607018Y-147336535I87196J1246955D01*
G01*
X164647572Y-146756573D01*
G75*
G02*
X165981723Y-145596814I1246955J-87196D01*
G01*
X165981723Y-145596814D01*
G75*
G02*
X167141482Y-146930965I-87196J-1246955D01*
G01*
X167100928Y-147510927D01*
G75*
G02*
X165766777Y-148670686I-1246955J87196D01*
G01*
G37*
D15*
X168434250Y-151923750D03*
X158274250Y-151923750D03*
G36*
G01*
X158707836Y-150312683D02*
X158707836Y-150312683D01*
G75*
G02*
X158615318Y-148547339I836413J928931D01*
G01*
X159927858Y-147089615D01*
G75*
G02*
X161693202Y-146997097I928931J-836413D01*
G01*
X161693202Y-146997097D01*
G75*
G02*
X161785720Y-148762441I-836413J-928931D01*
G01*
X160473180Y-150220165D01*
G75*
G02*
X158707836Y-150312683I-928931J836413D01*
G01*
G37*
D14*
X148113750Y-154463750D03*
X141763750Y-157003750D03*
D16*
X144303750Y-151923750D03*
D18*
X141803750Y-147923750D03*
G36*
G01*
X146716277Y-148670686D02*
X146716277Y-148670686D01*
G75*
G02*
X145556518Y-147336535I87196J1246955D01*
G01*
X145597072Y-146756573D01*
G75*
G02*
X146931223Y-145596814I1246955J-87196D01*
G01*
X146931223Y-145596814D01*
G75*
G02*
X148090982Y-146930965I-87196J-1246955D01*
G01*
X148050428Y-147510927D01*
G75*
G02*
X146716277Y-148670686I-1246955J87196D01*
G01*
G37*
D15*
X149383750Y-151923750D03*
X139223750Y-151923750D03*
G36*
G01*
X139657336Y-150312683D02*
X139657336Y-150312683D01*
G75*
G02*
X139564818Y-148547339I836413J928931D01*
G01*
X140877358Y-147089615D01*
G75*
G02*
X142642702Y-146997097I928931J-836413D01*
G01*
X142642702Y-146997097D01*
G75*
G02*
X142735220Y-148762441I-836413J-928931D01*
G01*
X141422680Y-150220165D01*
G75*
G02*
X139657336Y-150312683I-928931J836413D01*
G01*
G37*
D14*
X129063750Y-154463750D03*
X122713750Y-157003750D03*
D16*
X125253750Y-151923750D03*
D18*
X122753750Y-147923750D03*
G36*
G01*
X127666277Y-148670686D02*
X127666277Y-148670686D01*
G75*
G02*
X126506518Y-147336535I87196J1246955D01*
G01*
X126547072Y-146756573D01*
G75*
G02*
X127881223Y-145596814I1246955J-87196D01*
G01*
X127881223Y-145596814D01*
G75*
G02*
X129040982Y-146930965I-87196J-1246955D01*
G01*
X129000428Y-147510927D01*
G75*
G02*
X127666277Y-148670686I-1246955J87196D01*
G01*
G37*
D15*
X130333750Y-151923750D03*
X120173750Y-151923750D03*
G36*
G01*
X120607336Y-150312683D02*
X120607336Y-150312683D01*
G75*
G02*
X120514818Y-148547339I836413J928931D01*
G01*
X121827358Y-147089615D01*
G75*
G02*
X123592702Y-146997097I928931J-836413D01*
G01*
X123592702Y-146997097D01*
G75*
G02*
X123685220Y-148762441I-836413J-928931D01*
G01*
X122372680Y-150220165D01*
G75*
G02*
X120607336Y-150312683I-928931J836413D01*
G01*
G37*
D14*
X110013750Y-154463750D03*
X103663750Y-157003750D03*
D16*
X106203750Y-151923750D03*
D18*
X103703750Y-147923750D03*
G36*
G01*
X108616277Y-148670686D02*
X108616277Y-148670686D01*
G75*
G02*
X107456518Y-147336535I87196J1246955D01*
G01*
X107497072Y-146756573D01*
G75*
G02*
X108831223Y-145596814I1246955J-87196D01*
G01*
X108831223Y-145596814D01*
G75*
G02*
X109990982Y-146930965I-87196J-1246955D01*
G01*
X109950428Y-147510927D01*
G75*
G02*
X108616277Y-148670686I-1246955J87196D01*
G01*
G37*
D15*
X111283750Y-151923750D03*
X101123750Y-151923750D03*
G36*
G01*
X101557336Y-150312683D02*
X101557336Y-150312683D01*
G75*
G02*
X101464818Y-148547339I836413J928931D01*
G01*
X102777358Y-147089615D01*
G75*
G02*
X104542702Y-146997097I928931J-836413D01*
G01*
X104542702Y-146997097D01*
G75*
G02*
X104635220Y-148762441I-836413J-928931D01*
G01*
X103322680Y-150220165D01*
G75*
G02*
X101557336Y-150312683I-928931J836413D01*
G01*
G37*
D14*
X252888250Y-135413750D03*
X246538250Y-137953750D03*
D16*
X249078250Y-132873750D03*
D18*
X246578250Y-128873750D03*
G36*
G01*
X251490777Y-129620686D02*
X251490777Y-129620686D01*
G75*
G02*
X250331018Y-128286535I87196J1246955D01*
G01*
X250371572Y-127706573D01*
G75*
G02*
X251705723Y-126546814I1246955J-87196D01*
G01*
X251705723Y-126546814D01*
G75*
G02*
X252865482Y-127880965I-87196J-1246955D01*
G01*
X252824928Y-128460927D01*
G75*
G02*
X251490777Y-129620686I-1246955J87196D01*
G01*
G37*
D15*
X254158250Y-132873750D03*
X243998250Y-132873750D03*
G36*
G01*
X244431836Y-131262683D02*
X244431836Y-131262683D01*
G75*
G02*
X244339318Y-129497339I836413J928931D01*
G01*
X245651858Y-128039615D01*
G75*
G02*
X247417202Y-127947097I928931J-836413D01*
G01*
X247417202Y-127947097D01*
G75*
G02*
X247509720Y-129712441I-836413J-928931D01*
G01*
X246197180Y-131170165D01*
G75*
G02*
X244431836Y-131262683I-928931J836413D01*
G01*
G37*
D14*
X233838250Y-135413750D03*
X227488250Y-137953750D03*
D16*
X230028250Y-132873750D03*
D18*
X227528250Y-128873750D03*
G36*
G01*
X232440777Y-129620686D02*
X232440777Y-129620686D01*
G75*
G02*
X231281018Y-128286535I87196J1246955D01*
G01*
X231321572Y-127706573D01*
G75*
G02*
X232655723Y-126546814I1246955J-87196D01*
G01*
X232655723Y-126546814D01*
G75*
G02*
X233815482Y-127880965I-87196J-1246955D01*
G01*
X233774928Y-128460927D01*
G75*
G02*
X232440777Y-129620686I-1246955J87196D01*
G01*
G37*
D15*
X235108250Y-132873750D03*
X224948250Y-132873750D03*
G36*
G01*
X225381836Y-131262683D02*
X225381836Y-131262683D01*
G75*
G02*
X225289318Y-129497339I836413J928931D01*
G01*
X226601858Y-128039615D01*
G75*
G02*
X228367202Y-127947097I928931J-836413D01*
G01*
X228367202Y-127947097D01*
G75*
G02*
X228459720Y-129712441I-836413J-928931D01*
G01*
X227147180Y-131170165D01*
G75*
G02*
X225381836Y-131262683I-928931J836413D01*
G01*
G37*
D14*
X214788250Y-135413750D03*
X208438250Y-137953750D03*
D16*
X210978250Y-132873750D03*
D18*
X208478250Y-128873750D03*
G36*
G01*
X213390777Y-129620686D02*
X213390777Y-129620686D01*
G75*
G02*
X212231018Y-128286535I87196J1246955D01*
G01*
X212271572Y-127706573D01*
G75*
G02*
X213605723Y-126546814I1246955J-87196D01*
G01*
X213605723Y-126546814D01*
G75*
G02*
X214765482Y-127880965I-87196J-1246955D01*
G01*
X214724928Y-128460927D01*
G75*
G02*
X213390777Y-129620686I-1246955J87196D01*
G01*
G37*
D15*
X216058250Y-132873750D03*
X205898250Y-132873750D03*
G36*
G01*
X206331836Y-131262683D02*
X206331836Y-131262683D01*
G75*
G02*
X206239318Y-129497339I836413J928931D01*
G01*
X207551858Y-128039615D01*
G75*
G02*
X209317202Y-127947097I928931J-836413D01*
G01*
X209317202Y-127947097D01*
G75*
G02*
X209409720Y-129712441I-836413J-928931D01*
G01*
X208097180Y-131170165D01*
G75*
G02*
X206331836Y-131262683I-928931J836413D01*
G01*
G37*
D14*
X195738250Y-135413750D03*
X189388250Y-137953750D03*
D16*
X191928250Y-132873750D03*
D18*
X189428250Y-128873750D03*
G36*
G01*
X194340777Y-129620686D02*
X194340777Y-129620686D01*
G75*
G02*
X193181018Y-128286535I87196J1246955D01*
G01*
X193221572Y-127706573D01*
G75*
G02*
X194555723Y-126546814I1246955J-87196D01*
G01*
X194555723Y-126546814D01*
G75*
G02*
X195715482Y-127880965I-87196J-1246955D01*
G01*
X195674928Y-128460927D01*
G75*
G02*
X194340777Y-129620686I-1246955J87196D01*
G01*
G37*
D15*
X197008250Y-132873750D03*
X186848250Y-132873750D03*
G36*
G01*
X187281836Y-131262683D02*
X187281836Y-131262683D01*
G75*
G02*
X187189318Y-129497339I836413J928931D01*
G01*
X188501858Y-128039615D01*
G75*
G02*
X190267202Y-127947097I928931J-836413D01*
G01*
X190267202Y-127947097D01*
G75*
G02*
X190359720Y-129712441I-836413J-928931D01*
G01*
X189047180Y-131170165D01*
G75*
G02*
X187281836Y-131262683I-928931J836413D01*
G01*
G37*
D14*
X176688250Y-135413750D03*
X170338250Y-137953750D03*
D16*
X172878250Y-132873750D03*
D18*
X170378250Y-128873750D03*
G36*
G01*
X175290777Y-129620686D02*
X175290777Y-129620686D01*
G75*
G02*
X174131018Y-128286535I87196J1246955D01*
G01*
X174171572Y-127706573D01*
G75*
G02*
X175505723Y-126546814I1246955J-87196D01*
G01*
X175505723Y-126546814D01*
G75*
G02*
X176665482Y-127880965I-87196J-1246955D01*
G01*
X176624928Y-128460927D01*
G75*
G02*
X175290777Y-129620686I-1246955J87196D01*
G01*
G37*
D15*
X177958250Y-132873750D03*
X167798250Y-132873750D03*
G36*
G01*
X168231836Y-131262683D02*
X168231836Y-131262683D01*
G75*
G02*
X168139318Y-129497339I836413J928931D01*
G01*
X169451858Y-128039615D01*
G75*
G02*
X171217202Y-127947097I928931J-836413D01*
G01*
X171217202Y-127947097D01*
G75*
G02*
X171309720Y-129712441I-836413J-928931D01*
G01*
X169997180Y-131170165D01*
G75*
G02*
X168231836Y-131262683I-928931J836413D01*
G01*
G37*
D14*
X157638250Y-135413750D03*
X151288250Y-137953750D03*
D16*
X153828250Y-132873750D03*
D18*
X151328250Y-128873750D03*
G36*
G01*
X156240777Y-129620686D02*
X156240777Y-129620686D01*
G75*
G02*
X155081018Y-128286535I87196J1246955D01*
G01*
X155121572Y-127706573D01*
G75*
G02*
X156455723Y-126546814I1246955J-87196D01*
G01*
X156455723Y-126546814D01*
G75*
G02*
X157615482Y-127880965I-87196J-1246955D01*
G01*
X157574928Y-128460927D01*
G75*
G02*
X156240777Y-129620686I-1246955J87196D01*
G01*
G37*
D15*
X158908250Y-132873750D03*
X148748250Y-132873750D03*
G36*
G01*
X149181836Y-131262683D02*
X149181836Y-131262683D01*
G75*
G02*
X149089318Y-129497339I836413J928931D01*
G01*
X150401858Y-128039615D01*
G75*
G02*
X152167202Y-127947097I928931J-836413D01*
G01*
X152167202Y-127947097D01*
G75*
G02*
X152259720Y-129712441I-836413J-928931D01*
G01*
X150947180Y-131170165D01*
G75*
G02*
X149181836Y-131262683I-928931J836413D01*
G01*
G37*
D14*
X138588750Y-135413750D03*
X132238750Y-137953750D03*
D16*
X134778750Y-132873750D03*
D18*
X132278750Y-128873750D03*
G36*
G01*
X137191277Y-129620686D02*
X137191277Y-129620686D01*
G75*
G02*
X136031518Y-128286535I87196J1246955D01*
G01*
X136072072Y-127706573D01*
G75*
G02*
X137406223Y-126546814I1246955J-87196D01*
G01*
X137406223Y-126546814D01*
G75*
G02*
X138565982Y-127880965I-87196J-1246955D01*
G01*
X138525428Y-128460927D01*
G75*
G02*
X137191277Y-129620686I-1246955J87196D01*
G01*
G37*
D15*
X139858750Y-132873750D03*
X129698750Y-132873750D03*
G36*
G01*
X130132336Y-131262683D02*
X130132336Y-131262683D01*
G75*
G02*
X130039818Y-129497339I836413J928931D01*
G01*
X131352358Y-128039615D01*
G75*
G02*
X133117702Y-127947097I928931J-836413D01*
G01*
X133117702Y-127947097D01*
G75*
G02*
X133210220Y-129712441I-836413J-928931D01*
G01*
X131897680Y-131170165D01*
G75*
G02*
X130132336Y-131262683I-928931J836413D01*
G01*
G37*
D14*
X119538750Y-135413750D03*
X113188750Y-137953750D03*
D16*
X115728750Y-132873750D03*
D18*
X113228750Y-128873750D03*
G36*
G01*
X118141277Y-129620686D02*
X118141277Y-129620686D01*
G75*
G02*
X116981518Y-128286535I87196J1246955D01*
G01*
X117022072Y-127706573D01*
G75*
G02*
X118356223Y-126546814I1246955J-87196D01*
G01*
X118356223Y-126546814D01*
G75*
G02*
X119515982Y-127880965I-87196J-1246955D01*
G01*
X119475428Y-128460927D01*
G75*
G02*
X118141277Y-129620686I-1246955J87196D01*
G01*
G37*
D15*
X120808750Y-132873750D03*
X110648750Y-132873750D03*
G36*
G01*
X111082336Y-131262683D02*
X111082336Y-131262683D01*
G75*
G02*
X110989818Y-129497339I836413J928931D01*
G01*
X112302358Y-128039615D01*
G75*
G02*
X114067702Y-127947097I928931J-836413D01*
G01*
X114067702Y-127947097D01*
G75*
G02*
X114160220Y-129712441I-836413J-928931D01*
G01*
X112847680Y-131170165D01*
G75*
G02*
X111082336Y-131262683I-928931J836413D01*
G01*
G37*
D14*
X100488750Y-135413750D03*
X94138750Y-137953750D03*
D16*
X96678750Y-132873750D03*
D18*
X94178750Y-128873750D03*
G36*
G01*
X99091277Y-129620686D02*
X99091277Y-129620686D01*
G75*
G02*
X97931518Y-128286535I87196J1246955D01*
G01*
X97972072Y-127706573D01*
G75*
G02*
X99306223Y-126546814I1246955J-87196D01*
G01*
X99306223Y-126546814D01*
G75*
G02*
X100465982Y-127880965I-87196J-1246955D01*
G01*
X100425428Y-128460927D01*
G75*
G02*
X99091277Y-129620686I-1246955J87196D01*
G01*
G37*
D15*
X101758750Y-132873750D03*
X91598750Y-132873750D03*
G36*
G01*
X92032336Y-131262683D02*
X92032336Y-131262683D01*
G75*
G02*
X91939818Y-129497339I836413J928931D01*
G01*
X93252358Y-128039615D01*
G75*
G02*
X95017702Y-127947097I928931J-836413D01*
G01*
X95017702Y-127947097D01*
G75*
G02*
X95110220Y-129712441I-836413J-928931D01*
G01*
X93797680Y-131170165D01*
G75*
G02*
X92032336Y-131262683I-928931J836413D01*
G01*
G37*
D14*
X248126250Y-116363750D03*
X241776250Y-118903750D03*
D16*
X244316250Y-113823750D03*
D18*
X241816250Y-109823750D03*
G36*
G01*
X246728777Y-110570686D02*
X246728777Y-110570686D01*
G75*
G02*
X245569018Y-109236535I87196J1246955D01*
G01*
X245609572Y-108656573D01*
G75*
G02*
X246943723Y-107496814I1246955J-87196D01*
G01*
X246943723Y-107496814D01*
G75*
G02*
X248103482Y-108830965I-87196J-1246955D01*
G01*
X248062928Y-109410927D01*
G75*
G02*
X246728777Y-110570686I-1246955J87196D01*
G01*
G37*
D15*
X249396250Y-113823750D03*
X239236250Y-113823750D03*
G36*
G01*
X239669836Y-112212683D02*
X239669836Y-112212683D01*
G75*
G02*
X239577318Y-110447339I836413J928931D01*
G01*
X240889858Y-108989615D01*
G75*
G02*
X242655202Y-108897097I928931J-836413D01*
G01*
X242655202Y-108897097D01*
G75*
G02*
X242747720Y-110662441I-836413J-928931D01*
G01*
X241435180Y-112120165D01*
G75*
G02*
X239669836Y-112212683I-928931J836413D01*
G01*
G37*
D14*
X229076250Y-116363750D03*
X222726250Y-118903750D03*
D16*
X225266250Y-113823750D03*
D18*
X222766250Y-109823750D03*
G36*
G01*
X227678777Y-110570686D02*
X227678777Y-110570686D01*
G75*
G02*
X226519018Y-109236535I87196J1246955D01*
G01*
X226559572Y-108656573D01*
G75*
G02*
X227893723Y-107496814I1246955J-87196D01*
G01*
X227893723Y-107496814D01*
G75*
G02*
X229053482Y-108830965I-87196J-1246955D01*
G01*
X229012928Y-109410927D01*
G75*
G02*
X227678777Y-110570686I-1246955J87196D01*
G01*
G37*
D15*
X230346250Y-113823750D03*
X220186250Y-113823750D03*
G36*
G01*
X220619836Y-112212683D02*
X220619836Y-112212683D01*
G75*
G02*
X220527318Y-110447339I836413J928931D01*
G01*
X221839858Y-108989615D01*
G75*
G02*
X223605202Y-108897097I928931J-836413D01*
G01*
X223605202Y-108897097D01*
G75*
G02*
X223697720Y-110662441I-836413J-928931D01*
G01*
X222385180Y-112120165D01*
G75*
G02*
X220619836Y-112212683I-928931J836413D01*
G01*
G37*
D14*
X210026250Y-116363750D03*
X203676250Y-118903750D03*
D16*
X206216250Y-113823750D03*
D18*
X203716250Y-109823750D03*
G36*
G01*
X208628777Y-110570686D02*
X208628777Y-110570686D01*
G75*
G02*
X207469018Y-109236535I87196J1246955D01*
G01*
X207509572Y-108656573D01*
G75*
G02*
X208843723Y-107496814I1246955J-87196D01*
G01*
X208843723Y-107496814D01*
G75*
G02*
X210003482Y-108830965I-87196J-1246955D01*
G01*
X209962928Y-109410927D01*
G75*
G02*
X208628777Y-110570686I-1246955J87196D01*
G01*
G37*
D15*
X211296250Y-113823750D03*
X201136250Y-113823750D03*
G36*
G01*
X201569836Y-112212683D02*
X201569836Y-112212683D01*
G75*
G02*
X201477318Y-110447339I836413J928931D01*
G01*
X202789858Y-108989615D01*
G75*
G02*
X204555202Y-108897097I928931J-836413D01*
G01*
X204555202Y-108897097D01*
G75*
G02*
X204647720Y-110662441I-836413J-928931D01*
G01*
X203335180Y-112120165D01*
G75*
G02*
X201569836Y-112212683I-928931J836413D01*
G01*
G37*
D14*
X190976250Y-116363750D03*
X184626250Y-118903750D03*
D16*
X187166250Y-113823750D03*
D18*
X184666250Y-109823750D03*
G36*
G01*
X189578777Y-110570686D02*
X189578777Y-110570686D01*
G75*
G02*
X188419018Y-109236535I87196J1246955D01*
G01*
X188459572Y-108656573D01*
G75*
G02*
X189793723Y-107496814I1246955J-87196D01*
G01*
X189793723Y-107496814D01*
G75*
G02*
X190953482Y-108830965I-87196J-1246955D01*
G01*
X190912928Y-109410927D01*
G75*
G02*
X189578777Y-110570686I-1246955J87196D01*
G01*
G37*
D15*
X192246250Y-113823750D03*
X182086250Y-113823750D03*
G36*
G01*
X182519836Y-112212683D02*
X182519836Y-112212683D01*
G75*
G02*
X182427318Y-110447339I836413J928931D01*
G01*
X183739858Y-108989615D01*
G75*
G02*
X185505202Y-108897097I928931J-836413D01*
G01*
X185505202Y-108897097D01*
G75*
G02*
X185597720Y-110662441I-836413J-928931D01*
G01*
X184285180Y-112120165D01*
G75*
G02*
X182519836Y-112212683I-928931J836413D01*
G01*
G37*
D14*
X171926250Y-116363750D03*
X165576250Y-118903750D03*
D16*
X168116250Y-113823750D03*
D18*
X165616250Y-109823750D03*
G36*
G01*
X170528777Y-110570686D02*
X170528777Y-110570686D01*
G75*
G02*
X169369018Y-109236535I87196J1246955D01*
G01*
X169409572Y-108656573D01*
G75*
G02*
X170743723Y-107496814I1246955J-87196D01*
G01*
X170743723Y-107496814D01*
G75*
G02*
X171903482Y-108830965I-87196J-1246955D01*
G01*
X171862928Y-109410927D01*
G75*
G02*
X170528777Y-110570686I-1246955J87196D01*
G01*
G37*
D15*
X173196250Y-113823750D03*
X163036250Y-113823750D03*
G36*
G01*
X163469836Y-112212683D02*
X163469836Y-112212683D01*
G75*
G02*
X163377318Y-110447339I836413J928931D01*
G01*
X164689858Y-108989615D01*
G75*
G02*
X166455202Y-108897097I928931J-836413D01*
G01*
X166455202Y-108897097D01*
G75*
G02*
X166547720Y-110662441I-836413J-928931D01*
G01*
X165235180Y-112120165D01*
G75*
G02*
X163469836Y-112212683I-928931J836413D01*
G01*
G37*
D14*
X152876250Y-116363750D03*
X146526250Y-118903750D03*
D16*
X149066250Y-113823750D03*
D18*
X146566250Y-109823750D03*
G36*
G01*
X151478777Y-110570686D02*
X151478777Y-110570686D01*
G75*
G02*
X150319018Y-109236535I87196J1246955D01*
G01*
X150359572Y-108656573D01*
G75*
G02*
X151693723Y-107496814I1246955J-87196D01*
G01*
X151693723Y-107496814D01*
G75*
G02*
X152853482Y-108830965I-87196J-1246955D01*
G01*
X152812928Y-109410927D01*
G75*
G02*
X151478777Y-110570686I-1246955J87196D01*
G01*
G37*
D15*
X154146250Y-113823750D03*
X143986250Y-113823750D03*
G36*
G01*
X144419836Y-112212683D02*
X144419836Y-112212683D01*
G75*
G02*
X144327318Y-110447339I836413J928931D01*
G01*
X145639858Y-108989615D01*
G75*
G02*
X147405202Y-108897097I928931J-836413D01*
G01*
X147405202Y-108897097D01*
G75*
G02*
X147497720Y-110662441I-836413J-928931D01*
G01*
X146185180Y-112120165D01*
G75*
G02*
X144419836Y-112212683I-928931J836413D01*
G01*
G37*
D14*
X114776250Y-116363750D03*
X108426250Y-118903750D03*
D16*
X110966250Y-113823750D03*
D18*
X108466250Y-109823750D03*
G36*
G01*
X113378777Y-110570686D02*
X113378777Y-110570686D01*
G75*
G02*
X112219018Y-109236535I87196J1246955D01*
G01*
X112259572Y-108656573D01*
G75*
G02*
X113593723Y-107496814I1246955J-87196D01*
G01*
X113593723Y-107496814D01*
G75*
G02*
X114753482Y-108830965I-87196J-1246955D01*
G01*
X114712928Y-109410927D01*
G75*
G02*
X113378777Y-110570686I-1246955J87196D01*
G01*
G37*
D15*
X116046250Y-113823750D03*
X105886250Y-113823750D03*
G36*
G01*
X106319836Y-112212683D02*
X106319836Y-112212683D01*
G75*
G02*
X106227318Y-110447339I836413J928931D01*
G01*
X107539858Y-108989615D01*
G75*
G02*
X109305202Y-108897097I928931J-836413D01*
G01*
X109305202Y-108897097D01*
G75*
G02*
X109397720Y-110662441I-836413J-928931D01*
G01*
X108085180Y-112120165D01*
G75*
G02*
X106319836Y-112212683I-928931J836413D01*
G01*
G37*
D14*
X95726250Y-116363750D03*
X89376250Y-118903750D03*
D16*
X91916250Y-113823750D03*
D18*
X89416250Y-109823750D03*
G36*
G01*
X94328777Y-110570686D02*
X94328777Y-110570686D01*
G75*
G02*
X93169018Y-109236535I87196J1246955D01*
G01*
X93209572Y-108656573D01*
G75*
G02*
X94543723Y-107496814I1246955J-87196D01*
G01*
X94543723Y-107496814D01*
G75*
G02*
X95703482Y-108830965I-87196J-1246955D01*
G01*
X95662928Y-109410927D01*
G75*
G02*
X94328777Y-110570686I-1246955J87196D01*
G01*
G37*
D15*
X96996250Y-113823750D03*
X86836250Y-113823750D03*
G36*
G01*
X87269836Y-112212683D02*
X87269836Y-112212683D01*
G75*
G02*
X87177318Y-110447339I836413J928931D01*
G01*
X88489858Y-108989615D01*
G75*
G02*
X90255202Y-108897097I928931J-836413D01*
G01*
X90255202Y-108897097D01*
G75*
G02*
X90347720Y-110662441I-836413J-928931D01*
G01*
X89035180Y-112120165D01*
G75*
G02*
X87269836Y-112212683I-928931J836413D01*
G01*
G37*
D14*
X238601250Y-97313750D03*
X232251250Y-99853750D03*
D16*
X234791250Y-94773750D03*
D18*
X232291250Y-90773750D03*
G36*
G01*
X237203777Y-91520686D02*
X237203777Y-91520686D01*
G75*
G02*
X236044018Y-90186535I87196J1246955D01*
G01*
X236084572Y-89606573D01*
G75*
G02*
X237418723Y-88446814I1246955J-87196D01*
G01*
X237418723Y-88446814D01*
G75*
G02*
X238578482Y-89780965I-87196J-1246955D01*
G01*
X238537928Y-90360927D01*
G75*
G02*
X237203777Y-91520686I-1246955J87196D01*
G01*
G37*
D15*
X239871250Y-94773750D03*
X229711250Y-94773750D03*
G36*
G01*
X230144836Y-93162683D02*
X230144836Y-93162683D01*
G75*
G02*
X230052318Y-91397339I836413J928931D01*
G01*
X231364858Y-89939615D01*
G75*
G02*
X233130202Y-89847097I928931J-836413D01*
G01*
X233130202Y-89847097D01*
G75*
G02*
X233222720Y-91612441I-836413J-928931D01*
G01*
X231910180Y-93070165D01*
G75*
G02*
X230144836Y-93162683I-928931J836413D01*
G01*
G37*
D14*
X219551250Y-97313750D03*
X213201250Y-99853750D03*
D16*
X215741250Y-94773750D03*
D18*
X213241250Y-90773750D03*
G36*
G01*
X218153777Y-91520686D02*
X218153777Y-91520686D01*
G75*
G02*
X216994018Y-90186535I87196J1246955D01*
G01*
X217034572Y-89606573D01*
G75*
G02*
X218368723Y-88446814I1246955J-87196D01*
G01*
X218368723Y-88446814D01*
G75*
G02*
X219528482Y-89780965I-87196J-1246955D01*
G01*
X219487928Y-90360927D01*
G75*
G02*
X218153777Y-91520686I-1246955J87196D01*
G01*
G37*
D15*
X220821250Y-94773750D03*
X210661250Y-94773750D03*
G36*
G01*
X211094836Y-93162683D02*
X211094836Y-93162683D01*
G75*
G02*
X211002318Y-91397339I836413J928931D01*
G01*
X212314858Y-89939615D01*
G75*
G02*
X214080202Y-89847097I928931J-836413D01*
G01*
X214080202Y-89847097D01*
G75*
G02*
X214172720Y-91612441I-836413J-928931D01*
G01*
X212860180Y-93070165D01*
G75*
G02*
X211094836Y-93162683I-928931J836413D01*
G01*
G37*
D14*
X200501250Y-97313750D03*
X194151250Y-99853750D03*
D16*
X196691250Y-94773750D03*
D18*
X194191250Y-90773750D03*
G36*
G01*
X199103777Y-91520686D02*
X199103777Y-91520686D01*
G75*
G02*
X197944018Y-90186535I87196J1246955D01*
G01*
X197984572Y-89606573D01*
G75*
G02*
X199318723Y-88446814I1246955J-87196D01*
G01*
X199318723Y-88446814D01*
G75*
G02*
X200478482Y-89780965I-87196J-1246955D01*
G01*
X200437928Y-90360927D01*
G75*
G02*
X199103777Y-91520686I-1246955J87196D01*
G01*
G37*
D15*
X201771250Y-94773750D03*
X191611250Y-94773750D03*
G36*
G01*
X192044836Y-93162683D02*
X192044836Y-93162683D01*
G75*
G02*
X191952318Y-91397339I836413J928931D01*
G01*
X193264858Y-89939615D01*
G75*
G02*
X195030202Y-89847097I928931J-836413D01*
G01*
X195030202Y-89847097D01*
G75*
G02*
X195122720Y-91612441I-836413J-928931D01*
G01*
X193810180Y-93070165D01*
G75*
G02*
X192044836Y-93162683I-928931J836413D01*
G01*
G37*
D14*
X181451250Y-97313750D03*
X175101250Y-99853750D03*
D16*
X177641250Y-94773750D03*
D18*
X175141250Y-90773750D03*
G36*
G01*
X180053777Y-91520686D02*
X180053777Y-91520686D01*
G75*
G02*
X178894018Y-90186535I87196J1246955D01*
G01*
X178934572Y-89606573D01*
G75*
G02*
X180268723Y-88446814I1246955J-87196D01*
G01*
X180268723Y-88446814D01*
G75*
G02*
X181428482Y-89780965I-87196J-1246955D01*
G01*
X181387928Y-90360927D01*
G75*
G02*
X180053777Y-91520686I-1246955J87196D01*
G01*
G37*
D15*
X182721250Y-94773750D03*
X172561250Y-94773750D03*
G36*
G01*
X172994836Y-93162683D02*
X172994836Y-93162683D01*
G75*
G02*
X172902318Y-91397339I836413J928931D01*
G01*
X174214858Y-89939615D01*
G75*
G02*
X175980202Y-89847097I928931J-836413D01*
G01*
X175980202Y-89847097D01*
G75*
G02*
X176072720Y-91612441I-836413J-928931D01*
G01*
X174760180Y-93070165D01*
G75*
G02*
X172994836Y-93162683I-928931J836413D01*
G01*
G37*
D14*
X162401250Y-97313750D03*
X156051250Y-99853750D03*
D16*
X158591250Y-94773750D03*
D18*
X156091250Y-90773750D03*
G36*
G01*
X161003777Y-91520686D02*
X161003777Y-91520686D01*
G75*
G02*
X159844018Y-90186535I87196J1246955D01*
G01*
X159884572Y-89606573D01*
G75*
G02*
X161218723Y-88446814I1246955J-87196D01*
G01*
X161218723Y-88446814D01*
G75*
G02*
X162378482Y-89780965I-87196J-1246955D01*
G01*
X162337928Y-90360927D01*
G75*
G02*
X161003777Y-91520686I-1246955J87196D01*
G01*
G37*
D15*
X163671250Y-94773750D03*
X153511250Y-94773750D03*
G36*
G01*
X153944836Y-93162683D02*
X153944836Y-93162683D01*
G75*
G02*
X153852318Y-91397339I836413J928931D01*
G01*
X155164858Y-89939615D01*
G75*
G02*
X156930202Y-89847097I928931J-836413D01*
G01*
X156930202Y-89847097D01*
G75*
G02*
X157022720Y-91612441I-836413J-928931D01*
G01*
X155710180Y-93070165D01*
G75*
G02*
X153944836Y-93162683I-928931J836413D01*
G01*
G37*
D14*
X143351250Y-97313750D03*
X137001250Y-99853750D03*
D16*
X139541250Y-94773750D03*
D18*
X137041250Y-90773750D03*
G36*
G01*
X141953777Y-91520686D02*
X141953777Y-91520686D01*
G75*
G02*
X140794018Y-90186535I87196J1246955D01*
G01*
X140834572Y-89606573D01*
G75*
G02*
X142168723Y-88446814I1246955J-87196D01*
G01*
X142168723Y-88446814D01*
G75*
G02*
X143328482Y-89780965I-87196J-1246955D01*
G01*
X143287928Y-90360927D01*
G75*
G02*
X141953777Y-91520686I-1246955J87196D01*
G01*
G37*
D15*
X144621250Y-94773750D03*
X134461250Y-94773750D03*
G36*
G01*
X134894836Y-93162683D02*
X134894836Y-93162683D01*
G75*
G02*
X134802318Y-91397339I836413J928931D01*
G01*
X136114858Y-89939615D01*
G75*
G02*
X137880202Y-89847097I928931J-836413D01*
G01*
X137880202Y-89847097D01*
G75*
G02*
X137972720Y-91612441I-836413J-928931D01*
G01*
X136660180Y-93070165D01*
G75*
G02*
X134894836Y-93162683I-928931J836413D01*
G01*
G37*
D14*
X124301250Y-97313750D03*
X117951250Y-99853750D03*
D16*
X120491250Y-94773750D03*
D18*
X117991250Y-90773750D03*
G36*
G01*
X122903777Y-91520686D02*
X122903777Y-91520686D01*
G75*
G02*
X121744018Y-90186535I87196J1246955D01*
G01*
X121784572Y-89606573D01*
G75*
G02*
X123118723Y-88446814I1246955J-87196D01*
G01*
X123118723Y-88446814D01*
G75*
G02*
X124278482Y-89780965I-87196J-1246955D01*
G01*
X124237928Y-90360927D01*
G75*
G02*
X122903777Y-91520686I-1246955J87196D01*
G01*
G37*
D15*
X125571250Y-94773750D03*
X115411250Y-94773750D03*
G36*
G01*
X115844836Y-93162683D02*
X115844836Y-93162683D01*
G75*
G02*
X115752318Y-91397339I836413J928931D01*
G01*
X117064858Y-89939615D01*
G75*
G02*
X118830202Y-89847097I928931J-836413D01*
G01*
X118830202Y-89847097D01*
G75*
G02*
X118922720Y-91612441I-836413J-928931D01*
G01*
X117610180Y-93070165D01*
G75*
G02*
X115844836Y-93162683I-928931J836413D01*
G01*
G37*
D14*
X105251250Y-97313750D03*
X98901250Y-99853750D03*
D16*
X101441250Y-94773750D03*
D18*
X98941250Y-90773750D03*
G36*
G01*
X103853777Y-91520686D02*
X103853777Y-91520686D01*
G75*
G02*
X102694018Y-90186535I87196J1246955D01*
G01*
X102734572Y-89606573D01*
G75*
G02*
X104068723Y-88446814I1246955J-87196D01*
G01*
X104068723Y-88446814D01*
G75*
G02*
X105228482Y-89780965I-87196J-1246955D01*
G01*
X105187928Y-90360927D01*
G75*
G02*
X103853777Y-91520686I-1246955J87196D01*
G01*
G37*
D15*
X106521250Y-94773750D03*
X96361250Y-94773750D03*
G36*
G01*
X96794836Y-93162683D02*
X96794836Y-93162683D01*
G75*
G02*
X96702318Y-91397339I836413J928931D01*
G01*
X98014858Y-89939615D01*
G75*
G02*
X99780202Y-89847097I928931J-836413D01*
G01*
X99780202Y-89847097D01*
G75*
G02*
X99872720Y-91612441I-836413J-928931D01*
G01*
X98560180Y-93070165D01*
G75*
G02*
X96794836Y-93162683I-928931J836413D01*
G01*
G37*
D14*
X86201250Y-97313750D03*
X79851250Y-99853750D03*
D16*
X82391250Y-94773750D03*
D18*
X79891250Y-90773750D03*
G36*
G01*
X84803777Y-91520686D02*
X84803777Y-91520686D01*
G75*
G02*
X83644018Y-90186535I87196J1246955D01*
G01*
X83684572Y-89606573D01*
G75*
G02*
X85018723Y-88446814I1246955J-87196D01*
G01*
X85018723Y-88446814D01*
G75*
G02*
X86178482Y-89780965I-87196J-1246955D01*
G01*
X86137928Y-90360927D01*
G75*
G02*
X84803777Y-91520686I-1246955J87196D01*
G01*
G37*
D15*
X87471250Y-94773750D03*
X77311250Y-94773750D03*
G36*
G01*
X77744836Y-93162683D02*
X77744836Y-93162683D01*
G75*
G02*
X77652318Y-91397339I836413J928931D01*
G01*
X78964858Y-89939615D01*
G75*
G02*
X80730202Y-89847097I928931J-836413D01*
G01*
X80730202Y-89847097D01*
G75*
G02*
X80822720Y-91612441I-836413J-928931D01*
G01*
X79510180Y-93070165D01*
G75*
G02*
X77744836Y-93162683I-928931J836413D01*
G01*
G37*
D14*
X67151250Y-97313750D03*
X60801250Y-99853750D03*
D16*
X63341250Y-94773750D03*
D18*
X60841250Y-90773750D03*
G36*
G01*
X65753777Y-91520686D02*
X65753777Y-91520686D01*
G75*
G02*
X64594018Y-90186535I87196J1246955D01*
G01*
X64634572Y-89606573D01*
G75*
G02*
X65968723Y-88446814I1246955J-87196D01*
G01*
X65968723Y-88446814D01*
G75*
G02*
X67128482Y-89780965I-87196J-1246955D01*
G01*
X67087928Y-90360927D01*
G75*
G02*
X65753777Y-91520686I-1246955J87196D01*
G01*
G37*
D15*
X68421250Y-94773750D03*
X58261250Y-94773750D03*
G36*
G01*
X58694836Y-93162683D02*
X58694836Y-93162683D01*
G75*
G02*
X58602318Y-91397339I836413J928931D01*
G01*
X59914858Y-89939615D01*
G75*
G02*
X61680202Y-89847097I928931J-836413D01*
G01*
X61680202Y-89847097D01*
G75*
G02*
X61772720Y-91612441I-836413J-928931D01*
G01*
X60460180Y-93070165D01*
G75*
G02*
X58694836Y-93162683I-928931J836413D01*
G01*
G37*
D14*
X133826250Y-116363750D03*
X127476250Y-118903750D03*
D16*
X130016250Y-113823750D03*
D18*
X127516250Y-109823750D03*
G36*
G01*
X132428777Y-110570686D02*
X132428777Y-110570686D01*
G75*
G02*
X131269018Y-109236535I87196J1246955D01*
G01*
X131309572Y-108656573D01*
G75*
G02*
X132643723Y-107496814I1246955J-87196D01*
G01*
X132643723Y-107496814D01*
G75*
G02*
X133803482Y-108830965I-87196J-1246955D01*
G01*
X133762928Y-109410927D01*
G75*
G02*
X132428777Y-110570686I-1246955J87196D01*
G01*
G37*
D15*
X135096250Y-113823750D03*
X124936250Y-113823750D03*
G36*
G01*
X125369836Y-112212683D02*
X125369836Y-112212683D01*
G75*
G02*
X125277318Y-110447339I836413J928931D01*
G01*
X126589858Y-108989615D01*
G75*
G02*
X128355202Y-108897097I928931J-836413D01*
G01*
X128355202Y-108897097D01*
G75*
G02*
X128447720Y-110662441I-836413J-928931D01*
G01*
X127135180Y-112120165D01*
G75*
G02*
X125369836Y-112212683I-928931J836413D01*
G01*
G37*
D14*
X257680884Y-173503620D03*
X251330884Y-176043620D03*
D16*
X253870884Y-170963620D03*
D18*
X251370884Y-166963620D03*
G36*
G01*
X256283411Y-167710556D02*
X256283411Y-167710556D01*
G75*
G02*
X255123652Y-166376405I87196J1246955D01*
G01*
X255164206Y-165796443D01*
G75*
G02*
X256498357Y-164636684I1246955J-87196D01*
G01*
X256498357Y-164636684D01*
G75*
G02*
X257658116Y-165970835I-87196J-1246955D01*
G01*
X257617562Y-166550797D01*
G75*
G02*
X256283411Y-167710556I-1246955J87196D01*
G01*
G37*
D15*
X258950884Y-170963620D03*
X248790884Y-170963620D03*
G36*
G01*
X249224470Y-169352553D02*
X249224470Y-169352553D01*
G75*
G02*
X249131952Y-167587209I836413J928931D01*
G01*
X250444492Y-166129485D01*
G75*
G02*
X252209836Y-166036967I928931J-836413D01*
G01*
X252209836Y-166036967D01*
G75*
G02*
X252302354Y-167802311I-836413J-928931D01*
G01*
X250989814Y-169260035D01*
G75*
G02*
X249224470Y-169352553I-928931J836413D01*
G01*
G37*
D14*
X276736206Y-173513750D03*
X270386206Y-176053750D03*
D16*
X272926206Y-170973750D03*
D18*
X270426206Y-166973750D03*
G36*
G01*
X275338733Y-167720686D02*
X275338733Y-167720686D01*
G75*
G02*
X274178974Y-166386535I87196J1246955D01*
G01*
X274219528Y-165806573D01*
G75*
G02*
X275553679Y-164646814I1246955J-87196D01*
G01*
X275553679Y-164646814D01*
G75*
G02*
X276713438Y-165980965I-87196J-1246955D01*
G01*
X276672884Y-166560927D01*
G75*
G02*
X275338733Y-167720686I-1246955J87196D01*
G01*
G37*
D15*
X278006206Y-170973750D03*
X267846206Y-170973750D03*
G36*
G01*
X268279792Y-169362683D02*
X268279792Y-169362683D01*
G75*
G02*
X268187274Y-167597339I836413J928931D01*
G01*
X269499814Y-166139615D01*
G75*
G02*
X271265158Y-166047097I928931J-836413D01*
G01*
X271265158Y-166047097D01*
G75*
G02*
X271357676Y-167812441I-836413J-928931D01*
G01*
X270045136Y-169270165D01*
G75*
G02*
X268279792Y-169362683I-928931J836413D01*
G01*
G37*
D16*
X303847250Y-151923750D03*
D15*
X298767250Y-151923750D03*
D14*
X301307250Y-157003750D03*
X307657250Y-154463750D03*
D15*
X308927250Y-151923750D03*
D17*
X332416250Y-87773750D03*
X308616250Y-87773750D03*
D16*
X332416250Y-103013750D03*
X308616250Y-103013750D03*
X320516250Y-94773750D03*
D15*
X325596250Y-94773750D03*
X315436250Y-94773750D03*
D14*
X317976250Y-99853750D03*
X324326250Y-97313750D03*
X322738250Y-118903750D03*
D15*
X330358250Y-113823750D03*
D16*
X325278250Y-113823750D03*
D14*
X329088250Y-116363750D03*
D15*
X320198250Y-113823750D03*
D17*
X330035250Y-125873750D03*
X306235250Y-125873750D03*
D16*
X306235250Y-141113750D03*
X330035250Y-141113750D03*
D18*
X315635250Y-128873750D03*
D15*
X313055250Y-132873750D03*
X323215250Y-132873750D03*
G36*
G01*
X320547777Y-129620686D02*
X320547777Y-129620686D01*
G75*
G02*
X319388018Y-128286535I87196J1246955D01*
G01*
X319428572Y-127706573D01*
G75*
G02*
X320762723Y-126546814I1246955J-87196D01*
G01*
X320762723Y-126546814D01*
G75*
G02*
X321922482Y-127880965I-87196J-1246955D01*
G01*
X321881928Y-128460927D01*
G75*
G02*
X320547777Y-129620686I-1246955J87196D01*
G01*
G37*
D14*
X321945250Y-135413750D03*
D16*
X318135250Y-132873750D03*
G36*
G01*
X313488836Y-131262683D02*
X313488836Y-131262683D01*
G75*
G02*
X313396318Y-129497339I836413J928931D01*
G01*
X314708858Y-128039615D01*
G75*
G02*
X316474202Y-127947097I928931J-836413D01*
G01*
X316474202Y-127947097D01*
G75*
G02*
X316566720Y-129712441I-836413J-928931D01*
G01*
X315254180Y-131170165D01*
G75*
G02*
X313488836Y-131262683I-928931J836413D01*
G01*
G37*
D14*
X315595250Y-137953750D03*
D19*
X299753430Y-76389182D03*
D20*
X348013430Y-61149182D03*
X302293430Y-76389182D03*
X345473430Y-61149182D03*
X304833430Y-76389182D03*
X342933430Y-61149182D03*
X307373430Y-76389182D03*
X340393430Y-61149182D03*
X309913430Y-76389182D03*
X337853430Y-61149182D03*
X312453430Y-76389182D03*
X335313430Y-61149182D03*
X314993430Y-76389182D03*
X332773430Y-61149182D03*
X317533430Y-76389182D03*
X330233430Y-61149182D03*
X320073430Y-76389182D03*
X327693430Y-61149182D03*
X322613430Y-76389182D03*
X325153430Y-61149182D03*
X325153430Y-76389182D03*
X322613430Y-61149182D03*
X327693430Y-76389182D03*
X320073430Y-61149182D03*
X330233430Y-76389182D03*
X317533430Y-61149182D03*
X332773430Y-76389182D03*
X314993430Y-61149182D03*
X335313430Y-76389182D03*
X312453430Y-61149182D03*
X337853430Y-76389182D03*
X309913430Y-61149182D03*
X340393430Y-76389182D03*
X307373430Y-61149182D03*
X342933430Y-76389182D03*
X304833430Y-61149182D03*
X345473430Y-76389182D03*
X302293430Y-61149182D03*
X348013430Y-76389182D03*
X299753430Y-61149182D03*
D21*
X325471062Y-78716416D03*
X320471062Y-78716416D03*
X330125530Y-58926178D03*
X325125530Y-58926178D03*
D22*
X284477676Y-70404866D03*
D23*
X284477676Y-68904866D03*
D21*
X327680238Y-79506040D03*
X327680238Y-82006040D03*
X341906112Y-79506040D03*
X341906112Y-82006040D03*
D24*
X290026316Y-78138982D03*
D25*
X295106316Y-78138982D03*
D24*
X290026316Y-75645517D03*
D25*
X295106316Y-75645517D03*
D24*
X290026316Y-73152052D03*
D25*
X295106316Y-73152052D03*
D24*
X295106316Y-70580211D03*
D25*
X290026316Y-70580211D03*
D24*
X295106316Y-68060499D03*
D25*
X290026316Y-68060499D03*
D24*
X295106316Y-65567034D03*
D25*
X290026316Y-65567034D03*
D24*
X290026316Y-63073204D03*
D25*
X295106316Y-63073204D03*
D26*
X206213345Y-61694750D03*
X206213345Y-80444750D03*
D27*
X255293830Y-60350870D03*
D28*
X255293830Y-62890870D03*
X252753830Y-60350870D03*
X252753830Y-62890870D03*
X250213830Y-60350870D03*
X250213830Y-62890870D03*
D29*
X337251644Y-80256240D03*
X332371644Y-80256240D03*
D30*
X286667716Y-61970830D03*
D31*
X284127716Y-61970830D03*
D32*
X278823468Y-66391022D03*
X280523468Y-66391022D03*
X279673468Y-66391022D03*
X277973468Y-66391022D03*
X277123468Y-66391022D03*
X276273468Y-66391022D03*
X275423468Y-66391022D03*
X274573468Y-66391022D03*
X280523468Y-65066022D03*
X279668468Y-65066022D03*
X278818468Y-65066022D03*
X277968468Y-65066022D03*
X277118468Y-65066022D03*
X276268468Y-65066022D03*
X275418468Y-65066022D03*
X274568468Y-65066022D03*
D33*
X281873468Y-65411022D03*
X273223468Y-65411022D03*
D34*
X281873468Y-62031022D03*
X273223468Y-62031022D03*
D25*
X270047614Y-59350838D03*
X270047614Y-64450838D03*
D35*
X244985732Y-59836074D03*
X244985732Y-64336074D03*
X238485732Y-59836074D03*
X238485732Y-64336074D03*
X232985732Y-59836074D03*
X232985732Y-64336074D03*
X226485732Y-59836074D03*
X226485732Y-64336074D03*
D20*
X63600284Y-72555612D03*
D19*
X63600284Y-67475612D03*
D20*
X73108673Y-77516199D03*
D19*
X73108673Y-72436199D03*
D20*
X85786525Y-77516199D03*
D19*
X85786525Y-72436199D03*
D20*
X88955988Y-72555612D03*
D19*
X88955988Y-67475612D03*
D20*
X101633840Y-72555612D03*
D19*
X101633840Y-67475612D03*
D20*
X114311692Y-72555612D03*
D19*
X114311692Y-67475612D03*
D20*
X126989544Y-72555612D03*
D19*
X126989544Y-67475612D03*
D20*
X139667396Y-72555612D03*
D19*
X139667396Y-67475612D03*
D20*
X152345248Y-72555612D03*
D19*
X152345248Y-67475612D03*
D20*
X165023100Y-72555612D03*
D19*
X165023100Y-67475612D03*
D20*
X177700952Y-72555612D03*
D19*
X177700952Y-67475612D03*
D20*
X190378804Y-72555612D03*
D19*
X190378804Y-67475612D03*
D20*
X203056656Y-72555612D03*
D19*
X203056656Y-67475612D03*
D20*
X215734508Y-72555612D03*
D19*
X215734508Y-67475612D03*
D20*
X228342376Y-72555612D03*
D19*
X228342376Y-67475612D03*
D20*
X275541929Y-77516199D03*
D19*
X275541929Y-72436199D03*
D20*
X66769747Y-74209141D03*
D19*
X66769747Y-69129141D03*
D20*
X82617062Y-75862670D03*
D19*
X82617062Y-70782670D03*
D20*
X92125451Y-74209141D03*
D19*
X92125451Y-69129141D03*
D20*
X104803303Y-74209141D03*
D19*
X104803303Y-69129141D03*
D20*
X117481155Y-74209141D03*
D19*
X117481155Y-69129141D03*
D20*
X130159007Y-74209141D03*
D19*
X130159007Y-69129141D03*
D20*
X142836859Y-74209141D03*
D19*
X142836859Y-69129141D03*
D20*
X155514711Y-74209141D03*
D19*
X155514711Y-69129141D03*
D20*
X168192563Y-74209141D03*
D19*
X168192563Y-69129141D03*
D20*
X180870415Y-74209141D03*
D19*
X180870415Y-69129141D03*
D20*
X193548267Y-74209141D03*
D19*
X193548267Y-69129141D03*
D20*
X206226119Y-74209141D03*
D19*
X206226119Y-69129141D03*
D20*
X218886475Y-74209141D03*
D19*
X218886475Y-69129141D03*
D20*
X231493149Y-74209141D03*
D19*
X231493149Y-69129141D03*
D20*
X272453205Y-75862670D03*
D19*
X272453205Y-70782670D03*
D20*
X69939210Y-75862670D03*
D19*
X69939210Y-70782670D03*
D20*
X79447599Y-74209141D03*
D19*
X79447599Y-69129141D03*
D20*
X95294914Y-75862670D03*
D19*
X95294914Y-70782670D03*
D20*
X107972766Y-75862670D03*
D19*
X107972766Y-70782670D03*
D20*
X120650618Y-75862670D03*
D19*
X120650618Y-70782670D03*
D20*
X133328470Y-75862670D03*
D19*
X133328470Y-70782670D03*
D20*
X146006322Y-75862670D03*
D19*
X146006322Y-70782670D03*
D20*
X158684174Y-75862670D03*
D19*
X158684174Y-70782670D03*
D20*
X171362026Y-75862670D03*
D19*
X171362026Y-70782670D03*
D20*
X184039878Y-75862670D03*
D19*
X184039878Y-70782670D03*
D20*
X196717730Y-75862670D03*
D19*
X196717730Y-70782670D03*
D20*
X209395582Y-75862670D03*
D19*
X209395582Y-70782670D03*
D20*
X234643922Y-75862670D03*
D19*
X234643922Y-70782670D03*
D20*
X269364481Y-74209141D03*
D19*
X269364481Y-69129141D03*
D20*
X98464377Y-77516199D03*
D19*
X98464377Y-72436199D03*
D20*
X111142229Y-77516199D03*
D19*
X111142229Y-72436199D03*
D20*
X123820081Y-77516199D03*
D19*
X123820081Y-72436199D03*
D20*
X136497933Y-77516199D03*
D19*
X136497933Y-72436199D03*
D20*
X149175785Y-77516199D03*
D19*
X149175785Y-72436199D03*
D20*
X161853637Y-77516199D03*
D19*
X161853637Y-72436199D03*
D20*
X174531489Y-77516199D03*
D19*
X174531489Y-72436199D03*
D20*
X187209341Y-77516199D03*
D19*
X187209341Y-72436199D03*
D20*
X199887193Y-77516199D03*
D19*
X199887193Y-72436199D03*
D20*
X212565045Y-77516199D03*
D19*
X212565045Y-72436199D03*
D20*
X222038442Y-75862670D03*
D19*
X222038442Y-70782670D03*
D20*
X237794695Y-77516199D03*
D19*
X237794695Y-72436199D03*
D20*
X266089606Y-72555612D03*
D19*
X266089606Y-67475612D03*
D20*
X259788058Y-75862670D03*
D19*
X259788058Y-70782670D03*
D20*
X76278136Y-72555612D03*
D19*
X76278136Y-67475612D03*
D20*
X256637284Y-74209141D03*
D19*
X256637284Y-69129141D03*
D20*
X253486511Y-72555612D03*
D19*
X253486511Y-67475612D03*
D20*
X250335738Y-77516199D03*
D19*
X250335738Y-72436199D03*
D20*
X225190409Y-77516199D03*
D19*
X225190409Y-72436199D03*
D20*
X244096241Y-74209141D03*
D19*
X244096241Y-69129141D03*
D20*
X240945468Y-72555612D03*
D19*
X240945468Y-67475612D03*
D20*
X262938832Y-77516199D03*
D19*
X262938832Y-72436199D03*
D20*
X247184965Y-75862670D03*
D19*
X247184965Y-70782670D03*
D20*
X286174982Y-78242196D03*
D19*
X286174982Y-73162196D03*
D20*
X283305310Y-78242196D03*
D19*
X283305310Y-73162196D03*
D36*
X134811423Y-177966640D03*
X234811223Y-177966640D03*
D37*
X134811423Y-162726640D03*
X234811223Y-162726640D03*
D26*
X206213345Y-166958110D03*
X206213345Y-104302994D03*
X298671968Y-104302994D03*
X113754723Y-104302994D03*
X315860803Y-161146960D03*
X96565888Y-161146960D03*
X354660309Y-80444750D03*
X354660309Y-61694750D03*
X57766382Y-61694750D03*
X57766382Y-80444750D03*
M02*
